M48
;Layer_Color=9474304
;FILE_FORMAT=4:4
METRIC,LZ
;TYPE=PLATED
T1F00S00C0.2000
T2F00S00C1.0000
;TYPE=NON_PLATED
T3F00S00C3.2000
%
T01
X001686Y001476
X001686Y001654
X001686Y00183
Y002008
X00188Y002008
Y00183
X0019847Y001868
X0020141Y0019178
X0020211Y0018177
X0019877Y0017675
X0020211Y0017177
X0019877Y0016675
X0020211Y0016177
X00188Y001654
X00188Y001476
X0020956Y0014475
X0021578Y0014477
X0022093Y0014801
X0024093
X0024595Y0014467
X0025093Y0014801
X0025595Y0014467
X0026093Y0014801
X0026843Y0014729
X0027974Y0015428
X0028061Y0016113
X0028506Y0015757
X0028609Y0018167
X0027969Y0018556
X00279669Y0019931
X0028326Y0020409
X0028623Y0019327
X0026617Y0018648
X0025087Y0019094
X002459Y0018753
X002403Y001867
X002409Y00192829
X0024211Y0020553
X0025088Y0020584
X0025156Y0021575
X002529Y0022281
X002472Y0022671
X00248935Y00232375
X0026097Y0024061
X002609Y002478
X002574Y002648
X0025693Y0027226
X0026483Y0027205
X002654Y002648
X0026505Y00280159
X0025743Y0028027
X0024877Y00279899
X002414Y002808
Y002888
X002404Y002958
X002479Y002978
X0024934Y0028985
X0025761Y00289851
X0026578Y00289741
X002644Y002968
X002731Y00296
X002734Y002888
Y002808
X002884
Y002888
X002964
X0029592Y00281371
X0030419Y00281751
X003044Y002888
Y002968
Y003048
X002964
Y002968
X002884Y003048
X002884Y003198
X002964
X003044
Y003278
Y003358
X003124
X003204
Y003278
Y003438
X003284
X003374Y003563
X003472Y00362
X003491Y0034505
X003592Y0034515
X003705Y003571
X003826Y00365
X004054Y003651
X004164Y003577
X004279Y003593
X00438Y003594
X004381Y003792
X004483Y003701
X004312Y003946
X004311Y004004
X004407Y004098
X004305Y004307
X004098Y004174
X004036Y004174
X003699Y004174
X003639Y004175
X003395
X003334
X003306Y004109
X003194Y004199
X003275Y003835
X003169Y003688
X003124Y003518
X002964Y003598
X002809Y003527
X002734Y003438
Y003358
Y003278
Y003198
X002654Y003198
Y003278
Y003358
Y003438
Y003518
X002574
X002494
Y003598
X002574
Y003678
X002658Y003731
X00265Y003793
X002649Y003987
X002586Y004008
X00272Y004007
X002709Y004309
X002605
X002097Y004206
Y003869
X002084Y003518
X002083Y003438
X002164Y003323
X002254Y003358
Y003278
Y003198
X002334
Y003278
Y003358
Y003438
Y003518
X002254
X002414
Y003438
X002494
X002574
Y003358
X002494
Y003278
X002574
Y003198
X002494
X002414
Y003118
X002324
X002566
X00265Y003119
X002733Y003118
X002884Y003278
X002964
X002884Y003438
X002769Y003688
X002369
X002414Y003358
Y003278
X002329Y002881
X002334Y002808
Y002728
Y002648
X002254
Y002568
X002334
X002414
Y002648
Y002728
X002494Y002648
X002244Y002488
X002057Y0023538
X0020689Y0022217
X0020808Y002141
X0020834Y0020583
X0021762Y0021306
X00225325Y0021191
X0023639Y0021175
X0023089Y0020597
X0022985Y0018844
X002224Y0019183
X0022045Y001827
X0022598Y0017985
X0022726Y0017423
X0021956Y001742
X0021494Y0018666
X0023053Y0016146
X0023529Y0016582
X0024088Y0016695
X0026086Y0016335
X0026084Y0021169
X002673Y0021919
X0027916Y0021382
X0028724Y0022017
X0029639Y002202
X002808Y002339
X002884Y002568
Y002728
X0029673Y00271829
X0030483Y0027156
X003124Y002648
X003204
X003214Y002568
X003134
X003009Y002478
X003124Y002808
X003204
X003374Y002763
X003458Y002915
X003517
X003613Y002843
X003678Y002908
X0037045Y0026995
X0036455
X0036445Y0026395
X003704Y0026385
X003707Y002503
X003649
X003592Y002502
X003767Y002504
X0038515Y0027105
X00391Y002746
X003968Y00271
X0040285Y0027505
X0043145Y0027085
X004414Y002718
X004476
Y002657
Y002594
X0044065Y002467
X004447Y0024065
X004411Y0023485
X0044465Y00229
X004463Y002006
Y001945
Y001882
X004401Y002006
X0043015Y0019995
X0042355Y0019285
X0043935Y001755
X004434Y0016945
X004398Y0016365
X0044335Y001578
X004698Y001527
X003859Y001465
X003858Y001302
X003632
X0036325Y0014655
X003636Y001791
X003579Y00179
X003694Y001791
X003754Y001792
X003643Y002018
X003644Y002181
X0038695Y0021815
X003869Y002018
X0042485Y0026405
X0045305Y0028195
X003698Y003163
X003626
X003562
X003494
X003374Y003163
X003214Y003038
X003124Y003048
Y002968
X002254Y002888
X002174
X002157Y0029648
X001984Y002893
X001956Y002803
X001876Y00279599
X001747Y0027995
Y0028565
X001692Y002294
X00183Y002152
X0023659Y0022404
X001684Y00354
X001699Y003683
X001677Y003751
X001767Y004091
X001721Y004264
X003789Y004071
X003809Y00391
X0047Y003913
X004734Y00425
X0014625Y0040155
X0012275
Y0037105
X0014625
X001583Y003517
X001306Y003197
X000942Y003039
X000943Y002746
X000789
X000789Y002894
X0006854Y0024706
X001116Y002469
X001217Y002567
X0012185Y0026245
X0012945Y0022545
X001352Y002253
X001383Y002323
X001426Y002191
X001459Y002138
X001534Y00214
X0010181Y0021441
X001016Y002046
X001011Y001918
X000986Y001778
X000999Y001593
X000991Y001328
X001256Y001319
Y001447
X001257Y001573
X000494
Y001446
Y001319
X000493Y0017
X000494Y001827
Y002081
X000493Y0022079
X0009933Y0038193
X000989Y0040855
X000723Y004237
X000723Y004441
X000658Y004442
X001023Y004454
X0010845Y0044305
X0011475Y0044305
X001428Y004509
X001514Y004511
X001543Y004573
X001465Y00457
X001429Y004632
X001511Y004633
X0010235Y0046965
X000956Y0048
X000742Y004916
X000652Y004918
X0010625Y0050325
X001056Y005132
Y005194
X001117
X00118
X001307Y0051245
X0013675Y005165
X0014255Y005129
X001484Y0051645
X0014555Y0052995
X0013905Y0052995
X0013255Y0053005
X0015205Y0053005
X001113Y005326
X0011335Y0049665
X001288Y00568
X001572Y006035
X00095Y006697
X0017877Y0065859
X0020077
Y0067533
X0024355Y0066375
X0027Y00661
X002703Y006753
X002778Y00648199
X002777Y00637299
X002874Y006209
X003034Y006121
X003101Y00612
X003137Y006273
X003075Y006311
X002899Y0059595
Y0059025
X00274Y00587
X002695Y005686
X0026415Y0055975
X002643Y005539
X002923Y005568
X002941Y00548
X00286Y00564
X002761Y005329
X002763Y005056
X002795Y00485
X002692Y004732
X002595Y004652
X0025Y004603
X002504Y004529
X002495Y004779
X002546Y004827
X002444Y004874
X002284Y004815
X002117Y004804
X002112Y004484
X001728Y004509
X001763Y004858
X00176Y00523
X002117Y005139
X002292Y005117
X002289Y005268
X002478Y005333
X00262Y005192
X002485Y005056
X002934Y005167
X002995Y005171
X003052Y0051714
X003076Y005017
Y004958
X002973Y004972
X003062Y004726
X003121
X003154Y004438
X003468Y0045647
X003857Y0045665
X003664Y004763
X0034755Y0049545
X003857Y0049573
X004206Y005004
X004255Y004949
Y004888
Y004827
X004407Y004871
X004428Y004954
X004362Y004996
X004433Y005188
X004598Y005241
X004601Y005032
X004606Y004815
X004718Y004833
X004719Y004722
X004601Y004559
X004527Y004428
X004594Y004356
X004468Y00465
X004354Y004649
X004253Y004569
X004174Y004388
Y005088
X004207Y005138
X004039Y005306
X003989Y005273
X003939Y005345
X003867Y005352
X003807
X003676Y005415
X003639Y005273
X003401Y005353
X003339
X003278Y005374
X00336Y005417
X003211Y005302
X003497Y005908
X003757Y00588
X003864Y005878
X003811Y00581
X003864Y005741
X003757
X004026Y00596
X004204Y006095
X004261Y006051
X004308Y006096
X004424Y006076
X004483Y006028
X004484Y006135
X004477Y006219
X004414Y006186
X004568Y00616
X0046435Y0062645
X004594Y006314
X004901Y006266
X004975
X005052
X005018Y006206
X00495
X00517Y006374
X005171Y006483
X005242Y00661
X005245Y006753
X004203
X0042Y00661
X004278Y00648199
X004277Y00637299
X00367Y006374
X003671Y006483
X003742Y00661
X003745Y006753
X003567Y006268
X004233Y005713
X004355Y00569
X004396Y005611
X00431Y005612
X004306Y005517
X004201Y005519
X004243Y005462
X004156Y005464
X004094Y005521
X004431Y00544
X004621Y005466
X004747Y005595
X004501Y005643
X004322Y005801
X004686Y005872
X004857Y005819
X005036Y005902
X002408Y005828
X002275Y005876
X00224Y006033
X002329Y006076
X002149Y005988
X001992Y005891
X001962Y006124
X001872Y006123
X00174Y006317
X001669Y00595
X002329Y006361
T02
X001778Y000249
X002032
X002286
X00254
Y000503
X002286
X002032
X001778
X00508Y000508
Y000762
Y001016
Y00127
Y001524
Y001778
Y002032
Y002286
X005085Y0026915
Y0029455
Y0031995
Y0034535
Y0037075
Y0039615
Y0042155
X000254Y004064
Y00381
Y003556
Y003302
Y003048
Y002794
Y00254
Y002286
Y001778
Y001524
Y00127
Y001016
Y000762
Y000508
X005085Y0044695
Y0047235
Y0049775
X003972Y006403
Y006657
T03
X000762Y000254
X003556
X000254Y005461
X00508Y005334
M30
