%FSLAX44Y44*%
%MOMM*%
G71*
G01*
G75*
G04 Layer_Physical_Order=6*
G04 Layer_Color=16776960*
%ADD10C,0.1500*%
G04:AMPARAMS|DCode=11|XSize=1.82mm|YSize=1.07mm|CornerRadius=0.107mm|HoleSize=0mm|Usage=FLASHONLY|Rotation=180.000|XOffset=0mm|YOffset=0mm|HoleType=Round|Shape=RoundedRectangle|*
%AMROUNDEDRECTD11*
21,1,1.8200,0.8560,0,0,180.0*
21,1,1.6060,1.0700,0,0,180.0*
1,1,0.2140,-0.8030,0.4280*
1,1,0.2140,0.8030,0.4280*
1,1,0.2140,0.8030,-0.4280*
1,1,0.2140,-0.8030,-0.4280*
%
%ADD11ROUNDEDRECTD11*%
G04:AMPARAMS|DCode=12|XSize=0.8mm|YSize=0.8mm|CornerRadius=0.08mm|HoleSize=0mm|Usage=FLASHONLY|Rotation=0.000|XOffset=0mm|YOffset=0mm|HoleType=Round|Shape=RoundedRectangle|*
%AMROUNDEDRECTD12*
21,1,0.8000,0.6400,0,0,0.0*
21,1,0.6400,0.8000,0,0,0.0*
1,1,0.1600,0.3200,-0.3200*
1,1,0.1600,-0.3200,-0.3200*
1,1,0.1600,-0.3200,0.3200*
1,1,0.1600,0.3200,0.3200*
%
%ADD12ROUNDEDRECTD12*%
G04:AMPARAMS|DCode=13|XSize=2mm|YSize=1.1mm|CornerRadius=0.11mm|HoleSize=0mm|Usage=FLASHONLY|Rotation=0.000|XOffset=0mm|YOffset=0mm|HoleType=Round|Shape=RoundedRectangle|*
%AMROUNDEDRECTD13*
21,1,2.0000,0.8800,0,0,0.0*
21,1,1.7800,1.1000,0,0,0.0*
1,1,0.2200,0.8900,-0.4400*
1,1,0.2200,-0.8900,-0.4400*
1,1,0.2200,-0.8900,0.4400*
1,1,0.2200,0.8900,0.4400*
%
%ADD13ROUNDEDRECTD13*%
G04:AMPARAMS|DCode=14|XSize=0.6mm|YSize=0.5mm|CornerRadius=0.05mm|HoleSize=0mm|Usage=FLASHONLY|Rotation=180.000|XOffset=0mm|YOffset=0mm|HoleType=Round|Shape=RoundedRectangle|*
%AMROUNDEDRECTD14*
21,1,0.6000,0.4000,0,0,180.0*
21,1,0.5000,0.5000,0,0,180.0*
1,1,0.1000,-0.2500,0.2000*
1,1,0.1000,0.2500,0.2000*
1,1,0.1000,0.2500,-0.2000*
1,1,0.1000,-0.2500,-0.2000*
%
%ADD14ROUNDEDRECTD14*%
G04:AMPARAMS|DCode=15|XSize=0.4mm|YSize=0.37mm|CornerRadius=0.037mm|HoleSize=0mm|Usage=FLASHONLY|Rotation=180.000|XOffset=0mm|YOffset=0mm|HoleType=Round|Shape=RoundedRectangle|*
%AMROUNDEDRECTD15*
21,1,0.4000,0.2960,0,0,180.0*
21,1,0.3260,0.3700,0,0,180.0*
1,1,0.0740,-0.1630,0.1480*
1,1,0.0740,0.1630,0.1480*
1,1,0.0740,0.1630,-0.1480*
1,1,0.0740,-0.1630,-0.1480*
%
%ADD15ROUNDEDRECTD15*%
G04:AMPARAMS|DCode=16|XSize=0.4mm|YSize=0.37mm|CornerRadius=0.037mm|HoleSize=0mm|Usage=FLASHONLY|Rotation=90.000|XOffset=0mm|YOffset=0mm|HoleType=Round|Shape=RoundedRectangle|*
%AMROUNDEDRECTD16*
21,1,0.4000,0.2960,0,0,90.0*
21,1,0.3260,0.3700,0,0,90.0*
1,1,0.0740,0.1480,0.1630*
1,1,0.0740,0.1480,-0.1630*
1,1,0.0740,-0.1480,-0.1630*
1,1,0.0740,-0.1480,0.1630*
%
%ADD16ROUNDEDRECTD16*%
G04:AMPARAMS|DCode=17|XSize=1.38mm|YSize=1.05mm|CornerRadius=0.105mm|HoleSize=0mm|Usage=FLASHONLY|Rotation=180.000|XOffset=0mm|YOffset=0mm|HoleType=Round|Shape=RoundedRectangle|*
%AMROUNDEDRECTD17*
21,1,1.3800,0.8400,0,0,180.0*
21,1,1.1700,1.0500,0,0,180.0*
1,1,0.2100,-0.5850,0.4200*
1,1,0.2100,0.5850,0.4200*
1,1,0.2100,0.5850,-0.4200*
1,1,0.2100,-0.5850,-0.4200*
%
%ADD17ROUNDEDRECTD17*%
%ADD18O,1.4000X0.6000*%
G04:AMPARAMS|DCode=19|XSize=1mm|YSize=1mm|CornerRadius=0.25mm|HoleSize=0mm|Usage=FLASHONLY|Rotation=180.000|XOffset=0mm|YOffset=0mm|HoleType=Round|Shape=RoundedRectangle|*
%AMROUNDEDRECTD19*
21,1,1.0000,0.5000,0,0,180.0*
21,1,0.5000,1.0000,0,0,180.0*
1,1,0.5000,-0.2500,0.2500*
1,1,0.5000,0.2500,0.2500*
1,1,0.5000,0.2500,-0.2500*
1,1,0.5000,-0.2500,-0.2500*
%
%ADD19ROUNDEDRECTD19*%
G04:AMPARAMS|DCode=20|XSize=1mm|YSize=1.4mm|CornerRadius=0.25mm|HoleSize=0mm|Usage=FLASHONLY|Rotation=180.000|XOffset=0mm|YOffset=0mm|HoleType=Round|Shape=RoundedRectangle|*
%AMROUNDEDRECTD20*
21,1,1.0000,0.9000,0,0,180.0*
21,1,0.5000,1.4000,0,0,180.0*
1,1,0.5000,-0.2500,0.4500*
1,1,0.5000,0.2500,0.4500*
1,1,0.5000,0.2500,-0.4500*
1,1,0.5000,-0.2500,-0.4500*
%
%ADD20ROUNDEDRECTD20*%
%ADD21O,0.8200X0.2700*%
%ADD22O,0.2700X0.8200*%
%ADD23R,4.4500X4.4500*%
%ADD24R,0.7400X0.5400*%
G04:AMPARAMS|DCode=25|XSize=0.93mm|YSize=0.89mm|CornerRadius=0.089mm|HoleSize=0mm|Usage=FLASHONLY|Rotation=180.000|XOffset=0mm|YOffset=0mm|HoleType=Round|Shape=RoundedRectangle|*
%AMROUNDEDRECTD25*
21,1,0.9300,0.7120,0,0,180.0*
21,1,0.7520,0.8900,0,0,180.0*
1,1,0.1780,-0.3760,0.3560*
1,1,0.1780,0.3760,0.3560*
1,1,0.1780,0.3760,-0.3560*
1,1,0.1780,-0.3760,-0.3560*
%
%ADD25ROUNDEDRECTD25*%
G04:AMPARAMS|DCode=26|XSize=1.9mm|YSize=1.35mm|CornerRadius=0.135mm|HoleSize=0mm|Usage=FLASHONLY|Rotation=180.000|XOffset=0mm|YOffset=0mm|HoleType=Round|Shape=RoundedRectangle|*
%AMROUNDEDRECTD26*
21,1,1.9000,1.0800,0,0,180.0*
21,1,1.6300,1.3500,0,0,180.0*
1,1,0.2700,-0.8150,0.5400*
1,1,0.2700,0.8150,0.5400*
1,1,0.2700,0.8150,-0.5400*
1,1,0.2700,-0.8150,-0.5400*
%
%ADD26ROUNDEDRECTD26*%
G04:AMPARAMS|DCode=27|XSize=1.2mm|YSize=1mm|CornerRadius=0.1mm|HoleSize=0mm|Usage=FLASHONLY|Rotation=180.000|XOffset=0mm|YOffset=0mm|HoleType=Round|Shape=RoundedRectangle|*
%AMROUNDEDRECTD27*
21,1,1.2000,0.8000,0,0,180.0*
21,1,1.0000,1.0000,0,0,180.0*
1,1,0.2000,-0.5000,0.4000*
1,1,0.2000,0.5000,0.4000*
1,1,0.2000,0.5000,-0.4000*
1,1,0.2000,-0.5000,-0.4000*
%
%ADD27ROUNDEDRECTD27*%
G04:AMPARAMS|DCode=28|XSize=0.75mm|YSize=1.1mm|CornerRadius=0.075mm|HoleSize=0mm|Usage=FLASHONLY|Rotation=180.000|XOffset=0mm|YOffset=0mm|HoleType=Round|Shape=RoundedRectangle|*
%AMROUNDEDRECTD28*
21,1,0.7500,0.9500,0,0,180.0*
21,1,0.6000,1.1000,0,0,180.0*
1,1,0.1500,-0.3000,0.4750*
1,1,0.1500,0.3000,0.4750*
1,1,0.1500,0.3000,-0.4750*
1,1,0.1500,-0.3000,-0.4750*
%
%ADD28ROUNDEDRECTD28*%
G04:AMPARAMS|DCode=29|XSize=1.8mm|YSize=1.17mm|CornerRadius=0.117mm|HoleSize=0mm|Usage=FLASHONLY|Rotation=90.000|XOffset=0mm|YOffset=0mm|HoleType=Round|Shape=RoundedRectangle|*
%AMROUNDEDRECTD29*
21,1,1.8000,0.9360,0,0,90.0*
21,1,1.5660,1.1700,0,0,90.0*
1,1,0.2340,0.4680,0.7830*
1,1,0.2340,0.4680,-0.7830*
1,1,0.2340,-0.4680,-0.7830*
1,1,0.2340,-0.4680,0.7830*
%
%ADD29ROUNDEDRECTD29*%
G04:AMPARAMS|DCode=30|XSize=1.55mm|YSize=1.35mm|CornerRadius=0.135mm|HoleSize=0mm|Usage=FLASHONLY|Rotation=180.000|XOffset=0mm|YOffset=0mm|HoleType=Round|Shape=RoundedRectangle|*
%AMROUNDEDRECTD30*
21,1,1.5500,1.0800,0,0,180.0*
21,1,1.2800,1.3500,0,0,180.0*
1,1,0.2700,-0.6400,0.5400*
1,1,0.2700,0.6400,0.5400*
1,1,0.2700,0.6400,-0.5400*
1,1,0.2700,-0.6400,-0.5400*
%
%ADD30ROUNDEDRECTD30*%
%ADD31C,0.3500*%
G04:AMPARAMS|DCode=32|XSize=0.6mm|YSize=0.5mm|CornerRadius=0.05mm|HoleSize=0mm|Usage=FLASHONLY|Rotation=90.000|XOffset=0mm|YOffset=0mm|HoleType=Round|Shape=RoundedRectangle|*
%AMROUNDEDRECTD32*
21,1,0.6000,0.4000,0,0,90.0*
21,1,0.5000,0.5000,0,0,90.0*
1,1,0.1000,0.2000,0.2500*
1,1,0.1000,0.2000,-0.2500*
1,1,0.1000,-0.2000,-0.2500*
1,1,0.1000,-0.2000,0.2500*
%
%ADD32ROUNDEDRECTD32*%
G04:AMPARAMS|DCode=33|XSize=0.41mm|YSize=0.37mm|CornerRadius=0.037mm|HoleSize=0mm|Usage=FLASHONLY|Rotation=180.000|XOffset=0mm|YOffset=0mm|HoleType=Round|Shape=RoundedRectangle|*
%AMROUNDEDRECTD33*
21,1,0.4100,0.2960,0,0,180.0*
21,1,0.3360,0.3700,0,0,180.0*
1,1,0.0740,-0.1680,0.1480*
1,1,0.0740,0.1680,0.1480*
1,1,0.0740,0.1680,-0.1480*
1,1,0.0740,-0.1680,-0.1480*
%
%ADD33ROUNDEDRECTD33*%
G04:AMPARAMS|DCode=34|XSize=0.3mm|YSize=0.6mm|CornerRadius=0.0495mm|HoleSize=0mm|Usage=FLASHONLY|Rotation=90.000|XOffset=0mm|YOffset=0mm|HoleType=Round|Shape=RoundedRectangle|*
%AMROUNDEDRECTD34*
21,1,0.3000,0.5010,0,0,90.0*
21,1,0.2010,0.6000,0,0,90.0*
1,1,0.0990,0.2505,0.1005*
1,1,0.0990,0.2505,-0.1005*
1,1,0.0990,-0.2505,-0.1005*
1,1,0.0990,-0.2505,0.1005*
%
%ADD34ROUNDEDRECTD34*%
G04:AMPARAMS|DCode=35|XSize=0.3mm|YSize=0.6mm|CornerRadius=0.0495mm|HoleSize=0mm|Usage=FLASHONLY|Rotation=0.000|XOffset=0mm|YOffset=0mm|HoleType=Round|Shape=RoundedRectangle|*
%AMROUNDEDRECTD35*
21,1,0.3000,0.5010,0,0,0.0*
21,1,0.2010,0.6000,0,0,0.0*
1,1,0.0990,0.1005,-0.2505*
1,1,0.0990,-0.1005,-0.2505*
1,1,0.0990,-0.1005,0.2505*
1,1,0.0990,0.1005,0.2505*
%
%ADD35ROUNDEDRECTD35*%
%ADD36R,0.9000X2.2500*%
%ADD37R,2.2500X0.9000*%
%ADD38R,1.5500X1.8500*%
%ADD39O,1.4500X0.4500*%
G04:AMPARAMS|DCode=40|XSize=1mm|YSize=1.4mm|CornerRadius=0.25mm|HoleSize=0mm|Usage=FLASHONLY|Rotation=90.000|XOffset=0mm|YOffset=0mm|HoleType=Round|Shape=RoundedRectangle|*
%AMROUNDEDRECTD40*
21,1,1.0000,0.9000,0,0,90.0*
21,1,0.5000,1.4000,0,0,90.0*
1,1,0.5000,0.4500,0.2500*
1,1,0.5000,0.4500,-0.2500*
1,1,0.5000,-0.4500,-0.2500*
1,1,0.5000,-0.4500,0.2500*
%
%ADD40ROUNDEDRECTD40*%
G04:AMPARAMS|DCode=41|XSize=1mm|YSize=1mm|CornerRadius=0.25mm|HoleSize=0mm|Usage=FLASHONLY|Rotation=90.000|XOffset=0mm|YOffset=0mm|HoleType=Round|Shape=RoundedRectangle|*
%AMROUNDEDRECTD41*
21,1,1.0000,0.5000,0,0,90.0*
21,1,0.5000,1.0000,0,0,90.0*
1,1,0.5000,0.2500,0.2500*
1,1,0.5000,0.2500,-0.2500*
1,1,0.5000,-0.2500,-0.2500*
1,1,0.5000,-0.2500,0.2500*
%
%ADD41ROUNDEDRECTD41*%
%ADD42O,0.4000X0.9500*%
%ADD43O,0.6000X1.6000*%
G04:AMPARAMS|DCode=44|XSize=1.82mm|YSize=1.07mm|CornerRadius=0.107mm|HoleSize=0mm|Usage=FLASHONLY|Rotation=270.000|XOffset=0mm|YOffset=0mm|HoleType=Round|Shape=RoundedRectangle|*
%AMROUNDEDRECTD44*
21,1,1.8200,0.8560,0,0,270.0*
21,1,1.6060,1.0700,0,0,270.0*
1,1,0.2140,-0.4280,-0.8030*
1,1,0.2140,-0.4280,0.8030*
1,1,0.2140,0.4280,0.8030*
1,1,0.2140,0.4280,-0.8030*
%
%ADD44ROUNDEDRECTD44*%
%ADD45C,1.0000*%
G04:AMPARAMS|DCode=46|XSize=2.1mm|YSize=1.6mm|CornerRadius=0.4mm|HoleSize=0mm|Usage=FLASHONLY|Rotation=180.000|XOffset=0mm|YOffset=0mm|HoleType=Round|Shape=RoundedRectangle|*
%AMROUNDEDRECTD46*
21,1,2.1000,0.8000,0,0,180.0*
21,1,1.3000,1.6000,0,0,180.0*
1,1,0.8000,-0.6500,0.4000*
1,1,0.8000,0.6500,0.4000*
1,1,0.8000,0.6500,-0.4000*
1,1,0.8000,-0.6500,-0.4000*
%
%ADD46ROUNDEDRECTD46*%
%ADD47O,0.4000X1.3500*%
G04:AMPARAMS|DCode=48|XSize=1.8mm|YSize=1.9mm|CornerRadius=0.45mm|HoleSize=0mm|Usage=FLASHONLY|Rotation=180.000|XOffset=0mm|YOffset=0mm|HoleType=Round|Shape=RoundedRectangle|*
%AMROUNDEDRECTD48*
21,1,1.8000,1.0000,0,0,180.0*
21,1,0.9000,1.9000,0,0,180.0*
1,1,0.9000,-0.4500,0.5000*
1,1,0.9000,0.4500,0.5000*
1,1,0.9000,0.4500,-0.5000*
1,1,0.9000,-0.4500,-0.5000*
%
%ADD48ROUNDEDRECTD48*%
%ADD49R,1.9000X1.9000*%
G04:AMPARAMS|DCode=50|XSize=0.9mm|YSize=0.8mm|CornerRadius=0.08mm|HoleSize=0mm|Usage=FLASHONLY|Rotation=90.000|XOffset=0mm|YOffset=0mm|HoleType=Round|Shape=RoundedRectangle|*
%AMROUNDEDRECTD50*
21,1,0.9000,0.6400,0,0,90.0*
21,1,0.7400,0.8000,0,0,90.0*
1,1,0.1600,0.3200,0.3700*
1,1,0.1600,0.3200,-0.3700*
1,1,0.1600,-0.3200,-0.3700*
1,1,0.1600,-0.3200,0.3700*
%
%ADD50ROUNDEDRECTD50*%
G04:AMPARAMS|DCode=51|XSize=0.9mm|YSize=1mm|CornerRadius=0.09mm|HoleSize=0mm|Usage=FLASHONLY|Rotation=180.000|XOffset=0mm|YOffset=0mm|HoleType=Round|Shape=RoundedRectangle|*
%AMROUNDEDRECTD51*
21,1,0.9000,0.8200,0,0,180.0*
21,1,0.7200,1.0000,0,0,180.0*
1,1,0.1800,-0.3600,0.4100*
1,1,0.1800,0.3600,0.4100*
1,1,0.1800,0.3600,-0.4100*
1,1,0.1800,-0.3600,-0.4100*
%
%ADD51ROUNDEDRECTD51*%
G04:AMPARAMS|DCode=52|XSize=1.7mm|YSize=0.55mm|CornerRadius=0.055mm|HoleSize=0mm|Usage=FLASHONLY|Rotation=180.000|XOffset=0mm|YOffset=0mm|HoleType=Round|Shape=RoundedRectangle|*
%AMROUNDEDRECTD52*
21,1,1.7000,0.4400,0,0,180.0*
21,1,1.5900,0.5500,0,0,180.0*
1,1,0.1100,-0.7950,0.2200*
1,1,0.1100,0.7950,0.2200*
1,1,0.1100,0.7950,-0.2200*
1,1,0.1100,-0.7950,-0.2200*
%
%ADD52ROUNDEDRECTD52*%
%ADD53O,1.5500X0.6000*%
G04:AMPARAMS|DCode=54|XSize=0.93mm|YSize=0.89mm|CornerRadius=0.089mm|HoleSize=0mm|Usage=FLASHONLY|Rotation=90.000|XOffset=0mm|YOffset=0mm|HoleType=Round|Shape=RoundedRectangle|*
%AMROUNDEDRECTD54*
21,1,0.9300,0.7120,0,0,90.0*
21,1,0.7520,0.8900,0,0,90.0*
1,1,0.1780,0.3560,0.3760*
1,1,0.1780,0.3560,-0.3760*
1,1,0.1780,-0.3560,-0.3760*
1,1,0.1780,-0.3560,0.3760*
%
%ADD54ROUNDEDRECTD54*%
%ADD55C,0.1000*%
%ADD56C,0.2000*%
%ADD57C,0.5000*%
%ADD58C,0.3000*%
%ADD59C,0.4000*%
%ADD60C,0.0750*%
%ADD61C,0.0800*%
%ADD62C,0.7000*%
%ADD63C,0.1200*%
%ADD64C,1.5000*%
%ADD65R,1.3500X1.3500*%
%ADD66R,1.5000X1.5000*%
%ADD67R,1.5000X1.5000*%
%ADD68C,0.4500*%
%ADD69C,0.6000*%
G36*
X523400Y683237D02*
X525325Y682983D01*
X527118Y682240D01*
X528658Y681059D01*
X529840Y679518D01*
X530583Y677725D01*
X530837Y675800D01*
X530851D01*
Y41656D01*
X517144Y27949D01*
X403900D01*
X402925Y27755D01*
X402098Y27202D01*
X377444Y2549D01*
X51856D01*
X27202Y27202D01*
X26376Y27755D01*
X25400Y27949D01*
X10000D01*
Y27963D01*
X8075Y28217D01*
X6282Y28960D01*
X4742Y30141D01*
X3560Y31682D01*
X2817Y33475D01*
X2563Y35400D01*
X2549D01*
Y675800D01*
X2563D01*
X2817Y677725D01*
X3560Y679518D01*
X4742Y681059D01*
X6282Y682240D01*
X8075Y682983D01*
X10000Y683237D01*
Y683251D01*
X523400D01*
Y683237D01*
D02*
G37*
%LPC*%
G36*
X376700Y253714D02*
X375432Y253461D01*
X374357Y252743D01*
X374167Y252458D01*
X373167D01*
X373043Y252643D01*
X371968Y253361D01*
X370700Y253614D01*
X369432Y253361D01*
X368357Y252643D01*
X368300Y252558D01*
X367300D01*
X367243Y252643D01*
X366168Y253361D01*
X364900Y253614D01*
X363632Y253361D01*
X362557Y252643D01*
X362490Y252543D01*
X362391D01*
X361366Y252661D01*
X360468Y253261D01*
X359200Y253514D01*
X357932Y253261D01*
X356857Y252543D01*
X356139Y251468D01*
X355886Y250200D01*
X356139Y248932D01*
X356857Y247857D01*
X357932Y247139D01*
X359200Y246886D01*
X360468Y247139D01*
X361543Y247857D01*
X361610Y247957D01*
X361709D01*
X362734Y247839D01*
X363632Y247239D01*
X364900Y246986D01*
X366168Y247239D01*
X367243Y247957D01*
X367300Y248042D01*
X368300D01*
X368357Y247957D01*
X369432Y247239D01*
X370700Y246986D01*
X371968Y247239D01*
X373043Y247957D01*
X373233Y248242D01*
X374233D01*
X374357Y248057D01*
X375432Y247339D01*
X376700Y247086D01*
X377968Y247339D01*
X379043Y248057D01*
X379761Y249132D01*
X380014Y250400D01*
X379761Y251668D01*
X379043Y252743D01*
X377968Y253461D01*
X376700Y253714D01*
D02*
G37*
G36*
X25400Y263582D02*
X22920Y263256D01*
X20609Y262298D01*
X18625Y260776D01*
X17102Y258791D01*
X16144Y256480D01*
X15818Y254000D01*
X16144Y251520D01*
X17102Y249209D01*
X18625Y247225D01*
X20609Y245702D01*
X22920Y244744D01*
X25400Y244418D01*
X27880Y244744D01*
X30191Y245702D01*
X32175Y247225D01*
X33698Y249209D01*
X34655Y251520D01*
X34982Y254000D01*
X34655Y256480D01*
X33698Y258791D01*
X32175Y260776D01*
X30191Y262298D01*
X27880Y263256D01*
X25400Y263582D01*
D02*
G37*
G36*
X424850Y267364D02*
X423582Y267111D01*
X422507Y266393D01*
X421789Y265318D01*
X421536Y264050D01*
X421789Y262782D01*
X422507Y261707D01*
X423582Y260989D01*
X424850Y260736D01*
X426118Y260989D01*
X427193Y261707D01*
X427911Y262782D01*
X428164Y264050D01*
X427911Y265318D01*
X427193Y266393D01*
X426118Y267111D01*
X424850Y267364D01*
D02*
G37*
G36*
X518000Y278650D02*
X499000D01*
Y259650D01*
X518000D01*
Y278650D01*
D02*
G37*
G36*
X440650Y250014D02*
X439382Y249761D01*
X438307Y249043D01*
X437589Y247968D01*
X437336Y246700D01*
X437589Y245432D01*
X438307Y244357D01*
X439382Y243639D01*
X440650Y243386D01*
X441550Y243566D01*
X442149Y242682D01*
X441639Y241918D01*
X441386Y240650D01*
X441639Y239382D01*
X441874Y239029D01*
X441273Y238129D01*
X441100Y238164D01*
X439832Y237911D01*
X438757Y237193D01*
X438039Y236118D01*
X437786Y234850D01*
X438039Y233582D01*
X438757Y232507D01*
X439832Y231789D01*
X441100Y231536D01*
X441254Y231567D01*
X441855Y230667D01*
X441589Y230268D01*
X441336Y229000D01*
X441589Y227732D01*
X442307Y226657D01*
X443382Y225939D01*
X444650Y225686D01*
X445918Y225939D01*
X446993Y226657D01*
X447711Y227732D01*
X447964Y229000D01*
X447711Y230268D01*
X446993Y231343D01*
X445918Y232061D01*
X444650Y232314D01*
X444496Y232283D01*
X443895Y233183D01*
X444161Y233582D01*
X444414Y234850D01*
X444161Y236118D01*
X443926Y236471D01*
X444527Y237371D01*
X444700Y237336D01*
X445968Y237589D01*
X447043Y238307D01*
X447761Y239382D01*
X448014Y240650D01*
X447761Y241918D01*
X447043Y242993D01*
X445968Y243711D01*
X444700Y243964D01*
X443799Y243785D01*
X443201Y244668D01*
X443711Y245432D01*
X443964Y246700D01*
X443711Y247968D01*
X442993Y249043D01*
X441918Y249761D01*
X440650Y250014D01*
D02*
G37*
G36*
X280800Y237214D02*
X279532Y236961D01*
X278457Y236243D01*
X277739Y235168D01*
X277486Y233900D01*
X277739Y232632D01*
X278457Y231557D01*
X279532Y230839D01*
X280800Y230586D01*
X282068Y230839D01*
X283143Y231557D01*
X283861Y232632D01*
X284114Y233900D01*
X283861Y235168D01*
X283143Y236243D01*
X282068Y236961D01*
X280800Y237214D01*
D02*
G37*
G36*
X68540Y250374D02*
X67272Y250121D01*
X66197Y249403D01*
X65479Y248328D01*
X65226Y247060D01*
X65479Y245792D01*
X66197Y244717D01*
X67272Y243999D01*
X68540Y243746D01*
X69808Y243999D01*
X70883Y244717D01*
X71601Y245792D01*
X71854Y247060D01*
X71601Y248328D01*
X70883Y249403D01*
X69808Y250121D01*
X68540Y250374D01*
D02*
G37*
G36*
X111600Y250214D02*
X110332Y249961D01*
X109257Y249243D01*
X108539Y248168D01*
X108286Y246900D01*
X108539Y245632D01*
X109257Y244557D01*
X110332Y243839D01*
X111600Y243586D01*
X112868Y243839D01*
X113943Y244557D01*
X114661Y245632D01*
X114914Y246900D01*
X114661Y248168D01*
X113943Y249243D01*
X112868Y249961D01*
X111600Y250214D01*
D02*
G37*
G36*
X431450Y274164D02*
X430182Y273911D01*
X429107Y273193D01*
X428389Y272118D01*
X428136Y270850D01*
X428389Y269582D01*
X429107Y268507D01*
X430182Y267789D01*
X431450Y267536D01*
X432718Y267789D01*
X433793Y268507D01*
X434511Y269582D01*
X434764Y270850D01*
X434511Y272118D01*
X433793Y273193D01*
X432718Y273911D01*
X431450Y274164D01*
D02*
G37*
G36*
X361300Y287614D02*
X360032Y287361D01*
X358957Y286643D01*
X358239Y285568D01*
X357986Y284300D01*
X358239Y283032D01*
X358957Y281957D01*
X360032Y281239D01*
X361300Y280986D01*
X362568Y281239D01*
X363643Y281957D01*
X364361Y283032D01*
X364614Y284300D01*
X364361Y285568D01*
X363643Y286643D01*
X362568Y287361D01*
X361300Y287614D01*
D02*
G37*
G36*
X453050Y285264D02*
X451782Y285011D01*
X450707Y284293D01*
X449989Y283218D01*
X449736Y281950D01*
X449989Y280682D01*
X450707Y279607D01*
X451782Y278889D01*
X453050Y278636D01*
X454318Y278889D01*
X455393Y279607D01*
X456111Y280682D01*
X456364Y281950D01*
X456111Y283218D01*
X455393Y284293D01*
X454318Y285011D01*
X453050Y285264D01*
D02*
G37*
G36*
X78900Y292714D02*
X77632Y292461D01*
X76557Y291743D01*
X75839Y290668D01*
X75586Y289400D01*
X75839Y288132D01*
X76557Y287057D01*
X77632Y286339D01*
X78900Y286086D01*
X80168Y286339D01*
X81243Y287057D01*
X81961Y288132D01*
X82214Y289400D01*
X81961Y290668D01*
X81243Y291743D01*
X80168Y292461D01*
X78900Y292714D01*
D02*
G37*
G36*
X508500Y304132D02*
X506020Y303805D01*
X503709Y302848D01*
X501725Y301325D01*
X500202Y299341D01*
X499244Y297030D01*
X498918Y294550D01*
X499244Y292070D01*
X500202Y289759D01*
X501725Y287774D01*
X503709Y286252D01*
X506020Y285294D01*
X508500Y284968D01*
X510980Y285294D01*
X513291Y286252D01*
X515275Y287774D01*
X516798Y289759D01*
X517755Y292070D01*
X518082Y294550D01*
X517755Y297030D01*
X516798Y299341D01*
X515275Y301325D01*
X513291Y302848D01*
X510980Y303805D01*
X508500Y304132D01*
D02*
G37*
G36*
X78900Y277914D02*
X77632Y277661D01*
X76557Y276943D01*
X75839Y275868D01*
X75586Y274600D01*
X75839Y273332D01*
X76557Y272257D01*
X77632Y271539D01*
X78900Y271286D01*
X80168Y271539D01*
X81243Y272257D01*
X81961Y273332D01*
X82214Y274600D01*
X81961Y275868D01*
X81243Y276943D01*
X80168Y277661D01*
X78900Y277914D01*
D02*
G37*
G36*
X25400Y288982D02*
X22920Y288655D01*
X20609Y287698D01*
X18625Y286175D01*
X17102Y284191D01*
X16144Y281880D01*
X15818Y279400D01*
X16144Y276920D01*
X17102Y274609D01*
X18625Y272624D01*
X20609Y271102D01*
X22920Y270145D01*
X25400Y269818D01*
X27880Y270145D01*
X30191Y271102D01*
X32175Y272624D01*
X33698Y274609D01*
X34655Y276920D01*
X34982Y279400D01*
X34655Y281880D01*
X33698Y284191D01*
X32175Y286175D01*
X30191Y287698D01*
X27880Y288655D01*
X25400Y288982D01*
D02*
G37*
G36*
X402850Y278364D02*
X401582Y278111D01*
X400507Y277393D01*
X399789Y276318D01*
X399536Y275050D01*
X399715Y274149D01*
X398831Y273551D01*
X398068Y274061D01*
X396800Y274314D01*
X395532Y274061D01*
X395179Y273826D01*
X394279Y274427D01*
X394314Y274600D01*
X394061Y275868D01*
X393343Y276943D01*
X392268Y277661D01*
X391000Y277914D01*
X389732Y277661D01*
X388657Y276943D01*
X387939Y275868D01*
X387686Y274600D01*
X387717Y274446D01*
X386817Y273845D01*
X386418Y274111D01*
X385150Y274364D01*
X383882Y274111D01*
X382807Y273393D01*
X382089Y272318D01*
X381836Y271050D01*
X382089Y269782D01*
X382807Y268707D01*
X383882Y267989D01*
X385150Y267736D01*
X386418Y267989D01*
X387493Y268707D01*
X388211Y269782D01*
X388464Y271050D01*
X388433Y271204D01*
X389333Y271805D01*
X389732Y271539D01*
X391000Y271286D01*
X392268Y271539D01*
X392621Y271774D01*
X393521Y271173D01*
X393486Y271000D01*
X393739Y269732D01*
X394457Y268657D01*
X395532Y267939D01*
X396800Y267686D01*
X398068Y267939D01*
X399143Y268657D01*
X399861Y269732D01*
X400114Y271000D01*
X399935Y271901D01*
X400818Y272499D01*
X401582Y271989D01*
X402850Y271736D01*
X404118Y271989D01*
X405193Y272707D01*
X405911Y273782D01*
X406164Y275050D01*
X405911Y276318D01*
X405193Y277393D01*
X404118Y278111D01*
X402850Y278364D01*
D02*
G37*
G36*
X94300Y277914D02*
X93032Y277661D01*
X91957Y276943D01*
X91239Y275868D01*
X90986Y274600D01*
X91239Y273332D01*
X91957Y272257D01*
X93032Y271539D01*
X94300Y271286D01*
X95568Y271539D01*
X96643Y272257D01*
X97361Y273332D01*
X97614Y274600D01*
X97361Y275868D01*
X96643Y276943D01*
X95568Y277661D01*
X94300Y277914D01*
D02*
G37*
G36*
X183000Y218514D02*
X181732Y218261D01*
X180657Y217543D01*
X179939Y216468D01*
X179686Y215200D01*
X179939Y213932D01*
X180657Y212857D01*
X181732Y212139D01*
X183000Y211886D01*
X184268Y212139D01*
X185343Y212857D01*
X186061Y213932D01*
X186314Y215200D01*
X186061Y216468D01*
X185343Y217543D01*
X184268Y218261D01*
X183000Y218514D01*
D02*
G37*
G36*
X101810Y217724D02*
X100542Y217471D01*
X99467Y216753D01*
X98749Y215678D01*
X98496Y214410D01*
X98749Y213142D01*
X99467Y212067D01*
X100542Y211349D01*
X101810Y211096D01*
X103078Y211349D01*
X104153Y212067D01*
X104871Y213142D01*
X105124Y214410D01*
X104871Y215678D01*
X104153Y216753D01*
X103078Y217471D01*
X101810Y217724D01*
D02*
G37*
G36*
X364400Y221414D02*
X363132Y221161D01*
X362057Y220443D01*
X361339Y219368D01*
X361086Y218100D01*
X361339Y216832D01*
X362057Y215757D01*
X363132Y215039D01*
X364400Y214786D01*
X365668Y215039D01*
X366743Y215757D01*
X367461Y216832D01*
X367714Y218100D01*
X367461Y219368D01*
X366743Y220443D01*
X365668Y221161D01*
X364400Y221414D01*
D02*
G37*
G36*
X248935Y235689D02*
X247667Y235436D01*
X246592Y234718D01*
X245874Y233643D01*
X245621Y232375D01*
X245874Y231107D01*
X246067Y230818D01*
X245932Y229771D01*
X244857Y229053D01*
X244139Y227978D01*
X243886Y226710D01*
X244139Y225442D01*
X244857Y224367D01*
X245932Y223649D01*
X247200Y223396D01*
X248468Y223649D01*
X248774Y223853D01*
X249674Y223252D01*
X249586Y222810D01*
X249839Y221542D01*
X250557Y220467D01*
X251229Y220018D01*
X251018Y218956D01*
X250292Y218811D01*
X249217Y218093D01*
X248499Y217018D01*
X248246Y215750D01*
X248499Y214482D01*
X249217Y213407D01*
X250292Y212689D01*
X251560Y212436D01*
X252828Y212689D01*
X253903Y213407D01*
X254621Y214482D01*
X254874Y215750D01*
X254621Y217018D01*
X253903Y218093D01*
X253230Y218542D01*
X253442Y219604D01*
X254168Y219749D01*
X255243Y220467D01*
X255961Y221542D01*
X256214Y222810D01*
X255961Y224078D01*
X255243Y225153D01*
X254168Y225871D01*
X252900Y226124D01*
X251632Y225871D01*
X251326Y225667D01*
X250426Y226268D01*
X250514Y226710D01*
X250261Y227978D01*
X250068Y228267D01*
X250203Y229314D01*
X251278Y230032D01*
X251996Y231107D01*
X252249Y232375D01*
X251996Y233643D01*
X251278Y234718D01*
X250203Y235436D01*
X248935Y235689D01*
D02*
G37*
G36*
X217620Y216374D02*
X216352Y216121D01*
X215277Y215403D01*
X214559Y214328D01*
X214306Y213060D01*
X214559Y211792D01*
X215277Y210717D01*
X216352Y209999D01*
X217620Y209746D01*
X218888Y209999D01*
X219963Y210717D01*
X220681Y211792D01*
X220934Y213060D01*
X220681Y214328D01*
X219963Y215403D01*
X218888Y216121D01*
X217620Y216374D01*
D02*
G37*
G36*
X225325Y215224D02*
X224057Y214971D01*
X222982Y214253D01*
X222264Y213178D01*
X222011Y211910D01*
X222264Y210642D01*
X222982Y209567D01*
X224057Y208849D01*
X225325Y208596D01*
X226593Y208849D01*
X227668Y209567D01*
X228386Y210642D01*
X228639Y211910D01*
X228386Y213178D01*
X227668Y214253D01*
X226593Y214971D01*
X225325Y215224D01*
D02*
G37*
G36*
X208080Y217414D02*
X206812Y217161D01*
X205737Y216443D01*
X205019Y215368D01*
X204766Y214100D01*
X205019Y212832D01*
X205737Y211757D01*
X206812Y211039D01*
X208080Y210786D01*
X209348Y211039D01*
X210423Y211757D01*
X211141Y212832D01*
X211394Y214100D01*
X211141Y215368D01*
X210423Y216443D01*
X209348Y217161D01*
X208080Y217414D01*
D02*
G37*
G36*
X279160Y217134D02*
X277892Y216881D01*
X276817Y216163D01*
X276099Y215088D01*
X275846Y213820D01*
X276099Y212552D01*
X276817Y211477D01*
X277892Y210759D01*
X279160Y210506D01*
X280428Y210759D01*
X281503Y211477D01*
X282221Y212552D01*
X282474Y213820D01*
X282221Y215088D01*
X281503Y216163D01*
X280428Y216881D01*
X279160Y217134D01*
D02*
G37*
G36*
X386950Y221464D02*
X385682Y221211D01*
X384607Y220493D01*
X383889Y219418D01*
X383636Y218150D01*
X383889Y216882D01*
X384607Y215807D01*
X385682Y215089D01*
X386950Y214836D01*
X388218Y215089D01*
X389293Y215807D01*
X390011Y216882D01*
X390264Y218150D01*
X390011Y219418D01*
X389293Y220493D01*
X388218Y221211D01*
X386950Y221464D01*
D02*
G37*
G36*
X25400Y238182D02*
X22920Y237855D01*
X20609Y236898D01*
X18625Y235375D01*
X17102Y233391D01*
X16144Y231080D01*
X15818Y228600D01*
X16144Y226120D01*
X17102Y223809D01*
X18625Y221824D01*
X20609Y220302D01*
X22920Y219345D01*
X25400Y219018D01*
X27880Y219345D01*
X30191Y220302D01*
X32175Y221824D01*
X33698Y223809D01*
X34655Y226120D01*
X34982Y228600D01*
X34655Y231080D01*
X33698Y233391D01*
X32175Y235375D01*
X30191Y236898D01*
X27880Y237855D01*
X25400Y238182D01*
D02*
G37*
G36*
X206890Y225484D02*
X205622Y225231D01*
X204547Y224513D01*
X203829Y223438D01*
X203576Y222170D01*
X203829Y220902D01*
X204547Y219827D01*
X205622Y219109D01*
X206890Y218856D01*
X208158Y219109D01*
X209233Y219827D01*
X209951Y220902D01*
X210204Y222170D01*
X209951Y223438D01*
X209233Y224513D01*
X208158Y225231D01*
X206890Y225484D01*
D02*
G37*
G36*
X236590Y227354D02*
X235322Y227101D01*
X234247Y226383D01*
X233529Y225308D01*
X233276Y224040D01*
X233529Y222772D01*
X234247Y221697D01*
X235322Y220979D01*
X236590Y220726D01*
X237858Y220979D01*
X238933Y221697D01*
X239651Y222772D01*
X239904Y224040D01*
X239651Y225308D01*
X238933Y226383D01*
X237858Y227101D01*
X236590Y227354D01*
D02*
G37*
G36*
X508000Y238182D02*
X505520Y237855D01*
X503209Y236898D01*
X501225Y235375D01*
X499702Y233391D01*
X498745Y231080D01*
X498418Y228600D01*
X498745Y226120D01*
X499702Y223809D01*
X501225Y221824D01*
X503209Y220302D01*
X505520Y219345D01*
X508000Y219018D01*
X510480Y219345D01*
X512791Y220302D01*
X514775Y221824D01*
X516298Y223809D01*
X517256Y226120D01*
X517582Y228600D01*
X517256Y231080D01*
X516298Y233391D01*
X514775Y235375D01*
X512791Y236898D01*
X510480Y237855D01*
X508000Y238182D01*
D02*
G37*
G36*
X287240Y223484D02*
X285972Y223231D01*
X284897Y222513D01*
X284179Y221438D01*
X283926Y220170D01*
X284179Y218902D01*
X284897Y217827D01*
X285972Y217109D01*
X287240Y216856D01*
X288508Y217109D01*
X289583Y217827D01*
X290301Y218902D01*
X290554Y220170D01*
X290301Y221438D01*
X289583Y222513D01*
X288508Y223231D01*
X287240Y223484D01*
D02*
G37*
G36*
X267300Y222504D02*
X266032Y222251D01*
X264957Y221533D01*
X264239Y220458D01*
X263986Y219190D01*
X264239Y217922D01*
X264957Y216847D01*
X266032Y216129D01*
X267300Y215876D01*
X268568Y216129D01*
X269643Y216847D01*
X270361Y217922D01*
X270614Y219190D01*
X270361Y220458D01*
X269643Y221533D01*
X268568Y222251D01*
X267300Y222504D01*
D02*
G37*
G36*
X49300Y224104D02*
X48032Y223851D01*
X46957Y223133D01*
X46239Y222058D01*
X45986Y220790D01*
X46239Y219522D01*
X46957Y218447D01*
X48032Y217729D01*
X49300Y217476D01*
X50568Y217729D01*
X51643Y218447D01*
X52361Y219522D01*
X52614Y220790D01*
X52361Y222058D01*
X51643Y223133D01*
X50568Y223851D01*
X49300Y224104D01*
D02*
G37*
G36*
X296390Y223514D02*
X295122Y223261D01*
X294047Y222543D01*
X293329Y221468D01*
X293076Y220200D01*
X293329Y218932D01*
X294047Y217857D01*
X295122Y217139D01*
X296390Y216886D01*
X297658Y217139D01*
X298733Y217857D01*
X299451Y218932D01*
X299704Y220200D01*
X299451Y221468D01*
X298733Y222543D01*
X297658Y223261D01*
X296390Y223514D01*
D02*
G37*
G36*
X24400Y303800D02*
X15950D01*
X16144Y302320D01*
X17102Y300009D01*
X18625Y298025D01*
X20609Y296502D01*
X22920Y295544D01*
X24400Y295350D01*
Y303800D01*
D02*
G37*
G36*
X258600Y404114D02*
X257332Y403861D01*
X256257Y403143D01*
X255539Y402068D01*
X255286Y400800D01*
X255539Y399532D01*
X256257Y398457D01*
X257332Y397739D01*
X258600Y397486D01*
X259868Y397739D01*
X260654Y398263D01*
X261558Y398020D01*
X261749Y397884D01*
X261839Y397432D01*
X262557Y396357D01*
X263632Y395639D01*
X264900Y395386D01*
X266168Y395639D01*
X267243Y396357D01*
X267961Y397432D01*
X268214Y398700D01*
X268209Y398724D01*
X269151Y399114D01*
X269657Y398357D01*
X270732Y397639D01*
X272000Y397386D01*
X273268Y397639D01*
X274343Y398357D01*
X275061Y399432D01*
X275314Y400700D01*
X275061Y401968D01*
X274343Y403043D01*
X273268Y403761D01*
X272000Y404014D01*
X270732Y403761D01*
X269657Y403043D01*
X268939Y401968D01*
X268686Y400700D01*
X268691Y400676D01*
X267749Y400286D01*
X267243Y401043D01*
X266168Y401761D01*
X264900Y402014D01*
X263632Y401761D01*
X262846Y401236D01*
X261942Y401480D01*
X261751Y401616D01*
X261661Y402068D01*
X260943Y403143D01*
X259868Y403861D01*
X258600Y404114D01*
D02*
G37*
G36*
X34900Y415900D02*
X15900D01*
Y396900D01*
X34900D01*
Y415900D01*
D02*
G37*
G36*
X146250Y404864D02*
X144982Y404611D01*
X143907Y403893D01*
X143189Y402818D01*
X142936Y401550D01*
X143189Y400282D01*
X143907Y399207D01*
X144982Y398489D01*
X146250Y398236D01*
X147518Y398489D01*
X148593Y399207D01*
X149311Y400282D01*
X149564Y401550D01*
X149311Y402818D01*
X148593Y403893D01*
X147518Y404611D01*
X146250Y404864D01*
D02*
G37*
G36*
X122750D02*
X121482Y404611D01*
X120407Y403893D01*
X119689Y402818D01*
X119436Y401550D01*
X119689Y400282D01*
X120407Y399207D01*
X121482Y398489D01*
X122750Y398236D01*
X124018Y398489D01*
X125093Y399207D01*
X125811Y400282D01*
X126064Y401550D01*
X125811Y402818D01*
X125093Y403893D01*
X124018Y404611D01*
X122750Y404864D01*
D02*
G37*
G36*
X508500Y405732D02*
X506020Y405405D01*
X503709Y404448D01*
X501725Y402925D01*
X500202Y400941D01*
X499244Y398630D01*
X498918Y396150D01*
X499244Y393670D01*
X500202Y391359D01*
X501725Y389374D01*
X503709Y387852D01*
X506020Y386894D01*
X508500Y386568D01*
X510980Y386894D01*
X513291Y387852D01*
X515275Y389374D01*
X516798Y391359D01*
X517755Y393670D01*
X518082Y396150D01*
X517755Y398630D01*
X516798Y400941D01*
X515275Y402925D01*
X513291Y404448D01*
X510980Y405405D01*
X508500Y405732D01*
D02*
G37*
G36*
X209700Y390214D02*
X208432Y389961D01*
X207357Y389243D01*
X206639Y388168D01*
X206386Y386900D01*
X206639Y385632D01*
X207357Y384557D01*
X208432Y383839D01*
X209700Y383586D01*
X210968Y383839D01*
X212043Y384557D01*
X212761Y385632D01*
X213014Y386900D01*
X212761Y388168D01*
X212043Y389243D01*
X210968Y389961D01*
X209700Y390214D01*
D02*
G37*
G36*
X431100Y403714D02*
X429832Y403461D01*
X428757Y402743D01*
X428039Y401668D01*
X427786Y400400D01*
X428039Y399132D01*
X428757Y398057D01*
X428892Y397967D01*
Y397200D01*
X428785Y396835D01*
X428139Y395868D01*
X427886Y394600D01*
X428139Y393332D01*
X428857Y392257D01*
X429932Y391539D01*
X431200Y391286D01*
X432468Y391539D01*
X433543Y392257D01*
X434261Y393332D01*
X434514Y394600D01*
X434261Y395868D01*
X433543Y396943D01*
X433408Y397033D01*
Y397800D01*
X433515Y398165D01*
X434161Y399132D01*
X434414Y400400D01*
X434161Y401668D01*
X433443Y402743D01*
X432368Y403461D01*
X431100Y403714D01*
D02*
G37*
G36*
X470000Y394614D02*
X468732Y394361D01*
X467657Y393643D01*
X466939Y392568D01*
X466686Y391300D01*
X466939Y390032D01*
X467657Y388957D01*
X468732Y388239D01*
X470000Y387986D01*
X471268Y388239D01*
X472343Y388957D01*
X473061Y390032D01*
X473314Y391300D01*
X473061Y392568D01*
X472343Y393643D01*
X471268Y394361D01*
X470000Y394614D01*
D02*
G37*
G36*
X176700Y412414D02*
X175432Y412161D01*
X174357Y411443D01*
X173639Y410368D01*
X173386Y409100D01*
X173639Y407832D01*
X174357Y406757D01*
X175432Y406039D01*
X176700Y405786D01*
X177968Y406039D01*
X179043Y406757D01*
X179761Y407832D01*
X180014Y409100D01*
X179761Y410368D01*
X179043Y411443D01*
X177968Y412161D01*
X176700Y412414D01*
D02*
G37*
G36*
X72300Y427014D02*
X71032Y426762D01*
X69957Y426043D01*
X69238Y424968D01*
X68986Y423700D01*
X69238Y422432D01*
X69957Y421357D01*
X71032Y420639D01*
X72300Y420387D01*
X73568Y420639D01*
X74643Y421357D01*
X75361Y422432D01*
X75613Y423700D01*
X75361Y424968D01*
X74643Y426043D01*
X73568Y426762D01*
X72300Y427014D01*
D02*
G37*
G36*
X339500Y420814D02*
X338232Y420561D01*
X337157Y419843D01*
X336950Y419534D01*
X335950D01*
X335743Y419843D01*
X334668Y420561D01*
X333400Y420814D01*
X332132Y420561D01*
X331057Y419843D01*
X330339Y418768D01*
X330086Y417500D01*
X330339Y416232D01*
X331057Y415157D01*
X331088Y415136D01*
X330698Y414194D01*
X330600Y414214D01*
X329332Y413961D01*
X328257Y413243D01*
X327539Y412168D01*
X327286Y410900D01*
X327539Y409632D01*
X328257Y408557D01*
X329332Y407839D01*
X330600Y407586D01*
X331868Y407839D01*
X332943Y408557D01*
X333661Y409632D01*
X333914Y410900D01*
X333661Y412168D01*
X332943Y413243D01*
X332912Y413264D01*
X333302Y414206D01*
X333400Y414186D01*
X334668Y414439D01*
X335743Y415157D01*
X335950Y415466D01*
X336950D01*
X337157Y415157D01*
X338232Y414439D01*
X339500Y414186D01*
X340768Y414439D01*
X341843Y415157D01*
X342561Y416232D01*
X342814Y417500D01*
X342561Y418768D01*
X341843Y419843D01*
X340768Y420561D01*
X339500Y420814D01*
D02*
G37*
G36*
X172100Y429713D02*
X170832Y429461D01*
X169757Y428743D01*
X169038Y427668D01*
X168786Y426400D01*
X169038Y425132D01*
X169757Y424057D01*
X170832Y423338D01*
X172100Y423086D01*
X173368Y423338D01*
X174443Y424057D01*
X175161Y425132D01*
X175413Y426400D01*
X175161Y427668D01*
X174443Y428743D01*
X173368Y429461D01*
X172100Y429713D01*
D02*
G37*
G36*
X473400Y428314D02*
X472132Y428061D01*
X471057Y427343D01*
X470339Y426268D01*
X470086Y425000D01*
X470339Y423732D01*
X471057Y422657D01*
X472132Y421939D01*
X473400Y421686D01*
X474668Y421939D01*
X475743Y422657D01*
X476461Y423732D01*
X476714Y425000D01*
X476461Y426268D01*
X475743Y427343D01*
X474668Y428061D01*
X473400Y428314D01*
D02*
G37*
G36*
X508500Y431132D02*
X506020Y430805D01*
X503709Y429848D01*
X501725Y428325D01*
X500202Y426341D01*
X499244Y424030D01*
X498918Y421550D01*
X499244Y419070D01*
X500202Y416759D01*
X501725Y414774D01*
X503709Y413252D01*
X506020Y412294D01*
X508500Y411968D01*
X510980Y412294D01*
X513291Y413252D01*
X515275Y414774D01*
X516798Y416759D01*
X517755Y419070D01*
X518082Y421550D01*
X517755Y424030D01*
X516798Y426341D01*
X515275Y428325D01*
X513291Y429848D01*
X510980Y430805D01*
X508500Y431132D01*
D02*
G37*
G36*
X440700Y413114D02*
X439432Y412861D01*
X438357Y412143D01*
X437639Y411068D01*
X437386Y409800D01*
X437639Y408532D01*
X438357Y407457D01*
X439432Y406739D01*
X440700Y406486D01*
X441968Y406739D01*
X443043Y407457D01*
X443761Y408532D01*
X444014Y409800D01*
X443761Y411068D01*
X443043Y412143D01*
X441968Y412861D01*
X440700Y413114D01*
D02*
G37*
G36*
X209700Y423914D02*
X208432Y423661D01*
X207357Y422943D01*
X206639Y421868D01*
X206386Y420600D01*
X206639Y419332D01*
X207357Y418257D01*
X208432Y417539D01*
X209700Y417286D01*
X210968Y417539D01*
X212043Y418257D01*
X212761Y419332D01*
X213014Y420600D01*
X212761Y421868D01*
X212043Y422943D01*
X210968Y423661D01*
X209700Y423914D01*
D02*
G37*
G36*
X319400Y423214D02*
X318132Y422961D01*
X317057Y422243D01*
X316339Y421168D01*
X316086Y419900D01*
X316339Y418632D01*
X317057Y417557D01*
X318132Y416839D01*
X319400Y416586D01*
X320668Y416839D01*
X321743Y417557D01*
X322461Y418632D01*
X322714Y419900D01*
X322461Y421168D01*
X321743Y422243D01*
X320668Y422961D01*
X319400Y423214D01*
D02*
G37*
G36*
X25400Y339782D02*
X22920Y339455D01*
X20609Y338498D01*
X18625Y336975D01*
X17102Y334991D01*
X16144Y332680D01*
X15818Y330200D01*
X16144Y327720D01*
X17102Y325409D01*
X18625Y323425D01*
X20609Y321902D01*
X22920Y320945D01*
X25400Y320618D01*
X27880Y320945D01*
X30191Y321902D01*
X32175Y323425D01*
X33698Y325409D01*
X34655Y327720D01*
X34982Y330200D01*
X34655Y332680D01*
X33698Y334991D01*
X32175Y336975D01*
X30191Y338498D01*
X27880Y339455D01*
X25400Y339782D01*
D02*
G37*
G36*
X508500Y329532D02*
X506020Y329205D01*
X503709Y328248D01*
X501725Y326725D01*
X500202Y324741D01*
X499244Y322430D01*
X498918Y319950D01*
X499244Y317470D01*
X500202Y315159D01*
X501725Y313174D01*
X503709Y311652D01*
X506020Y310694D01*
X508500Y310368D01*
X510980Y310694D01*
X513291Y311652D01*
X515275Y313174D01*
X516798Y315159D01*
X517755Y317470D01*
X518082Y319950D01*
X517755Y322430D01*
X516798Y324741D01*
X515275Y326725D01*
X513291Y328248D01*
X510980Y329205D01*
X508500Y329532D01*
D02*
G37*
G36*
X25400Y365182D02*
X22920Y364855D01*
X20609Y363898D01*
X18625Y362375D01*
X17102Y360391D01*
X16144Y358080D01*
X15818Y355600D01*
X16144Y353120D01*
X17102Y350809D01*
X18625Y348825D01*
X20609Y347302D01*
X22920Y346344D01*
X25400Y346018D01*
X27880Y346344D01*
X30191Y347302D01*
X32175Y348825D01*
X33698Y350809D01*
X34655Y353120D01*
X34982Y355600D01*
X34655Y358080D01*
X33698Y360391D01*
X32175Y362375D01*
X30191Y363898D01*
X27880Y364855D01*
X25400Y365182D01*
D02*
G37*
G36*
X508500Y354932D02*
X506020Y354605D01*
X503709Y353648D01*
X501725Y352125D01*
X500202Y350141D01*
X499244Y347830D01*
X498918Y345350D01*
X499244Y342870D01*
X500202Y340559D01*
X501725Y338574D01*
X503709Y337052D01*
X506020Y336094D01*
X508500Y335768D01*
X510980Y336094D01*
X513291Y337052D01*
X515275Y338574D01*
X516798Y340559D01*
X517755Y342870D01*
X518082Y345350D01*
X517755Y347830D01*
X516798Y350141D01*
X515275Y352125D01*
X513291Y353648D01*
X510980Y354605D01*
X508500Y354932D01*
D02*
G37*
G36*
X94200Y307214D02*
X92932Y306961D01*
X91857Y306243D01*
X91139Y305168D01*
X90886Y303900D01*
X91139Y302632D01*
X91857Y301557D01*
X92932Y300839D01*
X94200Y300586D01*
X95468Y300839D01*
X96543Y301557D01*
X97261Y302632D01*
X97514Y303900D01*
X97261Y305168D01*
X96543Y306243D01*
X95468Y306961D01*
X94200Y307214D01*
D02*
G37*
G36*
X34850Y303800D02*
X26400D01*
Y295350D01*
X27880Y295544D01*
X30191Y296502D01*
X32175Y298025D01*
X33698Y300009D01*
X34655Y302320D01*
X34850Y303800D01*
D02*
G37*
G36*
X26400Y314250D02*
Y305800D01*
X34850D01*
X34655Y307280D01*
X33698Y309591D01*
X32175Y311575D01*
X30191Y313098D01*
X27880Y314056D01*
X26400Y314250D01*
D02*
G37*
G36*
X24400D02*
X22920Y314056D01*
X20609Y313098D01*
X18625Y311575D01*
X17102Y309591D01*
X16144Y307280D01*
X15950Y305800D01*
X24400D01*
Y314250D01*
D02*
G37*
G36*
X508500Y380332D02*
X506020Y380005D01*
X503709Y379048D01*
X501725Y377525D01*
X500202Y375541D01*
X499244Y373230D01*
X498918Y370750D01*
X499244Y368270D01*
X500202Y365959D01*
X501725Y363974D01*
X503709Y362452D01*
X506020Y361494D01*
X508500Y361168D01*
X510980Y361494D01*
X513291Y362452D01*
X515275Y363974D01*
X516798Y365959D01*
X517755Y368270D01*
X518082Y370750D01*
X517755Y373230D01*
X516798Y375541D01*
X515275Y377525D01*
X513291Y379048D01*
X510980Y380005D01*
X508500Y380332D01*
D02*
G37*
G36*
X25400Y390582D02*
X22920Y390256D01*
X20609Y389298D01*
X18625Y387775D01*
X17102Y385791D01*
X16144Y383480D01*
X15818Y381000D01*
X16144Y378520D01*
X17102Y376209D01*
X18625Y374225D01*
X20609Y372702D01*
X22920Y371744D01*
X25400Y371418D01*
X27880Y371744D01*
X30191Y372702D01*
X32175Y374225D01*
X33698Y376209D01*
X34655Y378520D01*
X34982Y381000D01*
X34655Y383480D01*
X33698Y385791D01*
X32175Y387775D01*
X30191Y389298D01*
X27880Y390256D01*
X25400Y390582D01*
D02*
G37*
G36*
X146250Y374364D02*
X144982Y374111D01*
X143907Y373393D01*
X143189Y372318D01*
X142936Y371050D01*
X143189Y369782D01*
X143907Y368707D01*
X144982Y367989D01*
X146250Y367736D01*
X147518Y367989D01*
X148593Y368707D01*
X149311Y369782D01*
X149564Y371050D01*
X149311Y372318D01*
X148593Y373393D01*
X147518Y374111D01*
X146250Y374364D01*
D02*
G37*
G36*
X327500Y386814D02*
X326232Y386561D01*
X325157Y385843D01*
X324439Y384768D01*
X324186Y383500D01*
X324439Y382232D01*
X325157Y381157D01*
X326232Y380439D01*
X327500Y380186D01*
X328768Y380439D01*
X329843Y381157D01*
X330561Y382232D01*
X330814Y383500D01*
X330561Y384768D01*
X329843Y385843D01*
X328768Y386561D01*
X327500Y386814D01*
D02*
G37*
G36*
X438100Y382514D02*
X436832Y382261D01*
X435757Y381543D01*
X435039Y380468D01*
X434786Y379200D01*
X435039Y377932D01*
X435757Y376857D01*
X436832Y376139D01*
X438100Y375886D01*
X439368Y376139D01*
X440443Y376857D01*
X441161Y377932D01*
X441414Y379200D01*
X441161Y380468D01*
X440443Y381543D01*
X439368Y382261D01*
X438100Y382514D01*
D02*
G37*
G36*
X316900Y372114D02*
X315632Y371861D01*
X314557Y371143D01*
X313839Y370068D01*
X313586Y368800D01*
X313839Y367532D01*
X314557Y366457D01*
X315632Y365739D01*
X316900Y365486D01*
X318168Y365739D01*
X319243Y366457D01*
X319961Y367532D01*
X320214Y368800D01*
X319961Y370068D01*
X319243Y371143D01*
X318168Y371861D01*
X316900Y372114D01*
D02*
G37*
G36*
X167700Y378414D02*
X166432Y378162D01*
X165357Y377443D01*
X164638Y376368D01*
X164386Y375100D01*
X164638Y373832D01*
X165357Y372757D01*
X166432Y372039D01*
X167521Y371822D01*
X167767Y371256D01*
X167822Y370820D01*
X167557Y370643D01*
X166839Y369568D01*
X166586Y368300D01*
X166839Y367032D01*
X167557Y365957D01*
X168632Y365239D01*
X169900Y364986D01*
X171168Y365239D01*
X172243Y365957D01*
X172961Y367032D01*
X173214Y368300D01*
X172961Y369568D01*
X172243Y370643D01*
X171168Y371361D01*
X170078Y371578D01*
X169833Y372144D01*
X169778Y372580D01*
X170043Y372757D01*
X170761Y373832D01*
X171013Y375100D01*
X170761Y376368D01*
X170043Y377443D01*
X168968Y378162D01*
X167700Y378414D01*
D02*
G37*
G36*
X122750Y374364D02*
X121482Y374111D01*
X120407Y373393D01*
X119689Y372318D01*
X119436Y371050D01*
X119689Y369782D01*
X120407Y368707D01*
X121482Y367989D01*
X122750Y367736D01*
X124018Y367989D01*
X125093Y368707D01*
X125811Y369782D01*
X126064Y371050D01*
X125811Y372318D01*
X125093Y373393D01*
X124018Y374111D01*
X122750Y374364D01*
D02*
G37*
G36*
X448300Y373414D02*
X447032Y373161D01*
X445957Y372443D01*
X445239Y371368D01*
X444986Y370100D01*
X445239Y368832D01*
X445957Y367757D01*
X447032Y367039D01*
X448300Y366786D01*
X449568Y367039D01*
X450643Y367757D01*
X451361Y368832D01*
X451614Y370100D01*
X451361Y371368D01*
X450643Y372443D01*
X449568Y373161D01*
X448300Y373414D01*
D02*
G37*
G36*
X236390Y215064D02*
X235122Y214811D01*
X234047Y214093D01*
X233329Y213018D01*
X233076Y211750D01*
X233329Y210482D01*
X234047Y209407D01*
X235122Y208689D01*
X236390Y208436D01*
X237658Y208689D01*
X238733Y209407D01*
X239451Y210482D01*
X239704Y211750D01*
X239451Y213018D01*
X238733Y214093D01*
X237658Y214811D01*
X236390Y215064D01*
D02*
G37*
G36*
X25400Y161982D02*
X22920Y161656D01*
X20609Y160698D01*
X18625Y159175D01*
X17102Y157191D01*
X16144Y154880D01*
X15818Y152400D01*
X16144Y149920D01*
X17102Y147609D01*
X18625Y145625D01*
X20609Y144102D01*
X22920Y143145D01*
X25400Y142818D01*
X27880Y143145D01*
X30191Y144102D01*
X32175Y145625D01*
X33698Y147609D01*
X34655Y149920D01*
X34982Y152400D01*
X34655Y154880D01*
X33698Y157191D01*
X32175Y159175D01*
X30191Y160698D01*
X27880Y161656D01*
X25400Y161982D01*
D02*
G37*
G36*
X49400Y147914D02*
X48132Y147661D01*
X47057Y146943D01*
X46339Y145868D01*
X46086Y144600D01*
X46339Y143332D01*
X47057Y142257D01*
X48132Y141539D01*
X49400Y141286D01*
X50668Y141539D01*
X51743Y142257D01*
X52461Y143332D01*
X52714Y144600D01*
X52461Y145868D01*
X51743Y146943D01*
X50668Y147661D01*
X49400Y147914D01*
D02*
G37*
G36*
X385900Y149814D02*
X384632Y149561D01*
X383557Y148843D01*
X382839Y147768D01*
X382586Y146500D01*
X382839Y145232D01*
X383557Y144157D01*
X384632Y143439D01*
X385900Y143186D01*
X387168Y143439D01*
X388243Y144157D01*
X388961Y145232D01*
X389214Y146500D01*
X388961Y147768D01*
X388243Y148843D01*
X387168Y149561D01*
X385900Y149814D01*
D02*
G37*
G36*
X508000Y161982D02*
X505520Y161656D01*
X503209Y160698D01*
X501225Y159175D01*
X499702Y157191D01*
X498745Y154880D01*
X498418Y152400D01*
X498745Y149920D01*
X499702Y147609D01*
X501225Y145625D01*
X503209Y144102D01*
X505520Y143145D01*
X508000Y142818D01*
X510480Y143145D01*
X512791Y144102D01*
X514775Y145625D01*
X516298Y147609D01*
X517256Y149920D01*
X517582Y152400D01*
X517256Y154880D01*
X516298Y157191D01*
X514775Y159175D01*
X512791Y160698D01*
X510480Y161656D01*
X508000Y161982D01*
D02*
G37*
G36*
X385800Y133514D02*
X384532Y133261D01*
X383457Y132543D01*
X382739Y131468D01*
X382486Y130200D01*
X382739Y128932D01*
X383457Y127857D01*
X384532Y127139D01*
X385800Y126886D01*
X387068Y127139D01*
X388143Y127857D01*
X388861Y128932D01*
X389114Y130200D01*
X388861Y131468D01*
X388143Y132543D01*
X387068Y133261D01*
X385800Y133514D01*
D02*
G37*
G36*
X363200D02*
X361932Y133261D01*
X360857Y132543D01*
X360139Y131468D01*
X359886Y130200D01*
X360139Y128932D01*
X360857Y127857D01*
X361932Y127139D01*
X363200Y126886D01*
X364468Y127139D01*
X365543Y127857D01*
X366261Y128932D01*
X366514Y130200D01*
X366261Y131468D01*
X365543Y132543D01*
X364468Y133261D01*
X363200Y133514D01*
D02*
G37*
G36*
X99100Y136114D02*
X97832Y135861D01*
X96757Y135143D01*
X96039Y134068D01*
X95786Y132800D01*
X96039Y131532D01*
X96757Y130457D01*
X97832Y129739D01*
X99100Y129486D01*
X100368Y129739D01*
X101443Y130457D01*
X102161Y131532D01*
X102414Y132800D01*
X102161Y134068D01*
X101443Y135143D01*
X100368Y135861D01*
X99100Y136114D01*
D02*
G37*
G36*
X49400Y135214D02*
X48132Y134961D01*
X47057Y134243D01*
X46339Y133168D01*
X46086Y131900D01*
X46339Y130632D01*
X47057Y129557D01*
X48132Y128839D01*
X49400Y128586D01*
X50668Y128839D01*
X51743Y129557D01*
X52461Y130632D01*
X52714Y131900D01*
X52461Y133168D01*
X51743Y134243D01*
X50668Y134961D01*
X49400Y135214D01*
D02*
G37*
G36*
X363250Y149864D02*
X361982Y149611D01*
X360907Y148893D01*
X360189Y147818D01*
X359936Y146550D01*
X360189Y145282D01*
X360907Y144207D01*
X361982Y143489D01*
X363250Y143236D01*
X364518Y143489D01*
X365593Y144207D01*
X366311Y145282D01*
X366564Y146550D01*
X366311Y147818D01*
X365593Y148893D01*
X364518Y149611D01*
X363250Y149864D01*
D02*
G37*
G36*
X49400Y160614D02*
X48132Y160361D01*
X47057Y159643D01*
X46339Y158568D01*
X46086Y157300D01*
X46339Y156032D01*
X47057Y154957D01*
X48132Y154239D01*
X49400Y153986D01*
X50668Y154239D01*
X51743Y154957D01*
X52461Y156032D01*
X52714Y157300D01*
X52461Y158568D01*
X51743Y159643D01*
X50668Y160361D01*
X49400Y160614D01*
D02*
G37*
G36*
X469800Y156014D02*
X468532Y155761D01*
X467457Y155043D01*
X466739Y153968D01*
X466486Y152700D01*
X466739Y151432D01*
X467457Y150357D01*
X468532Y149639D01*
X469800Y149386D01*
X471068Y149639D01*
X472143Y150357D01*
X472861Y151432D01*
X473114Y152700D01*
X472861Y153968D01*
X472143Y155043D01*
X471068Y155761D01*
X469800Y156014D01*
D02*
G37*
G36*
X99900Y162614D02*
X98632Y162361D01*
X97557Y161643D01*
X96839Y160568D01*
X96586Y159300D01*
X96839Y158032D01*
X97557Y156957D01*
X98632Y156239D01*
X99900Y155986D01*
X101168Y156239D01*
X102243Y156957D01*
X102961Y158032D01*
X103214Y159300D01*
X102961Y160568D01*
X102243Y161643D01*
X101168Y162361D01*
X99900Y162614D01*
D02*
G37*
G36*
X280610Y164444D02*
X279342Y164191D01*
X278267Y163473D01*
X277549Y162398D01*
X277296Y161130D01*
X277549Y159862D01*
X278267Y158787D01*
X278805Y158427D01*
X278594Y157366D01*
X278472Y157341D01*
X277397Y156623D01*
X276679Y155548D01*
X276426Y154280D01*
X276679Y153012D01*
X277397Y151937D01*
X278472Y151219D01*
X279740Y150966D01*
X281008Y151219D01*
X282083Y151937D01*
X282801Y153012D01*
X282969Y153856D01*
X283641Y154389D01*
X284032Y154461D01*
X285060Y154256D01*
X286328Y154509D01*
X287403Y155227D01*
X288121Y156302D01*
X288374Y157570D01*
X288121Y158838D01*
X287403Y159913D01*
X286328Y160631D01*
X285060Y160884D01*
X284807Y160833D01*
X283819Y161656D01*
X283671Y162398D01*
X282953Y163473D01*
X281878Y164191D01*
X280610Y164444D01*
D02*
G37*
G36*
X188000Y150914D02*
X186732Y150661D01*
X185657Y149943D01*
X184939Y148868D01*
X184686Y147600D01*
X184939Y146332D01*
X185657Y145257D01*
X186732Y144539D01*
X188000Y144286D01*
X189268Y144539D01*
X190343Y145257D01*
X191061Y146332D01*
X191314Y147600D01*
X191061Y148868D01*
X190343Y149943D01*
X189268Y150661D01*
X188000Y150914D01*
D02*
G37*
G36*
X168600Y150914D02*
X167332Y150661D01*
X166257Y149943D01*
X165539Y148868D01*
X165286Y147600D01*
X165539Y146332D01*
X166257Y145257D01*
X167332Y144539D01*
X168600Y144286D01*
X169868Y144539D01*
X170943Y145257D01*
X171661Y146332D01*
X171914Y147600D01*
X171661Y148868D01*
X170943Y149943D01*
X169868Y150661D01*
X168600Y150914D01*
D02*
G37*
G36*
X220930Y151324D02*
X219662Y151071D01*
X218587Y150353D01*
X217869Y149278D01*
X217729Y148579D01*
X217168Y147963D01*
X216654Y147910D01*
X215780Y148084D01*
X214512Y147831D01*
X213437Y147113D01*
X213265Y146855D01*
X212062D01*
X211903Y147093D01*
X210828Y147811D01*
X209560Y148064D01*
X208292Y147811D01*
X207217Y147093D01*
X206499Y146018D01*
X206246Y144750D01*
X206499Y143482D01*
X207217Y142407D01*
X208292Y141689D01*
X209560Y141436D01*
X210828Y141689D01*
X211903Y142407D01*
X212075Y142665D01*
X213278D01*
X213437Y142427D01*
X214512Y141709D01*
X215780Y141456D01*
X217048Y141709D01*
X218123Y142427D01*
X218841Y143502D01*
X218981Y144201D01*
X219542Y144817D01*
X220056Y144870D01*
X220930Y144696D01*
X222198Y144949D01*
X223273Y145667D01*
X223991Y146742D01*
X224244Y148010D01*
X223991Y149278D01*
X223273Y150353D01*
X222198Y151071D01*
X220930Y151324D01*
D02*
G37*
G36*
X260930D02*
X259662Y151071D01*
X258587Y150353D01*
X257869Y149278D01*
X257728Y148572D01*
X257361Y147967D01*
X256642Y147846D01*
X255950Y147984D01*
X255220Y147838D01*
X254532Y147959D01*
X254133Y148564D01*
X253991Y149278D01*
X253273Y150353D01*
X252198Y151071D01*
X250930Y151324D01*
X249662Y151071D01*
X248587Y150353D01*
X247869Y149278D01*
X247728Y148572D01*
X247361Y147967D01*
X246642Y147846D01*
X245950Y147984D01*
X245220Y147838D01*
X244532Y147959D01*
X244133Y148564D01*
X243991Y149278D01*
X243273Y150353D01*
X242198Y151071D01*
X240930Y151324D01*
X239662Y151071D01*
X238587Y150353D01*
X237869Y149278D01*
X237616Y148010D01*
X237869Y146742D01*
X238587Y145667D01*
X239662Y144949D01*
X240930Y144696D01*
X241660Y144842D01*
X242348Y144721D01*
X242747Y144116D01*
X242889Y143402D01*
X243607Y142327D01*
X244682Y141609D01*
X245950Y141356D01*
X247218Y141609D01*
X248293Y142327D01*
X249011Y143402D01*
X249152Y144108D01*
X249519Y144713D01*
X250238Y144834D01*
X250930Y144696D01*
X251660Y144842D01*
X252348Y144721D01*
X252747Y144116D01*
X252889Y143402D01*
X253607Y142327D01*
X254682Y141609D01*
X255950Y141356D01*
X257218Y141609D01*
X258293Y142327D01*
X259011Y143402D01*
X259152Y144108D01*
X259519Y144713D01*
X260238Y144834D01*
X260930Y144696D01*
X262198Y144949D01*
X263273Y145667D01*
X263991Y146742D01*
X264049Y147033D01*
X264049Y147033D01*
X264137Y147476D01*
X264153Y147473D01*
X264232Y147458D01*
X264279Y147449D01*
X264430Y147420D01*
X265199Y146876D01*
X265265Y146541D01*
X265369Y146022D01*
X265406Y145965D01*
X266087Y144947D01*
X267162Y144229D01*
X268430Y143976D01*
X269698Y144229D01*
X270773Y144947D01*
X271491Y146022D01*
X271744Y147290D01*
X271491Y148558D01*
X270773Y149633D01*
X269698Y150351D01*
X268430Y150604D01*
X267162Y150351D01*
X266087Y149633D01*
X265369Y148558D01*
X265311Y148267D01*
Y148267D01*
X265223Y147824D01*
X265208Y147827D01*
X265128Y147842D01*
X265081Y147851D01*
X264930Y147880D01*
X264161Y148424D01*
X264095Y148759D01*
X263991Y149278D01*
X263954Y149334D01*
X263273Y150353D01*
X262198Y151071D01*
X260930Y151324D01*
D02*
G37*
G36*
X177800Y59882D02*
X175320Y59556D01*
X173009Y58598D01*
X171024Y57076D01*
X169502Y55091D01*
X168545Y52780D01*
X168218Y50300D01*
X168545Y47820D01*
X169502Y45509D01*
X171024Y43525D01*
X173009Y42002D01*
X175320Y41045D01*
X177800Y40718D01*
X180280Y41045D01*
X182591Y42002D01*
X184575Y43525D01*
X186098Y45509D01*
X187055Y47820D01*
X187382Y50300D01*
X187055Y52780D01*
X186098Y55091D01*
X184575Y57076D01*
X182591Y58598D01*
X180280Y59556D01*
X177800Y59882D01*
D02*
G37*
G36*
X263500Y34400D02*
X244500D01*
Y15400D01*
X263500D01*
Y34400D01*
D02*
G37*
G36*
X228600Y59882D02*
X226120Y59556D01*
X223809Y58598D01*
X221824Y57076D01*
X220302Y55091D01*
X219345Y52780D01*
X219018Y50300D01*
X219345Y47820D01*
X220302Y45509D01*
X221824Y43525D01*
X223809Y42002D01*
X226120Y41045D01*
X228600Y40718D01*
X231080Y41045D01*
X233391Y42002D01*
X235375Y43525D01*
X236898Y45509D01*
X237855Y47820D01*
X238182Y50300D01*
X237855Y52780D01*
X236898Y55091D01*
X235375Y57076D01*
X233391Y58598D01*
X231080Y59556D01*
X228600Y59882D01*
D02*
G37*
G36*
X203200D02*
X200720Y59556D01*
X198409Y58598D01*
X196425Y57076D01*
X194902Y55091D01*
X193944Y52780D01*
X193618Y50300D01*
X193944Y47820D01*
X194902Y45509D01*
X196425Y43525D01*
X198409Y42002D01*
X200720Y41045D01*
X203200Y40718D01*
X205680Y41045D01*
X207991Y42002D01*
X209975Y43525D01*
X211498Y45509D01*
X212456Y47820D01*
X212782Y50300D01*
X212456Y52780D01*
X211498Y55091D01*
X209975Y57076D01*
X207991Y58598D01*
X205680Y59556D01*
X203200Y59882D01*
D02*
G37*
G36*
X355600Y43487D02*
X352071Y43140D01*
X348678Y42110D01*
X345551Y40439D01*
X342811Y38189D01*
X340561Y35449D01*
X338890Y32322D01*
X337860Y28929D01*
X337513Y25400D01*
X337860Y21871D01*
X338890Y18478D01*
X340561Y15351D01*
X342811Y12610D01*
X345551Y10361D01*
X348678Y8690D01*
X352071Y7660D01*
X355600Y7313D01*
X359129Y7660D01*
X362522Y8690D01*
X365649Y10361D01*
X368390Y12610D01*
X370639Y15351D01*
X372310Y18478D01*
X373340Y21871D01*
X373687Y25400D01*
X373340Y28929D01*
X372310Y32322D01*
X370639Y35449D01*
X368390Y38189D01*
X365649Y40439D01*
X362522Y42110D01*
X359129Y43140D01*
X355600Y43487D01*
D02*
G37*
G36*
X76200D02*
X72671Y43140D01*
X69278Y42110D01*
X66151Y40439D01*
X63411Y38189D01*
X61161Y35449D01*
X59490Y32322D01*
X58460Y28929D01*
X58113Y25400D01*
X58460Y21871D01*
X59490Y18478D01*
X61161Y15351D01*
X63411Y12610D01*
X66151Y10361D01*
X69278Y8690D01*
X72671Y7660D01*
X76200Y7313D01*
X79729Y7660D01*
X83122Y8690D01*
X86249Y10361D01*
X88989Y12610D01*
X91239Y15351D01*
X92910Y18478D01*
X93940Y21871D01*
X94287Y25400D01*
X93940Y28929D01*
X92910Y32322D01*
X91239Y35449D01*
X88989Y38189D01*
X86249Y40439D01*
X83122Y42110D01*
X79729Y43140D01*
X76200Y43487D01*
D02*
G37*
G36*
X203200Y34482D02*
X200720Y34155D01*
X198409Y33198D01*
X196425Y31676D01*
X194902Y29691D01*
X193944Y27380D01*
X193618Y24900D01*
X193944Y22420D01*
X194902Y20109D01*
X196425Y18125D01*
X198409Y16602D01*
X200720Y15645D01*
X203200Y15318D01*
X205680Y15645D01*
X207991Y16602D01*
X209975Y18125D01*
X211498Y20109D01*
X212456Y22420D01*
X212782Y24900D01*
X212456Y27380D01*
X211498Y29691D01*
X209975Y31676D01*
X207991Y33198D01*
X205680Y34155D01*
X203200Y34482D01*
D02*
G37*
G36*
X177800D02*
X175320Y34155D01*
X173009Y33198D01*
X171024Y31676D01*
X169502Y29691D01*
X168545Y27380D01*
X168218Y24900D01*
X168545Y22420D01*
X169502Y20109D01*
X171024Y18125D01*
X173009Y16602D01*
X175320Y15645D01*
X177800Y15318D01*
X180280Y15645D01*
X182591Y16602D01*
X184575Y18125D01*
X186098Y20109D01*
X187055Y22420D01*
X187382Y24900D01*
X187055Y27380D01*
X186098Y29691D01*
X184575Y31676D01*
X182591Y33198D01*
X180280Y34155D01*
X177800Y34482D01*
D02*
G37*
G36*
X254000Y59882D02*
X251520Y59556D01*
X249209Y58598D01*
X247225Y57076D01*
X245702Y55091D01*
X244744Y52780D01*
X244418Y50300D01*
X244744Y47820D01*
X245702Y45509D01*
X247225Y43525D01*
X249209Y42002D01*
X251520Y41045D01*
X254000Y40718D01*
X256480Y41045D01*
X258791Y42002D01*
X260776Y43525D01*
X262298Y45509D01*
X263256Y47820D01*
X263582Y50300D01*
X263256Y52780D01*
X262298Y55091D01*
X260776Y57076D01*
X258791Y58598D01*
X256480Y59556D01*
X254000Y59882D01*
D02*
G37*
G36*
X508000Y111182D02*
X505520Y110856D01*
X503209Y109898D01*
X501225Y108376D01*
X499702Y106391D01*
X498745Y104080D01*
X498418Y101600D01*
X498745Y99120D01*
X499702Y96809D01*
X501225Y94824D01*
X503209Y93302D01*
X505520Y92345D01*
X508000Y92018D01*
X510480Y92345D01*
X512791Y93302D01*
X514775Y94824D01*
X516298Y96809D01*
X517256Y99120D01*
X517582Y101600D01*
X517256Y104080D01*
X516298Y106391D01*
X514775Y108376D01*
X512791Y109898D01*
X510480Y110856D01*
X508000Y111182D01*
D02*
G37*
G36*
X25400D02*
X22920Y110856D01*
X20609Y109898D01*
X18625Y108376D01*
X17102Y106391D01*
X16144Y104080D01*
X15818Y101600D01*
X16144Y99120D01*
X17102Y96809D01*
X18625Y94824D01*
X20609Y93302D01*
X22920Y92345D01*
X25400Y92018D01*
X27880Y92345D01*
X30191Y93302D01*
X32175Y94824D01*
X33698Y96809D01*
X34655Y99120D01*
X34982Y101600D01*
X34655Y104080D01*
X33698Y106391D01*
X32175Y108376D01*
X30191Y109898D01*
X27880Y110856D01*
X25400Y111182D01*
D02*
G37*
G36*
X508000Y136582D02*
X505520Y136256D01*
X503209Y135298D01*
X501225Y133775D01*
X499702Y131791D01*
X498745Y129480D01*
X498418Y127000D01*
X498745Y124520D01*
X499702Y122209D01*
X501225Y120225D01*
X503209Y118702D01*
X505520Y117745D01*
X508000Y117418D01*
X510480Y117745D01*
X512791Y118702D01*
X514775Y120225D01*
X516298Y122209D01*
X517256Y124520D01*
X517582Y127000D01*
X517256Y129480D01*
X516298Y131791D01*
X514775Y133775D01*
X512791Y135298D01*
X510480Y136256D01*
X508000Y136582D01*
D02*
G37*
G36*
X25400D02*
X22920Y136256D01*
X20609Y135298D01*
X18625Y133775D01*
X17102Y131791D01*
X16144Y129480D01*
X15818Y127000D01*
X16144Y124520D01*
X17102Y122209D01*
X18625Y120225D01*
X20609Y118702D01*
X22920Y117745D01*
X25400Y117418D01*
X27880Y117745D01*
X30191Y118702D01*
X32175Y120225D01*
X33698Y122209D01*
X34655Y124520D01*
X34982Y127000D01*
X34655Y129480D01*
X33698Y131791D01*
X32175Y133775D01*
X30191Y135298D01*
X27880Y136256D01*
X25400Y136582D01*
D02*
G37*
G36*
X517500Y60300D02*
X498500D01*
Y41300D01*
X517500D01*
Y60300D01*
D02*
G37*
G36*
X25400Y60382D02*
X22920Y60055D01*
X20609Y59098D01*
X18625Y57575D01*
X17102Y55591D01*
X16144Y53280D01*
X15818Y50800D01*
X16144Y48320D01*
X17102Y46009D01*
X18625Y44025D01*
X20609Y42502D01*
X22920Y41544D01*
X25400Y41218D01*
X27880Y41544D01*
X30191Y42502D01*
X32175Y44025D01*
X33698Y46009D01*
X34655Y48320D01*
X34982Y50800D01*
X34655Y53280D01*
X33698Y55591D01*
X32175Y57575D01*
X30191Y59098D01*
X27880Y60055D01*
X25400Y60382D01*
D02*
G37*
G36*
X508000Y85782D02*
X505520Y85456D01*
X503209Y84498D01*
X501225Y82975D01*
X499702Y80991D01*
X498745Y78680D01*
X498418Y76200D01*
X498745Y73720D01*
X499702Y71409D01*
X501225Y69425D01*
X503209Y67902D01*
X505520Y66944D01*
X508000Y66618D01*
X510480Y66944D01*
X512791Y67902D01*
X514775Y69425D01*
X516298Y71409D01*
X517256Y73720D01*
X517582Y76200D01*
X517256Y78680D01*
X516298Y80991D01*
X514775Y82975D01*
X512791Y84498D01*
X510480Y85456D01*
X508000Y85782D01*
D02*
G37*
G36*
X25400D02*
X22920Y85456D01*
X20609Y84498D01*
X18625Y82975D01*
X17102Y80991D01*
X16144Y78680D01*
X15818Y76200D01*
X16144Y73720D01*
X17102Y71409D01*
X18625Y69425D01*
X20609Y67902D01*
X22920Y66944D01*
X25400Y66618D01*
X27880Y66944D01*
X30191Y67902D01*
X32175Y69425D01*
X33698Y71409D01*
X34655Y73720D01*
X34982Y76200D01*
X34655Y78680D01*
X33698Y80991D01*
X32175Y82975D01*
X30191Y84498D01*
X27880Y85456D01*
X25400Y85782D01*
D02*
G37*
G36*
X201410Y195094D02*
X200142Y194841D01*
X199067Y194123D01*
X198349Y193048D01*
X198096Y191780D01*
X198349Y190512D01*
X197536Y189928D01*
X197202Y189861D01*
X196127Y189143D01*
X195409Y188068D01*
X195156Y186800D01*
X195409Y185532D01*
X196127Y184457D01*
X197202Y183739D01*
X198206Y183539D01*
X198549Y183335D01*
X198954Y182563D01*
X198796Y181770D01*
X198942Y181040D01*
X198821Y180352D01*
X198216Y179953D01*
X197502Y179811D01*
X196427Y179093D01*
X195709Y178018D01*
X195456Y176750D01*
X195709Y175482D01*
X196427Y174407D01*
X197502Y173689D01*
X198208Y173548D01*
X198813Y173181D01*
X198934Y172462D01*
X198796Y171770D01*
X198942Y171040D01*
X198821Y170352D01*
X198216Y169953D01*
X197502Y169811D01*
X196427Y169093D01*
X195709Y168018D01*
X195456Y166750D01*
X195709Y165482D01*
X196427Y164407D01*
X197502Y163689D01*
X198208Y163548D01*
X198813Y163181D01*
X198934Y162462D01*
X198796Y161770D01*
X199049Y160502D01*
X199767Y159427D01*
X200842Y158708D01*
X202110Y158456D01*
X203378Y158708D01*
X204453Y159427D01*
X205171Y160502D01*
X205424Y161770D01*
X205171Y163038D01*
X204453Y164113D01*
X203378Y164831D01*
X202672Y164972D01*
X202067Y165339D01*
X201946Y166058D01*
X202084Y166750D01*
X201938Y167480D01*
X202059Y168168D01*
X202664Y168567D01*
X203378Y168709D01*
X204453Y169427D01*
X205171Y170502D01*
X205424Y171770D01*
X205171Y173038D01*
X204453Y174113D01*
X203378Y174831D01*
X202672Y174972D01*
X202067Y175339D01*
X201946Y176058D01*
X202084Y176750D01*
X201938Y177480D01*
X202059Y178168D01*
X202664Y178567D01*
X203378Y178709D01*
X204453Y179427D01*
X205171Y180502D01*
X205424Y181770D01*
X205171Y183038D01*
X204453Y184113D01*
X203378Y184831D01*
X202374Y185031D01*
X202031Y185235D01*
X201626Y186007D01*
X201784Y186800D01*
X201531Y188068D01*
X202344Y188652D01*
X202678Y188719D01*
X203753Y189437D01*
X204471Y190512D01*
X204724Y191780D01*
X204471Y193048D01*
X203753Y194123D01*
X202678Y194841D01*
X201410Y195094D01*
D02*
G37*
G36*
X283260Y207404D02*
X281992Y207151D01*
X280917Y206433D01*
X280199Y205358D01*
X279946Y204090D01*
X280050Y203567D01*
X279686Y202666D01*
X279310Y202552D01*
X278401Y202371D01*
X277326Y201653D01*
X276607Y200578D01*
X276355Y199310D01*
X276607Y198042D01*
X277326Y196967D01*
X278401Y196248D01*
X279669Y195996D01*
X280937Y196248D01*
X282012Y196967D01*
X282730Y198042D01*
X282983Y199310D01*
X282879Y199833D01*
X283243Y200734D01*
X283619Y200848D01*
X284528Y201029D01*
X285603Y201747D01*
X286321Y202822D01*
X286574Y204090D01*
X286321Y205358D01*
X285603Y206433D01*
X284528Y207151D01*
X283260Y207404D01*
D02*
G37*
G36*
X508000Y212782D02*
X505520Y212456D01*
X503209Y211498D01*
X501225Y209975D01*
X499702Y207991D01*
X498745Y205680D01*
X498418Y203200D01*
X498745Y200720D01*
X499702Y198409D01*
X501225Y196425D01*
X503209Y194902D01*
X505520Y193944D01*
X508000Y193618D01*
X510480Y193944D01*
X512791Y194902D01*
X514775Y196425D01*
X516298Y198409D01*
X517256Y200720D01*
X517582Y203200D01*
X517256Y205680D01*
X516298Y207991D01*
X514775Y209975D01*
X512791Y211498D01*
X510480Y212456D01*
X508000Y212782D01*
D02*
G37*
G36*
X188000Y204114D02*
X186732Y203862D01*
X185657Y203143D01*
X184939Y202068D01*
X184686Y200800D01*
X184939Y199532D01*
X185657Y198457D01*
X186732Y197739D01*
X188000Y197486D01*
X189268Y197739D01*
X190343Y198457D01*
X191061Y199532D01*
X191314Y200800D01*
X191061Y202068D01*
X190343Y203143D01*
X189268Y203862D01*
X188000Y204114D01*
D02*
G37*
G36*
X430150Y203264D02*
X428882Y203011D01*
X427807Y202293D01*
X427089Y201218D01*
X426836Y199950D01*
X427089Y198682D01*
X427807Y197607D01*
X428882Y196889D01*
X430150Y196636D01*
X431418Y196889D01*
X432493Y197607D01*
X433211Y198682D01*
X433464Y199950D01*
X433211Y201218D01*
X432493Y202293D01*
X431418Y203011D01*
X430150Y203264D01*
D02*
G37*
G36*
X222400Y195144D02*
X221132Y194891D01*
X220057Y194173D01*
X219339Y193098D01*
X219086Y191830D01*
X219339Y190562D01*
X220057Y189487D01*
X221132Y188769D01*
X222400Y188516D01*
X223668Y188769D01*
X224743Y189487D01*
X225461Y190562D01*
X225714Y191830D01*
X225461Y193098D01*
X224743Y194173D01*
X223668Y194891D01*
X222400Y195144D01*
D02*
G37*
G36*
X101100Y195114D02*
X99832Y194861D01*
X98757Y194143D01*
X98039Y193068D01*
X97786Y191800D01*
X98039Y190532D01*
X98757Y189457D01*
X99832Y188739D01*
X101100Y188486D01*
X102368Y188739D01*
X103443Y189457D01*
X104161Y190532D01*
X104414Y191800D01*
X104161Y193068D01*
X103443Y194143D01*
X102368Y194861D01*
X101100Y195114D01*
D02*
G37*
G36*
X286230Y196584D02*
X284962Y196331D01*
X283887Y195613D01*
X283169Y194538D01*
X282916Y193270D01*
X283169Y192002D01*
X283887Y190927D01*
X284962Y190209D01*
X286230Y189956D01*
X287498Y190209D01*
X288573Y190927D01*
X289291Y192002D01*
X289544Y193270D01*
X289291Y194538D01*
X288573Y195613D01*
X287498Y196331D01*
X286230Y196584D01*
D02*
G37*
G36*
X423550Y196164D02*
X422282Y195911D01*
X421207Y195193D01*
X420489Y194118D01*
X420236Y192850D01*
X420489Y191582D01*
X421207Y190507D01*
X422282Y189789D01*
X423550Y189536D01*
X424818Y189789D01*
X425893Y190507D01*
X426611Y191582D01*
X426864Y192850D01*
X426611Y194118D01*
X425893Y195193D01*
X424818Y195911D01*
X423550Y196164D01*
D02*
G37*
G36*
X364300Y205114D02*
X363032Y204861D01*
X361957Y204143D01*
X361239Y203068D01*
X360986Y201800D01*
X361239Y200532D01*
X361957Y199457D01*
X363032Y198739D01*
X364300Y198486D01*
X365568Y198739D01*
X366643Y199457D01*
X367361Y200532D01*
X367614Y201800D01*
X367361Y203068D01*
X366643Y204143D01*
X365568Y204861D01*
X364300Y205114D01*
D02*
G37*
G36*
X230890Y209284D02*
X229622Y209031D01*
X228547Y208313D01*
X227829Y207238D01*
X227576Y205970D01*
X227829Y204702D01*
X228547Y203627D01*
X229622Y202909D01*
X230890Y202656D01*
X232158Y202909D01*
X233233Y203627D01*
X233951Y204702D01*
X234204Y205970D01*
X233951Y207238D01*
X233233Y208313D01*
X232158Y209031D01*
X230890Y209284D01*
D02*
G37*
G36*
X250880Y209154D02*
X249612Y208902D01*
X248537Y208183D01*
X247819Y207108D01*
X247566Y205840D01*
X247819Y204572D01*
X248537Y203497D01*
X249612Y202779D01*
X250880Y202526D01*
X252148Y202779D01*
X253223Y203497D01*
X253941Y204572D01*
X254194Y205840D01*
X253941Y207108D01*
X253223Y208183D01*
X252148Y208902D01*
X250880Y209154D01*
D02*
G37*
G36*
X260840Y215004D02*
X259572Y214751D01*
X258497Y214033D01*
X257779Y212958D01*
X257526Y211690D01*
X257779Y210422D01*
X258497Y209347D01*
X259572Y208629D01*
X260840Y208376D01*
X262108Y208629D01*
X263183Y209347D01*
X263901Y210422D01*
X264154Y211690D01*
X263901Y212958D01*
X263183Y214033D01*
X262108Y214751D01*
X260840Y215004D01*
D02*
G37*
G36*
X49400Y211414D02*
X48132Y211161D01*
X47057Y210443D01*
X46339Y209368D01*
X46086Y208100D01*
X46339Y206832D01*
X47057Y205757D01*
X48132Y205039D01*
X49400Y204786D01*
X50668Y205039D01*
X51743Y205757D01*
X52461Y206832D01*
X52714Y208100D01*
X52461Y209368D01*
X51743Y210443D01*
X50668Y211161D01*
X49400Y211414D01*
D02*
G37*
G36*
X101600Y207914D02*
X100332Y207661D01*
X99257Y206943D01*
X98539Y205868D01*
X98286Y204600D01*
X98539Y203332D01*
X99257Y202257D01*
X100332Y201539D01*
X101600Y201286D01*
X102868Y201539D01*
X103943Y202257D01*
X104661Y203332D01*
X104914Y204600D01*
X104661Y205868D01*
X103943Y206943D01*
X102868Y207661D01*
X101600Y207914D01*
D02*
G37*
G36*
X386900Y205114D02*
X385632Y204861D01*
X384557Y204143D01*
X383839Y203068D01*
X383586Y201800D01*
X383839Y200532D01*
X384557Y199457D01*
X385632Y198739D01*
X386900Y198486D01*
X388168Y198739D01*
X389243Y199457D01*
X389961Y200532D01*
X390214Y201800D01*
X389961Y203068D01*
X389243Y204143D01*
X388168Y204861D01*
X386900Y205114D01*
D02*
G37*
G36*
X208340Y209144D02*
X207072Y208891D01*
X205997Y208173D01*
X205279Y207098D01*
X205026Y205830D01*
X205279Y204562D01*
X205997Y203487D01*
X207072Y202769D01*
X208340Y202516D01*
X209608Y202769D01*
X210683Y203487D01*
X211401Y204562D01*
X211654Y205830D01*
X211401Y207098D01*
X210683Y208173D01*
X209608Y208891D01*
X208340Y209144D01*
D02*
G37*
G36*
X242110Y208844D02*
X240842Y208592D01*
X239767Y207873D01*
X239048Y206798D01*
X238796Y205530D01*
X239048Y204262D01*
X239767Y203187D01*
X240842Y202469D01*
X242110Y202217D01*
X243378Y202469D01*
X244453Y203187D01*
X245171Y204262D01*
X245423Y205530D01*
X245171Y206798D01*
X244453Y207873D01*
X243378Y208592D01*
X242110Y208844D01*
D02*
G37*
G36*
X240880Y170264D02*
X239612Y170011D01*
X238537Y169293D01*
X238249Y168862D01*
X237721Y168263D01*
X236968Y168608D01*
X236558Y168881D01*
X235290Y169134D01*
X234022Y168881D01*
X232947Y168163D01*
X232229Y167088D01*
X231976Y165820D01*
X232047Y165466D01*
X231191Y164642D01*
X230530Y164774D01*
X229262Y164521D01*
X228187Y163803D01*
X227469Y162728D01*
X227216Y161460D01*
X227469Y160192D01*
X228187Y159117D01*
X229262Y158399D01*
X230530Y158146D01*
X231798Y158399D01*
X232873Y159117D01*
X233591Y160192D01*
X233844Y161460D01*
X233773Y161814D01*
X234629Y162638D01*
X235290Y162506D01*
X236558Y162759D01*
X237633Y163477D01*
X237921Y163907D01*
X238449Y164507D01*
X239202Y164162D01*
X239612Y163888D01*
X240880Y163636D01*
X242148Y163888D01*
X243223Y164607D01*
X243941Y165682D01*
X244194Y166950D01*
X243941Y168218D01*
X243223Y169293D01*
X242148Y170011D01*
X240880Y170264D01*
D02*
G37*
G36*
X508000Y187382D02*
X505520Y187055D01*
X503209Y186098D01*
X501225Y184575D01*
X499702Y182591D01*
X498745Y180280D01*
X498418Y177800D01*
X498745Y175320D01*
X499702Y173009D01*
X501225Y171024D01*
X503209Y169502D01*
X505520Y168545D01*
X508000Y168218D01*
X510480Y168545D01*
X512791Y169502D01*
X514775Y171024D01*
X516298Y173009D01*
X517256Y175320D01*
X517582Y177800D01*
X517256Y180280D01*
X516298Y182591D01*
X514775Y184575D01*
X512791Y186098D01*
X510480Y187055D01*
X508000Y187382D01*
D02*
G37*
G36*
X219560Y177514D02*
X218292Y177261D01*
X217217Y176543D01*
X216499Y175468D01*
X216246Y174200D01*
X216499Y172932D01*
X217217Y171857D01*
X218292Y171139D01*
X219560Y170886D01*
X220828Y171139D01*
X221903Y171857D01*
X222621Y172932D01*
X222874Y174200D01*
X222621Y175468D01*
X221903Y176543D01*
X220828Y177261D01*
X219560Y177514D01*
D02*
G37*
G36*
X34900Y187300D02*
X15900D01*
Y168300D01*
X34900D01*
Y187300D01*
D02*
G37*
G36*
X188000Y168714D02*
X186732Y168461D01*
X185657Y167743D01*
X184939Y166668D01*
X184686Y165400D01*
X184939Y164132D01*
X185657Y163057D01*
X186732Y162339D01*
X188000Y162086D01*
X189268Y162339D01*
X190343Y163057D01*
X191061Y164132D01*
X191314Y165400D01*
X191061Y166668D01*
X190343Y167743D01*
X189268Y168461D01*
X188000Y168714D01*
D02*
G37*
G36*
X260860Y166664D02*
X259592Y166411D01*
X258517Y165693D01*
X257799Y164618D01*
X257546Y163350D01*
X257799Y162082D01*
X258517Y161007D01*
X259592Y160289D01*
X260860Y160036D01*
X262128Y160289D01*
X263203Y161007D01*
X263921Y162082D01*
X264174Y163350D01*
X263921Y164618D01*
X263203Y165693D01*
X262128Y166411D01*
X260860Y166664D01*
D02*
G37*
G36*
X439350Y178814D02*
X438082Y178561D01*
X437007Y177843D01*
X436289Y176768D01*
X436036Y175500D01*
X436289Y174232D01*
X437007Y173157D01*
X438082Y172439D01*
X439350Y172186D01*
X440251Y172365D01*
X440849Y171481D01*
X440339Y170718D01*
X440086Y169450D01*
X440339Y168182D01*
X440574Y167829D01*
X439973Y166929D01*
X439800Y166964D01*
X438532Y166711D01*
X437457Y165993D01*
X436739Y164918D01*
X436486Y163650D01*
X436739Y162382D01*
X437457Y161307D01*
X438532Y160589D01*
X439800Y160336D01*
X439954Y160367D01*
X440555Y159467D01*
X440289Y159068D01*
X440036Y157800D01*
X440289Y156532D01*
X441007Y155457D01*
X442082Y154739D01*
X443350Y154486D01*
X444618Y154739D01*
X445693Y155457D01*
X446411Y156532D01*
X446664Y157800D01*
X446411Y159068D01*
X445693Y160143D01*
X444618Y160861D01*
X443350Y161114D01*
X443196Y161083D01*
X442595Y161983D01*
X442861Y162382D01*
X443114Y163650D01*
X442861Y164918D01*
X442626Y165271D01*
X443227Y166171D01*
X443400Y166136D01*
X444668Y166389D01*
X445743Y167107D01*
X446461Y168182D01*
X446714Y169450D01*
X446461Y170718D01*
X445743Y171793D01*
X444668Y172511D01*
X443400Y172764D01*
X442499Y172584D01*
X441901Y173468D01*
X442411Y174232D01*
X442664Y175500D01*
X442411Y176768D01*
X441693Y177843D01*
X440618Y178561D01*
X439350Y178814D01*
D02*
G37*
G36*
X49300Y173314D02*
X48032Y173061D01*
X46957Y172343D01*
X46239Y171268D01*
X45986Y170000D01*
X46239Y168732D01*
X46957Y167657D01*
X48032Y166939D01*
X49300Y166686D01*
X50568Y166939D01*
X51643Y167657D01*
X52361Y168732D01*
X52614Y170000D01*
X52361Y171268D01*
X51643Y172343D01*
X50568Y173061D01*
X49300Y173314D01*
D02*
G37*
G36*
X214940Y189974D02*
X213672Y189721D01*
X212597Y189003D01*
X211879Y187928D01*
X211626Y186660D01*
X211879Y185392D01*
X212597Y184317D01*
X213672Y183599D01*
X214940Y183346D01*
X216208Y183599D01*
X216309Y183666D01*
X217209Y183065D01*
X217136Y182700D01*
X217389Y181432D01*
X218107Y180357D01*
X219182Y179639D01*
X220450Y179386D01*
X221718Y179639D01*
X222803Y179161D01*
X222919Y178582D01*
X223637Y177507D01*
X224185Y177141D01*
X224698Y176742D01*
X224440Y175859D01*
X224199Y175498D01*
X223946Y174230D01*
X224199Y172962D01*
X224917Y171887D01*
X225992Y171169D01*
X227260Y170916D01*
X228528Y171169D01*
X229603Y171887D01*
X230321Y172962D01*
X230574Y174230D01*
X230321Y175498D01*
X229603Y176573D01*
X229055Y176939D01*
X228542Y177337D01*
X228800Y178221D01*
X229041Y178582D01*
X229294Y179850D01*
X229041Y181118D01*
X228323Y182193D01*
X227248Y182911D01*
X225980Y183164D01*
X224712Y182911D01*
X223627Y183389D01*
X223511Y183968D01*
X222793Y185043D01*
X221718Y185761D01*
X220450Y186014D01*
X219182Y185761D01*
X219081Y185694D01*
X218181Y186295D01*
X218254Y186660D01*
X218001Y187928D01*
X217283Y189003D01*
X216208Y189721D01*
X214940Y189974D01*
D02*
G37*
G36*
X266170Y189794D02*
X264902Y189541D01*
X263827Y188823D01*
X263109Y187748D01*
X262856Y186480D01*
X263109Y185212D01*
X263827Y184137D01*
X264902Y183419D01*
X266170Y183166D01*
X267438Y183419D01*
X268513Y184137D01*
X269231Y185212D01*
X269484Y186480D01*
X269231Y187748D01*
X268513Y188823D01*
X267438Y189541D01*
X266170Y189794D01*
D02*
G37*
G36*
X375400Y182514D02*
X374132Y182261D01*
X373057Y181543D01*
X372867Y181258D01*
X371867D01*
X371743Y181443D01*
X370668Y182161D01*
X369400Y182414D01*
X368132Y182161D01*
X367057Y181443D01*
X367000Y181358D01*
X366000D01*
X365943Y181443D01*
X364868Y182161D01*
X363600Y182414D01*
X362332Y182161D01*
X361257Y181443D01*
X361190Y181343D01*
X361091D01*
X360066Y181461D01*
X359168Y182061D01*
X357900Y182314D01*
X356632Y182061D01*
X355557Y181343D01*
X354839Y180268D01*
X354586Y179000D01*
X354839Y177732D01*
X355557Y176657D01*
X356632Y175939D01*
X357900Y175686D01*
X359168Y175939D01*
X360243Y176657D01*
X360310Y176757D01*
X360409D01*
X361434Y176639D01*
X362332Y176039D01*
X363600Y175786D01*
X364868Y176039D01*
X365943Y176757D01*
X366000Y176842D01*
X367000D01*
X367057Y176757D01*
X368132Y176039D01*
X369400Y175786D01*
X370668Y176039D01*
X371743Y176757D01*
X371933Y177042D01*
X372933D01*
X373057Y176857D01*
X374132Y176139D01*
X375400Y175886D01*
X376668Y176139D01*
X377743Y176857D01*
X378461Y177932D01*
X378714Y179200D01*
X378461Y180468D01*
X377743Y181543D01*
X376668Y182261D01*
X375400Y182514D01*
D02*
G37*
G36*
X240900Y196143D02*
X239632Y195891D01*
X238557Y195173D01*
X237838Y194097D01*
X237586Y192829D01*
X237838Y191561D01*
X238525Y190534D01*
X238557Y190486D01*
X238437Y189364D01*
X237957Y189043D01*
X237239Y187968D01*
X236986Y186700D01*
X237239Y185432D01*
X237957Y184357D01*
X239032Y183639D01*
X240300Y183386D01*
X241568Y183639D01*
X242643Y184357D01*
X242795Y184585D01*
X243557Y185187D01*
X244077Y184839D01*
X244632Y184469D01*
X245900Y184216D01*
X247168Y184469D01*
X248243Y185187D01*
X248961Y186262D01*
X249115Y187034D01*
X249431Y187582D01*
X250187Y187763D01*
X250870Y187627D01*
X252138Y187879D01*
X253213Y188597D01*
X253931Y189672D01*
X254184Y190940D01*
X253931Y192208D01*
X253213Y193284D01*
X252138Y194002D01*
X250870Y194254D01*
X249602Y194002D01*
X248527Y193284D01*
X247809Y192208D01*
X247655Y191437D01*
X247339Y190889D01*
X246583Y190708D01*
X245900Y190844D01*
X244632Y190591D01*
X244422Y190451D01*
X243701Y191172D01*
X243961Y191561D01*
X244214Y192829D01*
X243961Y194097D01*
X243243Y195173D01*
X242168Y195891D01*
X240900Y196143D01*
D02*
G37*
G36*
X229850Y191754D02*
X228582Y191501D01*
X227507Y190783D01*
X226789Y189708D01*
X226536Y188440D01*
X226789Y187172D01*
X227507Y186097D01*
X228582Y185379D01*
X229850Y185126D01*
X231118Y185379D01*
X232193Y186097D01*
X232911Y187172D01*
X233164Y188440D01*
X232911Y189708D01*
X232193Y190783D01*
X231118Y191501D01*
X229850Y191754D01*
D02*
G37*
G36*
X279690Y188874D02*
X278422Y188621D01*
X277347Y187903D01*
X276629Y186828D01*
X276376Y185560D01*
X276629Y184292D01*
X277347Y183217D01*
X278422Y182499D01*
X279690Y182246D01*
X280958Y182499D01*
X282033Y183217D01*
X282188Y183449D01*
X283029Y182938D01*
X282776Y181670D01*
X283029Y180402D01*
X283747Y179327D01*
X284822Y178609D01*
X286090Y178356D01*
X287358Y178609D01*
X288433Y179327D01*
X289151Y180402D01*
X289404Y181670D01*
X289151Y182938D01*
X288433Y184013D01*
X287358Y184731D01*
X286090Y184984D01*
X284822Y184731D01*
X283747Y184013D01*
X283592Y183781D01*
X282751Y184292D01*
X283004Y185560D01*
X282751Y186828D01*
X282033Y187903D01*
X280958Y188621D01*
X279690Y188874D01*
D02*
G37*
G36*
X98600Y181114D02*
X97332Y180861D01*
X96257Y180143D01*
X95539Y179068D01*
X95286Y177800D01*
X95539Y176532D01*
X96257Y175457D01*
X97332Y174739D01*
X98600Y174486D01*
X99868Y174739D01*
X100943Y175457D01*
X101661Y176532D01*
X101914Y177800D01*
X101661Y179068D01*
X100943Y180143D01*
X99868Y180861D01*
X98600Y181114D01*
D02*
G37*
G36*
X188000Y186314D02*
X186732Y186061D01*
X185657Y185343D01*
X184939Y184268D01*
X184686Y183000D01*
X184939Y181732D01*
X185657Y180657D01*
X186732Y179939D01*
X188000Y179686D01*
X189268Y179939D01*
X190343Y180657D01*
X191061Y181732D01*
X191314Y183000D01*
X191061Y184268D01*
X190343Y185343D01*
X189268Y186061D01*
X188000Y186314D01*
D02*
G37*
G36*
X49400Y186014D02*
X48132Y185761D01*
X47057Y185043D01*
X46339Y183968D01*
X46086Y182700D01*
X46339Y181432D01*
X47057Y180357D01*
X48132Y179639D01*
X49400Y179386D01*
X50668Y179639D01*
X51743Y180357D01*
X52461Y181432D01*
X52714Y182700D01*
X52461Y183968D01*
X51743Y185043D01*
X50668Y185761D01*
X49400Y186014D01*
D02*
G37*
G36*
X274000Y590314D02*
X272732Y590061D01*
X271657Y589343D01*
X270939Y588268D01*
X270686Y587000D01*
X270939Y585732D01*
X271657Y584657D01*
X272732Y583939D01*
X274000Y583686D01*
X275268Y583939D01*
X276343Y584657D01*
X277061Y585732D01*
X277314Y587000D01*
X277061Y588268D01*
X276343Y589343D01*
X275268Y590061D01*
X274000Y590314D01*
D02*
G37*
G36*
X240800Y586114D02*
X239532Y585861D01*
X238457Y585143D01*
X237739Y584068D01*
X237486Y582800D01*
X237739Y581532D01*
X238457Y580457D01*
X239532Y579739D01*
X240800Y579486D01*
X242068Y579739D01*
X243143Y580457D01*
X243861Y581532D01*
X244114Y582800D01*
X243861Y584068D01*
X243143Y585143D01*
X242068Y585861D01*
X240800Y586114D01*
D02*
G37*
G36*
X227500Y590914D02*
X226232Y590661D01*
X225157Y589943D01*
X224439Y588868D01*
X224186Y587600D01*
X224439Y586332D01*
X225157Y585257D01*
X226232Y584539D01*
X227500Y584286D01*
X228768Y584539D01*
X229843Y585257D01*
X230561Y586332D01*
X230814Y587600D01*
X230561Y588868D01*
X229843Y589943D01*
X228768Y590661D01*
X227500Y590914D01*
D02*
G37*
G36*
X468600Y590514D02*
X467332Y590261D01*
X466257Y589543D01*
X465539Y588468D01*
X465286Y587200D01*
X465539Y585932D01*
X466257Y584857D01*
X467332Y584139D01*
X468600Y583886D01*
X469868Y584139D01*
X470943Y584857D01*
X471661Y585932D01*
X471914Y587200D01*
X471661Y588468D01*
X470943Y589543D01*
X469868Y590261D01*
X468600Y590514D01*
D02*
G37*
G36*
X485700Y585214D02*
X484432Y584961D01*
X483357Y584243D01*
X482639Y583168D01*
X482386Y581900D01*
X482639Y580632D01*
X483357Y579557D01*
X484432Y578839D01*
X485700Y578586D01*
X486968Y578839D01*
X488043Y579557D01*
X488761Y580632D01*
X489014Y581900D01*
X488761Y583168D01*
X488043Y584243D01*
X486968Y584961D01*
X485700Y585214D01*
D02*
G37*
G36*
X375700Y577414D02*
X374432Y577161D01*
X373357Y576443D01*
X372639Y575368D01*
X372386Y574100D01*
X372639Y572832D01*
X373357Y571757D01*
X374432Y571039D01*
X375700Y570786D01*
X376968Y571039D01*
X378043Y571757D01*
X378761Y572832D01*
X379014Y574100D01*
X378761Y575368D01*
X378043Y576443D01*
X376968Y577161D01*
X375700Y577414D01*
D02*
G37*
G36*
X423300Y574614D02*
X422032Y574361D01*
X420957Y573643D01*
X420239Y572568D01*
X419986Y571300D01*
X420239Y570032D01*
X420957Y568957D01*
X422032Y568239D01*
X423300Y567986D01*
X424568Y568239D01*
X425643Y568957D01*
X426361Y570032D01*
X426614Y571300D01*
X426361Y572568D01*
X425643Y573643D01*
X424568Y574361D01*
X423300Y574614D01*
D02*
G37*
G36*
X381100Y584314D02*
X379832Y584061D01*
X378757Y583343D01*
X378039Y582268D01*
X377786Y581000D01*
X378039Y579732D01*
X378757Y578657D01*
X379832Y577939D01*
X381100Y577686D01*
X382368Y577939D01*
X383443Y578657D01*
X384161Y579732D01*
X384414Y581000D01*
X384161Y582268D01*
X383443Y583343D01*
X382368Y584061D01*
X381100Y584314D01*
D02*
G37*
G36*
X386400Y577414D02*
X385132Y577161D01*
X384057Y576443D01*
X383339Y575368D01*
X383086Y574100D01*
X383339Y572832D01*
X384057Y571757D01*
X385132Y571039D01*
X386400Y570786D01*
X387668Y571039D01*
X388743Y571757D01*
X389461Y572832D01*
X389714Y574100D01*
X389461Y575368D01*
X388743Y576443D01*
X387668Y577161D01*
X386400Y577414D01*
D02*
G37*
G36*
Y591114D02*
X385132Y590861D01*
X384057Y590143D01*
X383339Y589068D01*
X383086Y587800D01*
X383339Y586532D01*
X384057Y585457D01*
X385132Y584739D01*
X386400Y584486D01*
X387668Y584739D01*
X388743Y585457D01*
X389461Y586532D01*
X389714Y587800D01*
X389461Y589068D01*
X388743Y590143D01*
X387668Y590861D01*
X386400Y591114D01*
D02*
G37*
G36*
X402600Y599314D02*
X401332Y599061D01*
X400257Y598343D01*
X399539Y597268D01*
X399286Y596000D01*
X399539Y594732D01*
X400257Y593657D01*
X401332Y592939D01*
X402600Y592686D01*
X403868Y592939D01*
X404943Y593657D01*
X405661Y594732D01*
X405914Y596000D01*
X405661Y597268D01*
X404943Y598343D01*
X403868Y599061D01*
X402600Y599314D01*
D02*
G37*
G36*
X166900Y598314D02*
X165632Y598061D01*
X164557Y597343D01*
X163839Y596268D01*
X163586Y595000D01*
X163839Y593732D01*
X164557Y592657D01*
X165632Y591939D01*
X166900Y591686D01*
X168168Y591939D01*
X169243Y592657D01*
X169961Y593732D01*
X170214Y595000D01*
X169961Y596268D01*
X169243Y597343D01*
X168168Y598061D01*
X166900Y598314D01*
D02*
G37*
G36*
X448300Y606114D02*
X447032Y605861D01*
X445957Y605143D01*
X445239Y604068D01*
X444986Y602800D01*
X445239Y601532D01*
X445957Y600457D01*
X447032Y599739D01*
X448300Y599486D01*
X449568Y599739D01*
X450643Y600457D01*
X451361Y601532D01*
X451614Y602800D01*
X451361Y604068D01*
X450643Y605143D01*
X449568Y605861D01*
X448300Y606114D01*
D02*
G37*
G36*
X214900Y602114D02*
X213632Y601861D01*
X212557Y601143D01*
X211839Y600068D01*
X211586Y598800D01*
X211839Y597532D01*
X212557Y596457D01*
X213632Y595739D01*
X214900Y595486D01*
X216168Y595739D01*
X217243Y596457D01*
X217961Y597532D01*
X218214Y598800D01*
X217961Y600068D01*
X217243Y601143D01*
X216168Y601861D01*
X214900Y602114D01*
D02*
G37*
G36*
X349700Y594114D02*
X348432Y593861D01*
X347357Y593143D01*
X346639Y592068D01*
X346386Y590800D01*
X346639Y589532D01*
X347357Y588457D01*
X348432Y587739D01*
X349700Y587486D01*
X350968Y587739D01*
X352043Y588457D01*
X352761Y589532D01*
X353014Y590800D01*
X352761Y592068D01*
X352043Y593143D01*
X350968Y593861D01*
X349700Y594114D01*
D02*
G37*
G36*
X199200Y592414D02*
X197932Y592161D01*
X196857Y591443D01*
X196139Y590368D01*
X195886Y589100D01*
X196139Y587832D01*
X196857Y586757D01*
X197932Y586039D01*
X199200Y585786D01*
X200468Y586039D01*
X201543Y586757D01*
X202261Y587832D01*
X202514Y589100D01*
X202261Y590368D01*
X201543Y591443D01*
X200468Y592161D01*
X199200Y592414D01*
D02*
G37*
G36*
X375700Y591314D02*
X374432Y591061D01*
X373357Y590343D01*
X372639Y589268D01*
X372386Y588000D01*
X372639Y586732D01*
X373357Y585657D01*
X374432Y584939D01*
X375700Y584686D01*
X376968Y584939D01*
X378043Y585657D01*
X378761Y586732D01*
X379014Y588000D01*
X378761Y589268D01*
X378043Y590343D01*
X376968Y591061D01*
X375700Y591314D01*
D02*
G37*
G36*
X289900Y599264D02*
X288632Y599011D01*
X287557Y598293D01*
X286839Y597218D01*
X286586Y595950D01*
X286839Y594682D01*
X287470Y593737D01*
X287567Y593314D01*
Y592886D01*
X287470Y592463D01*
X286839Y591518D01*
X286586Y590250D01*
X286839Y588982D01*
X287557Y587907D01*
X288632Y587189D01*
X289900Y586936D01*
X291168Y587189D01*
X292243Y587907D01*
X292961Y588982D01*
X293214Y590250D01*
X292961Y591518D01*
X292330Y592463D01*
X292233Y592886D01*
Y593314D01*
X292330Y593737D01*
X292961Y594682D01*
X293214Y595950D01*
X292961Y597218D01*
X292243Y598293D01*
X291168Y599011D01*
X289900Y599264D01*
D02*
G37*
G36*
X503600Y593514D02*
X502332Y593261D01*
X501257Y592543D01*
X500539Y591468D01*
X500286Y590200D01*
X500539Y588932D01*
X501257Y587857D01*
X502332Y587139D01*
X503600Y586886D01*
X504868Y587139D01*
X505943Y587857D01*
X506661Y588932D01*
X506914Y590200D01*
X506661Y591468D01*
X505943Y592543D01*
X504868Y593261D01*
X503600Y593514D01*
D02*
G37*
G36*
X269500Y571914D02*
X268232Y571661D01*
X267157Y570943D01*
X266439Y569868D01*
X266186Y568600D01*
X266439Y567332D01*
X267157Y566257D01*
X268232Y565539D01*
X269500Y565286D01*
X270768Y565539D01*
X271843Y566257D01*
X272561Y567332D01*
X272814Y568600D01*
X272561Y569868D01*
X271843Y570943D01*
X270768Y571661D01*
X269500Y571914D01*
D02*
G37*
G36*
X276100Y536214D02*
X274832Y535961D01*
X273757Y535243D01*
X273039Y534168D01*
X272786Y532900D01*
X273039Y531632D01*
X273757Y530557D01*
X274832Y529839D01*
X276100Y529586D01*
X277368Y529839D01*
X278443Y530557D01*
X279161Y531632D01*
X279414Y532900D01*
X279161Y534168D01*
X278443Y535243D01*
X277368Y535961D01*
X276100Y536214D01*
D02*
G37*
G36*
X111300Y535914D02*
X110032Y535661D01*
X108957Y534943D01*
X108239Y533868D01*
X107986Y532600D01*
X108239Y531332D01*
X108957Y530257D01*
X110032Y529539D01*
X111300Y529286D01*
X112568Y529539D01*
X113643Y530257D01*
X114361Y531332D01*
X114614Y532600D01*
X114361Y533868D01*
X113643Y534943D01*
X112568Y535661D01*
X111300Y535914D01*
D02*
G37*
G36*
X336000Y545014D02*
X334732Y544761D01*
X333657Y544043D01*
X332939Y542968D01*
X332686Y541700D01*
X332939Y540432D01*
X333522Y539558D01*
X333354Y538791D01*
X333183Y538471D01*
X332632Y538361D01*
X332023Y537954D01*
X330923Y538358D01*
X330861Y538668D01*
X330143Y539743D01*
X329068Y540461D01*
X327800Y540714D01*
X326532Y540461D01*
X325457Y539743D01*
X324739Y538668D01*
X324486Y537400D01*
X324739Y536132D01*
X325457Y535057D01*
X326532Y534339D01*
X327800Y534086D01*
X329068Y534339D01*
X329677Y534745D01*
X330777Y534342D01*
X330839Y534032D01*
X331557Y532957D01*
X332632Y532239D01*
X333900Y531986D01*
X335168Y532239D01*
X336243Y532957D01*
X336399Y533190D01*
X337601D01*
X337757Y532957D01*
X338832Y532239D01*
X340100Y531986D01*
X341368Y532239D01*
X342443Y532957D01*
X343161Y534032D01*
X343414Y535300D01*
X343161Y536568D01*
X342443Y537643D01*
X341368Y538361D01*
X340100Y538614D01*
X338832Y538361D01*
X337757Y537643D01*
X337472Y537735D01*
X337208Y537845D01*
X337225Y538078D01*
X337388Y538719D01*
X338343Y539357D01*
X339061Y540432D01*
X339314Y541700D01*
X339061Y542968D01*
X338343Y544043D01*
X337268Y544761D01*
X336000Y545014D01*
D02*
G37*
G36*
X247800Y536614D02*
X246532Y536361D01*
X245457Y535643D01*
X244739Y534568D01*
X244486Y533300D01*
X244739Y532032D01*
X245457Y530957D01*
X246532Y530239D01*
X247800Y529986D01*
X249068Y530239D01*
X250143Y530957D01*
X250861Y532032D01*
X251114Y533300D01*
X250861Y534568D01*
X250143Y535643D01*
X249068Y536361D01*
X247800Y536614D01*
D02*
G37*
G36*
X25400Y564187D02*
X21871Y563839D01*
X18478Y562810D01*
X15351Y561139D01*
X12610Y558890D01*
X10361Y556149D01*
X8690Y553022D01*
X7660Y549629D01*
X7313Y546100D01*
X7660Y542571D01*
X8690Y539178D01*
X10361Y536051D01*
X12610Y533311D01*
X15351Y531061D01*
X18478Y529390D01*
X21871Y528360D01*
X25400Y528013D01*
X28929Y528360D01*
X32322Y529390D01*
X35449Y531061D01*
X38189Y533311D01*
X40439Y536051D01*
X42110Y539178D01*
X43140Y542571D01*
X43487Y546100D01*
X43140Y549629D01*
X42110Y553022D01*
X40439Y556149D01*
X38189Y558890D01*
X35449Y561139D01*
X32322Y562810D01*
X28929Y563839D01*
X25400Y564187D01*
D02*
G37*
G36*
X363900Y530614D02*
X362632Y530361D01*
X361557Y529643D01*
X360839Y528568D01*
X360586Y527300D01*
X360839Y526032D01*
X361557Y524957D01*
X362632Y524239D01*
X363900Y523986D01*
X365168Y524239D01*
X366243Y524957D01*
X366961Y526032D01*
X367214Y527300D01*
X366961Y528568D01*
X366243Y529643D01*
X365168Y530361D01*
X363900Y530614D01*
D02*
G37*
G36*
X228900Y530114D02*
X227632Y529861D01*
X226557Y529143D01*
X225839Y528068D01*
X225586Y526800D01*
X225839Y525532D01*
X226557Y524457D01*
X227632Y523739D01*
X228900Y523486D01*
X230168Y523739D01*
X231243Y524457D01*
X231961Y525532D01*
X232214Y526800D01*
X231961Y528068D01*
X231243Y529143D01*
X230168Y529861D01*
X228900Y530114D01*
D02*
G37*
G36*
X321100Y533514D02*
X319832Y533261D01*
X318757Y532543D01*
X318039Y531468D01*
X317786Y530200D01*
X318039Y528932D01*
X318757Y527857D01*
X319832Y527139D01*
X321100Y526886D01*
X322368Y527139D01*
X323443Y527857D01*
X324161Y528932D01*
X324414Y530200D01*
X324161Y531468D01*
X323443Y532543D01*
X322368Y533261D01*
X321100Y533514D01*
D02*
G37*
G36*
X132550Y533364D02*
X131282Y533111D01*
X130207Y532393D01*
X129489Y531318D01*
X129236Y530050D01*
X129489Y528782D01*
X130207Y527707D01*
X131282Y526989D01*
X132550Y526736D01*
X133818Y526989D01*
X134893Y527707D01*
X135165Y528114D01*
X136368D01*
X136707Y527607D01*
X137782Y526889D01*
X139050Y526636D01*
X140318Y526889D01*
X141393Y527607D01*
X141699Y528064D01*
X142901D01*
X143207Y527607D01*
X144282Y526889D01*
X145550Y526636D01*
X146818Y526889D01*
X147893Y527607D01*
X148232Y528114D01*
X149435D01*
X149707Y527707D01*
X150782Y526989D01*
X152050Y526736D01*
X153318Y526989D01*
X154393Y527707D01*
X155111Y528782D01*
X155364Y530050D01*
X155111Y531318D01*
X154393Y532393D01*
X153318Y533111D01*
X152050Y533364D01*
X150782Y533111D01*
X149707Y532393D01*
X149368Y531886D01*
X148165D01*
X147893Y532293D01*
X146818Y533011D01*
X145550Y533264D01*
X144282Y533011D01*
X143207Y532293D01*
X142901Y531836D01*
X141699D01*
X141393Y532293D01*
X140318Y533011D01*
X139050Y533264D01*
X137782Y533011D01*
X136707Y532293D01*
X136435Y531886D01*
X135232D01*
X134893Y532393D01*
X133818Y533111D01*
X132550Y533364D01*
D02*
G37*
G36*
X367600Y544814D02*
X366332Y544561D01*
X365257Y543843D01*
X364539Y542768D01*
X364286Y541500D01*
X364539Y540232D01*
X365257Y539157D01*
X366332Y538439D01*
X367600Y538186D01*
X368868Y538439D01*
X369943Y539157D01*
X370661Y540232D01*
X370914Y541500D01*
X370661Y542768D01*
X369943Y543843D01*
X368868Y544561D01*
X367600Y544814D01*
D02*
G37*
G36*
X286000Y567314D02*
X284732Y567061D01*
X283657Y566343D01*
X282939Y565268D01*
X282686Y564000D01*
X282939Y562732D01*
X283657Y561657D01*
X284732Y560939D01*
X286000Y560686D01*
X287268Y560939D01*
X288343Y561657D01*
X289061Y562732D01*
X289314Y564000D01*
X289061Y565268D01*
X288343Y566343D01*
X287268Y567061D01*
X286000Y567314D01*
D02*
G37*
G36*
X474700Y562814D02*
X473432Y562561D01*
X472357Y561843D01*
X471639Y560768D01*
X471386Y559500D01*
X471639Y558232D01*
X472357Y557157D01*
X473432Y556439D01*
X474700Y556186D01*
X475968Y556439D01*
X477043Y557157D01*
X477761Y558232D01*
X478014Y559500D01*
X477761Y560768D01*
X477043Y561843D01*
X475968Y562561D01*
X474700Y562814D01*
D02*
G37*
G36*
X128800Y571314D02*
X127532Y571061D01*
X126457Y570343D01*
X125739Y569268D01*
X125486Y568000D01*
X125739Y566732D01*
X126457Y565657D01*
X127532Y564939D01*
X128800Y564686D01*
X130068Y564939D01*
X131143Y565657D01*
X131861Y566732D01*
X132114Y568000D01*
X131861Y569268D01*
X131143Y570343D01*
X130068Y571061D01*
X128800Y571314D01*
D02*
G37*
G36*
X450100Y567614D02*
X448832Y567361D01*
X447757Y566643D01*
X447039Y565568D01*
X446786Y564300D01*
X447039Y563032D01*
X447757Y561957D01*
X448832Y561239D01*
X450100Y560986D01*
X451368Y561239D01*
X452443Y561957D01*
X453161Y563032D01*
X453414Y564300D01*
X453161Y565568D01*
X452443Y566643D01*
X451368Y567361D01*
X450100Y567614D01*
D02*
G37*
G36*
X292300Y560114D02*
X291032Y559861D01*
X289957Y559143D01*
X289239Y558068D01*
X288986Y556800D01*
X289239Y555532D01*
X289957Y554457D01*
X291032Y553739D01*
X292300Y553486D01*
X293568Y553739D01*
X294643Y554457D01*
X295361Y555532D01*
X295614Y556800D01*
X295361Y558068D01*
X294643Y559143D01*
X293568Y559861D01*
X292300Y560114D01*
D02*
G37*
G36*
X462100Y549914D02*
X460832Y549661D01*
X459757Y548943D01*
X459039Y547868D01*
X458786Y546600D01*
X459039Y545332D01*
X459757Y544257D01*
X460832Y543539D01*
X462100Y543286D01*
X463368Y543539D01*
X464443Y544257D01*
X465161Y545332D01*
X465414Y546600D01*
X465161Y547868D01*
X464443Y548943D01*
X463368Y549661D01*
X462100Y549914D01*
D02*
G37*
G36*
X443100Y547314D02*
X441832Y547061D01*
X440757Y546343D01*
X440039Y545268D01*
X439786Y544000D01*
X440039Y542732D01*
X440757Y541657D01*
X441832Y540939D01*
X443100Y540686D01*
X444368Y540939D01*
X445443Y541657D01*
X446161Y542732D01*
X446414Y544000D01*
X446161Y545268D01*
X445443Y546343D01*
X444368Y547061D01*
X443100Y547314D01*
D02*
G37*
G36*
X264150Y563064D02*
X262882Y562811D01*
X261807Y562093D01*
X261089Y561018D01*
X260836Y559750D01*
X261089Y558482D01*
X261807Y557407D01*
X262005Y557275D01*
Y556488D01*
X261893Y556147D01*
X261239Y555168D01*
X260986Y553900D01*
X261239Y552632D01*
X261957Y551557D01*
X263032Y550839D01*
X264300Y550586D01*
X265568Y550839D01*
X266643Y551557D01*
X267361Y552632D01*
X267614Y553900D01*
X267361Y555168D01*
X266643Y556243D01*
X266446Y556375D01*
Y557162D01*
X266557Y557503D01*
X267211Y558482D01*
X267464Y559750D01*
X267211Y561018D01*
X266493Y562093D01*
X265418Y562811D01*
X264150Y563064D01*
D02*
G37*
G36*
X294100Y551314D02*
X292832Y551061D01*
X291757Y550343D01*
X291039Y549268D01*
X290786Y548000D01*
X291039Y546732D01*
X291757Y545657D01*
X292832Y544939D01*
X294100Y544686D01*
X295368Y544939D01*
X296443Y545657D01*
X297161Y546732D01*
X297414Y548000D01*
X297161Y549268D01*
X296443Y550343D01*
X295368Y551061D01*
X294100Y551314D01*
D02*
G37*
G36*
X224000Y606614D02*
X222732Y606361D01*
X221657Y605643D01*
X220939Y604568D01*
X220686Y603300D01*
X220939Y602032D01*
X221657Y600957D01*
X222732Y600239D01*
X224000Y599986D01*
X225268Y600239D01*
X226343Y600957D01*
X227061Y602032D01*
X227314Y603300D01*
X227061Y604568D01*
X226343Y605643D01*
X225268Y606361D01*
X224000Y606614D01*
D02*
G37*
G36*
X200770Y661904D02*
X199502Y661651D01*
X198427Y660933D01*
X197709Y659858D01*
X197456Y658590D01*
X197709Y657322D01*
X198427Y656247D01*
X199502Y655529D01*
X200770Y655276D01*
X202038Y655529D01*
X203113Y656247D01*
X203831Y657322D01*
X204084Y658590D01*
X203831Y659858D01*
X203113Y660933D01*
X202038Y661651D01*
X200770Y661904D01*
D02*
G37*
G36*
X178770D02*
X177502Y661651D01*
X176427Y660933D01*
X175709Y659858D01*
X175456Y658590D01*
X175709Y657322D01*
X176427Y656247D01*
X177502Y655529D01*
X178770Y655276D01*
X180038Y655529D01*
X181113Y656247D01*
X181831Y657322D01*
X182084Y658590D01*
X181831Y659858D01*
X181113Y660933D01*
X180038Y661651D01*
X178770Y661904D01*
D02*
G37*
G36*
X270000Y664314D02*
X268732Y664061D01*
X267657Y663343D01*
X266939Y662268D01*
X266686Y661000D01*
X266939Y659732D01*
X267657Y658657D01*
X268732Y657939D01*
X270000Y657686D01*
X271268Y657939D01*
X272343Y658657D01*
X273061Y659732D01*
X273314Y661000D01*
X273061Y662268D01*
X272343Y663343D01*
X271268Y664061D01*
X270000Y664314D01*
D02*
G37*
G36*
X397200Y675282D02*
X394720Y674955D01*
X392409Y673998D01*
X390424Y672475D01*
X388902Y670491D01*
X387944Y668180D01*
X387618Y665700D01*
X387944Y663220D01*
X388902Y660909D01*
X390424Y658924D01*
X392409Y657402D01*
X394720Y656444D01*
X397200Y656118D01*
X399680Y656444D01*
X401991Y657402D01*
X403975Y658924D01*
X405498Y660909D01*
X406455Y663220D01*
X406782Y665700D01*
X406455Y668180D01*
X405498Y670491D01*
X403975Y672475D01*
X401991Y673998D01*
X399680Y674955D01*
X397200Y675282D01*
D02*
G37*
G36*
X517100Y651614D02*
X515832Y651362D01*
X514757Y650643D01*
X514039Y649568D01*
X513786Y648300D01*
X514039Y647032D01*
X514757Y645957D01*
X515832Y645239D01*
X517100Y644987D01*
X518368Y645239D01*
X519443Y645957D01*
X520161Y647032D01*
X520414Y648300D01*
X520161Y649568D01*
X519443Y650643D01*
X518368Y651362D01*
X517100Y651614D01*
D02*
G37*
G36*
X277800Y651513D02*
X276532Y651260D01*
X275457Y650542D01*
X274739Y649467D01*
X274486Y648199D01*
X274739Y646931D01*
X275457Y645856D01*
X276532Y645138D01*
X277800Y644885D01*
X279068Y645138D01*
X280143Y645856D01*
X280861Y646931D01*
X281114Y648199D01*
X280861Y649467D01*
X280143Y650542D01*
X279068Y651260D01*
X277800Y651513D01*
D02*
G37*
G36*
X517000Y640714D02*
X515732Y640462D01*
X514657Y639743D01*
X513939Y638668D01*
X513686Y637400D01*
X513939Y636132D01*
X514657Y635057D01*
X515732Y634339D01*
X517000Y634087D01*
X518268Y634339D01*
X519343Y635057D01*
X520061Y636132D01*
X520314Y637400D01*
X520061Y638668D01*
X519343Y639743D01*
X518268Y640462D01*
X517000Y640714D01*
D02*
G37*
G36*
X367100Y651614D02*
X365832Y651362D01*
X364757Y650643D01*
X364039Y649568D01*
X363786Y648300D01*
X364039Y647032D01*
X364757Y645957D01*
X365832Y645239D01*
X367100Y644987D01*
X368368Y645239D01*
X369443Y645957D01*
X370161Y647032D01*
X370414Y648300D01*
X370161Y649568D01*
X369443Y650643D01*
X368368Y651362D01*
X367100Y651614D01*
D02*
G37*
G36*
X427800Y651513D02*
X426532Y651260D01*
X425457Y650542D01*
X424739Y649467D01*
X424486Y648199D01*
X424739Y646931D01*
X425457Y645856D01*
X426532Y645138D01*
X427800Y644885D01*
X429068Y645138D01*
X430143Y645856D01*
X430861Y646931D01*
X431114Y648199D01*
X430861Y649467D01*
X430143Y650542D01*
X429068Y651260D01*
X427800Y651513D01*
D02*
G37*
G36*
X374200Y664314D02*
X372932Y664061D01*
X371857Y663343D01*
X371139Y662268D01*
X370886Y661000D01*
X371139Y659732D01*
X371857Y658657D01*
X372932Y657939D01*
X374200Y657686D01*
X375468Y657939D01*
X376543Y658657D01*
X377261Y659732D01*
X377514Y661000D01*
X377261Y662268D01*
X376543Y663343D01*
X375468Y664061D01*
X374200Y664314D01*
D02*
G37*
G36*
X420300Y678614D02*
X419032Y678361D01*
X417957Y677643D01*
X417239Y676568D01*
X416986Y675300D01*
X417239Y674032D01*
X417957Y672957D01*
X419032Y672239D01*
X420300Y671986D01*
X421568Y672239D01*
X422643Y672957D01*
X423361Y674032D01*
X423614Y675300D01*
X423361Y676568D01*
X422643Y677643D01*
X421568Y678361D01*
X420300Y678614D01*
D02*
G37*
G36*
X374500D02*
X373232Y678361D01*
X372157Y677643D01*
X371439Y676568D01*
X371186Y675300D01*
X371439Y674032D01*
X372157Y672957D01*
X373232Y672239D01*
X374500Y671986D01*
X375768Y672239D01*
X376843Y672957D01*
X377561Y674032D01*
X377814Y675300D01*
X377561Y676568D01*
X376843Y677643D01*
X375768Y678361D01*
X374500Y678614D01*
D02*
G37*
G36*
X200770Y678644D02*
X199502Y678391D01*
X198427Y677673D01*
X197709Y676598D01*
X197456Y675330D01*
X197709Y674062D01*
X198427Y672987D01*
X199502Y672269D01*
X200770Y672016D01*
X202038Y672269D01*
X203113Y672987D01*
X203831Y674062D01*
X204084Y675330D01*
X203831Y676598D01*
X203113Y677673D01*
X202038Y678391D01*
X200770Y678644D01*
D02*
G37*
G36*
X524500Y678614D02*
X523232Y678361D01*
X522157Y677643D01*
X521439Y676568D01*
X521186Y675300D01*
X521439Y674032D01*
X522157Y672957D01*
X523232Y672239D01*
X524500Y671986D01*
X525768Y672239D01*
X526843Y672957D01*
X527561Y674032D01*
X527814Y675300D01*
X527561Y676568D01*
X526843Y677643D01*
X525768Y678361D01*
X524500Y678614D01*
D02*
G37*
G36*
X270300D02*
X269032Y678361D01*
X267957Y677643D01*
X267239Y676568D01*
X266986Y675300D01*
X267239Y674032D01*
X267957Y672957D01*
X269032Y672239D01*
X270300Y671986D01*
X271568Y672239D01*
X272643Y672957D01*
X273361Y674032D01*
X273614Y675300D01*
X273361Y676568D01*
X272643Y677643D01*
X271568Y678361D01*
X270300Y678614D01*
D02*
G37*
G36*
X524200Y664314D02*
X522932Y664061D01*
X521857Y663343D01*
X521139Y662268D01*
X520886Y661000D01*
X521139Y659732D01*
X521857Y658657D01*
X522932Y657939D01*
X524200Y657686D01*
X525468Y657939D01*
X526543Y658657D01*
X527261Y659732D01*
X527514Y661000D01*
X527261Y662268D01*
X526543Y663343D01*
X525468Y664061D01*
X524200Y664314D01*
D02*
G37*
G36*
X420000D02*
X418732Y664061D01*
X417657Y663343D01*
X416939Y662268D01*
X416686Y661000D01*
X416939Y659732D01*
X417657Y658657D01*
X418732Y657939D01*
X420000Y657686D01*
X421268Y657939D01*
X422343Y658657D01*
X423061Y659732D01*
X423314Y661000D01*
X423061Y662268D01*
X422343Y663343D01*
X421268Y664061D01*
X420000Y664314D01*
D02*
G37*
G36*
X95000Y673014D02*
X93732Y672761D01*
X92657Y672043D01*
X91939Y670968D01*
X91686Y669700D01*
X91939Y668432D01*
X92657Y667357D01*
X93732Y666639D01*
X95000Y666386D01*
X96268Y666639D01*
X97343Y667357D01*
X98061Y668432D01*
X98314Y669700D01*
X98061Y670968D01*
X97343Y672043D01*
X96268Y672761D01*
X95000Y673014D01*
D02*
G37*
G36*
X243550Y667064D02*
X242282Y666811D01*
X241207Y666093D01*
X240489Y665018D01*
X240236Y663750D01*
X240489Y662482D01*
X241207Y661407D01*
X242282Y660688D01*
X243550Y660436D01*
X244818Y660688D01*
X245893Y661407D01*
X246611Y662482D01*
X246864Y663750D01*
X246611Y665018D01*
X245893Y666093D01*
X244818Y666811D01*
X243550Y667064D01*
D02*
G37*
G36*
X367000Y640714D02*
X365732Y640462D01*
X364657Y639743D01*
X363939Y638668D01*
X363686Y637400D01*
X363939Y636132D01*
X364657Y635057D01*
X365732Y634339D01*
X367000Y634087D01*
X368268Y634339D01*
X369343Y635057D01*
X370061Y636132D01*
X370314Y637400D01*
X370061Y638668D01*
X369343Y639743D01*
X368268Y640462D01*
X367000Y640714D01*
D02*
G37*
G36*
X448400Y616814D02*
X447132Y616561D01*
X446057Y615843D01*
X445339Y614768D01*
X445086Y613500D01*
X445339Y612232D01*
X446057Y611157D01*
X447132Y610439D01*
X448400Y610186D01*
X449668Y610439D01*
X450743Y611157D01*
X451461Y612232D01*
X451714Y613500D01*
X451461Y614768D01*
X450743Y615843D01*
X449668Y616561D01*
X448400Y616814D01*
D02*
G37*
G36*
X196200Y615714D02*
X194932Y615461D01*
X193857Y614743D01*
X193139Y613668D01*
X192886Y612400D01*
X193139Y611132D01*
X193857Y610057D01*
X194932Y609339D01*
X196200Y609086D01*
X197468Y609339D01*
X198543Y610057D01*
X199261Y611132D01*
X199514Y612400D01*
X199261Y613668D01*
X198543Y614743D01*
X197468Y615461D01*
X196200Y615714D01*
D02*
G37*
G36*
X287400Y624214D02*
X286132Y623961D01*
X285057Y623243D01*
X284339Y622168D01*
X284086Y620900D01*
X284339Y619632D01*
X285057Y618557D01*
X286132Y617839D01*
X287400Y617586D01*
X288668Y617839D01*
X289743Y618557D01*
X290461Y619632D01*
X290714Y620900D01*
X290461Y622168D01*
X289743Y623243D01*
X288668Y623961D01*
X287400Y624214D01*
D02*
G37*
G36*
X456800Y619314D02*
X455532Y619061D01*
X454457Y618343D01*
X453739Y617268D01*
X453486Y616000D01*
X453739Y614732D01*
X454457Y613657D01*
X455532Y612939D01*
X456800Y612686D01*
X458068Y612939D01*
X459143Y613657D01*
X459861Y614732D01*
X460114Y616000D01*
X459861Y617268D01*
X459143Y618343D01*
X458068Y619061D01*
X456800Y619314D01*
D02*
G37*
G36*
X187200Y615614D02*
X185932Y615361D01*
X184857Y614643D01*
X184139Y613568D01*
X183886Y612300D01*
X184139Y611032D01*
X184857Y609957D01*
X185932Y609239D01*
X187200Y608986D01*
X188468Y609239D01*
X189543Y609957D01*
X190261Y611032D01*
X190514Y612300D01*
X190261Y613568D01*
X189543Y614643D01*
X188468Y615361D01*
X187200Y615614D01*
D02*
G37*
G36*
X232900Y610914D02*
X231632Y610661D01*
X230557Y609943D01*
X229839Y608868D01*
X229586Y607600D01*
X229839Y606332D01*
X230557Y605257D01*
X231632Y604539D01*
X232900Y604286D01*
X234168Y604539D01*
X235243Y605257D01*
X235961Y606332D01*
X236214Y607600D01*
X235961Y608868D01*
X235243Y609943D01*
X234168Y610661D01*
X232900Y610914D01*
D02*
G37*
G36*
X157200Y606814D02*
X155932Y606561D01*
X154857Y605843D01*
X154139Y604768D01*
X153886Y603500D01*
X154139Y602232D01*
X154857Y601157D01*
X155932Y600439D01*
X157200Y600186D01*
X158468Y600439D01*
X159543Y601157D01*
X160261Y602232D01*
X160514Y603500D01*
X160261Y604768D01*
X159543Y605843D01*
X158468Y606561D01*
X157200Y606814D01*
D02*
G37*
G36*
X303400Y615414D02*
X302132Y615161D01*
X301057Y614443D01*
X300339Y613368D01*
X300086Y612100D01*
X300339Y610832D01*
X301057Y609757D01*
X302132Y609039D01*
X303400Y608786D01*
X304668Y609039D01*
X305743Y609757D01*
X306161Y610382D01*
X306175Y610388D01*
X307304Y610334D01*
X307757Y609657D01*
X308832Y608939D01*
X310100Y608686D01*
X311368Y608939D01*
X312443Y609657D01*
X313161Y610732D01*
X313414Y612000D01*
X313161Y613268D01*
X312443Y614343D01*
X311368Y615061D01*
X310100Y615314D01*
X308832Y615061D01*
X307757Y614343D01*
X307339Y613718D01*
X307325Y613712D01*
X306196Y613766D01*
X305743Y614443D01*
X304668Y615161D01*
X303400Y615414D01*
D02*
G37*
G36*
X442400Y610914D02*
X441132Y610661D01*
X440057Y609943D01*
X439339Y608868D01*
X439086Y607600D01*
X439339Y606332D01*
X440057Y605257D01*
X441132Y604539D01*
X442400Y604286D01*
X443668Y604539D01*
X444743Y605257D01*
X445461Y606332D01*
X445714Y607600D01*
X445461Y608868D01*
X444743Y609943D01*
X443668Y610661D01*
X442400Y610914D01*
D02*
G37*
G36*
X447700Y625214D02*
X446432Y624961D01*
X445357Y624243D01*
X444639Y623168D01*
X444386Y621900D01*
X444450Y621582D01*
X444326Y621470D01*
X443529Y621086D01*
X442668Y621661D01*
X441400Y621914D01*
X440132Y621661D01*
X439057Y620943D01*
X438339Y619868D01*
X438086Y618600D01*
X438339Y617332D01*
X439057Y616257D01*
X440132Y615539D01*
X441400Y615286D01*
X442668Y615539D01*
X443743Y616257D01*
X444461Y617332D01*
X444714Y618600D01*
X444650Y618918D01*
X444774Y619030D01*
X445571Y619414D01*
X446432Y618839D01*
X447700Y618586D01*
X448968Y618839D01*
X450043Y619557D01*
X450761Y620632D01*
X451014Y621900D01*
X450761Y623168D01*
X450043Y624243D01*
X448968Y624961D01*
X447700Y625214D01*
D02*
G37*
G36*
X232900Y639413D02*
X231632Y639161D01*
X230557Y638443D01*
X229839Y637368D01*
X229587Y636100D01*
X229839Y634832D01*
X230557Y633757D01*
X231632Y633038D01*
X232900Y632786D01*
X234168Y633038D01*
X235243Y633757D01*
X235962Y634832D01*
X236214Y636100D01*
X235962Y637368D01*
X235243Y638443D01*
X234168Y639161D01*
X232900Y639413D01*
D02*
G37*
G36*
X405950Y649050D02*
X388450D01*
Y631550D01*
X405950D01*
Y649050D01*
D02*
G37*
G36*
X427700Y640613D02*
X426432Y640360D01*
X425357Y639642D01*
X424639Y638567D01*
X424386Y637299D01*
X424639Y636031D01*
X425357Y634956D01*
X426432Y634238D01*
X427700Y633985D01*
X428968Y634238D01*
X430043Y634956D01*
X430761Y636031D01*
X431014Y637299D01*
X430761Y638567D01*
X430043Y639642D01*
X428968Y640360D01*
X427700Y640613D01*
D02*
G37*
G36*
X277700D02*
X276432Y640360D01*
X275357Y639642D01*
X274639Y638567D01*
X274386Y637299D01*
X274639Y636031D01*
X275357Y634956D01*
X276432Y634238D01*
X277700Y633985D01*
X278968Y634238D01*
X280043Y634956D01*
X280761Y636031D01*
X281014Y637299D01*
X280761Y638567D01*
X280043Y639642D01*
X278968Y640360D01*
X277700Y640613D01*
D02*
G37*
G36*
X174000Y635014D02*
X172732Y634761D01*
X171657Y634043D01*
X170939Y632968D01*
X170686Y631700D01*
X170939Y630432D01*
X171657Y629357D01*
X172732Y628639D01*
X174000Y628386D01*
X175268Y628639D01*
X176343Y629357D01*
X177061Y630432D01*
X177314Y631700D01*
X177061Y632968D01*
X176343Y634043D01*
X175268Y634761D01*
X174000Y635014D01*
D02*
G37*
G36*
X356700Y630114D02*
X355432Y629861D01*
X354357Y629143D01*
X353639Y628068D01*
X353386Y626800D01*
X353639Y625532D01*
X354357Y624457D01*
X355432Y623739D01*
X356700Y623486D01*
X357968Y623739D01*
X359043Y624457D01*
X359761Y625532D01*
X360014Y626800D01*
X359761Y628068D01*
X359043Y629143D01*
X357968Y629861D01*
X356700Y630114D01*
D02*
G37*
G36*
X459400Y634714D02*
X458132Y634461D01*
X457057Y633743D01*
X456339Y632668D01*
X456086Y631400D01*
X456339Y630132D01*
X457057Y629057D01*
X458132Y628339D01*
X459400Y628086D01*
X460475Y628300D01*
X460919Y627982D01*
X460932Y627970D01*
X461250Y627525D01*
X461036Y626450D01*
X461289Y625182D01*
X462007Y624107D01*
X463082Y623389D01*
X464350Y623136D01*
X465618Y623389D01*
X466693Y624107D01*
X467411Y625182D01*
X467664Y626450D01*
X467411Y627718D01*
X466693Y628793D01*
X465618Y629511D01*
X464350Y629764D01*
X463275Y629550D01*
X462831Y629868D01*
X462818Y629880D01*
X462500Y630325D01*
X462714Y631400D01*
X462461Y632668D01*
X461743Y633743D01*
X460668Y634461D01*
X459400Y634714D01*
D02*
G37*
G36*
X307500Y634414D02*
X306232Y634161D01*
X305157Y633443D01*
X304439Y632368D01*
X304186Y631100D01*
X304439Y629832D01*
X305157Y628757D01*
X306232Y628039D01*
X307500Y627786D01*
X308768Y628039D01*
X309628Y628613D01*
X310428Y628227D01*
X310549Y628117D01*
X310386Y627300D01*
X310639Y626032D01*
X311357Y624957D01*
X312432Y624239D01*
X313700Y623986D01*
X314968Y624239D01*
X316043Y624957D01*
X316761Y626032D01*
X317014Y627300D01*
X316761Y628568D01*
X316043Y629643D01*
X314968Y630361D01*
X313700Y630614D01*
X312432Y630361D01*
X311572Y629787D01*
X310772Y630173D01*
X310651Y630283D01*
X310814Y631100D01*
X310561Y632368D01*
X309843Y633443D01*
X308768Y634161D01*
X307500Y634414D01*
D02*
G37*
G36*
X505200Y629914D02*
X503932Y629661D01*
X502857Y628943D01*
X502139Y627868D01*
X501886Y626600D01*
X502139Y625332D01*
X502498Y624794D01*
X501896Y623895D01*
X501800Y623914D01*
X500650Y623685D01*
X500340Y623967D01*
X500005Y624498D01*
X500561Y625332D01*
X500814Y626600D01*
X500561Y627868D01*
X499843Y628943D01*
X498768Y629661D01*
X497500Y629914D01*
X496232Y629661D01*
X495157Y628943D01*
X494439Y627868D01*
X494310Y627221D01*
X493290D01*
X493161Y627868D01*
X492443Y628943D01*
X491368Y629661D01*
X490100Y629914D01*
X488832Y629661D01*
X487757Y628943D01*
X487039Y627868D01*
X486786Y626600D01*
X487039Y625332D01*
X487757Y624257D01*
X488832Y623539D01*
X490100Y623286D01*
X491368Y623539D01*
X492443Y624257D01*
X493161Y625332D01*
X493290Y625979D01*
X494310D01*
X494439Y625332D01*
X494740Y624881D01*
X494279Y623770D01*
X493732Y623661D01*
X492657Y622943D01*
X491939Y621868D01*
X491686Y620600D01*
X491939Y619332D01*
X492657Y618257D01*
X493732Y617539D01*
X495000Y617286D01*
X496268Y617539D01*
X497343Y618257D01*
X497844Y619007D01*
X497898Y619026D01*
X498902D01*
X498956Y619007D01*
X499457Y618257D01*
X500532Y617539D01*
X501800Y617286D01*
X503068Y617539D01*
X504143Y618257D01*
X504861Y619332D01*
X505114Y620600D01*
X504861Y621868D01*
X504502Y622406D01*
X505104Y623306D01*
X505200Y623286D01*
X506468Y623539D01*
X507543Y624257D01*
X508261Y625332D01*
X508514Y626600D01*
X508261Y627868D01*
X507543Y628943D01*
X506468Y629661D01*
X505200Y629914D01*
D02*
G37*
G36*
X459800Y527414D02*
X458532Y527161D01*
X457457Y526443D01*
X456739Y525368D01*
X456486Y524100D01*
X456739Y522832D01*
X457457Y521757D01*
X458532Y521039D01*
X459800Y520786D01*
X461068Y521039D01*
X462143Y521757D01*
X462861Y522832D01*
X463114Y524100D01*
X462861Y525368D01*
X462143Y526443D01*
X461068Y527161D01*
X459800Y527414D01*
D02*
G37*
G36*
X254600Y486014D02*
X253332Y485761D01*
X252257Y485043D01*
X251539Y483968D01*
X251286Y482700D01*
X251489Y481683D01*
X250910Y481103D01*
X250883Y481082D01*
X250687Y480978D01*
X249500Y481214D01*
X248232Y480961D01*
X247157Y480243D01*
X246439Y479168D01*
X246186Y477900D01*
X246439Y476632D01*
X247157Y475557D01*
X248232Y474839D01*
X249500Y474586D01*
X250768Y474839D01*
X251843Y475557D01*
X252561Y476632D01*
X252814Y477900D01*
X252611Y478917D01*
X253190Y479497D01*
X253217Y479518D01*
X253413Y479622D01*
X254600Y479386D01*
X255868Y479639D01*
X256943Y480357D01*
X257661Y481432D01*
X257914Y482700D01*
X257661Y483968D01*
X256943Y485043D01*
X255868Y485761D01*
X254600Y486014D01*
D02*
G37*
G36*
X279500Y488314D02*
X278232Y488061D01*
X277157Y487343D01*
X276439Y486268D01*
X276186Y485000D01*
X276439Y483732D01*
X277157Y482657D01*
X278232Y481939D01*
X279500Y481686D01*
X280768Y481939D01*
X281843Y482657D01*
X282561Y483732D01*
X282814Y485000D01*
X282561Y486268D01*
X281843Y487343D01*
X280768Y488061D01*
X279500Y488314D01*
D02*
G37*
G36*
X151100Y466614D02*
X149832Y466361D01*
X148757Y465643D01*
X148039Y464568D01*
X147786Y463300D01*
X148039Y462032D01*
X148757Y460957D01*
X149832Y460239D01*
X150997Y460007D01*
X151292Y459605D01*
X151567Y459060D01*
X151239Y458568D01*
X150986Y457300D01*
X151239Y456032D01*
X151675Y455378D01*
X151575Y455026D01*
X151174Y454369D01*
X150132Y454161D01*
X149057Y453443D01*
X148339Y452368D01*
X148086Y451100D01*
X148339Y449832D01*
X149057Y448757D01*
X150132Y448039D01*
X151400Y447786D01*
X152668Y448039D01*
X153743Y448757D01*
X154461Y449832D01*
X154714Y451100D01*
X154461Y452368D01*
X154025Y453022D01*
X154125Y453374D01*
X154526Y454031D01*
X155568Y454239D01*
X156643Y454957D01*
X157361Y456032D01*
X157614Y457300D01*
X157361Y458568D01*
X156643Y459643D01*
X155568Y460361D01*
X154403Y460593D01*
X154108Y460995D01*
X153833Y461540D01*
X154161Y462032D01*
X154414Y463300D01*
X154161Y464568D01*
X153443Y465643D01*
X152368Y466361D01*
X151100Y466614D01*
D02*
G37*
G36*
X460100Y459214D02*
X458832Y458961D01*
X457757Y458243D01*
X457039Y457168D01*
X456786Y455900D01*
X457039Y454632D01*
X457757Y453557D01*
X458832Y452839D01*
X460100Y452586D01*
X461368Y452839D01*
X462443Y453557D01*
X463161Y454632D01*
X463414Y455900D01*
X463161Y457168D01*
X462443Y458243D01*
X461368Y458961D01*
X460100Y459214D01*
D02*
G37*
G36*
X471800Y486614D02*
X470532Y486361D01*
X469457Y485643D01*
X468739Y484568D01*
X468486Y483300D01*
X468739Y482032D01*
X469457Y480957D01*
X470532Y480239D01*
X471800Y479986D01*
X473068Y480239D01*
X474143Y480957D01*
X474861Y482032D01*
X475114Y483300D01*
X474861Y484568D01*
X474143Y485643D01*
X473068Y486361D01*
X471800Y486614D01*
D02*
G37*
G36*
X250000Y463614D02*
X248732Y463361D01*
X247657Y462643D01*
X246939Y461568D01*
X246686Y460300D01*
X246939Y459032D01*
X247657Y457957D01*
X248732Y457239D01*
X249579Y457070D01*
Y456050D01*
X249132Y455961D01*
X248057Y455243D01*
X247339Y454168D01*
X247086Y452900D01*
X247339Y451632D01*
X248057Y450557D01*
X249132Y449839D01*
X250400Y449586D01*
X251668Y449839D01*
X252743Y450557D01*
X253461Y451632D01*
X253714Y452900D01*
X253461Y454168D01*
X252743Y455243D01*
X251668Y455961D01*
X250821Y456130D01*
Y457150D01*
X251268Y457239D01*
X252343Y457957D01*
X253061Y459032D01*
X253314Y460300D01*
X253061Y461568D01*
X252343Y462643D01*
X251268Y463361D01*
X250000Y463614D01*
D02*
G37*
G36*
X176300Y489114D02*
X175032Y488861D01*
X173957Y488143D01*
X173239Y487068D01*
X172986Y485800D01*
X173239Y484532D01*
X173957Y483457D01*
X175032Y482739D01*
X176300Y482486D01*
X177568Y482739D01*
X178643Y483457D01*
X179361Y484532D01*
X179614Y485800D01*
X179361Y487068D01*
X178643Y488143D01*
X177568Y488861D01*
X176300Y489114D01*
D02*
G37*
G36*
X244400Y490714D02*
X243132Y490461D01*
X242057Y489743D01*
X241339Y488668D01*
X241086Y487400D01*
X241339Y486132D01*
X242057Y485057D01*
X243132Y484339D01*
X244400Y484086D01*
X245668Y484339D01*
X246743Y485057D01*
X247461Y486132D01*
X247714Y487400D01*
X247461Y488668D01*
X246743Y489743D01*
X245668Y490461D01*
X244400Y490714D01*
D02*
G37*
G36*
X315400Y447114D02*
X314132Y446861D01*
X313057Y446143D01*
X312339Y445068D01*
X312086Y443800D01*
X312339Y442532D01*
X313057Y441457D01*
X314132Y440738D01*
X315400Y440486D01*
X316668Y440738D01*
X317743Y441457D01*
X318461Y442532D01*
X318714Y443800D01*
X318461Y445068D01*
X317743Y446143D01*
X316668Y446861D01*
X315400Y447114D01*
D02*
G37*
G36*
X508500Y507332D02*
X506020Y507005D01*
X503709Y506048D01*
X501725Y504525D01*
X500202Y502541D01*
X499244Y500230D01*
X498918Y497750D01*
X499244Y495270D01*
X500202Y492959D01*
X501725Y490974D01*
X503709Y489452D01*
X506020Y488494D01*
X508500Y488168D01*
X510980Y488494D01*
X513291Y489452D01*
X515275Y490974D01*
X516798Y492959D01*
X517755Y495270D01*
X518082Y497750D01*
X517755Y500230D01*
X516798Y502541D01*
X515275Y504525D01*
X513291Y506048D01*
X510980Y507005D01*
X508500Y507332D01*
D02*
G37*
G36*
X172800Y454214D02*
X171532Y453961D01*
X170457Y453243D01*
X169739Y452168D01*
X169486Y450900D01*
X169739Y449632D01*
X170457Y448557D01*
X171532Y447839D01*
X172800Y447586D01*
X174068Y447839D01*
X175143Y448557D01*
X175861Y449632D01*
X176114Y450900D01*
X175861Y452168D01*
X175143Y453243D01*
X174068Y453961D01*
X172800Y454214D01*
D02*
G37*
G36*
X211200Y451714D02*
X209932Y451461D01*
X208857Y450743D01*
X208139Y449668D01*
X207886Y448400D01*
X208139Y447132D01*
X208857Y446057D01*
X209932Y445339D01*
X211200Y445086D01*
X212468Y445339D01*
X213543Y446057D01*
X214261Y447132D01*
X214514Y448400D01*
X214261Y449668D01*
X213543Y450743D01*
X212468Y451461D01*
X211200Y451714D01*
D02*
G37*
G36*
X440700Y490414D02*
X439432Y490161D01*
X438357Y489443D01*
X437639Y488368D01*
X437386Y487100D01*
X437639Y485832D01*
X438357Y484757D01*
X439432Y484039D01*
X440700Y483786D01*
X441968Y484039D01*
X443043Y484757D01*
X443761Y485832D01*
X444014Y487100D01*
X443761Y488368D01*
X443043Y489443D01*
X441968Y490161D01*
X440700Y490414D01*
D02*
G37*
G36*
X346800Y459784D02*
X345532Y459531D01*
X344457Y458813D01*
X343739Y457738D01*
X343486Y456470D01*
X343739Y455202D01*
X344457Y454127D01*
X345532Y453409D01*
X346800Y453156D01*
X348068Y453409D01*
X349143Y454127D01*
X349861Y455202D01*
X350114Y456470D01*
X349861Y457738D01*
X349143Y458813D01*
X348068Y459531D01*
X346800Y459784D01*
D02*
G37*
G36*
X471900Y475514D02*
X470632Y475261D01*
X469557Y474543D01*
X468839Y473468D01*
X468586Y472200D01*
X468839Y470932D01*
X469557Y469857D01*
X470632Y469139D01*
X471900Y468886D01*
X473168Y469139D01*
X474243Y469857D01*
X474961Y470932D01*
X475214Y472200D01*
X474961Y473468D01*
X474243Y474543D01*
X473168Y475261D01*
X471900Y475514D01*
D02*
G37*
G36*
X211700Y483714D02*
X210432Y483461D01*
X209357Y482743D01*
X208639Y481668D01*
X208386Y480400D01*
X208639Y479132D01*
X209357Y478057D01*
X210432Y477339D01*
X211700Y477086D01*
X212968Y477339D01*
X214043Y478057D01*
X214761Y479132D01*
X215014Y480400D01*
X214761Y481668D01*
X214043Y482743D01*
X212968Y483461D01*
X211700Y483714D01*
D02*
G37*
G36*
X508500Y481932D02*
X506020Y481605D01*
X503709Y480648D01*
X501725Y479125D01*
X500202Y477141D01*
X499244Y474830D01*
X498918Y472350D01*
X499244Y469870D01*
X500202Y467559D01*
X501725Y465574D01*
X503709Y464052D01*
X506020Y463094D01*
X508500Y462768D01*
X510980Y463094D01*
X513291Y464052D01*
X515275Y465574D01*
X516798Y467559D01*
X517755Y469870D01*
X518082Y472350D01*
X517755Y474830D01*
X516798Y477141D01*
X515275Y479125D01*
X513291Y480648D01*
X510980Y481605D01*
X508500Y481932D01*
D02*
G37*
G36*
X312100Y475914D02*
X310832Y475661D01*
X309757Y474943D01*
X309650Y474783D01*
X308650D01*
X308543Y474943D01*
X307468Y475661D01*
X306200Y475914D01*
X304932Y475661D01*
X303857Y474943D01*
X303139Y473868D01*
X302886Y472600D01*
X303139Y471332D01*
X303857Y470257D01*
X304932Y469539D01*
X306200Y469286D01*
X307468Y469539D01*
X308543Y470257D01*
X308650Y470417D01*
X309650D01*
X309757Y470257D01*
X310832Y469539D01*
X312100Y469286D01*
X313368Y469539D01*
X314443Y470257D01*
X315161Y471332D01*
X315414Y472600D01*
X315161Y473868D01*
X314443Y474943D01*
X313368Y475661D01*
X312100Y475914D01*
D02*
G37*
G36*
X366400Y479614D02*
X365132Y479361D01*
X364057Y478643D01*
X363339Y477568D01*
X363086Y476300D01*
X363339Y475032D01*
X364057Y473957D01*
X365132Y473239D01*
X366400Y472986D01*
X367668Y473239D01*
X368743Y473957D01*
X369461Y475032D01*
X369714Y476300D01*
X369461Y477568D01*
X368743Y478643D01*
X367668Y479361D01*
X366400Y479614D01*
D02*
G37*
G36*
X269200Y476514D02*
X267932Y476261D01*
X266857Y475543D01*
X266139Y474468D01*
X265886Y473200D01*
X266139Y471932D01*
X266857Y470857D01*
X267932Y470139D01*
X269200Y469886D01*
X270468Y470139D01*
X271543Y470857D01*
X272261Y471932D01*
X272514Y473200D01*
X272261Y474468D01*
X271543Y475543D01*
X270468Y476261D01*
X269200Y476514D01*
D02*
G37*
G36*
X259500Y468514D02*
X258232Y468261D01*
X257157Y467543D01*
X256439Y466468D01*
X256186Y465200D01*
X256439Y463932D01*
X257157Y462857D01*
X258232Y462139D01*
X259500Y461886D01*
X260768Y462139D01*
X261843Y462857D01*
X262561Y463932D01*
X262814Y465200D01*
X262561Y466468D01*
X261843Y467543D01*
X260768Y468261D01*
X259500Y468514D01*
D02*
G37*
G36*
X142900Y466514D02*
X141632Y466261D01*
X140557Y465543D01*
X139839Y464468D01*
X139586Y463200D01*
X139839Y461932D01*
X140557Y460857D01*
X141632Y460139D01*
X142900Y459886D01*
X143479Y460002D01*
X143982Y459082D01*
X143439Y458268D01*
X143186Y457000D01*
X143439Y455732D01*
X143921Y455010D01*
X143319Y454110D01*
X142800Y454214D01*
X141532Y453961D01*
X140457Y453243D01*
X139739Y452168D01*
X139486Y450900D01*
X139739Y449632D01*
X140457Y448557D01*
X141532Y447839D01*
X142800Y447586D01*
X144068Y447839D01*
X145143Y448557D01*
X145861Y449632D01*
X146114Y450900D01*
X145861Y452168D01*
X145379Y452890D01*
X145981Y453790D01*
X146500Y453686D01*
X147768Y453939D01*
X148843Y454657D01*
X149561Y455732D01*
X149814Y457000D01*
X149561Y458268D01*
X148843Y459343D01*
X147768Y460061D01*
X146500Y460314D01*
X145920Y460198D01*
X145417Y461118D01*
X145961Y461932D01*
X146214Y463200D01*
X145961Y464468D01*
X145243Y465543D01*
X144168Y466261D01*
X142900Y466514D01*
D02*
G37*
G36*
X460600Y484814D02*
X459332Y484561D01*
X458257Y483843D01*
X457539Y482768D01*
X457286Y481500D01*
X457539Y480232D01*
X458257Y479157D01*
X459332Y478439D01*
X460600Y478186D01*
X461868Y478439D01*
X462943Y479157D01*
X463661Y480232D01*
X463914Y481500D01*
X463661Y482768D01*
X462943Y483843D01*
X461868Y484561D01*
X460600Y484814D01*
D02*
G37*
G36*
X425300Y460214D02*
X424032Y459961D01*
X422957Y459243D01*
X422239Y458168D01*
X421986Y456900D01*
X422239Y455632D01*
X422957Y454557D01*
X424032Y453839D01*
X425300Y453586D01*
X426568Y453839D01*
X427643Y454557D01*
X428361Y455632D01*
X428614Y456900D01*
X428361Y458168D01*
X427643Y459243D01*
X426568Y459961D01*
X425300Y460214D01*
D02*
G37*
G36*
X446800Y468314D02*
X445532Y468061D01*
X444457Y467343D01*
X443739Y466268D01*
X443486Y465000D01*
X443739Y463732D01*
X444457Y462657D01*
X445532Y461939D01*
X446800Y461686D01*
X448068Y461939D01*
X449143Y462657D01*
X449861Y463732D01*
X450114Y465000D01*
X449861Y466268D01*
X449143Y467343D01*
X448068Y468061D01*
X446800Y468314D01*
D02*
G37*
G36*
X435400Y468214D02*
X434132Y467961D01*
X433057Y467243D01*
X432339Y466168D01*
X432086Y464900D01*
X432339Y463632D01*
X433057Y462557D01*
X434132Y461839D01*
X435400Y461586D01*
X436668Y461839D01*
X437743Y462557D01*
X438461Y463632D01*
X438714Y464900D01*
X438461Y466168D01*
X437743Y467243D01*
X436668Y467961D01*
X435400Y468214D01*
D02*
G37*
G36*
X228400Y484814D02*
X227132Y484561D01*
X226057Y483843D01*
X225339Y482768D01*
X225086Y481500D01*
X225339Y480232D01*
X226057Y479157D01*
X227132Y478439D01*
X228400Y478186D01*
X229668Y478439D01*
X230743Y479157D01*
X231461Y480232D01*
X231714Y481500D01*
X231461Y482768D01*
X230743Y483843D01*
X229668Y484561D01*
X228400Y484814D01*
D02*
G37*
G36*
X74200Y494914D02*
X72932Y494661D01*
X71857Y493943D01*
X71139Y492868D01*
X70886Y491600D01*
X71139Y490332D01*
X71857Y489257D01*
X72932Y488539D01*
X74200Y488286D01*
X75468Y488539D01*
X76543Y489257D01*
X77261Y490332D01*
X77514Y491600D01*
X77261Y492868D01*
X76543Y493943D01*
X75468Y494661D01*
X74200Y494914D01*
D02*
G37*
G36*
X452700Y446114D02*
X451432Y445861D01*
X450357Y445143D01*
X449639Y444068D01*
X449386Y442800D01*
X449639Y441532D01*
X450357Y440457D01*
X451432Y439739D01*
X452700Y439486D01*
X453968Y439739D01*
X455043Y440457D01*
X455761Y441532D01*
X456014Y442800D01*
X455761Y444068D01*
X455043Y445143D01*
X453968Y445861D01*
X452700Y446114D01*
D02*
G37*
G36*
X508500Y456532D02*
X506020Y456205D01*
X503709Y455248D01*
X501725Y453725D01*
X500202Y451741D01*
X499244Y449430D01*
X498918Y446950D01*
X499244Y444470D01*
X500202Y442159D01*
X501725Y440174D01*
X503709Y438652D01*
X506020Y437694D01*
X508500Y437368D01*
X510980Y437694D01*
X513291Y438652D01*
X515275Y440174D01*
X516798Y442159D01*
X517755Y444470D01*
X518082Y446950D01*
X517755Y449430D01*
X516798Y451741D01*
X515275Y453725D01*
X513291Y455248D01*
X510980Y456205D01*
X508500Y456532D01*
D02*
G37*
G36*
X459400Y438914D02*
X458132Y438661D01*
X457057Y437943D01*
X456339Y436868D01*
X456086Y435600D01*
X456339Y434332D01*
X457057Y433257D01*
X458132Y432539D01*
X459400Y432286D01*
X460668Y432539D01*
X461743Y433257D01*
X462461Y434332D01*
X462714Y435600D01*
X462461Y436868D01*
X461743Y437943D01*
X460668Y438661D01*
X459400Y438914D01*
D02*
G37*
G36*
X136750Y519814D02*
X135482Y519561D01*
X134407Y518843D01*
X133689Y517768D01*
X133436Y516500D01*
X133616Y515599D01*
X132732Y515001D01*
X131968Y515511D01*
X130700Y515764D01*
X129432Y515511D01*
X128357Y514793D01*
X127639Y513718D01*
X127386Y512450D01*
X127639Y511182D01*
X128357Y510107D01*
X129432Y509389D01*
X130700Y509136D01*
X131968Y509389D01*
X133043Y510107D01*
X133761Y511182D01*
X134014Y512450D01*
X133834Y513350D01*
X134718Y513949D01*
X135482Y513439D01*
X136750Y513186D01*
X138018Y513439D01*
X138371Y513674D01*
X139271Y513073D01*
X139236Y512900D01*
X139488Y511632D01*
X140207Y510557D01*
X141282Y509839D01*
X142550Y509586D01*
X143818Y509839D01*
X144893Y510557D01*
X145611Y511632D01*
X145864Y512900D01*
X145833Y513054D01*
X146733Y513655D01*
X147132Y513389D01*
X148400Y513136D01*
X149668Y513389D01*
X150743Y514107D01*
X151461Y515182D01*
X151714Y516450D01*
X151461Y517718D01*
X150743Y518793D01*
X149668Y519511D01*
X148400Y519764D01*
X147132Y519511D01*
X146057Y518793D01*
X145339Y517718D01*
X145086Y516450D01*
X145117Y516296D01*
X144217Y515695D01*
X143818Y515961D01*
X142550Y516214D01*
X141282Y515961D01*
X140929Y515726D01*
X140029Y516327D01*
X140064Y516500D01*
X139811Y517768D01*
X139093Y518843D01*
X138018Y519561D01*
X136750Y519814D01*
D02*
G37*
G36*
X408200Y545700D02*
X379600D01*
X372300Y538400D01*
Y428600D01*
X364412Y420712D01*
X363900Y420814D01*
X362632Y420561D01*
X361557Y419843D01*
X360839Y418768D01*
X360586Y417500D01*
X360839Y416232D01*
X361557Y415157D01*
X362632Y414439D01*
X362800Y414405D01*
Y376700D01*
X350362Y364262D01*
X349543Y364343D01*
X348468Y365061D01*
X347200Y365314D01*
X345932Y365061D01*
X344857Y364343D01*
X344139Y363268D01*
X344006Y362600D01*
X298059D01*
X297668Y362861D01*
X296400Y363114D01*
X295132Y362861D01*
X294741Y362600D01*
X293000D01*
X277300Y378300D01*
Y383200D01*
X269800Y390700D01*
X247400D01*
X236900Y380200D01*
X230100D01*
X221900Y372000D01*
X197900D01*
X186500Y360600D01*
X120200D01*
X113000Y367800D01*
Y439199D01*
X114000Y439885D01*
X114750Y439736D01*
X116018Y439989D01*
X117093Y440707D01*
X117811Y441782D01*
X118064Y443050D01*
X117811Y444318D01*
X117093Y445393D01*
X116018Y446111D01*
X114750Y446364D01*
X114000Y446214D01*
X113000Y446900D01*
Y475100D01*
X101900Y486200D01*
X93900D01*
X66565Y458865D01*
Y448142D01*
X65800Y447514D01*
X64532Y447261D01*
X63457Y446543D01*
X62739Y445468D01*
X62486Y444200D01*
X62739Y442932D01*
X63457Y441857D01*
X64532Y441139D01*
X65800Y440886D01*
X66071Y440940D01*
X66565Y440535D01*
X84700Y422400D01*
Y357700D01*
X121000Y321400D01*
Y265595D01*
X120582Y265511D01*
X119507Y264793D01*
X118789Y263718D01*
X118536Y262450D01*
X118789Y261182D01*
X119507Y260107D01*
Y259143D01*
X119357Y259043D01*
X118639Y257968D01*
X118386Y256700D01*
X118639Y255432D01*
X119357Y254357D01*
X120432Y253639D01*
X121000Y253526D01*
Y170200D01*
X118900Y168100D01*
Y163157D01*
X118876Y163100D01*
Y115800D01*
X119352Y114652D01*
X163752Y70252D01*
X164900Y69776D01*
X206828D01*
X214276Y62327D01*
Y37600D01*
X214752Y36452D01*
X219149Y32055D01*
X219286Y31801D01*
X219447Y31375D01*
X219600Y30817D01*
X219734Y30134D01*
X219842Y29350D01*
X219880Y28672D01*
X219345Y27380D01*
X219018Y24900D01*
X219345Y22420D01*
X220302Y20109D01*
X221824Y18125D01*
X223809Y16602D01*
X226120Y15645D01*
X228600Y15318D01*
X231080Y15645D01*
X233391Y16602D01*
X235375Y18125D01*
X236898Y20109D01*
X237855Y22420D01*
X238182Y24900D01*
X237855Y27380D01*
X236898Y29691D01*
X235375Y31676D01*
X233391Y33198D01*
X231080Y34155D01*
X228600Y34482D01*
X226120Y34155D01*
X224803Y33610D01*
X224159Y33657D01*
X223367Y33766D01*
X222683Y33900D01*
X222125Y34053D01*
X221699Y34214D01*
X221445Y34351D01*
X217524Y38273D01*
Y63000D01*
X217048Y64148D01*
X208648Y72548D01*
X207500Y73024D01*
X165572D01*
X122124Y116473D01*
Y126100D01*
X131100D01*
X147000Y142000D01*
X167337Y162337D01*
X168600Y162086D01*
X169868Y162339D01*
X170943Y163057D01*
X171661Y164132D01*
X171914Y165400D01*
X171663Y166663D01*
X174800Y169800D01*
X174800Y178877D01*
X175224Y179900D01*
Y233824D01*
X180000Y238600D01*
X202869D01*
X203134Y238124D01*
X203275Y237600D01*
X202639Y236648D01*
X202386Y235380D01*
X202639Y234112D01*
X203357Y233037D01*
X204432Y232319D01*
X205700Y232066D01*
X206968Y232319D01*
X208043Y233037D01*
X208761Y234112D01*
X209014Y235380D01*
X208761Y236648D01*
X208125Y237600D01*
X208266Y238124D01*
X208531Y238600D01*
X258404D01*
X258627Y238267D01*
X259702Y237549D01*
X260970Y237296D01*
X262238Y237549D01*
X263313Y238267D01*
X263536Y238600D01*
X304030D01*
X319554Y254125D01*
X320132Y253739D01*
X321400Y253486D01*
X322668Y253739D01*
X323743Y254457D01*
X324461Y255532D01*
X324714Y256800D01*
X324461Y258068D01*
X324075Y258646D01*
X338668Y273239D01*
X339743Y273957D01*
X340461Y275032D01*
X356329Y290900D01*
X364404D01*
X364486Y290800D01*
X364739Y289532D01*
X365457Y288457D01*
X366532Y287739D01*
X367800Y287486D01*
X369068Y287739D01*
X370143Y288457D01*
X370861Y289532D01*
X371114Y290800D01*
X371196Y290900D01*
X386100D01*
X444100Y348900D01*
Y366000D01*
X418500Y391600D01*
Y435705D01*
X418668Y435738D01*
X419743Y436457D01*
X420462Y437532D01*
X420714Y438800D01*
X420462Y440068D01*
X419743Y441143D01*
X418668Y441861D01*
X418500Y441895D01*
Y467100D01*
X430300Y478900D01*
Y523600D01*
X408200Y545700D01*
D02*
G37*
G36*
X508000Y551487D02*
X504471Y551139D01*
X501078Y550110D01*
X497951Y548439D01*
X495210Y546189D01*
X492961Y543449D01*
X491290Y540322D01*
X490261Y536929D01*
X489913Y533400D01*
X490261Y529871D01*
X491290Y526478D01*
X492961Y523351D01*
X495210Y520611D01*
X497951Y518361D01*
X501078Y516690D01*
X504471Y515661D01*
X508000Y515313D01*
X511529Y515661D01*
X514922Y516690D01*
X518049Y518361D01*
X520789Y520611D01*
X523039Y523351D01*
X524710Y526478D01*
X525740Y529871D01*
X526087Y533400D01*
X525740Y536929D01*
X524710Y540322D01*
X523039Y543449D01*
X520789Y546189D01*
X518049Y548439D01*
X514922Y550110D01*
X511529Y551139D01*
X508000Y551487D01*
D02*
G37*
G36*
X443300Y522114D02*
X442032Y521861D01*
X440957Y521143D01*
X440239Y520068D01*
X439986Y518800D01*
X440239Y517532D01*
X440957Y516457D01*
X442032Y515739D01*
X443300Y515486D01*
X444568Y515739D01*
X445643Y516457D01*
X446361Y517532D01*
X446614Y518800D01*
X446361Y520068D01*
X445643Y521143D01*
X444568Y521861D01*
X443300Y522114D01*
D02*
G37*
G36*
X260500Y434214D02*
X259232Y433961D01*
X258157Y433243D01*
X257439Y432168D01*
X257186Y430900D01*
X257439Y429632D01*
X258157Y428557D01*
X259232Y427839D01*
X260500Y427586D01*
X261768Y427839D01*
X262843Y428557D01*
X263561Y429632D01*
X263814Y430900D01*
X263561Y432168D01*
X262843Y433243D01*
X261768Y433961D01*
X260500Y434214D01*
D02*
G37*
G36*
X430500Y434014D02*
X429232Y433761D01*
X428157Y433043D01*
X427439Y431968D01*
X427186Y430700D01*
X427439Y429432D01*
X428157Y428357D01*
X429232Y427639D01*
X430500Y427386D01*
X431768Y427639D01*
X432843Y428357D01*
X433561Y429432D01*
X433814Y430700D01*
X433561Y431968D01*
X432843Y433043D01*
X431768Y433761D01*
X430500Y434014D01*
D02*
G37*
G36*
X176000Y526314D02*
X174732Y526061D01*
X173657Y525343D01*
X172939Y524268D01*
X172686Y523000D01*
X172939Y521732D01*
X173657Y520657D01*
X174732Y519939D01*
X176000Y519686D01*
X177268Y519939D01*
X178343Y520657D01*
X179061Y521732D01*
X179314Y523000D01*
X179061Y524268D01*
X178343Y525343D01*
X177268Y526061D01*
X176000Y526314D01*
D02*
G37*
G36*
X270900Y434214D02*
X269632Y433961D01*
X268557Y433243D01*
X267839Y432168D01*
X267586Y430900D01*
X267839Y429632D01*
X268557Y428557D01*
X269632Y427839D01*
X270900Y427586D01*
X272168Y427839D01*
X273243Y428557D01*
X273961Y429632D01*
X274214Y430900D01*
X273961Y432168D01*
X273243Y433243D01*
X272168Y433961D01*
X270900Y434214D01*
D02*
G37*
G36*
X262000Y522514D02*
X260732Y522261D01*
X259657Y521543D01*
X258939Y520468D01*
X258686Y519200D01*
X258939Y517932D01*
X259657Y516857D01*
X260732Y516139D01*
X262000Y515886D01*
X263268Y516139D01*
X264343Y516857D01*
X265061Y517932D01*
X265314Y519200D01*
X265061Y520468D01*
X264343Y521543D01*
X263268Y522261D01*
X262000Y522514D01*
D02*
G37*
G36*
X305200Y520454D02*
X303932Y520201D01*
X302857Y519483D01*
X302830Y519443D01*
X302240D01*
X301694Y519543D01*
X300768Y520161D01*
X299500Y520414D01*
X298232Y520161D01*
X297157Y519443D01*
X296918Y519085D01*
X295743Y519043D01*
X294668Y519761D01*
X293400Y520014D01*
X292132Y519761D01*
X291057Y519043D01*
X290339Y517968D01*
X290086Y516700D01*
X290339Y515432D01*
X291057Y514357D01*
X292132Y513639D01*
X293400Y513386D01*
X294668Y513639D01*
X295743Y514357D01*
X295982Y514715D01*
X297157Y514757D01*
X298232Y514039D01*
X299500Y513786D01*
X300768Y514039D01*
X301843Y514757D01*
X301870Y514797D01*
X302460D01*
X303006Y514697D01*
X303932Y514079D01*
X305200Y513826D01*
X306468Y514079D01*
X307543Y514797D01*
X308261Y515872D01*
X308514Y517140D01*
X308261Y518408D01*
X307543Y519483D01*
X306468Y520201D01*
X305200Y520454D01*
D02*
G37*
G36*
X211700Y517214D02*
X210432Y516961D01*
X209357Y516243D01*
X208639Y515168D01*
X208386Y513900D01*
X208639Y512632D01*
X209357Y511557D01*
X210432Y510839D01*
X211700Y510586D01*
X212968Y510839D01*
X214043Y511557D01*
X214761Y512632D01*
X215014Y513900D01*
X214761Y515168D01*
X214043Y516243D01*
X212968Y516961D01*
X211700Y517214D01*
D02*
G37*
G36*
X307600Y505014D02*
X306332Y504761D01*
X305257Y504043D01*
X304539Y502968D01*
X304286Y501700D01*
X304539Y500432D01*
X305257Y499357D01*
X305417Y499250D01*
Y498250D01*
X305257Y498143D01*
X304539Y497068D01*
X304286Y495800D01*
X304539Y494532D01*
X305257Y493457D01*
X306332Y492739D01*
X307600Y492486D01*
X308868Y492739D01*
X309943Y493457D01*
X310661Y494532D01*
X310914Y495800D01*
X310661Y497068D01*
X309943Y498143D01*
X309783Y498250D01*
Y499250D01*
X309943Y499357D01*
X310661Y500432D01*
X310914Y501700D01*
X310661Y502968D01*
X309943Y504043D01*
X308868Y504761D01*
X307600Y505014D01*
D02*
G37*
G36*
X113350Y499964D02*
X112082Y499711D01*
X111007Y498993D01*
X110289Y497918D01*
X110036Y496650D01*
X110289Y495382D01*
X111007Y494307D01*
X112082Y493589D01*
X113350Y493336D01*
X114618Y493589D01*
X115693Y494307D01*
X116411Y495382D01*
X116664Y496650D01*
X116411Y497918D01*
X115693Y498993D01*
X114618Y499711D01*
X113350Y499964D01*
D02*
G37*
G36*
X297300Y500514D02*
X296032Y500261D01*
X294957Y499543D01*
X294239Y498468D01*
X293986Y497200D01*
X294239Y495932D01*
X294957Y494857D01*
X296032Y494139D01*
X297300Y493886D01*
X298568Y494139D01*
X299643Y494857D01*
X300361Y495932D01*
X300614Y497200D01*
X300361Y498468D01*
X299643Y499543D01*
X298568Y500261D01*
X297300Y500514D01*
D02*
G37*
G36*
X65200Y495114D02*
X63932Y494861D01*
X62857Y494143D01*
X62139Y493068D01*
X61886Y491800D01*
X62139Y490532D01*
X62857Y489457D01*
X63932Y488739D01*
X65200Y488486D01*
X66468Y488739D01*
X67543Y489457D01*
X68261Y490532D01*
X68514Y491800D01*
X68261Y493068D01*
X67543Y494143D01*
X66468Y494861D01*
X65200Y495114D01*
D02*
G37*
G36*
X442800Y498714D02*
X441532Y498461D01*
X440457Y497743D01*
X439739Y496668D01*
X439486Y495400D01*
X439739Y494132D01*
X440457Y493057D01*
X441532Y492339D01*
X442800Y492086D01*
X444068Y492339D01*
X445143Y493057D01*
X445861Y494132D01*
X446114Y495400D01*
X445861Y496668D01*
X445143Y497743D01*
X444068Y498461D01*
X442800Y498714D01*
D02*
G37*
G36*
X347550Y498764D02*
X346282Y498511D01*
X345207Y497793D01*
X344489Y496718D01*
X344236Y495450D01*
X344489Y494182D01*
X345207Y493107D01*
X346282Y492389D01*
X347550Y492136D01*
X348818Y492389D01*
X349893Y493107D01*
X350611Y494182D01*
X350864Y495450D01*
X350611Y496718D01*
X349893Y497793D01*
X348818Y498511D01*
X347550Y498764D01*
D02*
G37*
G36*
X436200Y502914D02*
X434932Y502661D01*
X433857Y501943D01*
X433139Y500868D01*
X432886Y499600D01*
X433139Y498332D01*
X433857Y497257D01*
X434932Y496539D01*
X436200Y496286D01*
X437468Y496539D01*
X438543Y497257D01*
X439261Y498332D01*
X439514Y499600D01*
X439261Y500868D01*
X438543Y501943D01*
X437468Y502661D01*
X436200Y502914D01*
D02*
G37*
G36*
X248500Y508914D02*
X247232Y508661D01*
X246157Y507943D01*
X245439Y506868D01*
X245186Y505600D01*
X245439Y504332D01*
X246157Y503257D01*
X247232Y502539D01*
X248500Y502286D01*
X249768Y502539D01*
X250843Y503257D01*
X251561Y504332D01*
X251814Y505600D01*
X251561Y506868D01*
X250843Y507943D01*
X249768Y508661D01*
X248500Y508914D01*
D02*
G37*
G36*
X229200Y515014D02*
X227932Y514761D01*
X226857Y514043D01*
X226139Y512968D01*
X225886Y511700D01*
X226139Y510432D01*
X226857Y509357D01*
X227932Y508639D01*
X229200Y508386D01*
X230468Y508639D01*
X231543Y509357D01*
X232261Y510432D01*
X232514Y511700D01*
X232261Y512968D01*
X231543Y514043D01*
X230468Y514761D01*
X229200Y515014D01*
D02*
G37*
G36*
X276300Y508914D02*
X275032Y508661D01*
X273957Y507943D01*
X273239Y506868D01*
X272986Y505600D01*
X273239Y504332D01*
X273957Y503257D01*
X275032Y502539D01*
X276300Y502286D01*
X277568Y502539D01*
X278643Y503257D01*
X279361Y504332D01*
X279614Y505600D01*
X279361Y506868D01*
X278643Y507943D01*
X277568Y508661D01*
X276300Y508914D01*
D02*
G37*
G36*
X460100Y506514D02*
X458832Y506261D01*
X457757Y505543D01*
X457039Y504468D01*
X456786Y503200D01*
X457039Y501932D01*
X457757Y500857D01*
X458832Y500139D01*
X460100Y499886D01*
X461368Y500139D01*
X462443Y500857D01*
X463161Y501932D01*
X463414Y503200D01*
X463161Y504468D01*
X462443Y505543D01*
X461368Y506261D01*
X460100Y506514D01*
D02*
G37*
G36*
X106250Y506564D02*
X104982Y506311D01*
X103907Y505593D01*
X103189Y504518D01*
X102936Y503250D01*
X103189Y501982D01*
X103907Y500907D01*
X104982Y500189D01*
X106250Y499936D01*
X107518Y500189D01*
X108593Y500907D01*
X109311Y501982D01*
X109564Y503250D01*
X109311Y504518D01*
X108593Y505593D01*
X107518Y506311D01*
X106250Y506564D01*
D02*
G37*
%LPD*%
G36*
X95577Y477750D02*
X95351Y477745D01*
X95132Y477724D01*
X94921Y477689D01*
X94719Y477638D01*
X94524Y477572D01*
X94338Y477491D01*
X94160Y477395D01*
X93991Y477283D01*
X93829Y477157D01*
X93676Y477015D01*
X92615Y478076D01*
X92757Y478229D01*
X92883Y478391D01*
X92995Y478560D01*
X93091Y478738D01*
X93172Y478924D01*
X93238Y479119D01*
X93289Y479321D01*
X93324Y479532D01*
X93345Y479751D01*
X93350Y479977D01*
X95577Y477750D01*
D02*
G37*
G36*
X74553Y443785D02*
X74598Y443254D01*
X74640Y443014D01*
X74695Y442792D01*
X74762Y442588D01*
X74842Y442402D01*
X74935Y442233D01*
X75041Y442081D01*
X75159Y441948D01*
X74452Y441241D01*
X74318Y441359D01*
X74167Y441465D01*
X73998Y441558D01*
X73812Y441638D01*
X73608Y441705D01*
X73386Y441760D01*
X73146Y441802D01*
X72889Y441830D01*
X72615Y441847D01*
X72323Y441850D01*
X74550Y444077D01*
X74553Y443785D01*
D02*
G37*
G36*
X264193Y371525D02*
X263984Y371729D01*
X263576Y372073D01*
X263377Y372213D01*
X263182Y372331D01*
X262990Y372428D01*
X262801Y372503D01*
X262616Y372557D01*
X262435Y372589D01*
X262256Y372600D01*
Y373600D01*
X262435Y373611D01*
X262616Y373643D01*
X262801Y373697D01*
X262990Y373772D01*
X263182Y373869D01*
X263377Y373987D01*
X263576Y374127D01*
X263778Y374288D01*
X263984Y374471D01*
X264193Y374675D01*
Y371525D01*
D02*
G37*
G36*
X128459Y134052D02*
X128341Y133919D01*
X128235Y133767D01*
X128142Y133598D01*
X128062Y133412D01*
X127995Y133208D01*
X127940Y132986D01*
X127898Y132746D01*
X127869Y132489D01*
X127853Y132215D01*
X127850Y131923D01*
X125623Y134150D01*
X125915Y134153D01*
X126446Y134198D01*
X126686Y134240D01*
X126908Y134295D01*
X127112Y134362D01*
X127298Y134442D01*
X127467Y134535D01*
X127619Y134641D01*
X127752Y134759D01*
X128459Y134052D01*
D02*
G37*
G36*
X220811Y33463D02*
X221248Y33228D01*
X221790Y33022D01*
X222436Y32846D01*
X223188Y32698D01*
X224045Y32580D01*
X226075Y32431D01*
X228525Y32400D01*
X221100Y24975D01*
X221099Y26253D01*
X220920Y29455D01*
X220802Y30312D01*
X220654Y31064D01*
X220478Y31710D01*
X220272Y32252D01*
X220037Y32689D01*
X219773Y33020D01*
X220480Y33727D01*
X220811Y33463D01*
D02*
G37*
G36*
X314216Y298171D02*
X314624Y297827D01*
X314823Y297687D01*
X315018Y297569D01*
X315210Y297472D01*
X315399Y297397D01*
X315584Y297343D01*
X315765Y297311D01*
X315944Y297300D01*
Y296300D01*
X315765Y296289D01*
X315584Y296257D01*
X315399Y296203D01*
X315210Y296128D01*
X315018Y296031D01*
X314823Y295913D01*
X314624Y295773D01*
X314422Y295612D01*
X314216Y295429D01*
X314007Y295225D01*
Y298375D01*
X314216Y298171D01*
D02*
G37*
G36*
X299259Y290952D02*
X299141Y290819D01*
X299035Y290667D01*
X298942Y290498D01*
X298862Y290312D01*
X298795Y290107D01*
X298740Y289886D01*
X298698Y289646D01*
X298669Y289389D01*
X298653Y289115D01*
X298650Y288822D01*
X296423Y291050D01*
X296715Y291053D01*
X297246Y291098D01*
X297486Y291140D01*
X297708Y291195D01*
X297912Y291262D01*
X298098Y291342D01*
X298267Y291435D01*
X298419Y291541D01*
X298552Y291659D01*
X299259Y290952D01*
D02*
G37*
G36*
X393877Y532250D02*
X393585Y532247D01*
X393054Y532202D01*
X392814Y532160D01*
X392593Y532105D01*
X392388Y532038D01*
X392202Y531958D01*
X392033Y531865D01*
X391881Y531759D01*
X391748Y531641D01*
X391041Y532348D01*
X391159Y532481D01*
X391265Y532633D01*
X391358Y532802D01*
X391438Y532988D01*
X391505Y533192D01*
X391560Y533414D01*
X391602Y533654D01*
X391631Y533911D01*
X391647Y534185D01*
X391650Y534478D01*
X393877Y532250D01*
D02*
G37*
G36*
X307259Y298952D02*
X307141Y298819D01*
X307035Y298667D01*
X306942Y298498D01*
X306862Y298312D01*
X306795Y298108D01*
X306740Y297886D01*
X306698Y297646D01*
X306669Y297389D01*
X306653Y297115D01*
X306650Y296822D01*
X304422Y299050D01*
X304715Y299053D01*
X305246Y299098D01*
X305486Y299140D01*
X305707Y299195D01*
X305912Y299262D01*
X306098Y299342D01*
X306267Y299435D01*
X306418Y299541D01*
X306552Y299659D01*
X307259Y298952D01*
D02*
G37*
G36*
X274671Y309984D02*
X274327Y309576D01*
X274187Y309377D01*
X274069Y309182D01*
X273972Y308990D01*
X273897Y308801D01*
X273843Y308616D01*
X273811Y308435D01*
X273800Y308256D01*
X272800D01*
X272789Y308435D01*
X272757Y308616D01*
X272703Y308801D01*
X272628Y308990D01*
X272531Y309182D01*
X272413Y309377D01*
X272273Y309576D01*
X272112Y309778D01*
X271929Y309984D01*
X271725Y310193D01*
X274875D01*
X274671Y309984D01*
D02*
G37*
G36*
X307259Y306952D02*
X307141Y306819D01*
X307035Y306667D01*
X306942Y306498D01*
X306862Y306312D01*
X306795Y306108D01*
X306740Y305886D01*
X306698Y305646D01*
X306669Y305389D01*
X306653Y305115D01*
X306650Y304823D01*
X304422Y307050D01*
X304715Y307053D01*
X305246Y307098D01*
X305486Y307140D01*
X305707Y307195D01*
X305912Y307262D01*
X306098Y307342D01*
X306267Y307435D01*
X306418Y307541D01*
X306552Y307659D01*
X307259Y306952D01*
D02*
G37*
G36*
X273700Y299519D02*
X273710Y299343D01*
X273742Y299163D01*
X273794Y298977D01*
X273867Y298787D01*
X273961Y298591D01*
X274076Y298390D01*
X274212Y298184D01*
X274369Y297973D01*
X274745Y297535D01*
X271598Y297675D01*
X271807Y297872D01*
X272160Y298260D01*
X272303Y298452D01*
X272425Y298641D01*
X272524Y298830D01*
X272601Y299016D01*
X272656Y299200D01*
X272689Y299383D01*
X272700Y299564D01*
X273700Y299519D01*
D02*
G37*
G36*
X148759Y215952D02*
X148641Y215819D01*
X148535Y215667D01*
X148442Y215498D01*
X148362Y215312D01*
X148295Y215107D01*
X148240Y214886D01*
X148198Y214646D01*
X148169Y214389D01*
X148153Y214115D01*
X148150Y213822D01*
X145922Y216050D01*
X146215Y216053D01*
X146746Y216098D01*
X146986Y216140D01*
X147207Y216195D01*
X147412Y216262D01*
X147598Y216342D01*
X147767Y216435D01*
X147919Y216541D01*
X148052Y216659D01*
X148759Y215952D01*
D02*
G37*
G36*
X153911Y217365D02*
X153943Y217184D01*
X153997Y216999D01*
X154072Y216810D01*
X154169Y216618D01*
X154287Y216423D01*
X154427Y216224D01*
X154588Y216021D01*
X154771Y215816D01*
X154975Y215607D01*
X151825D01*
X152029Y215816D01*
X152373Y216224D01*
X152513Y216423D01*
X152631Y216618D01*
X152728Y216810D01*
X152803Y216999D01*
X152857Y217184D01*
X152889Y217365D01*
X152900Y217544D01*
X153900D01*
X153911Y217365D01*
D02*
G37*
G36*
X400271Y525484D02*
X399927Y525076D01*
X399787Y524878D01*
X399669Y524682D01*
X399572Y524490D01*
X399497Y524301D01*
X399443Y524116D01*
X399411Y523935D01*
X399400Y523756D01*
X398400D01*
X398389Y523935D01*
X398357Y524116D01*
X398303Y524301D01*
X398228Y524490D01*
X398131Y524682D01*
X398013Y524878D01*
X397873Y525076D01*
X397712Y525279D01*
X397529Y525484D01*
X397325Y525693D01*
X400475D01*
X400271Y525484D01*
D02*
G37*
G36*
X405271Y528784D02*
X404927Y528376D01*
X404787Y528177D01*
X404669Y527982D01*
X404572Y527790D01*
X404497Y527602D01*
X404443Y527416D01*
X404411Y527235D01*
X404400Y527056D01*
X403400D01*
X403389Y527235D01*
X403357Y527416D01*
X403303Y527602D01*
X403228Y527790D01*
X403131Y527982D01*
X403013Y528177D01*
X402873Y528376D01*
X402712Y528578D01*
X402529Y528784D01*
X402325Y528993D01*
X405475D01*
X405271Y528784D01*
D02*
G37*
G36*
X138811Y235665D02*
X138843Y235484D01*
X138897Y235299D01*
X138972Y235110D01*
X139069Y234918D01*
X139187Y234722D01*
X139327Y234524D01*
X139488Y234321D01*
X139671Y234116D01*
X139875Y233907D01*
X136725D01*
X136929Y234116D01*
X137273Y234524D01*
X137413Y234722D01*
X137531Y234918D01*
X137628Y235110D01*
X137703Y235299D01*
X137757Y235484D01*
X137789Y235665D01*
X137800Y235844D01*
X138800D01*
X138811Y235665D01*
D02*
G37*
G36*
X421211Y517165D02*
X421243Y516984D01*
X421297Y516798D01*
X421372Y516610D01*
X421469Y516418D01*
X421587Y516222D01*
X421727Y516024D01*
X421888Y515821D01*
X422071Y515616D01*
X422275Y515407D01*
X419125D01*
X419329Y515616D01*
X419673Y516024D01*
X419813Y516222D01*
X419931Y516418D01*
X420028Y516610D01*
X420103Y516798D01*
X420157Y516984D01*
X420189Y517165D01*
X420200Y517344D01*
X421200D01*
X421211Y517165D01*
D02*
G37*
G36*
X145420Y221313D02*
X145300Y221178D01*
X145194Y221025D01*
X145102Y220856D01*
X145024Y220670D01*
X144960Y220466D01*
X144910Y220246D01*
X144874Y220008D01*
X144851Y219753D01*
X144843Y219482D01*
X144848Y219193D01*
X142552Y221350D01*
X142847Y221362D01*
X143384Y221422D01*
X143625Y221469D01*
X143848Y221528D01*
X144053Y221598D01*
X144239Y221681D01*
X144408Y221774D01*
X144558Y221880D01*
X144690Y221997D01*
X145420Y221313D01*
D02*
G37*
G36*
X267653Y319485D02*
X267698Y318954D01*
X267740Y318714D01*
X267795Y318492D01*
X267862Y318288D01*
X267942Y318102D01*
X268035Y317933D01*
X268141Y317781D01*
X268259Y317648D01*
X267552Y316941D01*
X267419Y317059D01*
X267267Y317165D01*
X267098Y317258D01*
X266912Y317338D01*
X266708Y317405D01*
X266486Y317460D01*
X266246Y317502D01*
X265989Y317530D01*
X265715Y317547D01*
X265422Y317550D01*
X267650Y319778D01*
X267653Y319485D01*
D02*
G37*
G36*
X233377Y349550D02*
X233085Y349547D01*
X232554Y349502D01*
X232314Y349460D01*
X232092Y349405D01*
X231888Y349338D01*
X231702Y349258D01*
X231533Y349165D01*
X231381Y349059D01*
X231248Y348941D01*
X230541Y349648D01*
X230659Y349781D01*
X230765Y349933D01*
X230858Y350102D01*
X230938Y350288D01*
X231005Y350492D01*
X231060Y350714D01*
X231102Y350954D01*
X231131Y351211D01*
X231147Y351485D01*
X231150Y351777D01*
X233377Y349550D01*
D02*
G37*
G36*
X208377D02*
X208085Y349547D01*
X207554Y349502D01*
X207314Y349460D01*
X207092Y349405D01*
X206888Y349338D01*
X206702Y349258D01*
X206533Y349165D01*
X206381Y349059D01*
X206248Y348941D01*
X205541Y349648D01*
X205659Y349781D01*
X205765Y349933D01*
X205858Y350102D01*
X205938Y350288D01*
X206005Y350492D01*
X206060Y350714D01*
X206102Y350954D01*
X206131Y351211D01*
X206147Y351485D01*
X206150Y351777D01*
X208377Y349550D01*
D02*
G37*
G36*
X273377Y341550D02*
X273085Y341547D01*
X272554Y341502D01*
X272314Y341460D01*
X272092Y341405D01*
X271888Y341338D01*
X271702Y341258D01*
X271533Y341165D01*
X271381Y341059D01*
X271248Y340941D01*
X270541Y341648D01*
X270659Y341782D01*
X270765Y341933D01*
X270858Y342102D01*
X270938Y342288D01*
X271005Y342492D01*
X271060Y342714D01*
X271102Y342954D01*
X271131Y343211D01*
X271147Y343485D01*
X271150Y343778D01*
X273377Y341550D01*
D02*
G37*
G36*
X239382Y354541D02*
X239533Y354435D01*
X239702Y354342D01*
X239888Y354262D01*
X240093Y354195D01*
X240314Y354140D01*
X240554Y354098D01*
X240811Y354069D01*
X241085Y354053D01*
X241378Y354050D01*
X239150Y351823D01*
X239147Y352115D01*
X239102Y352646D01*
X239060Y352886D01*
X239005Y353107D01*
X238938Y353312D01*
X238858Y353498D01*
X238765Y353667D01*
X238659Y353819D01*
X238541Y353952D01*
X239248Y354659D01*
X239382Y354541D01*
D02*
G37*
G36*
X439371Y357584D02*
X439027Y357176D01*
X438887Y356978D01*
X438769Y356782D01*
X438672Y356590D01*
X438597Y356401D01*
X438543Y356216D01*
X438511Y356035D01*
X438500Y355856D01*
X437500D01*
X437489Y356035D01*
X437457Y356216D01*
X437403Y356401D01*
X437328Y356590D01*
X437231Y356782D01*
X437113Y356978D01*
X436973Y357176D01*
X436812Y357379D01*
X436629Y357584D01*
X436425Y357793D01*
X439575D01*
X439371Y357584D01*
D02*
G37*
G36*
X429271Y357484D02*
X428927Y357076D01*
X428787Y356878D01*
X428669Y356682D01*
X428572Y356490D01*
X428497Y356301D01*
X428443Y356116D01*
X428411Y355935D01*
X428400Y355756D01*
X427400D01*
X427389Y355935D01*
X427357Y356116D01*
X427303Y356301D01*
X427228Y356490D01*
X427131Y356682D01*
X427013Y356878D01*
X426873Y357076D01*
X426712Y357279D01*
X426529Y357484D01*
X426325Y357693D01*
X429475D01*
X429271Y357484D01*
D02*
G37*
G36*
X128459Y146852D02*
X128341Y146719D01*
X128235Y146567D01*
X128142Y146398D01*
X128062Y146212D01*
X127995Y146007D01*
X127940Y145786D01*
X127898Y145546D01*
X127869Y145289D01*
X127853Y145015D01*
X127850Y144722D01*
X125623Y146950D01*
X125915Y146953D01*
X126446Y146998D01*
X126686Y147040D01*
X126908Y147095D01*
X127112Y147162D01*
X127298Y147242D01*
X127467Y147335D01*
X127619Y147441D01*
X127752Y147559D01*
X128459Y146852D01*
D02*
G37*
G36*
X265378Y333550D02*
X265085Y333547D01*
X264554Y333502D01*
X264314Y333460D01*
X264093Y333405D01*
X263888Y333338D01*
X263702Y333258D01*
X263533Y333165D01*
X263382Y333059D01*
X263248Y332941D01*
X262541Y333648D01*
X262659Y333781D01*
X262765Y333933D01*
X262858Y334102D01*
X262938Y334288D01*
X263005Y334492D01*
X263060Y334714D01*
X263102Y334954D01*
X263131Y335211D01*
X263147Y335485D01*
X263150Y335778D01*
X265378Y333550D01*
D02*
G37*
G36*
X128581Y322441D02*
X128733Y322335D01*
X128902Y322242D01*
X129088Y322162D01*
X129292Y322095D01*
X129514Y322040D01*
X129754Y321998D01*
X130011Y321969D01*
X130285Y321953D01*
X130577Y321950D01*
X128350Y319722D01*
X128347Y320015D01*
X128302Y320546D01*
X128260Y320786D01*
X128205Y321007D01*
X128138Y321212D01*
X128058Y321398D01*
X127965Y321567D01*
X127859Y321718D01*
X127741Y321852D01*
X128448Y322559D01*
X128581Y322441D01*
D02*
G37*
G36*
X306653Y319485D02*
X306698Y318954D01*
X306740Y318714D01*
X306795Y318493D01*
X306862Y318288D01*
X306942Y318102D01*
X307035Y317933D01*
X307141Y317782D01*
X307259Y317648D01*
X306552Y316941D01*
X306418Y317059D01*
X306267Y317165D01*
X306098Y317258D01*
X305912Y317338D01*
X305707Y317405D01*
X305486Y317460D01*
X305246Y317502D01*
X304989Y317531D01*
X304715Y317547D01*
X304422Y317550D01*
X306650Y319778D01*
X306653Y319485D01*
D02*
G37*
G36*
X276385Y337724D02*
X276243Y337571D01*
X276117Y337409D01*
X276005Y337239D01*
X275909Y337062D01*
X275828Y336875D01*
X275762Y336681D01*
X275711Y336479D01*
X275676Y336268D01*
X275655Y336049D01*
X275650Y335822D01*
X273423Y338050D01*
X273650Y338055D01*
X273868Y338076D01*
X274079Y338111D01*
X274281Y338162D01*
X274475Y338228D01*
X274662Y338309D01*
X274840Y338405D01*
X275009Y338517D01*
X275171Y338643D01*
X275324Y338785D01*
X276385Y337724D01*
D02*
G37*
G36*
X208277Y341550D02*
X207985Y341547D01*
X207454Y341502D01*
X207214Y341460D01*
X206992Y341405D01*
X206788Y341338D01*
X206602Y341258D01*
X206433Y341165D01*
X206282Y341059D01*
X206148Y340941D01*
X205441Y341648D01*
X205559Y341782D01*
X205665Y341933D01*
X205758Y342102D01*
X205838Y342288D01*
X205905Y342492D01*
X205960Y342714D01*
X206002Y342954D01*
X206031Y343211D01*
X206047Y343485D01*
X206050Y343778D01*
X208277Y341550D01*
D02*
G37*
G36*
X128559Y159452D02*
X128441Y159319D01*
X128335Y159167D01*
X128242Y158998D01*
X128162Y158812D01*
X128095Y158608D01*
X128040Y158386D01*
X127998Y158146D01*
X127969Y157889D01*
X127953Y157615D01*
X127950Y157323D01*
X125723Y159550D01*
X126015Y159553D01*
X126546Y159598D01*
X126786Y159640D01*
X127008Y159695D01*
X127212Y159762D01*
X127398Y159842D01*
X127567Y159935D01*
X127718Y160041D01*
X127852Y160159D01*
X128559Y159452D01*
D02*
G37*
G36*
X265378Y341550D02*
X265085Y341547D01*
X264554Y341502D01*
X264314Y341460D01*
X264093Y341405D01*
X263888Y341338D01*
X263702Y341258D01*
X263533Y341165D01*
X263382Y341059D01*
X263248Y340941D01*
X262541Y341648D01*
X262659Y341781D01*
X262765Y341933D01*
X262858Y342102D01*
X262938Y342288D01*
X263005Y342492D01*
X263060Y342714D01*
X263102Y342954D01*
X263131Y343211D01*
X263147Y343485D01*
X263150Y343778D01*
X265378Y341550D01*
D02*
G37*
D10*
X88300Y472700D02*
X95600Y480000D01*
X201100Y366500D02*
X227300D01*
X270300Y353800D02*
X277700Y346400D01*
Y340100D02*
Y346400D01*
X273400Y335800D02*
X277700Y340100D01*
X88300Y450200D02*
Y472700D01*
Y450200D02*
X106300Y432200D01*
X112500Y358400D02*
X193000D01*
X106300Y364600D02*
X112500Y358400D01*
X106300Y364600D02*
Y432200D01*
X193000Y358400D02*
X201100Y366500D01*
X227300D02*
X244900Y384100D01*
X268000D01*
X270300Y381800D01*
Y353800D02*
Y381800D01*
D55*
X72300Y444100D02*
X88500Y427900D01*
Y361800D02*
Y427900D01*
Y361800D02*
X130600Y319700D01*
X145900Y213800D02*
X150400Y218300D01*
X147500Y224100D02*
Y315200D01*
X150400Y218300D02*
Y313900D01*
X177300Y340800D01*
X250800Y373100D02*
X265800D01*
X206300Y356100D02*
X237100D01*
X177300Y340800D02*
X197400D01*
X208400Y351800D01*
X237100Y356100D02*
X241400Y351800D01*
X153400Y312400D02*
X179200Y338200D01*
X153400Y214000D02*
Y312400D01*
X179200Y338200D02*
X202700D01*
X208300Y343800D01*
X269400Y339800D02*
X273400Y343800D01*
X269400Y325600D02*
Y339800D01*
X267500Y323700D02*
X269400Y325600D01*
X261400Y339800D02*
X265400Y343800D01*
X261400Y331800D02*
X265400Y335800D01*
X207600Y330900D02*
X216500Y339800D01*
X261400D01*
X218200Y327300D02*
X222700Y331800D01*
X261400D01*
X174700Y285650D02*
X176550Y283800D01*
X174700Y279950D02*
X176550Y281800D01*
X401800Y536100D02*
X409100D01*
X390500Y524800D02*
X401800Y536100D01*
X420700Y513800D02*
Y524500D01*
X409100Y536100D02*
X420700Y524500D01*
X394500Y508360D02*
X398900Y512760D01*
X394500Y332200D02*
Y508360D01*
X398500Y507000D02*
X403900Y512400D01*
X385300Y376300D02*
Y449900D01*
X380800Y454400D02*
X385300Y449900D01*
X380800Y454400D02*
Y521400D01*
X393900Y534500D01*
X303800Y312300D02*
X326700D01*
X300050Y316050D02*
X303800Y312300D01*
X308800Y309200D02*
X371500D01*
X304400Y304800D02*
X308800Y309200D01*
X269150Y316050D02*
X300050D01*
X265400Y319800D02*
X269150Y316050D01*
X308920Y315280D02*
X324280D01*
X398900Y512760D02*
Y527300D01*
X403900Y512400D02*
Y530600D01*
X304400Y319800D02*
X308920Y315280D01*
X373700Y305200D02*
X398500Y330000D01*
Y507000D01*
X333400Y305200D02*
X373700D01*
X371500Y309200D02*
X394500Y332200D01*
X390500Y337200D02*
Y524800D01*
X326700Y312300D02*
X336400Y322000D01*
X375300D01*
X390500Y337200D01*
X377100Y368100D02*
X385300Y376300D01*
X377100Y332300D02*
Y368100D01*
X324280Y315280D02*
X334500Y325500D01*
X370300D01*
X377100Y332300D01*
X304400Y296800D02*
X308400Y300800D01*
X315300D01*
X316600Y299500D01*
X327700D01*
X333400Y305200D01*
X296400Y288800D02*
X300400Y292800D01*
X336500D01*
X340100Y296400D01*
X383700D01*
X312400Y296800D02*
X335600D01*
X337600Y298800D01*
X383700Y296400D02*
X438000Y350700D01*
Y359400D01*
X337600Y298800D02*
X381800D01*
X427900Y344900D01*
Y359300D01*
X273100Y296000D02*
X273200Y296100D01*
X272590Y304110D02*
X273200Y303500D01*
Y296100D02*
Y303500D01*
X203010Y304110D02*
X272590D01*
X272310Y306110D02*
X273300Y307100D01*
Y311800D01*
X202182Y306110D02*
X272310D01*
X176550Y283800D02*
X179872D01*
X202182Y306110D01*
X176550Y281800D02*
X180700D01*
X203010Y304110D01*
X142500Y219100D02*
X147500Y224100D01*
X227100Y345500D02*
X233400Y351800D01*
X217300Y345500D02*
X227100D01*
X208000Y336200D02*
X217300Y345500D01*
X169500Y274600D02*
X173600Y270500D01*
Y179900D02*
Y270500D01*
X125600Y131900D02*
X173600Y179900D01*
X184300Y327300D02*
X218200D01*
X164700Y307700D02*
X184300Y327300D01*
X164700Y183800D02*
Y307700D01*
X125600Y144700D02*
X164700Y183800D01*
X183000Y330900D02*
X207600D01*
X182900Y336200D02*
X208000D01*
X157600Y310900D02*
X182900Y336200D01*
X161300Y309200D02*
X183000Y330900D01*
X120500Y115800D02*
X164900Y71400D01*
X207500D01*
X169500Y274600D02*
Y306400D01*
X186800Y323700D01*
X267500D01*
X125700Y157300D02*
X161300Y192900D01*
Y309200D01*
X120500Y115800D02*
Y163100D01*
X157600Y200200D01*
Y310900D01*
X236800Y359100D02*
X250800Y373100D01*
X204500Y359100D02*
X236800D01*
X191700Y346300D02*
X204500Y359100D01*
X147500Y315200D02*
X175800Y343500D01*
X193700D01*
X206300Y356100D01*
X138300Y232300D02*
Y310500D01*
X174100Y346300D01*
X191700D01*
X207500Y71400D02*
X215900Y63000D01*
Y37600D02*
Y63000D01*
Y37600D02*
X228600Y24900D01*
X0Y35400D02*
G03*
X10000Y25400I10000J0D01*
G01*
Y685800D02*
G03*
X0Y675800I0J-10000D01*
G01*
X533400D02*
G03*
X523400Y685800I-10000J0D01*
G01*
X0Y35400D02*
Y675800D01*
X10000Y685800D02*
X523400D01*
X533400Y40600D02*
Y675800D01*
X10000Y25400D02*
X25400D01*
X403900D02*
X518200D01*
X378500Y0D02*
X403900Y25400D01*
X50800Y0D02*
X378500D01*
X25400Y25400D02*
X50800Y0D01*
X518200Y25400D02*
X533400Y40600D01*
D64*
X397200Y665700D02*
D03*
X254000Y50300D02*
D03*
X228600Y24900D02*
D03*
Y50300D02*
D03*
X203200Y24900D02*
D03*
Y50300D02*
D03*
X177800Y24900D02*
D03*
Y50300D02*
D03*
X25400Y279400D02*
D03*
Y381000D02*
D03*
Y355600D02*
D03*
Y330200D02*
D03*
Y304800D02*
D03*
Y254000D02*
D03*
Y228600D02*
D03*
X508000Y177800D02*
D03*
Y76200D02*
D03*
Y101600D02*
D03*
Y127000D02*
D03*
Y152400D02*
D03*
Y203200D02*
D03*
Y228600D02*
D03*
X508500Y472350D02*
D03*
Y497750D02*
D03*
Y446950D02*
D03*
Y421550D02*
D03*
Y370750D02*
D03*
Y345350D02*
D03*
Y319950D02*
D03*
Y294550D02*
D03*
Y396150D02*
D03*
X25400Y50800D02*
D03*
Y152400D02*
D03*
Y127000D02*
D03*
Y101600D02*
D03*
Y76200D02*
D03*
D65*
X397200Y640300D02*
D03*
D66*
X254000Y24900D02*
D03*
D67*
X25400Y406400D02*
D03*
X508000Y50800D02*
D03*
X508500Y269150D02*
D03*
X25400Y177800D02*
D03*
D68*
X273100Y296000D02*
D03*
X95600Y480000D02*
D03*
X72300Y423700D02*
D03*
X72300Y444100D02*
D03*
X65800Y444200D02*
D03*
X65200Y491800D02*
D03*
X74200Y491600D02*
D03*
X102350Y469650D02*
D03*
X102300Y445400D02*
D03*
X154300Y457300D02*
D03*
X146500Y457000D02*
D03*
X142800Y450900D02*
D03*
X151400Y451100D02*
D03*
X151100Y463300D02*
D03*
X142900Y463200D02*
D03*
X152050Y530050D02*
D03*
X145550Y529950D02*
D03*
X139050Y529950D02*
D03*
X132550Y530050D02*
D03*
X106250Y503250D02*
D03*
X113350Y496650D02*
D03*
X136750Y516500D02*
D03*
X142550Y512900D02*
D03*
X130700Y512450D02*
D03*
X148400Y516450D02*
D03*
X105600Y513200D02*
D03*
Y519400D02*
D03*
X111700D02*
D03*
X118000D02*
D03*
X130600Y319700D02*
D03*
X167700Y375100D02*
D03*
X146250Y401550D02*
D03*
X122750D02*
D03*
Y371050D02*
D03*
X146250D02*
D03*
X168400Y354000D02*
D03*
X158300Y351700D02*
D03*
X98900Y408550D02*
D03*
X114750Y443050D02*
D03*
X108450Y443050D02*
D03*
X99330Y381930D02*
D03*
X172100Y426400D02*
D03*
X95000Y669700D02*
D03*
X145900Y213800D02*
D03*
X142600Y219100D02*
D03*
X138300Y232300D02*
D03*
X125600Y131900D02*
D03*
Y144700D02*
D03*
X125700Y157300D02*
D03*
X174700Y279950D02*
D03*
Y285650D02*
D03*
X195600Y280300D02*
D03*
X260500Y430900D02*
D03*
X270900D02*
D03*
X327500Y383500D02*
D03*
X347200Y362000D02*
D03*
X198400Y289300D02*
D03*
X280900Y352700D02*
D03*
X264900Y398700D02*
D03*
X128800Y568000D02*
D03*
X200770Y675330D02*
D03*
X243550Y663750D02*
D03*
X214900Y598800D02*
D03*
X224000Y603300D02*
D03*
X232900Y607600D02*
D03*
X174000Y631700D02*
D03*
X199200Y589100D02*
D03*
X196200Y612400D02*
D03*
X187200Y612300D02*
D03*
X256600Y311800D02*
D03*
X240400Y295800D02*
D03*
X264400Y296800D02*
D03*
X273300Y311800D02*
D03*
X215700Y296480D02*
D03*
X217400Y288800D02*
D03*
X233400Y319800D02*
D03*
X225400D02*
D03*
Y327800D02*
D03*
X259500Y465200D02*
D03*
X269200Y473200D02*
D03*
X250400Y452900D02*
D03*
X250000Y460300D02*
D03*
X228400Y481500D02*
D03*
X254600Y482700D02*
D03*
X249500Y477900D02*
D03*
X244400Y487400D02*
D03*
X279500Y485000D02*
D03*
X464350Y626450D02*
D03*
X456800Y616000D02*
D03*
X459400Y631400D02*
D03*
X517000Y637400D02*
D03*
X517100Y648300D02*
D03*
X427800Y648199D02*
D03*
X427700Y637299D02*
D03*
X277800Y648199D02*
D03*
X277700Y637299D02*
D03*
X367100Y648300D02*
D03*
X367000Y637400D02*
D03*
X524500Y675300D02*
D03*
X524200Y661000D02*
D03*
X420300Y675300D02*
D03*
X420000Y661000D02*
D03*
X374500Y675300D02*
D03*
X374200Y661000D02*
D03*
X270000D02*
D03*
X270300Y675300D02*
D03*
X307500Y631100D02*
D03*
X303400Y612100D02*
D03*
X310100Y612000D02*
D03*
X313700Y627300D02*
D03*
X297300Y497200D02*
D03*
X306200Y472600D02*
D03*
X312100D02*
D03*
X319400Y419900D02*
D03*
X330600Y410900D02*
D03*
X339500Y417500D02*
D03*
X333400D02*
D03*
X307600Y501700D02*
D03*
Y495800D02*
D03*
X340100Y535300D02*
D03*
X333900D02*
D03*
X380700Y535200D02*
D03*
X386700D02*
D03*
X431200Y394600D02*
D03*
X431100Y400400D02*
D03*
X378900Y407100D02*
D03*
X380900Y391000D02*
D03*
X369900Y417400D02*
D03*
X363900Y417500D02*
D03*
X430500Y430700D02*
D03*
X460100Y455900D02*
D03*
X446800Y465000D02*
D03*
X452700Y442800D02*
D03*
X459400Y435600D02*
D03*
X440700Y409800D02*
D03*
X425300Y456900D02*
D03*
X435400Y464900D02*
D03*
X409800Y417400D02*
D03*
X403600Y417400D02*
D03*
X436200Y499600D02*
D03*
X440700Y487100D02*
D03*
X425500Y494900D02*
D03*
Y488800D02*
D03*
X420600Y500400D02*
D03*
X425500Y482700D02*
D03*
X305200Y517140D02*
D03*
X299500Y517100D02*
D03*
X264150Y559750D02*
D03*
X264300Y553900D02*
D03*
X135200Y225300D02*
D03*
X129450Y225450D02*
D03*
X121850Y262450D02*
D03*
X121700Y256700D02*
D03*
X78900Y274600D02*
D03*
X78900Y289400D02*
D03*
X94200Y303900D02*
D03*
X94300Y274600D02*
D03*
X111600Y246900D02*
D03*
X68540Y247060D02*
D03*
X49300Y220790D02*
D03*
Y170000D02*
D03*
X98600Y177800D02*
D03*
X101100Y191800D02*
D03*
X101600Y204600D02*
D03*
X101810Y214410D02*
D03*
X280800Y233900D02*
D03*
X168600Y183000D02*
D03*
X188000Y183000D02*
D03*
X168600Y200800D02*
D03*
X188000Y200800D02*
D03*
X188000Y165400D02*
D03*
X168600Y165400D02*
D03*
X168600Y147600D02*
D03*
X188000Y147600D02*
D03*
X240300Y186700D02*
D03*
X240880Y166950D02*
D03*
X240900Y192829D02*
D03*
X209560Y144750D02*
D03*
X285060Y157570D02*
D03*
X279740Y154280D02*
D03*
X280610Y161130D02*
D03*
X260860Y163350D02*
D03*
X219560Y174200D02*
D03*
X220450Y182700D02*
D03*
X215780Y144770D02*
D03*
X220930Y148010D02*
D03*
X268430Y147290D02*
D03*
X304830Y271560D02*
D03*
X256930Y272260D02*
D03*
X264830Y272050D02*
D03*
X296390Y220200D02*
D03*
X287240Y220170D02*
D03*
X293400Y516700D02*
D03*
X337400Y276300D02*
D03*
X313400Y256800D02*
D03*
X320400Y264800D02*
D03*
X321400Y256800D02*
D03*
X224400Y248800D02*
D03*
X273400Y343800D02*
D03*
X316900Y368800D02*
D03*
X337400Y356300D02*
D03*
X236900Y368800D02*
D03*
X300900Y247800D02*
D03*
X232400Y311800D02*
D03*
X260900Y247800D02*
D03*
X273400Y288800D02*
D03*
Y280800D02*
D03*
Y319800D02*
D03*
Y327800D02*
D03*
Y335800D02*
D03*
X225400Y288800D02*
D03*
Y264800D02*
D03*
Y256800D02*
D03*
X233400Y272800D02*
D03*
Y264800D02*
D03*
Y256800D02*
D03*
X241400Y280800D02*
D03*
Y272800D02*
D03*
Y264800D02*
D03*
Y256800D02*
D03*
X248770Y279899D02*
D03*
X249400Y264800D02*
D03*
X257610Y289851D02*
D03*
X257430Y280270D02*
D03*
X257400Y264800D02*
D03*
X265780Y289741D02*
D03*
X265050Y280159D02*
D03*
X265400Y264800D02*
D03*
X249400Y359800D02*
D03*
X265400Y351800D02*
D03*
X257400D02*
D03*
X249400D02*
D03*
X241400D02*
D03*
X225400D02*
D03*
X265400Y343800D02*
D03*
X257400D02*
D03*
X249400D02*
D03*
X233400D02*
D03*
X265400Y335800D02*
D03*
X257400D02*
D03*
X249400D02*
D03*
X241400D02*
D03*
X233400D02*
D03*
X225400D02*
D03*
X265400Y327800D02*
D03*
X257400D02*
D03*
X249400D02*
D03*
X241400D02*
D03*
X233400D02*
D03*
X265400Y319800D02*
D03*
X257400D02*
D03*
X249400D02*
D03*
X241400D02*
D03*
Y311800D02*
D03*
X265000Y311900D02*
D03*
X328400Y343800D02*
D03*
X320400Y327800D02*
D03*
Y335800D02*
D03*
Y343800D02*
D03*
X312400Y335800D02*
D03*
Y351800D02*
D03*
X304400Y319800D02*
D03*
Y327800D02*
D03*
Y335800D02*
D03*
X296400Y319800D02*
D03*
Y327800D02*
D03*
Y359800D02*
D03*
X288400Y319800D02*
D03*
Y327800D02*
D03*
Y343800D02*
D03*
X288400Y304800D02*
D03*
X296400D02*
D03*
X304400D02*
D03*
X312400D02*
D03*
Y296800D02*
D03*
X304400D02*
D03*
X296400D02*
D03*
X304400Y288800D02*
D03*
X296400D02*
D03*
X288400D02*
D03*
X320400Y280800D02*
D03*
X312400D02*
D03*
X304190Y281751D02*
D03*
X295920Y281371D02*
D03*
X288400Y280800D02*
D03*
X296730Y271829D02*
D03*
X288400Y272800D02*
D03*
X312400Y264800D02*
D03*
X288400Y256800D02*
D03*
X337400Y316300D02*
D03*
X276900Y368800D02*
D03*
X315400Y443800D02*
D03*
X417400Y438800D02*
D03*
Y508800D02*
D03*
X363900Y527300D02*
D03*
X321400Y303800D02*
D03*
X257400Y359800D02*
D03*
X347550Y495450D02*
D03*
X385700Y495730D02*
D03*
X346800Y456470D02*
D03*
X366400Y476300D02*
D03*
X385700Y456650D02*
D03*
X393900Y534500D02*
D03*
X420700Y513800D02*
D03*
X398900Y527300D02*
D03*
X403900Y530600D02*
D03*
X245950Y144670D02*
D03*
X240930Y148010D02*
D03*
X255950Y144670D02*
D03*
X250930Y148010D02*
D03*
X260930D02*
D03*
X202110Y161770D02*
D03*
X198770Y166750D02*
D03*
X202110Y171770D02*
D03*
X198770Y176750D02*
D03*
X202110Y181770D02*
D03*
X235290Y165820D02*
D03*
X230530Y161460D02*
D03*
X279669Y199310D02*
D03*
X245900Y187530D02*
D03*
X250870Y190940D02*
D03*
X260840Y211690D02*
D03*
X252900Y222810D02*
D03*
X248935Y232375D02*
D03*
X247200Y226710D02*
D03*
X242110Y205530D02*
D03*
X267300Y219190D02*
D03*
X260970Y240610D02*
D03*
X283260Y204090D02*
D03*
X279160Y213820D02*
D03*
X279690Y185560D02*
D03*
X286090Y181670D02*
D03*
X286230Y193270D02*
D03*
X266170Y186480D02*
D03*
X230890Y205970D02*
D03*
X236390Y211750D02*
D03*
X225325Y211910D02*
D03*
X250880Y205840D02*
D03*
X251560Y215750D02*
D03*
X208340Y205830D02*
D03*
X217620Y213060D02*
D03*
X205700Y235380D02*
D03*
X208080Y214100D02*
D03*
X222400Y191830D02*
D03*
X206890Y222170D02*
D03*
X214940Y186660D02*
D03*
X227260Y174230D02*
D03*
X225980Y179850D02*
D03*
X229850Y188440D02*
D03*
X198470Y186800D02*
D03*
X201410Y191780D02*
D03*
X236590Y224040D02*
D03*
X178770Y658590D02*
D03*
X200770D02*
D03*
X216400Y332300D02*
D03*
X208300Y343800D02*
D03*
X208400Y351800D02*
D03*
X257400Y367800D02*
D03*
X265800Y373100D02*
D03*
X49400Y131900D02*
D03*
Y144600D02*
D03*
Y157300D02*
D03*
Y182700D02*
D03*
Y208100D02*
D03*
X265000Y379300D02*
D03*
X258600Y400800D02*
D03*
X272000Y400700D02*
D03*
X361300Y284300D02*
D03*
X367800Y290800D02*
D03*
X370500Y357100D02*
D03*
X416400Y357700D02*
D03*
X405400Y365100D02*
D03*
X382600Y365000D02*
D03*
X349400Y316300D02*
D03*
X356200D02*
D03*
X362600D02*
D03*
X369800D02*
D03*
X345800Y291500D02*
D03*
X351700D02*
D03*
X359200Y345150D02*
D03*
X349100Y345050D02*
D03*
X385150Y271050D02*
D03*
X402850Y275050D02*
D03*
X391000Y274600D02*
D03*
X396800Y271000D02*
D03*
X364550Y269950D02*
D03*
X370450D02*
D03*
X370400Y263850D02*
D03*
X364450Y263950D02*
D03*
X453050Y281950D02*
D03*
X431450Y270850D02*
D03*
X424850Y264050D02*
D03*
X444700Y240650D02*
D03*
X441100Y234850D02*
D03*
X440650Y246700D02*
D03*
X444650Y229000D02*
D03*
X441400Y271800D02*
D03*
X447600D02*
D03*
Y265700D02*
D03*
Y259400D02*
D03*
X359200Y250200D02*
D03*
X364900Y250300D02*
D03*
X370700D02*
D03*
X376700Y250400D02*
D03*
X375400Y179200D02*
D03*
X369400Y179100D02*
D03*
X363600D02*
D03*
X357900Y179000D02*
D03*
X446300Y188200D02*
D03*
Y194500D02*
D03*
Y200600D02*
D03*
X440100D02*
D03*
X443350Y157800D02*
D03*
X439350Y175500D02*
D03*
X439800Y163650D02*
D03*
X443400Y169450D02*
D03*
X423550Y192850D02*
D03*
X430150Y199950D02*
D03*
X363200Y130200D02*
D03*
X385800D02*
D03*
X386900Y201800D02*
D03*
X364300D02*
D03*
X364400Y218100D02*
D03*
X386950Y218150D02*
D03*
X363250Y146550D02*
D03*
X385900Y146500D02*
D03*
X471900Y472200D02*
D03*
X471800Y483300D02*
D03*
X209700Y386900D02*
D03*
Y420600D02*
D03*
X438000Y359400D02*
D03*
X427900Y359300D02*
D03*
X438100Y379200D02*
D03*
X262000Y519200D02*
D03*
X247800Y533300D02*
D03*
X276100Y532900D02*
D03*
X276300Y505600D02*
D03*
X248500D02*
D03*
X228900Y526800D02*
D03*
X229200Y511700D02*
D03*
X349700Y590800D02*
D03*
X356700Y626800D02*
D03*
X381100Y581000D02*
D03*
X375700Y588000D02*
D03*
X386400Y587800D02*
D03*
Y574100D02*
D03*
X375700D02*
D03*
X423300Y571300D02*
D03*
X402600Y596000D02*
D03*
X409400Y552100D02*
D03*
X415600Y546400D02*
D03*
X420100Y551900D02*
D03*
X430600Y551700D02*
D03*
X424300Y546200D02*
D03*
X431000Y561200D02*
D03*
X439600Y561100D02*
D03*
X435500Y569000D02*
D03*
X420400Y609500D02*
D03*
X430800Y609600D02*
D03*
X426100Y605100D02*
D03*
X432200Y580100D02*
D03*
X269500Y568600D02*
D03*
X448300Y602800D02*
D03*
X442400Y607600D02*
D03*
X448400Y613500D02*
D03*
X441400Y618600D02*
D03*
X447700Y621900D02*
D03*
X490100Y626600D02*
D03*
X497500D02*
D03*
X505200D02*
D03*
X501800Y620600D02*
D03*
X495000D02*
D03*
X503600Y590200D02*
D03*
X240800Y582800D02*
D03*
X321100Y530200D02*
D03*
X327800Y537400D02*
D03*
X286000Y564000D02*
D03*
X294100Y548000D02*
D03*
X292300Y556800D02*
D03*
X169200Y229400D02*
D03*
X183000Y215200D02*
D03*
X99900Y159300D02*
D03*
X99100Y132800D02*
D03*
X485700Y581900D02*
D03*
X474700Y559500D02*
D03*
X462100Y546600D02*
D03*
X459800Y524100D02*
D03*
X460100Y503200D02*
D03*
X460600Y481500D02*
D03*
X442800Y495400D02*
D03*
X443300Y518800D02*
D03*
X443100Y544000D02*
D03*
X450100Y564300D02*
D03*
X468600Y587200D02*
D03*
X274000Y587000D02*
D03*
X367600Y541500D02*
D03*
X336000Y541700D02*
D03*
X287400Y620900D02*
D03*
X157200Y603500D02*
D03*
X172800Y450900D02*
D03*
X211200Y448400D02*
D03*
X211700Y480400D02*
D03*
Y513900D02*
D03*
X176300Y485800D02*
D03*
X176000Y523000D02*
D03*
X227500Y587600D02*
D03*
X166900Y595000D02*
D03*
X470000Y391300D02*
D03*
X473400Y425000D02*
D03*
X448300Y370100D02*
D03*
X469800Y152700D02*
D03*
X176700Y409100D02*
D03*
X169900Y368300D02*
D03*
X111300Y532600D02*
D03*
X187600Y279599D02*
D03*
X289900Y595950D02*
D03*
Y590250D02*
D03*
X233400Y280800D02*
D03*
X249340Y289850D02*
D03*
X241400Y288800D02*
D03*
X232900Y288100D02*
D03*
X247900Y297800D02*
D03*
X232900Y636100D02*
D03*
X233400Y351800D02*
D03*
X241400Y343800D02*
D03*
X153400Y214000D02*
D03*
M02*
