%FSLAX44Y44*%
%MOMM*%
G71*
G01*
G75*
G04 Layer_Physical_Order=7*
G04 Layer_Color=8388736*
%ADD10C,0.1500*%
G04:AMPARAMS|DCode=11|XSize=1.82mm|YSize=1.07mm|CornerRadius=0.107mm|HoleSize=0mm|Usage=FLASHONLY|Rotation=180.000|XOffset=0mm|YOffset=0mm|HoleType=Round|Shape=RoundedRectangle|*
%AMROUNDEDRECTD11*
21,1,1.8200,0.8560,0,0,180.0*
21,1,1.6060,1.0700,0,0,180.0*
1,1,0.2140,-0.8030,0.4280*
1,1,0.2140,0.8030,0.4280*
1,1,0.2140,0.8030,-0.4280*
1,1,0.2140,-0.8030,-0.4280*
%
%ADD11ROUNDEDRECTD11*%
G04:AMPARAMS|DCode=12|XSize=0.8mm|YSize=0.8mm|CornerRadius=0.08mm|HoleSize=0mm|Usage=FLASHONLY|Rotation=0.000|XOffset=0mm|YOffset=0mm|HoleType=Round|Shape=RoundedRectangle|*
%AMROUNDEDRECTD12*
21,1,0.8000,0.6400,0,0,0.0*
21,1,0.6400,0.8000,0,0,0.0*
1,1,0.1600,0.3200,-0.3200*
1,1,0.1600,-0.3200,-0.3200*
1,1,0.1600,-0.3200,0.3200*
1,1,0.1600,0.3200,0.3200*
%
%ADD12ROUNDEDRECTD12*%
G04:AMPARAMS|DCode=13|XSize=2mm|YSize=1.1mm|CornerRadius=0.11mm|HoleSize=0mm|Usage=FLASHONLY|Rotation=0.000|XOffset=0mm|YOffset=0mm|HoleType=Round|Shape=RoundedRectangle|*
%AMROUNDEDRECTD13*
21,1,2.0000,0.8800,0,0,0.0*
21,1,1.7800,1.1000,0,0,0.0*
1,1,0.2200,0.8900,-0.4400*
1,1,0.2200,-0.8900,-0.4400*
1,1,0.2200,-0.8900,0.4400*
1,1,0.2200,0.8900,0.4400*
%
%ADD13ROUNDEDRECTD13*%
G04:AMPARAMS|DCode=14|XSize=0.6mm|YSize=0.5mm|CornerRadius=0.05mm|HoleSize=0mm|Usage=FLASHONLY|Rotation=180.000|XOffset=0mm|YOffset=0mm|HoleType=Round|Shape=RoundedRectangle|*
%AMROUNDEDRECTD14*
21,1,0.6000,0.4000,0,0,180.0*
21,1,0.5000,0.5000,0,0,180.0*
1,1,0.1000,-0.2500,0.2000*
1,1,0.1000,0.2500,0.2000*
1,1,0.1000,0.2500,-0.2000*
1,1,0.1000,-0.2500,-0.2000*
%
%ADD14ROUNDEDRECTD14*%
G04:AMPARAMS|DCode=15|XSize=0.4mm|YSize=0.37mm|CornerRadius=0.037mm|HoleSize=0mm|Usage=FLASHONLY|Rotation=180.000|XOffset=0mm|YOffset=0mm|HoleType=Round|Shape=RoundedRectangle|*
%AMROUNDEDRECTD15*
21,1,0.4000,0.2960,0,0,180.0*
21,1,0.3260,0.3700,0,0,180.0*
1,1,0.0740,-0.1630,0.1480*
1,1,0.0740,0.1630,0.1480*
1,1,0.0740,0.1630,-0.1480*
1,1,0.0740,-0.1630,-0.1480*
%
%ADD15ROUNDEDRECTD15*%
G04:AMPARAMS|DCode=16|XSize=0.4mm|YSize=0.37mm|CornerRadius=0.037mm|HoleSize=0mm|Usage=FLASHONLY|Rotation=90.000|XOffset=0mm|YOffset=0mm|HoleType=Round|Shape=RoundedRectangle|*
%AMROUNDEDRECTD16*
21,1,0.4000,0.2960,0,0,90.0*
21,1,0.3260,0.3700,0,0,90.0*
1,1,0.0740,0.1480,0.1630*
1,1,0.0740,0.1480,-0.1630*
1,1,0.0740,-0.1480,-0.1630*
1,1,0.0740,-0.1480,0.1630*
%
%ADD16ROUNDEDRECTD16*%
G04:AMPARAMS|DCode=17|XSize=1.38mm|YSize=1.05mm|CornerRadius=0.105mm|HoleSize=0mm|Usage=FLASHONLY|Rotation=180.000|XOffset=0mm|YOffset=0mm|HoleType=Round|Shape=RoundedRectangle|*
%AMROUNDEDRECTD17*
21,1,1.3800,0.8400,0,0,180.0*
21,1,1.1700,1.0500,0,0,180.0*
1,1,0.2100,-0.5850,0.4200*
1,1,0.2100,0.5850,0.4200*
1,1,0.2100,0.5850,-0.4200*
1,1,0.2100,-0.5850,-0.4200*
%
%ADD17ROUNDEDRECTD17*%
%ADD18O,1.4000X0.6000*%
G04:AMPARAMS|DCode=19|XSize=1mm|YSize=1mm|CornerRadius=0.25mm|HoleSize=0mm|Usage=FLASHONLY|Rotation=180.000|XOffset=0mm|YOffset=0mm|HoleType=Round|Shape=RoundedRectangle|*
%AMROUNDEDRECTD19*
21,1,1.0000,0.5000,0,0,180.0*
21,1,0.5000,1.0000,0,0,180.0*
1,1,0.5000,-0.2500,0.2500*
1,1,0.5000,0.2500,0.2500*
1,1,0.5000,0.2500,-0.2500*
1,1,0.5000,-0.2500,-0.2500*
%
%ADD19ROUNDEDRECTD19*%
G04:AMPARAMS|DCode=20|XSize=1mm|YSize=1.4mm|CornerRadius=0.25mm|HoleSize=0mm|Usage=FLASHONLY|Rotation=180.000|XOffset=0mm|YOffset=0mm|HoleType=Round|Shape=RoundedRectangle|*
%AMROUNDEDRECTD20*
21,1,1.0000,0.9000,0,0,180.0*
21,1,0.5000,1.4000,0,0,180.0*
1,1,0.5000,-0.2500,0.4500*
1,1,0.5000,0.2500,0.4500*
1,1,0.5000,0.2500,-0.4500*
1,1,0.5000,-0.2500,-0.4500*
%
%ADD20ROUNDEDRECTD20*%
%ADD21O,0.8200X0.2700*%
%ADD22O,0.2700X0.8200*%
%ADD23R,4.4500X4.4500*%
%ADD24R,0.7400X0.5400*%
G04:AMPARAMS|DCode=25|XSize=0.93mm|YSize=0.89mm|CornerRadius=0.089mm|HoleSize=0mm|Usage=FLASHONLY|Rotation=180.000|XOffset=0mm|YOffset=0mm|HoleType=Round|Shape=RoundedRectangle|*
%AMROUNDEDRECTD25*
21,1,0.9300,0.7120,0,0,180.0*
21,1,0.7520,0.8900,0,0,180.0*
1,1,0.1780,-0.3760,0.3560*
1,1,0.1780,0.3760,0.3560*
1,1,0.1780,0.3760,-0.3560*
1,1,0.1780,-0.3760,-0.3560*
%
%ADD25ROUNDEDRECTD25*%
G04:AMPARAMS|DCode=26|XSize=1.9mm|YSize=1.35mm|CornerRadius=0.135mm|HoleSize=0mm|Usage=FLASHONLY|Rotation=180.000|XOffset=0mm|YOffset=0mm|HoleType=Round|Shape=RoundedRectangle|*
%AMROUNDEDRECTD26*
21,1,1.9000,1.0800,0,0,180.0*
21,1,1.6300,1.3500,0,0,180.0*
1,1,0.2700,-0.8150,0.5400*
1,1,0.2700,0.8150,0.5400*
1,1,0.2700,0.8150,-0.5400*
1,1,0.2700,-0.8150,-0.5400*
%
%ADD26ROUNDEDRECTD26*%
G04:AMPARAMS|DCode=27|XSize=1.2mm|YSize=1mm|CornerRadius=0.1mm|HoleSize=0mm|Usage=FLASHONLY|Rotation=180.000|XOffset=0mm|YOffset=0mm|HoleType=Round|Shape=RoundedRectangle|*
%AMROUNDEDRECTD27*
21,1,1.2000,0.8000,0,0,180.0*
21,1,1.0000,1.0000,0,0,180.0*
1,1,0.2000,-0.5000,0.4000*
1,1,0.2000,0.5000,0.4000*
1,1,0.2000,0.5000,-0.4000*
1,1,0.2000,-0.5000,-0.4000*
%
%ADD27ROUNDEDRECTD27*%
G04:AMPARAMS|DCode=28|XSize=0.75mm|YSize=1.1mm|CornerRadius=0.075mm|HoleSize=0mm|Usage=FLASHONLY|Rotation=180.000|XOffset=0mm|YOffset=0mm|HoleType=Round|Shape=RoundedRectangle|*
%AMROUNDEDRECTD28*
21,1,0.7500,0.9500,0,0,180.0*
21,1,0.6000,1.1000,0,0,180.0*
1,1,0.1500,-0.3000,0.4750*
1,1,0.1500,0.3000,0.4750*
1,1,0.1500,0.3000,-0.4750*
1,1,0.1500,-0.3000,-0.4750*
%
%ADD28ROUNDEDRECTD28*%
G04:AMPARAMS|DCode=29|XSize=1.8mm|YSize=1.17mm|CornerRadius=0.117mm|HoleSize=0mm|Usage=FLASHONLY|Rotation=90.000|XOffset=0mm|YOffset=0mm|HoleType=Round|Shape=RoundedRectangle|*
%AMROUNDEDRECTD29*
21,1,1.8000,0.9360,0,0,90.0*
21,1,1.5660,1.1700,0,0,90.0*
1,1,0.2340,0.4680,0.7830*
1,1,0.2340,0.4680,-0.7830*
1,1,0.2340,-0.4680,-0.7830*
1,1,0.2340,-0.4680,0.7830*
%
%ADD29ROUNDEDRECTD29*%
G04:AMPARAMS|DCode=30|XSize=1.55mm|YSize=1.35mm|CornerRadius=0.135mm|HoleSize=0mm|Usage=FLASHONLY|Rotation=180.000|XOffset=0mm|YOffset=0mm|HoleType=Round|Shape=RoundedRectangle|*
%AMROUNDEDRECTD30*
21,1,1.5500,1.0800,0,0,180.0*
21,1,1.2800,1.3500,0,0,180.0*
1,1,0.2700,-0.6400,0.5400*
1,1,0.2700,0.6400,0.5400*
1,1,0.2700,0.6400,-0.5400*
1,1,0.2700,-0.6400,-0.5400*
%
%ADD30ROUNDEDRECTD30*%
%ADD31C,0.3500*%
G04:AMPARAMS|DCode=32|XSize=0.6mm|YSize=0.5mm|CornerRadius=0.05mm|HoleSize=0mm|Usage=FLASHONLY|Rotation=90.000|XOffset=0mm|YOffset=0mm|HoleType=Round|Shape=RoundedRectangle|*
%AMROUNDEDRECTD32*
21,1,0.6000,0.4000,0,0,90.0*
21,1,0.5000,0.5000,0,0,90.0*
1,1,0.1000,0.2000,0.2500*
1,1,0.1000,0.2000,-0.2500*
1,1,0.1000,-0.2000,-0.2500*
1,1,0.1000,-0.2000,0.2500*
%
%ADD32ROUNDEDRECTD32*%
G04:AMPARAMS|DCode=33|XSize=0.41mm|YSize=0.37mm|CornerRadius=0.037mm|HoleSize=0mm|Usage=FLASHONLY|Rotation=180.000|XOffset=0mm|YOffset=0mm|HoleType=Round|Shape=RoundedRectangle|*
%AMROUNDEDRECTD33*
21,1,0.4100,0.2960,0,0,180.0*
21,1,0.3360,0.3700,0,0,180.0*
1,1,0.0740,-0.1680,0.1480*
1,1,0.0740,0.1680,0.1480*
1,1,0.0740,0.1680,-0.1480*
1,1,0.0740,-0.1680,-0.1480*
%
%ADD33ROUNDEDRECTD33*%
G04:AMPARAMS|DCode=34|XSize=0.3mm|YSize=0.6mm|CornerRadius=0.0495mm|HoleSize=0mm|Usage=FLASHONLY|Rotation=90.000|XOffset=0mm|YOffset=0mm|HoleType=Round|Shape=RoundedRectangle|*
%AMROUNDEDRECTD34*
21,1,0.3000,0.5010,0,0,90.0*
21,1,0.2010,0.6000,0,0,90.0*
1,1,0.0990,0.2505,0.1005*
1,1,0.0990,0.2505,-0.1005*
1,1,0.0990,-0.2505,-0.1005*
1,1,0.0990,-0.2505,0.1005*
%
%ADD34ROUNDEDRECTD34*%
G04:AMPARAMS|DCode=35|XSize=0.3mm|YSize=0.6mm|CornerRadius=0.0495mm|HoleSize=0mm|Usage=FLASHONLY|Rotation=0.000|XOffset=0mm|YOffset=0mm|HoleType=Round|Shape=RoundedRectangle|*
%AMROUNDEDRECTD35*
21,1,0.3000,0.5010,0,0,0.0*
21,1,0.2010,0.6000,0,0,0.0*
1,1,0.0990,0.1005,-0.2505*
1,1,0.0990,-0.1005,-0.2505*
1,1,0.0990,-0.1005,0.2505*
1,1,0.0990,0.1005,0.2505*
%
%ADD35ROUNDEDRECTD35*%
%ADD36R,0.9000X2.2500*%
%ADD37R,2.2500X0.9000*%
%ADD38R,1.5500X1.8500*%
%ADD39O,1.4500X0.4500*%
G04:AMPARAMS|DCode=40|XSize=1mm|YSize=1.4mm|CornerRadius=0.25mm|HoleSize=0mm|Usage=FLASHONLY|Rotation=90.000|XOffset=0mm|YOffset=0mm|HoleType=Round|Shape=RoundedRectangle|*
%AMROUNDEDRECTD40*
21,1,1.0000,0.9000,0,0,90.0*
21,1,0.5000,1.4000,0,0,90.0*
1,1,0.5000,0.4500,0.2500*
1,1,0.5000,0.4500,-0.2500*
1,1,0.5000,-0.4500,-0.2500*
1,1,0.5000,-0.4500,0.2500*
%
%ADD40ROUNDEDRECTD40*%
G04:AMPARAMS|DCode=41|XSize=1mm|YSize=1mm|CornerRadius=0.25mm|HoleSize=0mm|Usage=FLASHONLY|Rotation=90.000|XOffset=0mm|YOffset=0mm|HoleType=Round|Shape=RoundedRectangle|*
%AMROUNDEDRECTD41*
21,1,1.0000,0.5000,0,0,90.0*
21,1,0.5000,1.0000,0,0,90.0*
1,1,0.5000,0.2500,0.2500*
1,1,0.5000,0.2500,-0.2500*
1,1,0.5000,-0.2500,-0.2500*
1,1,0.5000,-0.2500,0.2500*
%
%ADD41ROUNDEDRECTD41*%
%ADD42O,0.4000X0.9500*%
%ADD43O,0.6000X1.6000*%
G04:AMPARAMS|DCode=44|XSize=1.82mm|YSize=1.07mm|CornerRadius=0.107mm|HoleSize=0mm|Usage=FLASHONLY|Rotation=270.000|XOffset=0mm|YOffset=0mm|HoleType=Round|Shape=RoundedRectangle|*
%AMROUNDEDRECTD44*
21,1,1.8200,0.8560,0,0,270.0*
21,1,1.6060,1.0700,0,0,270.0*
1,1,0.2140,-0.4280,-0.8030*
1,1,0.2140,-0.4280,0.8030*
1,1,0.2140,0.4280,0.8030*
1,1,0.2140,0.4280,-0.8030*
%
%ADD44ROUNDEDRECTD44*%
%ADD45C,1.0000*%
G04:AMPARAMS|DCode=46|XSize=2.1mm|YSize=1.6mm|CornerRadius=0.4mm|HoleSize=0mm|Usage=FLASHONLY|Rotation=180.000|XOffset=0mm|YOffset=0mm|HoleType=Round|Shape=RoundedRectangle|*
%AMROUNDEDRECTD46*
21,1,2.1000,0.8000,0,0,180.0*
21,1,1.3000,1.6000,0,0,180.0*
1,1,0.8000,-0.6500,0.4000*
1,1,0.8000,0.6500,0.4000*
1,1,0.8000,0.6500,-0.4000*
1,1,0.8000,-0.6500,-0.4000*
%
%ADD46ROUNDEDRECTD46*%
%ADD47O,0.4000X1.3500*%
G04:AMPARAMS|DCode=48|XSize=1.8mm|YSize=1.9mm|CornerRadius=0.45mm|HoleSize=0mm|Usage=FLASHONLY|Rotation=180.000|XOffset=0mm|YOffset=0mm|HoleType=Round|Shape=RoundedRectangle|*
%AMROUNDEDRECTD48*
21,1,1.8000,1.0000,0,0,180.0*
21,1,0.9000,1.9000,0,0,180.0*
1,1,0.9000,-0.4500,0.5000*
1,1,0.9000,0.4500,0.5000*
1,1,0.9000,0.4500,-0.5000*
1,1,0.9000,-0.4500,-0.5000*
%
%ADD48ROUNDEDRECTD48*%
%ADD49R,1.9000X1.9000*%
G04:AMPARAMS|DCode=50|XSize=0.9mm|YSize=0.8mm|CornerRadius=0.08mm|HoleSize=0mm|Usage=FLASHONLY|Rotation=90.000|XOffset=0mm|YOffset=0mm|HoleType=Round|Shape=RoundedRectangle|*
%AMROUNDEDRECTD50*
21,1,0.9000,0.6400,0,0,90.0*
21,1,0.7400,0.8000,0,0,90.0*
1,1,0.1600,0.3200,0.3700*
1,1,0.1600,0.3200,-0.3700*
1,1,0.1600,-0.3200,-0.3700*
1,1,0.1600,-0.3200,0.3700*
%
%ADD50ROUNDEDRECTD50*%
G04:AMPARAMS|DCode=51|XSize=0.9mm|YSize=1mm|CornerRadius=0.09mm|HoleSize=0mm|Usage=FLASHONLY|Rotation=180.000|XOffset=0mm|YOffset=0mm|HoleType=Round|Shape=RoundedRectangle|*
%AMROUNDEDRECTD51*
21,1,0.9000,0.8200,0,0,180.0*
21,1,0.7200,1.0000,0,0,180.0*
1,1,0.1800,-0.3600,0.4100*
1,1,0.1800,0.3600,0.4100*
1,1,0.1800,0.3600,-0.4100*
1,1,0.1800,-0.3600,-0.4100*
%
%ADD51ROUNDEDRECTD51*%
G04:AMPARAMS|DCode=52|XSize=1.7mm|YSize=0.55mm|CornerRadius=0.055mm|HoleSize=0mm|Usage=FLASHONLY|Rotation=180.000|XOffset=0mm|YOffset=0mm|HoleType=Round|Shape=RoundedRectangle|*
%AMROUNDEDRECTD52*
21,1,1.7000,0.4400,0,0,180.0*
21,1,1.5900,0.5500,0,0,180.0*
1,1,0.1100,-0.7950,0.2200*
1,1,0.1100,0.7950,0.2200*
1,1,0.1100,0.7950,-0.2200*
1,1,0.1100,-0.7950,-0.2200*
%
%ADD52ROUNDEDRECTD52*%
%ADD53O,1.5500X0.6000*%
G04:AMPARAMS|DCode=54|XSize=0.93mm|YSize=0.89mm|CornerRadius=0.089mm|HoleSize=0mm|Usage=FLASHONLY|Rotation=90.000|XOffset=0mm|YOffset=0mm|HoleType=Round|Shape=RoundedRectangle|*
%AMROUNDEDRECTD54*
21,1,0.9300,0.7120,0,0,90.0*
21,1,0.7520,0.8900,0,0,90.0*
1,1,0.1780,0.3560,0.3760*
1,1,0.1780,0.3560,-0.3760*
1,1,0.1780,-0.3560,-0.3760*
1,1,0.1780,-0.3560,0.3760*
%
%ADD54ROUNDEDRECTD54*%
%ADD55C,0.1000*%
%ADD56C,0.2000*%
%ADD57C,0.5000*%
%ADD58C,0.3000*%
%ADD59C,0.4000*%
%ADD60C,0.0750*%
%ADD61C,0.0800*%
%ADD62C,0.7000*%
%ADD63C,0.1200*%
%ADD64C,1.5000*%
%ADD65R,1.3500X1.3500*%
%ADD66R,1.5000X1.5000*%
%ADD67R,1.5000X1.5000*%
%ADD68C,0.4500*%
%ADD69C,0.6000*%
G36*
X523400Y683237D02*
X525325Y682983D01*
X527118Y682240D01*
X528658Y681059D01*
X529840Y679518D01*
X530583Y677725D01*
X530837Y675800D01*
X530851D01*
Y41656D01*
X517144Y27949D01*
X403900D01*
X402925Y27755D01*
X402098Y27202D01*
X377444Y2549D01*
X51856D01*
X27202Y27202D01*
X26376Y27755D01*
X25400Y27949D01*
X10000D01*
Y27963D01*
X8075Y28217D01*
X6282Y28960D01*
X4742Y30141D01*
X3560Y31682D01*
X2817Y33475D01*
X2563Y35400D01*
X2549D01*
Y675800D01*
X2563D01*
X2817Y677725D01*
X3560Y679518D01*
X4742Y681059D01*
X6282Y682240D01*
X8075Y682983D01*
X10000Y683237D01*
Y683251D01*
X523400D01*
Y683237D01*
D02*
G37*
%LPC*%
G36*
X312400Y268114D02*
X311132Y267861D01*
X310057Y267143D01*
X309339Y266068D01*
X309086Y264800D01*
X309339Y263532D01*
X310057Y262457D01*
X311132Y261739D01*
X312400Y261486D01*
X313668Y261739D01*
X314743Y262457D01*
X315461Y263532D01*
X315714Y264800D01*
X315461Y266068D01*
X314743Y267143D01*
X313668Y267861D01*
X312400Y268114D01*
D02*
G37*
G36*
X256930Y275574D02*
X255662Y275321D01*
X254587Y274603D01*
X253869Y273528D01*
X253616Y272260D01*
X253869Y270992D01*
X254587Y269917D01*
X255662Y269199D01*
X256635Y269005D01*
Y269005D01*
X256695Y268030D01*
Y267974D01*
Y267973D01*
X256694Y267973D01*
X256675Y267969D01*
X256675D01*
X256132Y267861D01*
X255057Y267143D01*
X254339Y266068D01*
X254086Y264800D01*
X254339Y263532D01*
X255057Y262457D01*
X256132Y261739D01*
X257400Y261486D01*
X258668Y261739D01*
X259743Y262457D01*
X260461Y263532D01*
X260714Y264800D01*
X260461Y266068D01*
X259743Y267143D01*
X258668Y267861D01*
X257695Y268055D01*
Y268055D01*
X257635Y269030D01*
Y269086D01*
Y269086D01*
X257636Y269087D01*
X257655Y269090D01*
X257655D01*
X258198Y269199D01*
X259273Y269917D01*
X259991Y270992D01*
X260244Y272260D01*
X259991Y273528D01*
X259273Y274603D01*
X258198Y275321D01*
X256930Y275574D01*
D02*
G37*
G36*
X304830Y274874D02*
X303562Y274621D01*
X302487Y273903D01*
X301769Y272828D01*
X301516Y271560D01*
X301769Y270292D01*
X302487Y269217D01*
X303562Y268499D01*
X304830Y268246D01*
X306098Y268499D01*
X307173Y269217D01*
X307891Y270292D01*
X308144Y271560D01*
X307891Y272828D01*
X307173Y273903D01*
X306098Y274621D01*
X304830Y274874D01*
D02*
G37*
G36*
X320400Y268114D02*
X319132Y267861D01*
X318057Y267143D01*
X317339Y266068D01*
X317086Y264800D01*
X317339Y263532D01*
X318057Y262457D01*
X319132Y261739D01*
X320400Y261486D01*
X321668Y261739D01*
X322743Y262457D01*
X323461Y263532D01*
X323714Y264800D01*
X323461Y266068D01*
X322743Y267143D01*
X321668Y267861D01*
X320400Y268114D01*
D02*
G37*
G36*
X233400D02*
X232132Y267861D01*
X231057Y267143D01*
X230339Y266068D01*
X230086Y264800D01*
X230339Y263532D01*
X231057Y262457D01*
X232132Y261739D01*
X233400Y261486D01*
X234668Y261739D01*
X235743Y262457D01*
X236461Y263532D01*
X236714Y264800D01*
X236461Y266068D01*
X235743Y267143D01*
X234668Y267861D01*
X233400Y268114D01*
D02*
G37*
G36*
X225400D02*
X224132Y267861D01*
X223057Y267143D01*
X222339Y266068D01*
X222086Y264800D01*
X222339Y263532D01*
X223057Y262457D01*
X224132Y261739D01*
X225400Y261486D01*
X226668Y261739D01*
X227743Y262457D01*
X228461Y263532D01*
X228714Y264800D01*
X228461Y266068D01*
X227743Y267143D01*
X226668Y267861D01*
X225400Y268114D01*
D02*
G37*
G36*
X249400D02*
X248132Y267861D01*
X247057Y267143D01*
X246339Y266068D01*
X246086Y264800D01*
X246339Y263532D01*
X247057Y262457D01*
X248132Y261739D01*
X249400Y261486D01*
X250668Y261739D01*
X251743Y262457D01*
X252461Y263532D01*
X252714Y264800D01*
X252461Y266068D01*
X251743Y267143D01*
X250668Y267861D01*
X249400Y268114D01*
D02*
G37*
G36*
X241400D02*
X240132Y267861D01*
X239057Y267143D01*
X238339Y266068D01*
X238086Y264800D01*
X238339Y263532D01*
X239057Y262457D01*
X240132Y261739D01*
X241400Y261486D01*
X242668Y261739D01*
X243743Y262457D01*
X244461Y263532D01*
X244714Y264800D01*
X244461Y266068D01*
X243743Y267143D01*
X242668Y267861D01*
X241400Y268114D01*
D02*
G37*
G36*
X264830Y275364D02*
X263562Y275111D01*
X262487Y274393D01*
X261769Y273318D01*
X261516Y272050D01*
X261769Y270782D01*
X262487Y269707D01*
X263562Y268988D01*
X264830Y268736D01*
X266098Y268988D01*
X267173Y269707D01*
X267891Y270782D01*
X268144Y272050D01*
X267891Y273318D01*
X267173Y274393D01*
X266098Y275111D01*
X264830Y275364D01*
D02*
G37*
G36*
X94300Y277914D02*
X93032Y277661D01*
X91957Y276943D01*
X91239Y275868D01*
X90986Y274600D01*
X91239Y273332D01*
X91957Y272257D01*
X93032Y271539D01*
X94300Y271286D01*
X95568Y271539D01*
X96643Y272257D01*
X97361Y273332D01*
X97614Y274600D01*
X97361Y275868D01*
X96643Y276943D01*
X95568Y277661D01*
X94300Y277914D01*
D02*
G37*
G36*
X34850Y278400D02*
X26400D01*
Y269950D01*
X27880Y270145D01*
X30191Y271102D01*
X32175Y272624D01*
X33698Y274609D01*
X34655Y276920D01*
X34850Y278400D01*
D02*
G37*
G36*
X337400Y279614D02*
X336132Y279361D01*
X335057Y278643D01*
X334339Y277568D01*
X334086Y276300D01*
X334339Y275032D01*
X335057Y273957D01*
X336132Y273239D01*
X337400Y272986D01*
X338668Y273239D01*
X339743Y273957D01*
X340461Y275032D01*
X340714Y276300D01*
X340461Y277568D01*
X339743Y278643D01*
X338668Y279361D01*
X337400Y279614D01*
D02*
G37*
G36*
X370450Y273264D02*
X369182Y273011D01*
X368107Y272293D01*
X368000Y272133D01*
X367000D01*
X366893Y272293D01*
X365818Y273011D01*
X364550Y273264D01*
X363282Y273011D01*
X362207Y272293D01*
X361489Y271218D01*
X361236Y269950D01*
X361489Y268682D01*
X362207Y267607D01*
X362392Y267483D01*
Y266483D01*
X362107Y266293D01*
X361389Y265218D01*
X361136Y263950D01*
X361389Y262682D01*
X362107Y261607D01*
X363182Y260889D01*
X364450Y260636D01*
X365718Y260889D01*
X366789Y261604D01*
X367019Y261754D01*
X367892D01*
X368057Y261507D01*
X369132Y260789D01*
X370400Y260536D01*
X371668Y260789D01*
X372743Y261507D01*
X373461Y262582D01*
X373714Y263850D01*
X373461Y265118D01*
X372743Y266193D01*
X372610Y266282D01*
Y267485D01*
X372793Y267607D01*
X373511Y268682D01*
X373764Y269950D01*
X373511Y271218D01*
X372793Y272293D01*
X371718Y273011D01*
X370450Y273264D01*
D02*
G37*
G36*
X241400Y276114D02*
X240132Y275861D01*
X239057Y275143D01*
X238339Y274068D01*
X238086Y272800D01*
X238339Y271532D01*
X239057Y270457D01*
X240132Y269739D01*
X241400Y269486D01*
X242668Y269739D01*
X243743Y270457D01*
X244461Y271532D01*
X244714Y272800D01*
X244461Y274068D01*
X243743Y275143D01*
X242668Y275861D01*
X241400Y276114D01*
D02*
G37*
G36*
X233400D02*
X232132Y275861D01*
X231057Y275143D01*
X230339Y274068D01*
X230086Y272800D01*
X230339Y271532D01*
X231057Y270457D01*
X232132Y269739D01*
X233400Y269486D01*
X234668Y269739D01*
X235743Y270457D01*
X236461Y271532D01*
X236714Y272800D01*
X236461Y274068D01*
X235743Y275143D01*
X234668Y275861D01*
X233400Y276114D01*
D02*
G37*
G36*
X24400Y278400D02*
X15950D01*
X16144Y276920D01*
X17102Y274609D01*
X18625Y272624D01*
X20609Y271102D01*
X22920Y270145D01*
X24400Y269950D01*
Y278400D01*
D02*
G37*
G36*
X288400Y276114D02*
X287132Y275861D01*
X286057Y275143D01*
X285339Y274068D01*
X285086Y272800D01*
X285339Y271532D01*
X286057Y270457D01*
X287132Y269739D01*
X288400Y269486D01*
X289668Y269739D01*
X290743Y270457D01*
X291461Y271532D01*
X291714Y272800D01*
X291461Y274068D01*
X290743Y275143D01*
X289668Y275861D01*
X288400Y276114D01*
D02*
G37*
G36*
X518000Y278650D02*
X499000D01*
Y259650D01*
X518000D01*
Y278650D01*
D02*
G37*
G36*
X205700Y238694D02*
X204432Y238441D01*
X203357Y237723D01*
X202639Y236648D01*
X202386Y235380D01*
X202639Y234112D01*
X203357Y233037D01*
X204432Y232319D01*
X205700Y232066D01*
X206968Y232319D01*
X208043Y233037D01*
X208761Y234112D01*
X209014Y235380D01*
X208761Y236648D01*
X208043Y237723D01*
X206968Y238441D01*
X205700Y238694D01*
D02*
G37*
G36*
X280800Y237214D02*
X279532Y236961D01*
X278457Y236243D01*
X277739Y235168D01*
X277486Y233900D01*
X277739Y232632D01*
X278457Y231557D01*
X279532Y230839D01*
X280800Y230586D01*
X282068Y230839D01*
X283143Y231557D01*
X283861Y232632D01*
X284114Y233900D01*
X283861Y235168D01*
X283143Y236243D01*
X282068Y236961D01*
X280800Y237214D01*
D02*
G37*
G36*
X24400Y253000D02*
X15950D01*
X16144Y251520D01*
X17102Y249209D01*
X18625Y247225D01*
X20609Y245702D01*
X22920Y244744D01*
X24400Y244550D01*
Y253000D01*
D02*
G37*
G36*
X260900Y251114D02*
X259632Y250861D01*
X258557Y250143D01*
X257839Y249068D01*
X257586Y247800D01*
X257839Y246532D01*
X258557Y245457D01*
X259632Y244739D01*
X260900Y244486D01*
X262168Y244739D01*
X263243Y245457D01*
X263961Y246532D01*
X264214Y247800D01*
X263961Y249068D01*
X263243Y250143D01*
X262168Y250861D01*
X260900Y251114D01*
D02*
G37*
G36*
X236590Y227354D02*
X235322Y227101D01*
X234247Y226383D01*
X233529Y225308D01*
X233276Y224040D01*
X233529Y222772D01*
X234247Y221697D01*
X235322Y220979D01*
X236590Y220726D01*
X237858Y220979D01*
X238933Y221697D01*
X239651Y222772D01*
X239904Y224040D01*
X239651Y225308D01*
X238933Y226383D01*
X237858Y227101D01*
X236590Y227354D01*
D02*
G37*
G36*
X508000Y238182D02*
X505520Y237855D01*
X503209Y236898D01*
X501225Y235375D01*
X499702Y233391D01*
X498745Y231080D01*
X498418Y228600D01*
X498745Y226120D01*
X499702Y223809D01*
X501225Y221824D01*
X503209Y220302D01*
X505520Y219345D01*
X508000Y219018D01*
X510480Y219345D01*
X512791Y220302D01*
X514775Y221824D01*
X516298Y223809D01*
X517256Y226120D01*
X517582Y228600D01*
X517256Y231080D01*
X516298Y233391D01*
X514775Y235375D01*
X512791Y236898D01*
X510480Y237855D01*
X508000Y238182D01*
D02*
G37*
G36*
X138300Y235614D02*
X137032Y235361D01*
X135957Y234643D01*
X135239Y233568D01*
X134986Y232300D01*
X135239Y231032D01*
X135957Y229957D01*
X137032Y229239D01*
X138300Y228986D01*
X139568Y229239D01*
X140643Y229957D01*
X141361Y231032D01*
X141614Y232300D01*
X141361Y233568D01*
X140643Y234643D01*
X139568Y235361D01*
X138300Y235614D01*
D02*
G37*
G36*
X129450Y228764D02*
X128182Y228511D01*
X127107Y227793D01*
X126389Y226718D01*
X126136Y225450D01*
X126389Y224182D01*
X127107Y223107D01*
X128182Y222389D01*
X129450Y222136D01*
X130718Y222389D01*
X131793Y223107D01*
X132511Y224182D01*
X132764Y225450D01*
X132511Y226718D01*
X131793Y227793D01*
X130718Y228511D01*
X129450Y228764D01*
D02*
G37*
G36*
X34850Y253000D02*
X26400D01*
Y244550D01*
X27880Y244744D01*
X30191Y245702D01*
X32175Y247225D01*
X33698Y249209D01*
X34655Y251520D01*
X34850Y253000D01*
D02*
G37*
G36*
X313400Y260114D02*
X312132Y259861D01*
X311057Y259143D01*
X310339Y258068D01*
X310086Y256800D01*
X310339Y255532D01*
X311057Y254457D01*
X312132Y253739D01*
X313400Y253486D01*
X314668Y253739D01*
X315743Y254457D01*
X316461Y255532D01*
X316714Y256800D01*
X316461Y258068D01*
X315743Y259143D01*
X314668Y259861D01*
X313400Y260114D01*
D02*
G37*
G36*
X288400D02*
X287132Y259861D01*
X286057Y259143D01*
X285339Y258068D01*
X285086Y256800D01*
X285339Y255532D01*
X286057Y254457D01*
X287132Y253739D01*
X288400Y253486D01*
X289668Y253739D01*
X290743Y254457D01*
X291461Y255532D01*
X291714Y256800D01*
X291461Y258068D01*
X290743Y259143D01*
X289668Y259861D01*
X288400Y260114D01*
D02*
G37*
G36*
X26400Y263450D02*
Y255000D01*
X34850D01*
X34655Y256480D01*
X33698Y258791D01*
X32175Y260776D01*
X30191Y262298D01*
X27880Y263256D01*
X26400Y263450D01*
D02*
G37*
G36*
X24400D02*
X22920Y263256D01*
X20609Y262298D01*
X18625Y260776D01*
X17102Y258791D01*
X16144Y256480D01*
X15950Y255000D01*
X24400D01*
Y263450D01*
D02*
G37*
G36*
X121700Y260014D02*
X120432Y259761D01*
X119357Y259043D01*
X118639Y257968D01*
X118386Y256700D01*
X118639Y255432D01*
X119357Y254357D01*
X120432Y253639D01*
X121700Y253386D01*
X122968Y253639D01*
X124043Y254357D01*
X124761Y255432D01*
X125014Y256700D01*
X124761Y257968D01*
X124043Y259043D01*
X122968Y259761D01*
X121700Y260014D01*
D02*
G37*
G36*
X376700Y253714D02*
X375432Y253461D01*
X374357Y252743D01*
X374167Y252458D01*
X373167D01*
X373043Y252643D01*
X371968Y253361D01*
X370700Y253614D01*
X369432Y253361D01*
X368357Y252643D01*
X368300Y252558D01*
X367300D01*
X367243Y252643D01*
X366168Y253361D01*
X364900Y253614D01*
X363632Y253361D01*
X362557Y252643D01*
X362490Y252543D01*
X362391D01*
X361366Y252661D01*
X360468Y253261D01*
X359200Y253514D01*
X357932Y253261D01*
X356857Y252543D01*
X356139Y251468D01*
X355886Y250200D01*
X356139Y248932D01*
X356857Y247857D01*
X357932Y247139D01*
X359200Y246886D01*
X360468Y247139D01*
X361543Y247857D01*
X361610Y247957D01*
X361709D01*
X362734Y247839D01*
X363632Y247239D01*
X364900Y246986D01*
X366168Y247239D01*
X367243Y247957D01*
X367300Y248042D01*
X368300D01*
X368357Y247957D01*
X369432Y247239D01*
X370700Y246986D01*
X371968Y247239D01*
X373043Y247957D01*
X373233Y248242D01*
X374233D01*
X374357Y248057D01*
X375432Y247339D01*
X376700Y247086D01*
X377968Y247339D01*
X379043Y248057D01*
X379761Y249132D01*
X380014Y250400D01*
X379761Y251668D01*
X379043Y252743D01*
X377968Y253461D01*
X376700Y253714D01*
D02*
G37*
G36*
X233400Y260114D02*
X232132Y259861D01*
X231057Y259143D01*
X230339Y258068D01*
X230086Y256800D01*
X230339Y255532D01*
X231057Y254457D01*
X232132Y253739D01*
X233400Y253486D01*
X234668Y253739D01*
X235743Y254457D01*
X236461Y255532D01*
X236714Y256800D01*
X236461Y258068D01*
X235743Y259143D01*
X234668Y259861D01*
X233400Y260114D01*
D02*
G37*
G36*
X225400D02*
X224132Y259861D01*
X223057Y259143D01*
X222339Y258068D01*
X222086Y256800D01*
X222339Y255532D01*
X223057Y254457D01*
X224132Y253739D01*
X225400Y253486D01*
X226668Y253739D01*
X227743Y254457D01*
X228461Y255532D01*
X228714Y256800D01*
X228461Y258068D01*
X227743Y259143D01*
X226668Y259861D01*
X225400Y260114D01*
D02*
G37*
G36*
X447600Y275114D02*
X446332Y274861D01*
X445257Y274143D01*
X445101Y273910D01*
X443899D01*
X443743Y274143D01*
X442668Y274861D01*
X441400Y275114D01*
X440132Y274861D01*
X439057Y274143D01*
X438339Y273068D01*
X438086Y271800D01*
X438339Y270532D01*
X439057Y269457D01*
X440132Y268739D01*
X441400Y268486D01*
X442668Y268739D01*
X443743Y269457D01*
X443899Y269690D01*
X445101D01*
X445257Y269457D01*
X445566Y269250D01*
Y268250D01*
X445257Y268043D01*
X444539Y266968D01*
X444286Y265700D01*
X444539Y264432D01*
X445257Y263357D01*
X445564Y263151D01*
Y261949D01*
X445257Y261743D01*
X444539Y260668D01*
X444286Y259400D01*
X444539Y258132D01*
X445257Y257057D01*
X446332Y256339D01*
X447600Y256086D01*
X448868Y256339D01*
X449943Y257057D01*
X450661Y258132D01*
X450914Y259400D01*
X450661Y260668D01*
X449943Y261743D01*
X449636Y261949D01*
Y263151D01*
X449943Y263357D01*
X450661Y264432D01*
X450914Y265700D01*
X450661Y266968D01*
X449943Y268043D01*
X449633Y268250D01*
Y269250D01*
X449943Y269457D01*
X450661Y270532D01*
X450914Y271800D01*
X450661Y273068D01*
X449943Y274143D01*
X448868Y274861D01*
X447600Y275114D01*
D02*
G37*
G36*
X351700Y294814D02*
X350432Y294561D01*
X349357Y293843D01*
X349250Y293683D01*
X348250D01*
X348143Y293843D01*
X347068Y294561D01*
X345800Y294814D01*
X344532Y294561D01*
X343457Y293843D01*
X342739Y292768D01*
X342486Y291500D01*
X342739Y290232D01*
X343457Y289157D01*
X344532Y288439D01*
X345800Y288186D01*
X347068Y288439D01*
X348143Y289157D01*
X348250Y289317D01*
X349250D01*
X349357Y289157D01*
X350432Y288439D01*
X351700Y288186D01*
X352968Y288439D01*
X354043Y289157D01*
X354761Y290232D01*
X355014Y291500D01*
X354761Y292768D01*
X354043Y293843D01*
X352968Y294561D01*
X351700Y294814D01*
D02*
G37*
G36*
X312400Y300114D02*
X311132Y299861D01*
X310057Y299143D01*
X309339Y298068D01*
X309086Y296800D01*
X309339Y295532D01*
X310057Y294457D01*
X311132Y293739D01*
X312400Y293486D01*
X313668Y293739D01*
X314743Y294457D01*
X315461Y295532D01*
X315714Y296800D01*
X315461Y298068D01*
X314743Y299143D01*
X313668Y299861D01*
X312400Y300114D01*
D02*
G37*
G36*
X25400Y314382D02*
X22920Y314056D01*
X20609Y313098D01*
X18625Y311575D01*
X17102Y309591D01*
X16144Y307280D01*
X15818Y304800D01*
X16144Y302320D01*
X17102Y300009D01*
X18625Y298025D01*
X20609Y296502D01*
X22920Y295544D01*
X25400Y295218D01*
X27880Y295544D01*
X30191Y296502D01*
X32175Y298025D01*
X33698Y300009D01*
X34655Y302320D01*
X34982Y304800D01*
X34655Y307280D01*
X33698Y309591D01*
X32175Y311575D01*
X30191Y313098D01*
X27880Y314056D01*
X25400Y314382D01*
D02*
G37*
G36*
X247900Y301114D02*
X246632Y300861D01*
X245557Y300143D01*
X244839Y299068D01*
X244586Y297800D01*
X244839Y296532D01*
X245557Y295457D01*
X246632Y294739D01*
X247900Y294486D01*
X249168Y294739D01*
X250243Y295457D01*
X250961Y296532D01*
X251214Y297800D01*
X250961Y299068D01*
X250243Y300143D01*
X249168Y300861D01*
X247900Y301114D01*
D02*
G37*
G36*
X273100Y299314D02*
X271832Y299061D01*
X270757Y298343D01*
X270039Y297268D01*
X269786Y296000D01*
X270039Y294732D01*
X270757Y293657D01*
X271832Y292939D01*
X273100Y292686D01*
X274368Y292939D01*
X275443Y293657D01*
X276161Y294732D01*
X276414Y296000D01*
X276161Y297268D01*
X275443Y298343D01*
X274368Y299061D01*
X273100Y299314D01*
D02*
G37*
G36*
X257610Y293165D02*
X256342Y292912D01*
X255267Y292194D01*
X254549Y291119D01*
X254296Y289851D01*
X254549Y288583D01*
X255267Y287508D01*
X256342Y286789D01*
X257610Y286537D01*
X258878Y286789D01*
X259953Y287508D01*
X260672Y288583D01*
X260924Y289851D01*
X260672Y291119D01*
X259953Y292194D01*
X258878Y292912D01*
X257610Y293165D01*
D02*
G37*
G36*
X304400Y300114D02*
X303132Y299861D01*
X302057Y299143D01*
X301339Y298068D01*
X301086Y296800D01*
X301339Y295532D01*
X302057Y294457D01*
X303132Y293739D01*
X304400Y293486D01*
X305668Y293739D01*
X306743Y294457D01*
X307461Y295532D01*
X307714Y296800D01*
X307461Y298068D01*
X306743Y299143D01*
X305668Y299861D01*
X304400Y300114D01*
D02*
G37*
G36*
X215700Y299794D02*
X214432Y299541D01*
X213357Y298823D01*
X212639Y297748D01*
X212386Y296480D01*
X212639Y295212D01*
X213357Y294137D01*
X214432Y293419D01*
X215700Y293166D01*
X216968Y293419D01*
X218043Y294137D01*
X218761Y295212D01*
X219014Y296480D01*
X218761Y297748D01*
X218043Y298823D01*
X216968Y299541D01*
X215700Y299794D01*
D02*
G37*
G36*
X321400Y307114D02*
X320132Y306861D01*
X319057Y306143D01*
X318339Y305068D01*
X318086Y303800D01*
X318339Y302532D01*
X319057Y301457D01*
X320132Y300739D01*
X321400Y300486D01*
X322668Y300739D01*
X323743Y301457D01*
X324461Y302532D01*
X324714Y303800D01*
X324461Y305068D01*
X323743Y306143D01*
X322668Y306861D01*
X321400Y307114D01*
D02*
G37*
G36*
X273300Y315114D02*
X272032Y314861D01*
X270957Y314143D01*
X270239Y313068D01*
X269986Y311800D01*
X270239Y310532D01*
X270957Y309457D01*
X272032Y308739D01*
X273300Y308486D01*
X274568Y308739D01*
X275643Y309457D01*
X276361Y310532D01*
X276614Y311800D01*
X276361Y313068D01*
X275643Y314143D01*
X274568Y314861D01*
X273300Y315114D01*
D02*
G37*
G36*
X241400D02*
X240132Y314861D01*
X239057Y314143D01*
X238339Y313068D01*
X238086Y311800D01*
X238339Y310532D01*
X239057Y309457D01*
X240132Y308739D01*
X241400Y308486D01*
X242668Y308739D01*
X243743Y309457D01*
X244461Y310532D01*
X244714Y311800D01*
X244461Y313068D01*
X243743Y314143D01*
X242668Y314861D01*
X241400Y315114D01*
D02*
G37*
G36*
X508500Y329532D02*
X506020Y329205D01*
X503709Y328248D01*
X501725Y326725D01*
X500202Y324741D01*
X499244Y322430D01*
X498918Y319950D01*
X499244Y317470D01*
X500202Y315159D01*
X501725Y313174D01*
X503709Y311652D01*
X506020Y310694D01*
X508500Y310368D01*
X510980Y310694D01*
X513291Y311652D01*
X515275Y313174D01*
X516798Y315159D01*
X517755Y317470D01*
X518082Y319950D01*
X517755Y322430D01*
X516798Y324741D01*
X515275Y326725D01*
X513291Y328248D01*
X510980Y329205D01*
X508500Y329532D01*
D02*
G37*
G36*
X265000Y315214D02*
X263732Y314961D01*
X262657Y314243D01*
X261939Y313168D01*
X261686Y311900D01*
X261939Y310632D01*
X262657Y309557D01*
X263732Y308839D01*
X265000Y308586D01*
X266268Y308839D01*
X267343Y309557D01*
X268061Y310632D01*
X268314Y311900D01*
X268061Y313168D01*
X267343Y314243D01*
X266268Y314961D01*
X265000Y315214D01*
D02*
G37*
G36*
X288400Y308114D02*
X287132Y307861D01*
X286057Y307143D01*
X285339Y306068D01*
X285086Y304800D01*
X285339Y303532D01*
X286057Y302457D01*
X287132Y301739D01*
X288400Y301486D01*
X289668Y301739D01*
X290743Y302457D01*
X291461Y303532D01*
X291714Y304800D01*
X291461Y306068D01*
X290743Y307143D01*
X289668Y307861D01*
X288400Y308114D01*
D02*
G37*
G36*
X94200Y307214D02*
X92932Y306961D01*
X91857Y306243D01*
X91139Y305168D01*
X90886Y303900D01*
X91139Y302632D01*
X91857Y301557D01*
X92932Y300839D01*
X94200Y300586D01*
X95468Y300839D01*
X96543Y301557D01*
X97261Y302632D01*
X97514Y303900D01*
X97261Y305168D01*
X96543Y306243D01*
X95468Y306961D01*
X94200Y307214D01*
D02*
G37*
G36*
X304400Y308114D02*
X303132Y307861D01*
X302057Y307143D01*
X301339Y306068D01*
X301086Y304800D01*
X301339Y303532D01*
X302057Y302457D01*
X303132Y301739D01*
X304400Y301486D01*
X305668Y301739D01*
X306743Y302457D01*
X307461Y303532D01*
X307714Y304800D01*
X307461Y306068D01*
X306743Y307143D01*
X305668Y307861D01*
X304400Y308114D01*
D02*
G37*
G36*
X296400D02*
X295132Y307861D01*
X294057Y307143D01*
X293339Y306068D01*
X293086Y304800D01*
X293339Y303532D01*
X294057Y302457D01*
X295132Y301739D01*
X296400Y301486D01*
X297668Y301739D01*
X298743Y302457D01*
X299461Y303532D01*
X299714Y304800D01*
X299461Y306068D01*
X298743Y307143D01*
X297668Y307861D01*
X296400Y308114D01*
D02*
G37*
G36*
X249340Y293164D02*
X248072Y292911D01*
X246997Y292193D01*
X246279Y291118D01*
X246026Y289850D01*
X246279Y288582D01*
X246997Y287507D01*
X248072Y286789D01*
X249340Y286536D01*
X250608Y286789D01*
X251683Y287507D01*
X252402Y288582D01*
X252654Y289850D01*
X252402Y291118D01*
X251683Y292193D01*
X250608Y292911D01*
X249340Y293164D01*
D02*
G37*
G36*
X273400Y284114D02*
X272132Y283861D01*
X271057Y283143D01*
X270339Y282068D01*
X270086Y280800D01*
X270339Y279532D01*
X271057Y278457D01*
X272132Y277739D01*
X273400Y277486D01*
X274668Y277739D01*
X275743Y278457D01*
X276461Y279532D01*
X276714Y280800D01*
X276461Y282068D01*
X275743Y283143D01*
X274668Y283861D01*
X273400Y284114D01*
D02*
G37*
G36*
X241400D02*
X240132Y283861D01*
X239057Y283143D01*
X238339Y282068D01*
X238086Y280800D01*
X238339Y279532D01*
X239057Y278457D01*
X240132Y277739D01*
X241400Y277486D01*
X242668Y277739D01*
X243743Y278457D01*
X244461Y279532D01*
X244714Y280800D01*
X244461Y282068D01*
X243743Y283143D01*
X242668Y283861D01*
X241400Y284114D01*
D02*
G37*
G36*
X296400Y292114D02*
X295132Y291861D01*
X294057Y291143D01*
X293339Y290068D01*
X293086Y288800D01*
X293339Y287532D01*
X294057Y286457D01*
X295132Y285739D01*
X295613Y285643D01*
Y284623D01*
X294652Y284432D01*
X293577Y283714D01*
X292858Y282638D01*
X292606Y281371D01*
X292858Y280102D01*
X293577Y279027D01*
X294652Y278309D01*
X295920Y278057D01*
X297188Y278309D01*
X298263Y279027D01*
X298981Y280102D01*
X299233Y281371D01*
X298981Y282638D01*
X298263Y283714D01*
X297188Y284432D01*
X296706Y284528D01*
Y285547D01*
X297668Y285739D01*
X298743Y286457D01*
X299461Y287532D01*
X299714Y288800D01*
X299461Y290068D01*
X298743Y291143D01*
X297668Y291861D01*
X296400Y292114D01*
D02*
G37*
G36*
X312400Y284114D02*
X311132Y283861D01*
X310057Y283143D01*
X309339Y282068D01*
X309086Y280800D01*
X309339Y279532D01*
X310057Y278457D01*
X311132Y277739D01*
X312400Y277486D01*
X313668Y277739D01*
X314743Y278457D01*
X315461Y279532D01*
X315714Y280800D01*
X315461Y282068D01*
X314743Y283143D01*
X313668Y283861D01*
X312400Y284114D01*
D02*
G37*
G36*
X174700Y288964D02*
X173432Y288711D01*
X172357Y287993D01*
X171639Y286918D01*
X171386Y285650D01*
X171639Y284382D01*
X172270Y283438D01*
X172367Y283014D01*
Y282586D01*
X172270Y282162D01*
X171639Y281218D01*
X171386Y279950D01*
X171639Y278682D01*
X172357Y277607D01*
X173432Y276889D01*
X174700Y276636D01*
X175968Y276889D01*
X177043Y277607D01*
X177761Y278682D01*
X178014Y279950D01*
X177761Y281218D01*
X177130Y282162D01*
X177033Y282586D01*
Y283014D01*
X177130Y283438D01*
X177761Y284382D01*
X178014Y285650D01*
X177761Y286918D01*
X177043Y287993D01*
X175968Y288711D01*
X174700Y288964D01*
D02*
G37*
G36*
X187600Y282913D02*
X186332Y282661D01*
X185257Y281943D01*
X184538Y280868D01*
X184286Y279599D01*
X184538Y278331D01*
X185257Y277256D01*
X186332Y276538D01*
X187600Y276286D01*
X188868Y276538D01*
X189943Y277256D01*
X190661Y278331D01*
X190913Y279599D01*
X190661Y280868D01*
X189943Y281943D01*
X188868Y282661D01*
X187600Y282913D01*
D02*
G37*
G36*
X195600Y283613D02*
X194332Y283361D01*
X193256Y282643D01*
X192538Y281568D01*
X192286Y280300D01*
X192538Y279032D01*
X193256Y277957D01*
X194332Y277238D01*
X195600Y276986D01*
X196868Y277238D01*
X197943Y277957D01*
X198661Y279032D01*
X198913Y280300D01*
X198661Y281568D01*
X197943Y282643D01*
X196868Y283361D01*
X195600Y283613D01*
D02*
G37*
G36*
X257430Y283583D02*
X256162Y283331D01*
X255087Y282613D01*
X254369Y281538D01*
X254116Y280270D01*
X254369Y279002D01*
X255087Y277927D01*
X256162Y277208D01*
X257430Y276956D01*
X258698Y277208D01*
X259773Y277927D01*
X260492Y279002D01*
X260744Y280270D01*
X260492Y281538D01*
X259773Y282613D01*
X258698Y283331D01*
X257430Y283583D01*
D02*
G37*
G36*
X24400Y288850D02*
X22920Y288655D01*
X20609Y287698D01*
X18625Y286175D01*
X17102Y284191D01*
X16144Y281880D01*
X15950Y280400D01*
X24400D01*
Y288850D01*
D02*
G37*
G36*
X288400Y292114D02*
X287132Y291861D01*
X286057Y291143D01*
X285339Y290068D01*
X285086Y288800D01*
X285339Y287532D01*
X286057Y286457D01*
X287132Y285739D01*
X288400Y285486D01*
X289668Y285739D01*
X290743Y286457D01*
X291461Y287532D01*
X291714Y288800D01*
X291461Y290068D01*
X290743Y291143D01*
X289668Y291861D01*
X288400Y292114D01*
D02*
G37*
G36*
X240400Y299114D02*
X239132Y298861D01*
X238057Y298143D01*
X237339Y297068D01*
X237086Y295800D01*
X237339Y294532D01*
X238057Y293457D01*
X239132Y292739D01*
X239527Y292660D01*
X239738Y291598D01*
X239057Y291143D01*
X238339Y290068D01*
X238086Y288800D01*
X238339Y287532D01*
X239057Y286457D01*
X240132Y285739D01*
X241400Y285486D01*
X242668Y285739D01*
X243743Y286457D01*
X244461Y287532D01*
X244714Y288800D01*
X244461Y290068D01*
X243743Y291143D01*
X242668Y291861D01*
X242273Y291940D01*
X242062Y293002D01*
X242743Y293457D01*
X243461Y294532D01*
X243714Y295800D01*
X243461Y297068D01*
X242743Y298143D01*
X241668Y298861D01*
X240400Y299114D01*
D02*
G37*
G36*
X264400Y300114D02*
X263132Y299861D01*
X262057Y299143D01*
X261339Y298068D01*
X261086Y296800D01*
X261339Y295532D01*
X262057Y294457D01*
X263132Y293739D01*
X263889Y293588D01*
X264100Y292526D01*
X263437Y292084D01*
X262719Y291009D01*
X262467Y289741D01*
X262719Y288473D01*
X263437Y287398D01*
X264512Y286679D01*
X265780Y286427D01*
X267048Y286679D01*
X268123Y287398D01*
X268842Y288473D01*
X269094Y289741D01*
X268842Y291009D01*
X268123Y292084D01*
X267048Y292802D01*
X266292Y292953D01*
X266081Y294014D01*
X266743Y294457D01*
X267461Y295532D01*
X267714Y296800D01*
X267461Y298068D01*
X266743Y299143D01*
X265668Y299861D01*
X264400Y300114D01*
D02*
G37*
G36*
X304400Y292114D02*
X303132Y291861D01*
X302057Y291143D01*
X301339Y290068D01*
X301086Y288800D01*
X301339Y287532D01*
X302057Y286457D01*
X303132Y285739D01*
X304400Y285486D01*
X305668Y285739D01*
X306743Y286457D01*
X307461Y287532D01*
X307714Y288800D01*
X307461Y290068D01*
X306743Y291143D01*
X305668Y291861D01*
X304400Y292114D01*
D02*
G37*
G36*
X225400D02*
X224132Y291861D01*
X223057Y291143D01*
X222339Y290068D01*
X222086Y288800D01*
X222339Y287532D01*
X223057Y286457D01*
X224132Y285739D01*
X225400Y285486D01*
X226668Y285739D01*
X227743Y286457D01*
X228461Y287532D01*
X228520Y287826D01*
Y287826D01*
X228609Y288276D01*
X228625Y288273D01*
X228707Y288258D01*
X228754Y288250D01*
X228903Y288223D01*
X229671Y287674D01*
X229736Y287346D01*
X229839Y286832D01*
X229883Y286765D01*
X230557Y285757D01*
X231632Y285039D01*
X232900Y284786D01*
X234168Y285039D01*
X235243Y285757D01*
X235961Y286832D01*
X236214Y288100D01*
X235961Y289368D01*
X235243Y290443D01*
X234168Y291161D01*
X232900Y291414D01*
X231632Y291161D01*
X230557Y290443D01*
X229839Y289368D01*
X229780Y289074D01*
D01*
X229691Y288624D01*
X229675Y288627D01*
X229593Y288642D01*
X229547Y288650D01*
X229397Y288677D01*
X228629Y289226D01*
X228564Y289554D01*
X228461Y290068D01*
X228417Y290135D01*
X227743Y291143D01*
X226668Y291861D01*
X225400Y292114D01*
D02*
G37*
G36*
X26400Y288850D02*
Y280400D01*
X34850D01*
X34655Y281880D01*
X33698Y284191D01*
X32175Y286175D01*
X30191Y287698D01*
X27880Y288655D01*
X26400Y288850D01*
D02*
G37*
G36*
X217400Y292114D02*
X216132Y291861D01*
X215057Y291143D01*
X214339Y290068D01*
X214086Y288800D01*
X214339Y287532D01*
X215057Y286457D01*
X216132Y285739D01*
X217400Y285486D01*
X218668Y285739D01*
X219743Y286457D01*
X220461Y287532D01*
X220714Y288800D01*
X220461Y290068D01*
X219743Y291143D01*
X218668Y291861D01*
X217400Y292114D01*
D02*
G37*
G36*
X508500Y304132D02*
X506020Y303805D01*
X503709Y302848D01*
X501725Y301325D01*
X500202Y299341D01*
X499244Y297030D01*
X498918Y294550D01*
X499244Y292070D01*
X500202Y289759D01*
X501725Y287774D01*
X503709Y286252D01*
X506020Y285294D01*
X508500Y284968D01*
X510980Y285294D01*
X513291Y286252D01*
X515275Y287774D01*
X516798Y289759D01*
X517755Y292070D01*
X518082Y294550D01*
X517755Y297030D01*
X516798Y299341D01*
X515275Y301325D01*
X513291Y302848D01*
X510980Y303805D01*
X508500Y304132D01*
D02*
G37*
G36*
X25400Y238182D02*
X22920Y237855D01*
X20609Y236898D01*
X18625Y235375D01*
X17102Y233391D01*
X16144Y231080D01*
X15818Y228600D01*
X16144Y226120D01*
X17102Y223809D01*
X18625Y221824D01*
X20609Y220302D01*
X22920Y219345D01*
X25400Y219018D01*
X27880Y219345D01*
X30191Y220302D01*
X32175Y221824D01*
X33698Y223809D01*
X34655Y226120D01*
X34982Y228600D01*
X34655Y231080D01*
X33698Y233391D01*
X32175Y235375D01*
X30191Y236898D01*
X27880Y237855D01*
X25400Y238182D01*
D02*
G37*
G36*
Y161982D02*
X22920Y161656D01*
X20609Y160698D01*
X18625Y159175D01*
X17102Y157191D01*
X16144Y154880D01*
X15818Y152400D01*
X16144Y149920D01*
X17102Y147609D01*
X18625Y145625D01*
X20609Y144102D01*
X22920Y143145D01*
X25400Y142818D01*
X27880Y143145D01*
X30191Y144102D01*
X32175Y145625D01*
X33698Y147609D01*
X34655Y149920D01*
X34982Y152400D01*
X34655Y154880D01*
X33698Y157191D01*
X32175Y159175D01*
X30191Y160698D01*
X27880Y161656D01*
X25400Y161982D01*
D02*
G37*
G36*
X125600Y148014D02*
X124332Y147761D01*
X123257Y147043D01*
X122539Y145968D01*
X122286Y144700D01*
X122539Y143432D01*
X123257Y142357D01*
X124332Y141639D01*
X125600Y141386D01*
X126868Y141639D01*
X127943Y142357D01*
X128661Y143432D01*
X128914Y144700D01*
X128661Y145968D01*
X127943Y147043D01*
X126868Y147761D01*
X125600Y148014D01*
D02*
G37*
G36*
X260930Y151324D02*
X259662Y151071D01*
X258587Y150353D01*
X257869Y149278D01*
X257616Y148010D01*
X257869Y146742D01*
X258587Y145667D01*
X259662Y144949D01*
X260930Y144696D01*
X262198Y144949D01*
X263273Y145667D01*
X263991Y146742D01*
X264049Y147033D01*
X264049Y147033D01*
X264137Y147476D01*
X264153Y147473D01*
X264232Y147458D01*
X264279Y147449D01*
X264430Y147420D01*
X265199Y146876D01*
X265265Y146541D01*
X265369Y146022D01*
X265406Y145965D01*
X266087Y144947D01*
X267162Y144229D01*
X268430Y143976D01*
X269698Y144229D01*
X270773Y144947D01*
X271491Y146022D01*
X271744Y147290D01*
X271491Y148558D01*
X270773Y149633D01*
X269698Y150351D01*
X268430Y150604D01*
X267162Y150351D01*
X266087Y149633D01*
X265369Y148558D01*
X265311Y148267D01*
Y148267D01*
X265223Y147824D01*
X265208Y147827D01*
X265128Y147842D01*
X265081Y147851D01*
X264930Y147880D01*
X264161Y148424D01*
X264095Y148759D01*
X263991Y149278D01*
X263954Y149334D01*
X263273Y150353D01*
X262198Y151071D01*
X260930Y151324D01*
D02*
G37*
G36*
X508000Y161982D02*
X505520Y161656D01*
X503209Y160698D01*
X501225Y159175D01*
X499702Y157191D01*
X498745Y154880D01*
X498418Y152400D01*
X498745Y149920D01*
X499702Y147609D01*
X501225Y145625D01*
X503209Y144102D01*
X505520Y143145D01*
X508000Y142818D01*
X510480Y143145D01*
X512791Y144102D01*
X514775Y145625D01*
X516298Y147609D01*
X517256Y149920D01*
X517582Y152400D01*
X517256Y154880D01*
X516298Y157191D01*
X514775Y159175D01*
X512791Y160698D01*
X510480Y161656D01*
X508000Y161982D01*
D02*
G37*
G36*
X25400Y136582D02*
X22920Y136256D01*
X20609Y135298D01*
X18625Y133775D01*
X17102Y131791D01*
X16144Y129480D01*
X15818Y127000D01*
X16144Y124520D01*
X17102Y122209D01*
X18625Y120225D01*
X20609Y118702D01*
X22920Y117745D01*
X25400Y117418D01*
X27880Y117745D01*
X30191Y118702D01*
X32175Y120225D01*
X33698Y122209D01*
X34655Y124520D01*
X34982Y127000D01*
X34655Y129480D01*
X33698Y131791D01*
X32175Y133775D01*
X30191Y135298D01*
X27880Y136256D01*
X25400Y136582D01*
D02*
G37*
G36*
X508000Y111182D02*
X505520Y110856D01*
X503209Y109898D01*
X501225Y108376D01*
X499702Y106391D01*
X498745Y104080D01*
X498418Y101600D01*
X498745Y99120D01*
X499702Y96809D01*
X501225Y94824D01*
X503209Y93302D01*
X505520Y92345D01*
X508000Y92018D01*
X510480Y92345D01*
X512791Y93302D01*
X514775Y94824D01*
X516298Y96809D01*
X517256Y99120D01*
X517582Y101600D01*
X517256Y104080D01*
X516298Y106391D01*
X514775Y108376D01*
X512791Y109898D01*
X510480Y110856D01*
X508000Y111182D01*
D02*
G37*
G36*
X125600Y135214D02*
X124332Y134961D01*
X123257Y134243D01*
X122539Y133168D01*
X122286Y131900D01*
X122539Y130632D01*
X123257Y129557D01*
X124332Y128839D01*
X125600Y128586D01*
X126868Y128839D01*
X127943Y129557D01*
X128661Y130632D01*
X128914Y131900D01*
X128661Y133168D01*
X127943Y134243D01*
X126868Y134961D01*
X125600Y135214D01*
D02*
G37*
G36*
X508000Y136582D02*
X505520Y136256D01*
X503209Y135298D01*
X501225Y133775D01*
X499702Y131791D01*
X498745Y129480D01*
X498418Y127000D01*
X498745Y124520D01*
X499702Y122209D01*
X501225Y120225D01*
X503209Y118702D01*
X505520Y117745D01*
X508000Y117418D01*
X510480Y117745D01*
X512791Y118702D01*
X514775Y120225D01*
X516298Y122209D01*
X517256Y124520D01*
X517582Y127000D01*
X517256Y129480D01*
X516298Y131791D01*
X514775Y133775D01*
X512791Y135298D01*
X510480Y136256D01*
X508000Y136582D01*
D02*
G37*
G36*
X240930Y151324D02*
X239662Y151071D01*
X238587Y150353D01*
X237869Y149278D01*
X237616Y148010D01*
X237869Y146742D01*
X238587Y145667D01*
X239662Y144949D01*
X240930Y144696D01*
X242198Y144949D01*
X243273Y145667D01*
X243991Y146742D01*
X244244Y148010D01*
X243991Y149278D01*
X243273Y150353D01*
X242198Y151071D01*
X240930Y151324D01*
D02*
G37*
G36*
X260860Y166664D02*
X259592Y166411D01*
X258517Y165693D01*
X257799Y164618D01*
X257546Y163350D01*
X257799Y162082D01*
X258517Y161007D01*
X259592Y160289D01*
X260860Y160036D01*
X262128Y160289D01*
X263203Y161007D01*
X263921Y162082D01*
X264174Y163350D01*
X263921Y164618D01*
X263203Y165693D01*
X262128Y166411D01*
X260860Y166664D01*
D02*
G37*
G36*
X230530Y164774D02*
X229262Y164521D01*
X228187Y163803D01*
X227469Y162728D01*
X227216Y161460D01*
X227469Y160192D01*
X228187Y159117D01*
X229262Y158399D01*
X230530Y158146D01*
X231798Y158399D01*
X232873Y159117D01*
X233591Y160192D01*
X233844Y161460D01*
X233591Y162728D01*
X232873Y163803D01*
X231798Y164521D01*
X230530Y164774D01*
D02*
G37*
G36*
X188000Y168714D02*
X186732Y168461D01*
X185657Y167743D01*
X184939Y166668D01*
X184686Y165400D01*
X184939Y164132D01*
X185657Y163057D01*
X186732Y162339D01*
X188000Y162086D01*
X189268Y162339D01*
X190343Y163057D01*
X191061Y164132D01*
X191314Y165400D01*
X191061Y166668D01*
X190343Y167743D01*
X189268Y168461D01*
X188000Y168714D01*
D02*
G37*
G36*
X168600Y168714D02*
X167332Y168461D01*
X166257Y167743D01*
X165539Y166668D01*
X165286Y165400D01*
X165539Y164132D01*
X166257Y163057D01*
X167332Y162339D01*
X168600Y162086D01*
X169868Y162339D01*
X170943Y163057D01*
X171661Y164132D01*
X171914Y165400D01*
X171661Y166668D01*
X170943Y167743D01*
X169868Y168461D01*
X168600Y168714D01*
D02*
G37*
G36*
X220930Y151324D02*
X219662Y151071D01*
X218587Y150353D01*
X217869Y149278D01*
X217729Y148579D01*
X217168Y147963D01*
X216654Y147910D01*
X215780Y148084D01*
X214512Y147831D01*
X213437Y147113D01*
X212719Y146038D01*
X212466Y144770D01*
X212719Y143502D01*
X213437Y142427D01*
X214512Y141709D01*
X215780Y141456D01*
X217048Y141709D01*
X218123Y142427D01*
X218841Y143502D01*
X218981Y144201D01*
X219542Y144817D01*
X220056Y144870D01*
X220930Y144696D01*
X222198Y144949D01*
X223273Y145667D01*
X223991Y146742D01*
X224244Y148010D01*
X223991Y149278D01*
X223273Y150353D01*
X222198Y151071D01*
X220930Y151324D01*
D02*
G37*
G36*
X250930D02*
X249662Y151071D01*
X248587Y150353D01*
X247869Y149278D01*
X247616Y148010D01*
X247869Y146742D01*
X248587Y145667D01*
X249662Y144949D01*
X250930Y144696D01*
X252198Y144949D01*
X253273Y145667D01*
X253991Y146742D01*
X254244Y148010D01*
X253991Y149278D01*
X253273Y150353D01*
X252198Y151071D01*
X250930Y151324D01*
D02*
G37*
G36*
X280610Y164444D02*
X279342Y164191D01*
X278267Y163473D01*
X277549Y162398D01*
X277296Y161130D01*
X277549Y159862D01*
X278267Y158787D01*
X278805Y158427D01*
X278594Y157366D01*
X278472Y157341D01*
X277397Y156623D01*
X276679Y155548D01*
X276426Y154280D01*
X276679Y153012D01*
X277397Y151937D01*
X278472Y151219D01*
X279740Y150966D01*
X281008Y151219D01*
X282083Y151937D01*
X282801Y153012D01*
X282969Y153856D01*
X283641Y154389D01*
X284032Y154461D01*
X285060Y154256D01*
X286328Y154509D01*
X287403Y155227D01*
X288121Y156302D01*
X288374Y157570D01*
X288121Y158838D01*
X287403Y159913D01*
X286328Y160631D01*
X285060Y160884D01*
X284807Y160833D01*
X283819Y161656D01*
X283671Y162398D01*
X282953Y163473D01*
X281878Y164191D01*
X280610Y164444D01*
D02*
G37*
G36*
X125700Y160614D02*
X124432Y160361D01*
X123357Y159643D01*
X122639Y158568D01*
X122386Y157300D01*
X122639Y156032D01*
X123357Y154957D01*
X124432Y154239D01*
X125700Y153986D01*
X126968Y154239D01*
X128043Y154957D01*
X128761Y156032D01*
X129014Y157300D01*
X128761Y158568D01*
X128043Y159643D01*
X126968Y160361D01*
X125700Y160614D01*
D02*
G37*
G36*
X25400Y111182D02*
X22920Y110856D01*
X20609Y109898D01*
X18625Y108376D01*
X17102Y106391D01*
X16144Y104080D01*
X15818Y101600D01*
X16144Y99120D01*
X17102Y96809D01*
X18625Y94824D01*
X20609Y93302D01*
X22920Y92345D01*
X25400Y92018D01*
X27880Y92345D01*
X30191Y93302D01*
X32175Y94824D01*
X33698Y96809D01*
X34655Y99120D01*
X34982Y101600D01*
X34655Y104080D01*
X33698Y106391D01*
X32175Y108376D01*
X30191Y109898D01*
X27880Y110856D01*
X25400Y111182D01*
D02*
G37*
G36*
X253000Y23900D02*
X244500D01*
Y15400D01*
X253000D01*
Y23900D01*
D02*
G37*
G36*
X228600Y34482D02*
X226120Y34155D01*
X223809Y33198D01*
X221824Y31676D01*
X220302Y29691D01*
X219345Y27380D01*
X219018Y24900D01*
X219345Y22420D01*
X220302Y20109D01*
X221824Y18125D01*
X223809Y16602D01*
X226120Y15645D01*
X228600Y15318D01*
X231080Y15645D01*
X233391Y16602D01*
X235375Y18125D01*
X236898Y20109D01*
X237855Y22420D01*
X238182Y24900D01*
X237855Y27380D01*
X236898Y29691D01*
X235375Y31676D01*
X233391Y33198D01*
X231080Y34155D01*
X228600Y34482D01*
D02*
G37*
G36*
X253000Y34400D02*
X244500D01*
Y25900D01*
X253000D01*
Y34400D01*
D02*
G37*
G36*
X263500Y23900D02*
X255000D01*
Y15400D01*
X263500D01*
Y23900D01*
D02*
G37*
G36*
X355600Y43487D02*
X352071Y43140D01*
X348678Y42110D01*
X345551Y40439D01*
X342811Y38189D01*
X340561Y35449D01*
X338890Y32322D01*
X337860Y28929D01*
X337513Y25400D01*
X337860Y21871D01*
X338890Y18478D01*
X340561Y15351D01*
X342811Y12610D01*
X345551Y10361D01*
X348678Y8690D01*
X352071Y7660D01*
X355600Y7313D01*
X359129Y7660D01*
X362522Y8690D01*
X365649Y10361D01*
X368390Y12610D01*
X370639Y15351D01*
X372310Y18478D01*
X373340Y21871D01*
X373687Y25400D01*
X373340Y28929D01*
X372310Y32322D01*
X370639Y35449D01*
X368390Y38189D01*
X365649Y40439D01*
X362522Y42110D01*
X359129Y43140D01*
X355600Y43487D01*
D02*
G37*
G36*
X76200D02*
X72671Y43140D01*
X69278Y42110D01*
X66151Y40439D01*
X63411Y38189D01*
X61161Y35449D01*
X59490Y32322D01*
X58460Y28929D01*
X58113Y25400D01*
X58460Y21871D01*
X59490Y18478D01*
X61161Y15351D01*
X63411Y12610D01*
X66151Y10361D01*
X69278Y8690D01*
X72671Y7660D01*
X76200Y7313D01*
X79729Y7660D01*
X83122Y8690D01*
X86249Y10361D01*
X88989Y12610D01*
X91239Y15351D01*
X92910Y18478D01*
X93940Y21871D01*
X94287Y25400D01*
X93940Y28929D01*
X92910Y32322D01*
X91239Y35449D01*
X88989Y38189D01*
X86249Y40439D01*
X83122Y42110D01*
X79729Y43140D01*
X76200Y43487D01*
D02*
G37*
G36*
X203200Y34482D02*
X200720Y34155D01*
X198409Y33198D01*
X196425Y31676D01*
X194902Y29691D01*
X193944Y27380D01*
X193618Y24900D01*
X193944Y22420D01*
X194902Y20109D01*
X196425Y18125D01*
X198409Y16602D01*
X200720Y15645D01*
X203200Y15318D01*
X205680Y15645D01*
X207991Y16602D01*
X209975Y18125D01*
X211498Y20109D01*
X212456Y22420D01*
X212782Y24900D01*
X212456Y27380D01*
X211498Y29691D01*
X209975Y31676D01*
X207991Y33198D01*
X205680Y34155D01*
X203200Y34482D01*
D02*
G37*
G36*
X177800D02*
X175320Y34155D01*
X173009Y33198D01*
X171024Y31676D01*
X169502Y29691D01*
X168545Y27380D01*
X168218Y24900D01*
X168545Y22420D01*
X169502Y20109D01*
X171024Y18125D01*
X173009Y16602D01*
X175320Y15645D01*
X177800Y15318D01*
X180280Y15645D01*
X182591Y16602D01*
X184575Y18125D01*
X186098Y20109D01*
X187055Y22420D01*
X187382Y24900D01*
X187055Y27380D01*
X186098Y29691D01*
X184575Y31676D01*
X182591Y33198D01*
X180280Y34155D01*
X177800Y34482D01*
D02*
G37*
G36*
X263500Y34400D02*
X255000D01*
Y25900D01*
X263500D01*
Y34400D01*
D02*
G37*
G36*
X517500Y60300D02*
X498500D01*
Y41300D01*
X517500D01*
Y60300D01*
D02*
G37*
G36*
X25400Y60382D02*
X22920Y60055D01*
X20609Y59098D01*
X18625Y57575D01*
X17102Y55591D01*
X16144Y53280D01*
X15818Y50800D01*
X16144Y48320D01*
X17102Y46009D01*
X18625Y44025D01*
X20609Y42502D01*
X22920Y41544D01*
X25400Y41218D01*
X27880Y41544D01*
X30191Y42502D01*
X32175Y44025D01*
X33698Y46009D01*
X34655Y48320D01*
X34982Y50800D01*
X34655Y53280D01*
X33698Y55591D01*
X32175Y57575D01*
X30191Y59098D01*
X27880Y60055D01*
X25400Y60382D01*
D02*
G37*
G36*
X508000Y85782D02*
X505520Y85456D01*
X503209Y84498D01*
X501225Y82975D01*
X499702Y80991D01*
X498745Y78680D01*
X498418Y76200D01*
X498745Y73720D01*
X499702Y71409D01*
X501225Y69425D01*
X503209Y67902D01*
X505520Y66944D01*
X508000Y66618D01*
X510480Y66944D01*
X512791Y67902D01*
X514775Y69425D01*
X516298Y71409D01*
X517256Y73720D01*
X517582Y76200D01*
X517256Y78680D01*
X516298Y80991D01*
X514775Y82975D01*
X512791Y84498D01*
X510480Y85456D01*
X508000Y85782D01*
D02*
G37*
G36*
X25400D02*
X22920Y85456D01*
X20609Y84498D01*
X18625Y82975D01*
X17102Y80991D01*
X16144Y78680D01*
X15818Y76200D01*
X16144Y73720D01*
X17102Y71409D01*
X18625Y69425D01*
X20609Y67902D01*
X22920Y66944D01*
X25400Y66618D01*
X27880Y66944D01*
X30191Y67902D01*
X32175Y69425D01*
X33698Y71409D01*
X34655Y73720D01*
X34982Y76200D01*
X34655Y78680D01*
X33698Y80991D01*
X32175Y82975D01*
X30191Y84498D01*
X27880Y85456D01*
X25400Y85782D01*
D02*
G37*
G36*
X203200Y59882D02*
X200720Y59556D01*
X198409Y58598D01*
X196425Y57076D01*
X194902Y55091D01*
X193944Y52780D01*
X193618Y50300D01*
X193944Y47820D01*
X194902Y45509D01*
X196425Y43525D01*
X198409Y42002D01*
X200720Y41045D01*
X203200Y40718D01*
X205680Y41045D01*
X207991Y42002D01*
X209975Y43525D01*
X211498Y45509D01*
X212456Y47820D01*
X212782Y50300D01*
X212456Y52780D01*
X211498Y55091D01*
X209975Y57076D01*
X207991Y58598D01*
X205680Y59556D01*
X203200Y59882D01*
D02*
G37*
G36*
X177800D02*
X175320Y59556D01*
X173009Y58598D01*
X171024Y57076D01*
X169502Y55091D01*
X168545Y52780D01*
X168218Y50300D01*
X168545Y47820D01*
X169502Y45509D01*
X171024Y43525D01*
X173009Y42002D01*
X175320Y41045D01*
X177800Y40718D01*
X180280Y41045D01*
X182591Y42002D01*
X184575Y43525D01*
X186098Y45509D01*
X187055Y47820D01*
X187382Y50300D01*
X187055Y52780D01*
X186098Y55091D01*
X184575Y57076D01*
X182591Y58598D01*
X180280Y59556D01*
X177800Y59882D01*
D02*
G37*
G36*
X254000D02*
X251520Y59556D01*
X249209Y58598D01*
X247225Y57076D01*
X245702Y55091D01*
X244744Y52780D01*
X244418Y50300D01*
X244744Y47820D01*
X245702Y45509D01*
X247225Y43525D01*
X249209Y42002D01*
X251520Y41045D01*
X254000Y40718D01*
X256480Y41045D01*
X258791Y42002D01*
X260776Y43525D01*
X262298Y45509D01*
X263256Y47820D01*
X263582Y50300D01*
X263256Y52780D01*
X262298Y55091D01*
X260776Y57076D01*
X258791Y58598D01*
X256480Y59556D01*
X254000Y59882D01*
D02*
G37*
G36*
X228600D02*
X226120Y59556D01*
X223809Y58598D01*
X221824Y57076D01*
X220302Y55091D01*
X219345Y52780D01*
X219018Y50300D01*
X219345Y47820D01*
X220302Y45509D01*
X221824Y43525D01*
X223809Y42002D01*
X226120Y41045D01*
X228600Y40718D01*
X231080Y41045D01*
X233391Y42002D01*
X235375Y43525D01*
X236898Y45509D01*
X237855Y47820D01*
X238182Y50300D01*
X237855Y52780D01*
X236898Y55091D01*
X235375Y57076D01*
X233391Y58598D01*
X231080Y59556D01*
X228600Y59882D01*
D02*
G37*
G36*
X202110Y175084D02*
X200842Y174831D01*
X199767Y174113D01*
X199049Y173038D01*
X198796Y171770D01*
X198942Y171040D01*
X198821Y170352D01*
X198216Y169953D01*
X197502Y169811D01*
X196427Y169093D01*
X195709Y168018D01*
X195456Y166750D01*
X195709Y165482D01*
X196427Y164407D01*
X197502Y163689D01*
X198770Y163436D01*
X200038Y163689D01*
X201113Y164407D01*
X201831Y165482D01*
X202084Y166750D01*
X201938Y167480D01*
X202059Y168168D01*
X202664Y168567D01*
X203378Y168709D01*
X204453Y169427D01*
X205171Y170502D01*
X205424Y171770D01*
X205171Y173038D01*
X204453Y174113D01*
X203378Y174831D01*
X202110Y175084D01*
D02*
G37*
G36*
X230890Y209284D02*
X229622Y209031D01*
X228547Y208313D01*
X227829Y207238D01*
X227576Y205970D01*
X227829Y204702D01*
X228547Y203627D01*
X229622Y202909D01*
X230890Y202656D01*
X232158Y202909D01*
X233233Y203627D01*
X233951Y204702D01*
X234204Y205970D01*
X233951Y207238D01*
X233233Y208313D01*
X232158Y209031D01*
X230890Y209284D01*
D02*
G37*
G36*
X242110Y208844D02*
X240842Y208592D01*
X239767Y207873D01*
X239048Y206798D01*
X238796Y205530D01*
X239048Y204262D01*
X239767Y203187D01*
X240842Y202469D01*
X242110Y202217D01*
X243378Y202469D01*
X244453Y203187D01*
X245171Y204262D01*
X245423Y205530D01*
X245171Y206798D01*
X244453Y207873D01*
X243378Y208592D01*
X242110Y208844D01*
D02*
G37*
G36*
X236390Y215064D02*
X235122Y214811D01*
X234047Y214093D01*
X233329Y213018D01*
X233076Y211750D01*
X233329Y210482D01*
X234047Y209407D01*
X235122Y208689D01*
X236390Y208436D01*
X237658Y208689D01*
X238733Y209407D01*
X239451Y210482D01*
X239704Y211750D01*
X239451Y213018D01*
X238733Y214093D01*
X237658Y214811D01*
X236390Y215064D01*
D02*
G37*
G36*
X446300Y203914D02*
X445032Y203661D01*
X443957Y202943D01*
X443801Y202710D01*
X442599D01*
X442443Y202943D01*
X441368Y203661D01*
X440100Y203914D01*
X438832Y203661D01*
X437757Y202943D01*
X437039Y201868D01*
X436786Y200600D01*
X437039Y199332D01*
X437757Y198257D01*
X438832Y197539D01*
X440100Y197286D01*
X441368Y197539D01*
X442443Y198257D01*
X442599Y198490D01*
X443801D01*
X443957Y198257D01*
X444267Y198050D01*
Y197050D01*
X443957Y196843D01*
X443239Y195768D01*
X442986Y194500D01*
X443239Y193232D01*
X443957Y192157D01*
X444264Y191951D01*
Y190749D01*
X443957Y190543D01*
X443239Y189468D01*
X442986Y188200D01*
X443239Y186932D01*
X443957Y185857D01*
X445032Y185139D01*
X446300Y184886D01*
X447568Y185139D01*
X448643Y185857D01*
X449361Y186932D01*
X449614Y188200D01*
X449361Y189468D01*
X448643Y190543D01*
X448335Y190749D01*
Y191951D01*
X448643Y192157D01*
X449361Y193232D01*
X449614Y194500D01*
X449361Y195768D01*
X448643Y196843D01*
X448333Y197050D01*
Y198050D01*
X448643Y198257D01*
X449361Y199332D01*
X449614Y200600D01*
X449361Y201868D01*
X448643Y202943D01*
X447568Y203661D01*
X446300Y203914D01*
D02*
G37*
G36*
X508000Y212782D02*
X505520Y212456D01*
X503209Y211498D01*
X501225Y209975D01*
X499702Y207991D01*
X498745Y205680D01*
X498418Y203200D01*
X498745Y200720D01*
X499702Y198409D01*
X501225Y196425D01*
X503209Y194902D01*
X505520Y193944D01*
X508000Y193618D01*
X510480Y193944D01*
X512791Y194902D01*
X514775Y196425D01*
X516298Y198409D01*
X517256Y200720D01*
X517582Y203200D01*
X517256Y205680D01*
X516298Y207991D01*
X514775Y209975D01*
X512791Y211498D01*
X510480Y212456D01*
X508000Y212782D01*
D02*
G37*
G36*
X286230Y196584D02*
X284962Y196331D01*
X283887Y195613D01*
X283169Y194538D01*
X282916Y193270D01*
X283169Y192002D01*
X283887Y190927D01*
X284962Y190209D01*
X286230Y189956D01*
X287498Y190209D01*
X288573Y190927D01*
X289291Y192002D01*
X289544Y193270D01*
X289291Y194538D01*
X288573Y195613D01*
X287498Y196331D01*
X286230Y196584D01*
D02*
G37*
G36*
X101600Y207914D02*
X100332Y207661D01*
X99257Y206943D01*
X98539Y205868D01*
X98286Y204600D01*
X98539Y203332D01*
X99257Y202257D01*
X100332Y201539D01*
X101600Y201286D01*
X102868Y201539D01*
X103943Y202257D01*
X104661Y203332D01*
X104914Y204600D01*
X104661Y205868D01*
X103943Y206943D01*
X102868Y207661D01*
X101600Y207914D01*
D02*
G37*
G36*
X283260Y207404D02*
X281992Y207151D01*
X280917Y206433D01*
X280199Y205358D01*
X279946Y204090D01*
X280199Y202822D01*
X280917Y201747D01*
X281992Y201029D01*
X283260Y200776D01*
X284528Y201029D01*
X285603Y201747D01*
X286321Y202822D01*
X286574Y204090D01*
X286321Y205358D01*
X285603Y206433D01*
X284528Y207151D01*
X283260Y207404D01*
D02*
G37*
G36*
X217620Y216374D02*
X216352Y216121D01*
X215277Y215403D01*
X214559Y214328D01*
X214306Y213060D01*
X214559Y211792D01*
X215277Y210717D01*
X216352Y209999D01*
X217620Y209746D01*
X218888Y209999D01*
X219963Y210717D01*
X220681Y211792D01*
X220934Y213060D01*
X220681Y214328D01*
X219963Y215403D01*
X218888Y216121D01*
X217620Y216374D01*
D02*
G37*
G36*
X296390Y223514D02*
X295122Y223261D01*
X294047Y222543D01*
X293329Y221468D01*
X293076Y220200D01*
X293329Y218932D01*
X294047Y217857D01*
X295122Y217139D01*
X296390Y216886D01*
X297658Y217139D01*
X298733Y217857D01*
X299451Y218932D01*
X299704Y220200D01*
X299451Y221468D01*
X298733Y222543D01*
X297658Y223261D01*
X296390Y223514D01*
D02*
G37*
G36*
X267300Y222504D02*
X266032Y222251D01*
X264957Y221533D01*
X264239Y220458D01*
X263986Y219190D01*
X264239Y217922D01*
X264957Y216847D01*
X266032Y216129D01*
X267300Y215876D01*
X268568Y216129D01*
X269643Y216847D01*
X270361Y217922D01*
X270614Y219190D01*
X270361Y220458D01*
X269643Y221533D01*
X268568Y222251D01*
X267300Y222504D01*
D02*
G37*
G36*
X206890Y225484D02*
X205622Y225231D01*
X204547Y224513D01*
X203829Y223438D01*
X203576Y222170D01*
X203829Y220902D01*
X204547Y219827D01*
X205622Y219109D01*
X206890Y218856D01*
X208158Y219109D01*
X209233Y219827D01*
X209951Y220902D01*
X210204Y222170D01*
X209951Y223438D01*
X209233Y224513D01*
X208158Y225231D01*
X206890Y225484D01*
D02*
G37*
G36*
X49300Y224104D02*
X48032Y223851D01*
X46957Y223133D01*
X46239Y222058D01*
X45986Y220790D01*
X46239Y219522D01*
X46957Y218447D01*
X48032Y217729D01*
X49300Y217476D01*
X50568Y217729D01*
X51643Y218447D01*
X52361Y219522D01*
X52614Y220790D01*
X52361Y222058D01*
X51643Y223133D01*
X50568Y223851D01*
X49300Y224104D01*
D02*
G37*
G36*
X142600Y222414D02*
X141332Y222161D01*
X140257Y221443D01*
X139539Y220368D01*
X139286Y219100D01*
X139539Y217832D01*
X140257Y216757D01*
X141332Y216039D01*
X142173Y215871D01*
X142707Y215227D01*
X142787Y214807D01*
X142586Y213800D01*
X142839Y212532D01*
X143557Y211457D01*
X144632Y210739D01*
X145900Y210486D01*
X147168Y210739D01*
X148243Y211457D01*
X148858Y212377D01*
X148961Y212532D01*
X149109Y213274D01*
X149109D01*
X150001Y213531D01*
X150081D01*
X150131Y213531D01*
X150173Y213531D01*
X150180D01*
X150225Y213304D01*
D01*
X150339Y212732D01*
X151057Y211657D01*
X152132Y210939D01*
X153400Y210686D01*
X154668Y210939D01*
X155743Y211657D01*
X156461Y212732D01*
X156714Y214000D01*
X156461Y215268D01*
X155743Y216343D01*
X154668Y217061D01*
X153400Y217314D01*
X152132Y217061D01*
X151057Y216343D01*
X150442Y215423D01*
X150339Y215268D01*
X150191Y214526D01*
X150191D01*
X149299Y214269D01*
X149219D01*
X149169Y214269D01*
X149127Y214269D01*
X149120D01*
X149075Y214496D01*
D01*
X148961Y215068D01*
X148243Y216143D01*
X147168Y216861D01*
X146327Y217029D01*
X145793Y217673D01*
X145713Y218093D01*
X145914Y219100D01*
X145661Y220368D01*
X144943Y221443D01*
X143868Y222161D01*
X142600Y222414D01*
D02*
G37*
G36*
X279160Y217134D02*
X277892Y216881D01*
X276817Y216163D01*
X276099Y215088D01*
X275846Y213820D01*
X276099Y212552D01*
X276817Y211477D01*
X277892Y210759D01*
X279160Y210506D01*
X280428Y210759D01*
X281503Y211477D01*
X282221Y212552D01*
X282474Y213820D01*
X282221Y215088D01*
X281503Y216163D01*
X280428Y216881D01*
X279160Y217134D01*
D02*
G37*
G36*
X248935Y235689D02*
X247667Y235436D01*
X246592Y234718D01*
X245874Y233643D01*
X245621Y232375D01*
X245874Y231107D01*
X246067Y230818D01*
X245932Y229771D01*
X244857Y229053D01*
X244139Y227978D01*
X243886Y226710D01*
X244139Y225442D01*
X244857Y224367D01*
X245932Y223649D01*
X247200Y223396D01*
X248468Y223649D01*
X248774Y223853D01*
X249674Y223252D01*
X249586Y222810D01*
X249839Y221542D01*
X250557Y220467D01*
X251229Y220018D01*
X251018Y218956D01*
X250292Y218811D01*
X249217Y218093D01*
X248499Y217018D01*
X248246Y215750D01*
X248499Y214482D01*
X249217Y213407D01*
X250292Y212689D01*
X251560Y212436D01*
X252828Y212689D01*
X253903Y213407D01*
X254621Y214482D01*
X254874Y215750D01*
X254621Y217018D01*
X253903Y218093D01*
X253230Y218542D01*
X253442Y219604D01*
X254168Y219749D01*
X255243Y220467D01*
X255961Y221542D01*
X256214Y222810D01*
X255961Y224078D01*
X255243Y225153D01*
X254168Y225871D01*
X252900Y226124D01*
X251632Y225871D01*
X251326Y225667D01*
X250426Y226268D01*
X250514Y226710D01*
X250261Y227978D01*
X250068Y228267D01*
X250203Y229314D01*
X251278Y230032D01*
X251996Y231107D01*
X252249Y232375D01*
X251996Y233643D01*
X251278Y234718D01*
X250203Y235436D01*
X248935Y235689D01*
D02*
G37*
G36*
X101810Y217724D02*
X100542Y217471D01*
X99467Y216753D01*
X98749Y215678D01*
X98496Y214410D01*
X98749Y213142D01*
X99467Y212067D01*
X100542Y211349D01*
X101810Y211096D01*
X103078Y211349D01*
X104153Y212067D01*
X104871Y213142D01*
X105124Y214410D01*
X104871Y215678D01*
X104153Y216753D01*
X103078Y217471D01*
X101810Y217724D01*
D02*
G37*
G36*
X222400Y195144D02*
X221132Y194891D01*
X220057Y194173D01*
X219339Y193098D01*
X219086Y191830D01*
X219339Y190562D01*
X220057Y189487D01*
X221132Y188769D01*
X222400Y188516D01*
X223668Y188769D01*
X224743Y189487D01*
X225461Y190562D01*
X225714Y191830D01*
X225461Y193098D01*
X224743Y194173D01*
X223668Y194891D01*
X222400Y195144D01*
D02*
G37*
G36*
X214940Y189974D02*
X213672Y189721D01*
X212597Y189003D01*
X211879Y187928D01*
X211626Y186660D01*
X211879Y185392D01*
X212597Y184317D01*
X213672Y183599D01*
X214940Y183346D01*
X216208Y183599D01*
X216309Y183666D01*
X217209Y183065D01*
X217136Y182700D01*
X217389Y181432D01*
X218107Y180357D01*
X219182Y179639D01*
X220450Y179386D01*
X221718Y179639D01*
X222803Y179161D01*
X222919Y178582D01*
X223637Y177507D01*
X224185Y177141D01*
X224698Y176742D01*
X224440Y175859D01*
X224199Y175498D01*
X223946Y174230D01*
X224199Y172962D01*
X224917Y171887D01*
X225992Y171169D01*
X227260Y170916D01*
X228528Y171169D01*
X229603Y171887D01*
X230321Y172962D01*
X230574Y174230D01*
X230321Y175498D01*
X229603Y176573D01*
X229055Y176939D01*
X228542Y177337D01*
X228800Y178221D01*
X229041Y178582D01*
X229294Y179850D01*
X229041Y181118D01*
X228323Y182193D01*
X227248Y182911D01*
X225980Y183164D01*
X224712Y182911D01*
X223627Y183389D01*
X223511Y183968D01*
X222793Y185043D01*
X221718Y185761D01*
X220450Y186014D01*
X219182Y185761D01*
X219081Y185694D01*
X218181Y186295D01*
X218254Y186660D01*
X218001Y187928D01*
X217283Y189003D01*
X216208Y189721D01*
X214940Y189974D01*
D02*
G37*
G36*
X219560Y177514D02*
X218292Y177261D01*
X217217Y176543D01*
X216499Y175468D01*
X216246Y174200D01*
X216499Y172932D01*
X217217Y171857D01*
X218292Y171139D01*
X219560Y170886D01*
X220828Y171139D01*
X221903Y171857D01*
X222621Y172932D01*
X222874Y174200D01*
X222621Y175468D01*
X221903Y176543D01*
X220828Y177261D01*
X219560Y177514D01*
D02*
G37*
G36*
X286090Y184984D02*
X284822Y184731D01*
X283747Y184013D01*
X283029Y182938D01*
X282776Y181670D01*
X283029Y180402D01*
X283747Y179327D01*
X284822Y178609D01*
X286090Y178356D01*
X287358Y178609D01*
X288433Y179327D01*
X289151Y180402D01*
X289404Y181670D01*
X289151Y182938D01*
X288433Y184013D01*
X287358Y184731D01*
X286090Y184984D01*
D02*
G37*
G36*
X98600Y181114D02*
X97332Y180861D01*
X96257Y180143D01*
X95539Y179068D01*
X95286Y177800D01*
X95539Y176532D01*
X96257Y175457D01*
X97332Y174739D01*
X98600Y174486D01*
X99868Y174739D01*
X100943Y175457D01*
X101661Y176532D01*
X101914Y177800D01*
X101661Y179068D01*
X100943Y180143D01*
X99868Y180861D01*
X98600Y181114D01*
D02*
G37*
G36*
X49300Y173314D02*
X48032Y173061D01*
X46957Y172343D01*
X46239Y171268D01*
X45986Y170000D01*
X46239Y168732D01*
X46957Y167657D01*
X48032Y166939D01*
X49300Y166686D01*
X50568Y166939D01*
X51643Y167657D01*
X52361Y168732D01*
X52614Y170000D01*
X52361Y171268D01*
X51643Y172343D01*
X50568Y173061D01*
X49300Y173314D01*
D02*
G37*
G36*
X240880Y170264D02*
X239612Y170011D01*
X238537Y169293D01*
X237819Y168218D01*
X237566Y166950D01*
X237819Y165682D01*
X238537Y164607D01*
X239612Y163888D01*
X240880Y163636D01*
X242148Y163888D01*
X243223Y164607D01*
X243941Y165682D01*
X244194Y166950D01*
X243941Y168218D01*
X243223Y169293D01*
X242148Y170011D01*
X240880Y170264D01*
D02*
G37*
G36*
X34900Y187300D02*
X15900D01*
Y168300D01*
X34900D01*
Y187300D01*
D02*
G37*
G36*
X508000Y187382D02*
X505520Y187055D01*
X503209Y186098D01*
X501225Y184575D01*
X499702Y182591D01*
X498745Y180280D01*
X498418Y177800D01*
X498745Y175320D01*
X499702Y173009D01*
X501225Y171024D01*
X503209Y169502D01*
X505520Y168545D01*
X508000Y168218D01*
X510480Y168545D01*
X512791Y169502D01*
X514775Y171024D01*
X516298Y173009D01*
X517256Y175320D01*
X517582Y177800D01*
X517256Y180280D01*
X516298Y182591D01*
X514775Y184575D01*
X512791Y186098D01*
X510480Y187055D01*
X508000Y187382D01*
D02*
G37*
G36*
X202110Y185084D02*
X200842Y184831D01*
X199767Y184113D01*
X199049Y183038D01*
X198796Y181770D01*
X199049Y180502D01*
X199767Y179427D01*
X200842Y178709D01*
X202110Y178456D01*
X203378Y178709D01*
X204453Y179427D01*
X205171Y180502D01*
X205424Y181770D01*
X205171Y183038D01*
X204453Y184113D01*
X203378Y184831D01*
X202110Y185084D01*
D02*
G37*
G36*
X240900Y196143D02*
X239632Y195891D01*
X238557Y195173D01*
X237838Y194097D01*
X237586Y192829D01*
X237838Y191561D01*
X238557Y190486D01*
X239632Y189768D01*
X240900Y189516D01*
X242168Y189768D01*
X242378Y189908D01*
X243099Y189187D01*
X242839Y188798D01*
X242586Y187530D01*
X242839Y186262D01*
X243557Y185187D01*
X244632Y184469D01*
X245900Y184216D01*
X247168Y184469D01*
X248243Y185187D01*
X248961Y186262D01*
X249115Y187034D01*
X249431Y187582D01*
X250187Y187763D01*
X250870Y187627D01*
X252138Y187879D01*
X253213Y188597D01*
X253931Y189672D01*
X254184Y190940D01*
X253931Y192208D01*
X253213Y193284D01*
X252138Y194002D01*
X250870Y194254D01*
X249602Y194002D01*
X248527Y193284D01*
X247809Y192208D01*
X247655Y191437D01*
X247339Y190889D01*
X246583Y190708D01*
X245900Y190844D01*
X244632Y190591D01*
X244422Y190451D01*
X243701Y191172D01*
X243961Y191561D01*
X244214Y192829D01*
X243961Y194097D01*
X243243Y195173D01*
X242168Y195891D01*
X240900Y196143D01*
D02*
G37*
G36*
X229850Y191754D02*
X228582Y191501D01*
X227507Y190783D01*
X226789Y189708D01*
X226536Y188440D01*
X226789Y187172D01*
X227507Y186097D01*
X228582Y185379D01*
X229850Y185126D01*
X231118Y185379D01*
X232193Y186097D01*
X232911Y187172D01*
X233164Y188440D01*
X232911Y189708D01*
X232193Y190783D01*
X231118Y191501D01*
X229850Y191754D01*
D02*
G37*
G36*
X101100Y195114D02*
X99832Y194861D01*
X98757Y194143D01*
X98039Y193068D01*
X97786Y191800D01*
X98039Y190532D01*
X98757Y189457D01*
X99832Y188739D01*
X101100Y188486D01*
X102368Y188739D01*
X103443Y189457D01*
X104161Y190532D01*
X104414Y191800D01*
X104161Y193068D01*
X103443Y194143D01*
X102368Y194861D01*
X101100Y195114D01*
D02*
G37*
G36*
X201410Y195094D02*
X200142Y194841D01*
X199067Y194123D01*
X198349Y193048D01*
X198096Y191780D01*
X198349Y190512D01*
X199067Y189437D01*
X200142Y188719D01*
X201410Y188466D01*
X202678Y188719D01*
X203753Y189437D01*
X204471Y190512D01*
X204724Y191780D01*
X204471Y193048D01*
X203753Y194123D01*
X202678Y194841D01*
X201410Y195094D01*
D02*
G37*
G36*
X188000Y186314D02*
X186732Y186061D01*
X185657Y185343D01*
X184939Y184268D01*
X184686Y183000D01*
X184939Y181732D01*
X185657Y180657D01*
X186732Y179939D01*
X188000Y179686D01*
X189268Y179939D01*
X190343Y180657D01*
X191061Y181732D01*
X191314Y183000D01*
X191061Y184268D01*
X190343Y185343D01*
X189268Y186061D01*
X188000Y186314D01*
D02*
G37*
G36*
X168600Y186314D02*
X167332Y186061D01*
X166257Y185343D01*
X165539Y184268D01*
X165286Y183000D01*
X165539Y181732D01*
X166257Y180657D01*
X167332Y179939D01*
X168600Y179686D01*
X169868Y179939D01*
X170943Y180657D01*
X171661Y181732D01*
X171914Y183000D01*
X171661Y184268D01*
X170943Y185343D01*
X169868Y186061D01*
X168600Y186314D01*
D02*
G37*
G36*
X266170Y189794D02*
X264902Y189541D01*
X263827Y188823D01*
X263109Y187748D01*
X262856Y186480D01*
X263109Y185212D01*
X263827Y184137D01*
X264902Y183419D01*
X266170Y183166D01*
X267438Y183419D01*
X268513Y184137D01*
X269231Y185212D01*
X269484Y186480D01*
X269231Y187748D01*
X268513Y188823D01*
X267438Y189541D01*
X266170Y189794D01*
D02*
G37*
G36*
X375400Y182514D02*
X374132Y182261D01*
X373057Y181543D01*
X372867Y181258D01*
X371867D01*
X371743Y181443D01*
X370668Y182161D01*
X369400Y182414D01*
X368132Y182161D01*
X367057Y181443D01*
X367000Y181358D01*
X366000D01*
X365943Y181443D01*
X364868Y182161D01*
X363600Y182414D01*
X362332Y182161D01*
X361257Y181443D01*
X361190Y181343D01*
X361091D01*
X360066Y181461D01*
X359168Y182061D01*
X357900Y182314D01*
X356632Y182061D01*
X355557Y181343D01*
X354839Y180268D01*
X354586Y179000D01*
X354839Y177732D01*
X355557Y176657D01*
X356632Y175939D01*
X357900Y175686D01*
X359168Y175939D01*
X360159Y176600D01*
X360546Y176741D01*
X361434Y176639D01*
X362332Y176039D01*
X363600Y175786D01*
X364868Y176039D01*
X365943Y176757D01*
X366000Y176842D01*
X367000D01*
X367057Y176757D01*
X368132Y176039D01*
X369400Y175786D01*
X370668Y176039D01*
X371743Y176757D01*
X371933Y177042D01*
X372933D01*
X373057Y176857D01*
X374132Y176139D01*
X375400Y175886D01*
X376668Y176139D01*
X377743Y176857D01*
X378461Y177932D01*
X378714Y179200D01*
X378461Y180468D01*
X377743Y181543D01*
X376668Y182261D01*
X375400Y182514D01*
D02*
G37*
G36*
X130600Y323014D02*
X129332Y322761D01*
X128257Y322043D01*
X127539Y320968D01*
X127286Y319700D01*
X127539Y318432D01*
X128257Y317357D01*
X129332Y316639D01*
X130600Y316386D01*
X131868Y316639D01*
X132943Y317357D01*
X133661Y318432D01*
X133914Y319700D01*
X133661Y320968D01*
X132943Y322043D01*
X131868Y322761D01*
X130600Y323014D01*
D02*
G37*
G36*
X425500Y498214D02*
X424232Y497961D01*
X423157Y497243D01*
X422439Y496168D01*
X422186Y494900D01*
X422439Y493632D01*
X423157Y492557D01*
X424232Y491839D01*
X425500Y491586D01*
X426768Y491839D01*
X427843Y492557D01*
X428561Y493632D01*
X428814Y494900D01*
X428561Y496168D01*
X427843Y497243D01*
X426768Y497961D01*
X425500Y498214D01*
D02*
G37*
G36*
X74200Y494914D02*
X72932Y494661D01*
X71857Y493943D01*
X71139Y492868D01*
X70886Y491600D01*
X71139Y490332D01*
X71857Y489257D01*
X72932Y488539D01*
X74200Y488286D01*
X75468Y488539D01*
X76543Y489257D01*
X77261Y490332D01*
X77514Y491600D01*
X77261Y492868D01*
X76543Y493943D01*
X75468Y494661D01*
X74200Y494914D01*
D02*
G37*
G36*
X297300Y500514D02*
X296032Y500261D01*
X294957Y499543D01*
X294239Y498468D01*
X293986Y497200D01*
X294239Y495932D01*
X294957Y494857D01*
X296032Y494139D01*
X297300Y493886D01*
X298568Y494139D01*
X299643Y494857D01*
X300361Y495932D01*
X300614Y497200D01*
X300361Y498468D01*
X299643Y499543D01*
X298568Y500261D01*
X297300Y500514D01*
D02*
G37*
G36*
X307600Y499114D02*
X306332Y498861D01*
X305257Y498143D01*
X304539Y497068D01*
X304286Y495800D01*
X304539Y494532D01*
X305257Y493457D01*
X306332Y492739D01*
X307600Y492486D01*
X308868Y492739D01*
X309943Y493457D01*
X310661Y494532D01*
X310914Y495800D01*
X310661Y497068D01*
X309943Y498143D01*
X308868Y498861D01*
X307600Y499114D01*
D02*
G37*
G36*
X508500Y507332D02*
X506020Y507005D01*
X503709Y506048D01*
X501725Y504525D01*
X500202Y502541D01*
X499244Y500230D01*
X498918Y497750D01*
X499244Y495270D01*
X500202Y492959D01*
X501725Y490974D01*
X503709Y489452D01*
X506020Y488494D01*
X508500Y488168D01*
X510980Y488494D01*
X513291Y489452D01*
X515275Y490974D01*
X516798Y492959D01*
X517755Y495270D01*
X518082Y497750D01*
X517755Y500230D01*
X516798Y502541D01*
X515275Y504525D01*
X513291Y506048D01*
X510980Y507005D01*
X508500Y507332D01*
D02*
G37*
G36*
X254600Y486014D02*
X253332Y485761D01*
X252257Y485043D01*
X251539Y483968D01*
X251286Y482700D01*
X251489Y481683D01*
X250910Y481103D01*
X250883Y481082D01*
X250687Y480978D01*
X249500Y481214D01*
X248232Y480961D01*
X247157Y480243D01*
X246439Y479168D01*
X246186Y477900D01*
X246439Y476632D01*
X247157Y475557D01*
X248232Y474839D01*
X249500Y474586D01*
X250768Y474839D01*
X251843Y475557D01*
X252561Y476632D01*
X252814Y477900D01*
X252611Y478917D01*
X253190Y479497D01*
X253217Y479518D01*
X253413Y479622D01*
X254600Y479386D01*
X255868Y479639D01*
X256943Y480357D01*
X257661Y481432D01*
X257914Y482700D01*
X257661Y483968D01*
X256943Y485043D01*
X255868Y485761D01*
X254600Y486014D01*
D02*
G37*
G36*
X471800Y486614D02*
X470532Y486361D01*
X469457Y485643D01*
X468739Y484568D01*
X468486Y483300D01*
X468739Y482032D01*
X469457Y480957D01*
X470532Y480239D01*
X471800Y479986D01*
X473068Y480239D01*
X474143Y480957D01*
X474861Y482032D01*
X475114Y483300D01*
X474861Y484568D01*
X474143Y485643D01*
X473068Y486361D01*
X471800Y486614D01*
D02*
G37*
G36*
X440700Y490414D02*
X439432Y490161D01*
X438357Y489443D01*
X437639Y488368D01*
X437386Y487100D01*
X437639Y485832D01*
X438357Y484757D01*
X439432Y484039D01*
X440700Y483786D01*
X441968Y484039D01*
X443043Y484757D01*
X443761Y485832D01*
X444014Y487100D01*
X443761Y488368D01*
X443043Y489443D01*
X441968Y490161D01*
X440700Y490414D01*
D02*
G37*
G36*
X279500Y488314D02*
X278232Y488061D01*
X277157Y487343D01*
X276439Y486268D01*
X276186Y485000D01*
X276439Y483732D01*
X277157Y482657D01*
X278232Y481939D01*
X279500Y481686D01*
X280768Y481939D01*
X281843Y482657D01*
X282561Y483732D01*
X282814Y485000D01*
X282561Y486268D01*
X281843Y487343D01*
X280768Y488061D01*
X279500Y488314D01*
D02*
G37*
G36*
X25400Y564187D02*
X21871Y563839D01*
X18478Y562810D01*
X15351Y561139D01*
X12610Y558890D01*
X10361Y556149D01*
X8690Y553022D01*
X7660Y549629D01*
X7313Y546100D01*
X7660Y542571D01*
X8690Y539178D01*
X10361Y536051D01*
X12610Y533311D01*
X15351Y531061D01*
X18478Y529390D01*
X21871Y528360D01*
X25400Y528013D01*
X28929Y528360D01*
X32322Y529390D01*
X35449Y531061D01*
X38189Y533311D01*
X40439Y536051D01*
X42110Y539178D01*
X43140Y542571D01*
X43487Y546100D01*
X43140Y549629D01*
X42110Y553022D01*
X40439Y556149D01*
X38189Y558890D01*
X35449Y561139D01*
X32322Y562810D01*
X28929Y563839D01*
X25400Y564187D01*
D02*
G37*
G36*
X132550Y533364D02*
X131282Y533111D01*
X130207Y532393D01*
X129489Y531318D01*
X129236Y530050D01*
X129489Y528782D01*
X130207Y527707D01*
X131282Y526989D01*
X132550Y526736D01*
X133818Y526989D01*
X134893Y527707D01*
X135611Y528782D01*
X135864Y530050D01*
X135611Y531318D01*
X134893Y532393D01*
X133818Y533111D01*
X132550Y533364D01*
D02*
G37*
G36*
X386700Y538514D02*
X385432Y538261D01*
X384357Y537543D01*
X383639Y536468D01*
X383386Y535200D01*
X383639Y533932D01*
X384357Y532857D01*
X385432Y532139D01*
X386700Y531886D01*
X387968Y532139D01*
X389043Y532857D01*
X389698Y533838D01*
X390070Y533869D01*
X390739Y533732D01*
X390839Y533232D01*
X391557Y532157D01*
X392632Y531439D01*
X393900Y531186D01*
X395168Y531439D01*
X396243Y532157D01*
X396961Y533232D01*
X397214Y534500D01*
X396961Y535768D01*
X396243Y536843D01*
X395168Y537561D01*
X393900Y537814D01*
X392632Y537561D01*
X391557Y536843D01*
X390901Y535862D01*
X390530Y535831D01*
X389861Y535968D01*
X389761Y536468D01*
X389043Y537543D01*
X387968Y538261D01*
X386700Y538514D01*
D02*
G37*
G36*
X403900Y533914D02*
X402632Y533661D01*
X401557Y532943D01*
X400839Y531868D01*
X400705Y531197D01*
X400297Y530561D01*
X399619Y530471D01*
X398900Y530614D01*
X397632Y530361D01*
X396557Y529643D01*
X395839Y528568D01*
X395586Y527300D01*
X395839Y526032D01*
X396557Y524957D01*
X397632Y524239D01*
X398900Y523986D01*
X400168Y524239D01*
X401243Y524957D01*
X401961Y526032D01*
X402095Y526703D01*
X402503Y527339D01*
X403181Y527429D01*
X403900Y527286D01*
X405168Y527539D01*
X406243Y528257D01*
X406961Y529332D01*
X407214Y530600D01*
X406961Y531868D01*
X406243Y532943D01*
X405168Y533661D01*
X403900Y533914D01*
D02*
G37*
G36*
X118000Y522714D02*
X116732Y522461D01*
X115657Y521743D01*
X115451Y521436D01*
X114249D01*
X114043Y521743D01*
X112968Y522461D01*
X111700Y522714D01*
X110432Y522461D01*
X109357Y521743D01*
X109150Y521433D01*
X108150D01*
X107943Y521743D01*
X106868Y522461D01*
X105600Y522714D01*
X104332Y522461D01*
X103257Y521743D01*
X102539Y520668D01*
X102286Y519400D01*
X102539Y518132D01*
X103257Y517057D01*
X103490Y516901D01*
Y515699D01*
X103257Y515543D01*
X102539Y514468D01*
X102286Y513200D01*
X102539Y511932D01*
X103257Y510857D01*
X104332Y510139D01*
X105600Y509886D01*
X106868Y510139D01*
X107943Y510857D01*
X108661Y511932D01*
X108914Y513200D01*
X108661Y514468D01*
X107943Y515543D01*
X107710Y515699D01*
Y516901D01*
X107943Y517057D01*
X108150Y517367D01*
X109150D01*
X109357Y517057D01*
X110432Y516339D01*
X111700Y516086D01*
X112968Y516339D01*
X114043Y517057D01*
X114249Y517365D01*
X115451D01*
X115657Y517057D01*
X116732Y516339D01*
X118000Y516086D01*
X119268Y516339D01*
X120343Y517057D01*
X121061Y518132D01*
X121314Y519400D01*
X121061Y520668D01*
X120343Y521743D01*
X119268Y522461D01*
X118000Y522714D01*
D02*
G37*
G36*
X420700Y517114D02*
X419432Y516861D01*
X418357Y516143D01*
X417639Y515068D01*
X417386Y513800D01*
X417639Y512532D01*
X418357Y511457D01*
X419432Y510739D01*
X420700Y510486D01*
X421968Y510739D01*
X423043Y511457D01*
X423761Y512532D01*
X424014Y513800D01*
X423761Y515068D01*
X423043Y516143D01*
X421968Y516861D01*
X420700Y517114D01*
D02*
G37*
G36*
X436200Y502914D02*
X434932Y502661D01*
X433857Y501943D01*
X433139Y500868D01*
X432886Y499600D01*
X433139Y498332D01*
X433857Y497257D01*
X434932Y496539D01*
X436200Y496286D01*
X437468Y496539D01*
X438543Y497257D01*
X439261Y498332D01*
X439514Y499600D01*
X439261Y500868D01*
X438543Y501943D01*
X437468Y502661D01*
X436200Y502914D01*
D02*
G37*
G36*
X299500Y520414D02*
X298232Y520161D01*
X297157Y519443D01*
X296918Y519085D01*
X295743Y519043D01*
X294668Y519761D01*
X293400Y520014D01*
X292132Y519761D01*
X291057Y519043D01*
X290339Y517968D01*
X290086Y516700D01*
X290339Y515432D01*
X291057Y514357D01*
X292132Y513639D01*
X293400Y513386D01*
X294668Y513639D01*
X295743Y514357D01*
X295982Y514715D01*
X297157Y514757D01*
X298232Y514039D01*
X299500Y513786D01*
X300768Y514039D01*
X301843Y514757D01*
X302561Y515832D01*
X302814Y517100D01*
X302561Y518368D01*
X301843Y519443D01*
X300768Y520161D01*
X299500Y520414D01*
D02*
G37*
G36*
X508000Y551487D02*
X504471Y551139D01*
X501078Y550110D01*
X497951Y548439D01*
X495210Y546189D01*
X492961Y543449D01*
X491290Y540322D01*
X490261Y536929D01*
X489913Y533400D01*
X490261Y529871D01*
X491290Y526478D01*
X492961Y523351D01*
X495210Y520611D01*
X497951Y518361D01*
X501078Y516690D01*
X504471Y515661D01*
X508000Y515313D01*
X511529Y515661D01*
X514922Y516690D01*
X518049Y518361D01*
X520789Y520611D01*
X523039Y523351D01*
X524710Y526478D01*
X525740Y529871D01*
X526087Y533400D01*
X525740Y536929D01*
X524710Y540322D01*
X523039Y543449D01*
X520789Y546189D01*
X518049Y548439D01*
X514922Y550110D01*
X511529Y551139D01*
X508000Y551487D01*
D02*
G37*
G36*
X72300Y447414D02*
X71032Y447161D01*
X69957Y446443D01*
X69239Y445368D01*
X68986Y444100D01*
X69239Y442832D01*
X69957Y441757D01*
X71032Y441039D01*
X72300Y440786D01*
X73568Y441039D01*
X74643Y441757D01*
X75361Y442832D01*
X75614Y444100D01*
X75361Y445368D01*
X74643Y446443D01*
X73568Y447161D01*
X72300Y447414D01*
D02*
G37*
G36*
X114750Y446364D02*
X113482Y446111D01*
X112407Y445393D01*
X111689Y444318D01*
X111436Y443050D01*
X111689Y441782D01*
X112407Y440707D01*
X113482Y439989D01*
X114750Y439736D01*
X116018Y439989D01*
X117093Y440707D01*
X117811Y441782D01*
X118064Y443050D01*
X117811Y444318D01*
X117093Y445393D01*
X116018Y446111D01*
X114750Y446364D01*
D02*
G37*
G36*
X250000Y463614D02*
X248732Y463361D01*
X247657Y462643D01*
X246939Y461568D01*
X246686Y460300D01*
X246939Y459032D01*
X247657Y457957D01*
X248732Y457239D01*
X249579Y457070D01*
Y456050D01*
X249132Y455961D01*
X248057Y455243D01*
X247339Y454168D01*
X247086Y452900D01*
X247339Y451632D01*
X248057Y450557D01*
X249132Y449839D01*
X250400Y449586D01*
X251668Y449839D01*
X252743Y450557D01*
X253461Y451632D01*
X253714Y452900D01*
X253461Y454168D01*
X252743Y455243D01*
X251668Y455961D01*
X250821Y456130D01*
Y457150D01*
X251268Y457239D01*
X252343Y457957D01*
X253061Y459032D01*
X253314Y460300D01*
X253061Y461568D01*
X252343Y462643D01*
X251268Y463361D01*
X250000Y463614D01*
D02*
G37*
G36*
X151100Y466614D02*
X149832Y466361D01*
X148757Y465643D01*
X148039Y464568D01*
X147786Y463300D01*
X148039Y462032D01*
X148757Y460957D01*
X149832Y460239D01*
X150997Y460007D01*
X151292Y459605D01*
X151567Y459060D01*
X151239Y458568D01*
X150986Y457300D01*
X151239Y456032D01*
X151675Y455378D01*
X151575Y455026D01*
X151174Y454369D01*
X150132Y454161D01*
X149057Y453443D01*
X148339Y452368D01*
X148086Y451100D01*
X148339Y449832D01*
X149057Y448757D01*
X150132Y448039D01*
X151400Y447786D01*
X152668Y448039D01*
X153743Y448757D01*
X154461Y449832D01*
X154714Y451100D01*
X154461Y452368D01*
X154025Y453022D01*
X154125Y453374D01*
X154526Y454031D01*
X155568Y454239D01*
X156643Y454957D01*
X157361Y456032D01*
X157614Y457300D01*
X157361Y458568D01*
X156643Y459643D01*
X155568Y460361D01*
X154403Y460593D01*
X154108Y460995D01*
X153833Y461540D01*
X154161Y462032D01*
X154414Y463300D01*
X154161Y464568D01*
X153443Y465643D01*
X152368Y466361D01*
X151100Y466614D01*
D02*
G37*
G36*
X508500Y456532D02*
X506020Y456205D01*
X503709Y455248D01*
X501725Y453725D01*
X500202Y451741D01*
X499244Y449430D01*
X498918Y446950D01*
X499244Y444470D01*
X500202Y442159D01*
X501725Y440174D01*
X503709Y438652D01*
X506020Y437694D01*
X508500Y437368D01*
X510980Y437694D01*
X513291Y438652D01*
X515275Y440174D01*
X516798Y442159D01*
X517755Y444470D01*
X518082Y446950D01*
X517755Y449430D01*
X516798Y451741D01*
X515275Y453725D01*
X513291Y455248D01*
X510980Y456205D01*
X508500Y456532D01*
D02*
G37*
G36*
X72300Y427014D02*
X71032Y426762D01*
X69957Y426043D01*
X69238Y424968D01*
X68986Y423700D01*
X69238Y422432D01*
X69957Y421357D01*
X71032Y420639D01*
X72300Y420387D01*
X73568Y420639D01*
X74643Y421357D01*
X75361Y422432D01*
X75613Y423700D01*
X75361Y424968D01*
X74643Y426043D01*
X73568Y426762D01*
X72300Y427014D01*
D02*
G37*
G36*
X319400Y423214D02*
X318132Y422961D01*
X317057Y422243D01*
X316339Y421168D01*
X316086Y419900D01*
X316339Y418632D01*
X317057Y417557D01*
X318132Y416839D01*
X319400Y416586D01*
X320668Y416839D01*
X321743Y417557D01*
X322461Y418632D01*
X322714Y419900D01*
X322461Y421168D01*
X321743Y422243D01*
X320668Y422961D01*
X319400Y423214D01*
D02*
G37*
G36*
X509500Y431000D02*
Y422550D01*
X517950D01*
X517755Y424030D01*
X516798Y426341D01*
X515275Y428325D01*
X513291Y429848D01*
X510980Y430805D01*
X509500Y431000D01*
D02*
G37*
G36*
X507500D02*
X506020Y430805D01*
X503709Y429848D01*
X501725Y428325D01*
X500202Y426341D01*
X499244Y424030D01*
X499050Y422550D01*
X507500D01*
Y431000D01*
D02*
G37*
G36*
X269200Y476514D02*
X267932Y476261D01*
X266857Y475543D01*
X266139Y474468D01*
X265886Y473200D01*
X266139Y471932D01*
X266857Y470857D01*
X267932Y470139D01*
X269200Y469886D01*
X270468Y470139D01*
X271543Y470857D01*
X272261Y471932D01*
X272514Y473200D01*
X272261Y474468D01*
X271543Y475543D01*
X270468Y476261D01*
X269200Y476514D01*
D02*
G37*
G36*
X312100Y475914D02*
X310832Y475661D01*
X309757Y474943D01*
X309039Y473868D01*
X308786Y472600D01*
X309039Y471332D01*
X309757Y470257D01*
X310832Y469539D01*
X312100Y469286D01*
X313368Y469539D01*
X314443Y470257D01*
X315161Y471332D01*
X315414Y472600D01*
X315161Y473868D01*
X314443Y474943D01*
X313368Y475661D01*
X312100Y475914D01*
D02*
G37*
G36*
X228400Y484814D02*
X227132Y484561D01*
X226057Y483843D01*
X225339Y482768D01*
X225086Y481500D01*
X225339Y480232D01*
X226057Y479157D01*
X227132Y478439D01*
X228400Y478186D01*
X229668Y478439D01*
X230743Y479157D01*
X231461Y480232D01*
X231714Y481500D01*
X231461Y482768D01*
X230743Y483843D01*
X229668Y484561D01*
X228400Y484814D01*
D02*
G37*
G36*
X95600Y483314D02*
X94332Y483061D01*
X93257Y482343D01*
X92539Y481268D01*
X92286Y480000D01*
X92539Y478732D01*
X93257Y477657D01*
X94332Y476939D01*
X95600Y476686D01*
X96868Y476939D01*
X97943Y477657D01*
X98661Y478732D01*
X98914Y480000D01*
X98661Y481268D01*
X97943Y482343D01*
X96868Y483061D01*
X95600Y483314D01*
D02*
G37*
G36*
X471900Y475514D02*
X470632Y475261D01*
X469557Y474543D01*
X468839Y473468D01*
X468586Y472200D01*
X468839Y470932D01*
X469557Y469857D01*
X470632Y469139D01*
X471900Y468886D01*
X473168Y469139D01*
X474243Y469857D01*
X474961Y470932D01*
X475214Y472200D01*
X474961Y473468D01*
X474243Y474543D01*
X473168Y475261D01*
X471900Y475514D01*
D02*
G37*
G36*
X142900Y466514D02*
X141632Y466261D01*
X140557Y465543D01*
X139839Y464468D01*
X139586Y463200D01*
X139839Y461932D01*
X140557Y460857D01*
X141632Y460139D01*
X142900Y459886D01*
X143479Y460002D01*
X143982Y459082D01*
X143439Y458268D01*
X143186Y457000D01*
X143439Y455732D01*
X143921Y455010D01*
X143319Y454110D01*
X142800Y454214D01*
X141532Y453961D01*
X140457Y453243D01*
X139739Y452168D01*
X139486Y450900D01*
X139739Y449632D01*
X140457Y448557D01*
X141532Y447839D01*
X142800Y447586D01*
X144068Y447839D01*
X145143Y448557D01*
X145861Y449632D01*
X146114Y450900D01*
X145861Y452168D01*
X145379Y452890D01*
X145981Y453790D01*
X146500Y453686D01*
X147768Y453939D01*
X148843Y454657D01*
X149561Y455732D01*
X149814Y457000D01*
X149561Y458268D01*
X148843Y459343D01*
X147768Y460061D01*
X146500Y460314D01*
X145920Y460198D01*
X145417Y461118D01*
X145961Y461932D01*
X146214Y463200D01*
X145961Y464468D01*
X145243Y465543D01*
X144168Y466261D01*
X142900Y466514D01*
D02*
G37*
G36*
X460100Y459214D02*
X458832Y458961D01*
X457757Y458243D01*
X457039Y457168D01*
X456786Y455900D01*
X457039Y454632D01*
X457757Y453557D01*
X458832Y452839D01*
X460100Y452586D01*
X461368Y452839D01*
X462443Y453557D01*
X463161Y454632D01*
X463414Y455900D01*
X463161Y457168D01*
X462443Y458243D01*
X461368Y458961D01*
X460100Y459214D01*
D02*
G37*
G36*
X508500Y481932D02*
X506020Y481605D01*
X503709Y480648D01*
X501725Y479125D01*
X500202Y477141D01*
X499244Y474830D01*
X498918Y472350D01*
X499244Y469870D01*
X500202Y467559D01*
X501725Y465574D01*
X503709Y464052D01*
X506020Y463094D01*
X508500Y462768D01*
X510980Y463094D01*
X513291Y464052D01*
X515275Y465574D01*
X516798Y467559D01*
X517755Y469870D01*
X518082Y472350D01*
X517755Y474830D01*
X516798Y477141D01*
X515275Y479125D01*
X513291Y480648D01*
X510980Y481605D01*
X508500Y481932D01*
D02*
G37*
G36*
X259500Y468514D02*
X258232Y468261D01*
X257157Y467543D01*
X256439Y466468D01*
X256186Y465200D01*
X256439Y463932D01*
X257157Y462857D01*
X258232Y462139D01*
X259500Y461886D01*
X260768Y462139D01*
X261843Y462857D01*
X262561Y463932D01*
X262814Y465200D01*
X262561Y466468D01*
X261843Y467543D01*
X260768Y468261D01*
X259500Y468514D01*
D02*
G37*
G36*
X448400Y616814D02*
X447132Y616561D01*
X446057Y615843D01*
X445339Y614768D01*
X445086Y613500D01*
X445339Y612232D01*
X446057Y611157D01*
X447132Y610439D01*
X448400Y610186D01*
X449668Y610439D01*
X450743Y611157D01*
X451461Y612232D01*
X451714Y613500D01*
X451461Y614768D01*
X450743Y615843D01*
X449668Y616561D01*
X448400Y616814D01*
D02*
G37*
G36*
X196200Y615714D02*
X194932Y615461D01*
X193857Y614743D01*
X193139Y613668D01*
X192886Y612400D01*
X193139Y611132D01*
X193857Y610057D01*
X194932Y609339D01*
X196200Y609086D01*
X197468Y609339D01*
X198543Y610057D01*
X199261Y611132D01*
X199514Y612400D01*
X199261Y613668D01*
X198543Y614743D01*
X197468Y615461D01*
X196200Y615714D01*
D02*
G37*
G36*
X505200Y629914D02*
X503932Y629661D01*
X502857Y628943D01*
X502139Y627868D01*
X501886Y626600D01*
X502139Y625332D01*
X502498Y624794D01*
X501896Y623895D01*
X501800Y623914D01*
X500650Y623685D01*
X500340Y623967D01*
X500005Y624498D01*
X500561Y625332D01*
X500814Y626600D01*
X500561Y627868D01*
X499843Y628943D01*
X498768Y629661D01*
X497500Y629914D01*
X496232Y629661D01*
X495157Y628943D01*
X494439Y627868D01*
X494310Y627221D01*
X493290D01*
X493161Y627868D01*
X492443Y628943D01*
X491368Y629661D01*
X490100Y629914D01*
X488832Y629661D01*
X487757Y628943D01*
X487039Y627868D01*
X486786Y626600D01*
X487039Y625332D01*
X487757Y624257D01*
X488832Y623539D01*
X490100Y623286D01*
X491368Y623539D01*
X492443Y624257D01*
X493161Y625332D01*
X493290Y625979D01*
X494310D01*
X494439Y625332D01*
X494740Y624881D01*
X494279Y623770D01*
X493732Y623661D01*
X492657Y622943D01*
X491939Y621868D01*
X491686Y620600D01*
X491939Y619332D01*
X492657Y618257D01*
X493732Y617539D01*
X495000Y617286D01*
X496268Y617539D01*
X497343Y618257D01*
X497844Y619007D01*
X497898Y619026D01*
X498902D01*
X498956Y619007D01*
X499457Y618257D01*
X500532Y617539D01*
X501800Y617286D01*
X503068Y617539D01*
X504143Y618257D01*
X504861Y619332D01*
X505114Y620600D01*
X504861Y621868D01*
X504502Y622406D01*
X505104Y623306D01*
X505200Y623286D01*
X506468Y623539D01*
X507543Y624257D01*
X508261Y625332D01*
X508514Y626600D01*
X508261Y627868D01*
X507543Y628943D01*
X506468Y629661D01*
X505200Y629914D01*
D02*
G37*
G36*
X447700Y625214D02*
X446432Y624961D01*
X445357Y624243D01*
X444639Y623168D01*
X444386Y621900D01*
X444450Y621582D01*
X444326Y621470D01*
X443529Y621086D01*
X442668Y621661D01*
X441400Y621914D01*
X440132Y621661D01*
X439057Y620943D01*
X438339Y619868D01*
X438086Y618600D01*
X438339Y617332D01*
X439057Y616257D01*
X440132Y615539D01*
X441400Y615286D01*
X442668Y615539D01*
X443743Y616257D01*
X444461Y617332D01*
X444714Y618600D01*
X444650Y618918D01*
X444774Y619030D01*
X445571Y619414D01*
X446432Y618839D01*
X447700Y618586D01*
X448968Y618839D01*
X450043Y619557D01*
X450761Y620632D01*
X451014Y621900D01*
X450761Y623168D01*
X450043Y624243D01*
X448968Y624961D01*
X447700Y625214D01*
D02*
G37*
G36*
X187200Y615614D02*
X185932Y615361D01*
X184857Y614643D01*
X184139Y613568D01*
X183886Y612300D01*
X184139Y611032D01*
X184857Y609957D01*
X185932Y609239D01*
X187200Y608986D01*
X188468Y609239D01*
X189543Y609957D01*
X190261Y611032D01*
X190514Y612300D01*
X190261Y613568D01*
X189543Y614643D01*
X188468Y615361D01*
X187200Y615614D01*
D02*
G37*
G36*
X232900Y610914D02*
X231632Y610661D01*
X230557Y609943D01*
X229839Y608868D01*
X229586Y607600D01*
X229839Y606332D01*
X230557Y605257D01*
X231632Y604539D01*
X232900Y604286D01*
X234168Y604539D01*
X235243Y605257D01*
X235961Y606332D01*
X236214Y607600D01*
X235961Y608868D01*
X235243Y609943D01*
X234168Y610661D01*
X232900Y610914D01*
D02*
G37*
G36*
X224000Y606614D02*
X222732Y606361D01*
X221657Y605643D01*
X220939Y604568D01*
X220686Y603300D01*
X220939Y602032D01*
X221657Y600957D01*
X222732Y600239D01*
X224000Y599986D01*
X225268Y600239D01*
X226343Y600957D01*
X227061Y602032D01*
X227314Y603300D01*
X227061Y604568D01*
X226343Y605643D01*
X225268Y606361D01*
X224000Y606614D01*
D02*
G37*
G36*
X430800Y612914D02*
X429532Y612661D01*
X428457Y611943D01*
X427739Y610868D01*
X427486Y609600D01*
X427580Y609131D01*
X426728Y608289D01*
X426100Y608414D01*
X424832Y608161D01*
X424322Y607820D01*
X424160Y607897D01*
X423511Y608481D01*
X423714Y609500D01*
X423461Y610768D01*
X422743Y611843D01*
X421668Y612561D01*
X420400Y612814D01*
X419132Y612561D01*
X418057Y611843D01*
X417339Y610768D01*
X417086Y609500D01*
X417339Y608232D01*
X418057Y607157D01*
X419132Y606439D01*
X420400Y606186D01*
X421668Y606439D01*
X422178Y606780D01*
X422340Y606702D01*
X422989Y606118D01*
X422786Y605100D01*
X423039Y603832D01*
X423757Y602757D01*
X424832Y602039D01*
X426100Y601786D01*
X427368Y602039D01*
X428443Y602757D01*
X429161Y603832D01*
X429414Y605100D01*
X429320Y605569D01*
X430172Y606411D01*
X430800Y606286D01*
X432068Y606539D01*
X433143Y607257D01*
X433861Y608332D01*
X434114Y609600D01*
X433861Y610868D01*
X433143Y611943D01*
X432068Y612661D01*
X430800Y612914D01*
D02*
G37*
G36*
X442400Y610914D02*
X441132Y610661D01*
X440057Y609943D01*
X439339Y608868D01*
X439086Y607600D01*
X439339Y606332D01*
X440057Y605257D01*
X441132Y604539D01*
X442400Y604286D01*
X443668Y604539D01*
X444743Y605257D01*
X445461Y606332D01*
X445714Y607600D01*
X445461Y608868D01*
X444743Y609943D01*
X443668Y610661D01*
X442400Y610914D01*
D02*
G37*
G36*
X406650Y664700D02*
X398200D01*
Y656250D01*
X399680Y656444D01*
X401991Y657402D01*
X403975Y658924D01*
X405498Y660909D01*
X406455Y663220D01*
X406650Y664700D01*
D02*
G37*
G36*
X396200D02*
X387750D01*
X387944Y663220D01*
X388902Y660909D01*
X390424Y658924D01*
X392409Y657402D01*
X394720Y656444D01*
X396200Y656250D01*
Y664700D01*
D02*
G37*
G36*
X398200Y675150D02*
Y666700D01*
X406650D01*
X406455Y668180D01*
X405498Y670491D01*
X403975Y672475D01*
X401991Y673998D01*
X399680Y674955D01*
X398200Y675150D01*
D02*
G37*
G36*
X396200D02*
X394720Y674955D01*
X392409Y673998D01*
X390424Y672475D01*
X388902Y670491D01*
X387944Y668180D01*
X387750Y666700D01*
X396200D01*
Y675150D01*
D02*
G37*
G36*
X178770Y661904D02*
X177502Y661651D01*
X176427Y660933D01*
X175709Y659858D01*
X175456Y658590D01*
X175709Y657322D01*
X176427Y656247D01*
X177502Y655529D01*
X178770Y655276D01*
X180038Y655529D01*
X181113Y656247D01*
X181831Y657322D01*
X182084Y658590D01*
X181831Y659858D01*
X181113Y660933D01*
X180038Y661651D01*
X178770Y661904D01*
D02*
G37*
G36*
X174000Y635014D02*
X172732Y634761D01*
X171657Y634043D01*
X170939Y632968D01*
X170686Y631700D01*
X170939Y630432D01*
X171657Y629357D01*
X172732Y628639D01*
X174000Y628386D01*
X175268Y628639D01*
X176343Y629357D01*
X177061Y630432D01*
X177314Y631700D01*
X177061Y632968D01*
X176343Y634043D01*
X175268Y634761D01*
X174000Y635014D01*
D02*
G37*
G36*
X313700Y630614D02*
X312432Y630361D01*
X311357Y629643D01*
X310639Y628568D01*
X310386Y627300D01*
X310639Y626032D01*
X311357Y624957D01*
X312432Y624239D01*
X313700Y623986D01*
X314968Y624239D01*
X316043Y624957D01*
X316761Y626032D01*
X317014Y627300D01*
X316761Y628568D01*
X316043Y629643D01*
X314968Y630361D01*
X313700Y630614D01*
D02*
G37*
G36*
X232900Y639413D02*
X231632Y639161D01*
X230557Y638443D01*
X229839Y637368D01*
X229587Y636100D01*
X229839Y634832D01*
X230557Y633757D01*
X231632Y633038D01*
X232900Y632786D01*
X234168Y633038D01*
X235243Y633757D01*
X235962Y634832D01*
X236214Y636100D01*
X235962Y637368D01*
X235243Y638443D01*
X234168Y639161D01*
X232900Y639413D01*
D02*
G37*
G36*
X405950Y649050D02*
X388450D01*
Y631550D01*
X405950D01*
Y649050D01*
D02*
G37*
G36*
X439600Y564414D02*
X438332Y564161D01*
X437257Y563443D01*
X436539Y562368D01*
X436286Y561100D01*
X436539Y559832D01*
X437257Y558757D01*
X438332Y558039D01*
X439600Y557786D01*
X440868Y558039D01*
X441943Y558757D01*
X442661Y559832D01*
X442914Y561100D01*
X442661Y562368D01*
X441943Y563443D01*
X440868Y564161D01*
X439600Y564414D01*
D02*
G37*
G36*
X292300Y560114D02*
X291032Y559861D01*
X289957Y559143D01*
X289239Y558068D01*
X288986Y556800D01*
X289239Y555532D01*
X289957Y554457D01*
X291032Y553739D01*
X292300Y553486D01*
X293568Y553739D01*
X294643Y554457D01*
X295361Y555532D01*
X295614Y556800D01*
X295361Y558068D01*
X294643Y559143D01*
X293568Y559861D01*
X292300Y560114D01*
D02*
G37*
G36*
X269500Y571914D02*
X268232Y571661D01*
X267157Y570943D01*
X266439Y569868D01*
X266186Y568600D01*
X266439Y567332D01*
X267157Y566257D01*
X268232Y565539D01*
X269500Y565286D01*
X270768Y565539D01*
X271843Y566257D01*
X272561Y567332D01*
X272814Y568600D01*
X272561Y569868D01*
X271843Y570943D01*
X270768Y571661D01*
X269500Y571914D01*
D02*
G37*
G36*
X431000Y564514D02*
X429732Y564261D01*
X428657Y563543D01*
X427939Y562468D01*
X427686Y561200D01*
X427939Y559932D01*
X428657Y558857D01*
X429732Y558139D01*
X431000Y557886D01*
X432268Y558139D01*
X433343Y558857D01*
X434061Y559932D01*
X434314Y561200D01*
X434061Y562468D01*
X433343Y563543D01*
X432268Y564261D01*
X431000Y564514D01*
D02*
G37*
G36*
X264300Y557214D02*
X263032Y556961D01*
X261957Y556243D01*
X261239Y555168D01*
X260986Y553900D01*
X261239Y552632D01*
X261957Y551557D01*
X263032Y550839D01*
X264300Y550586D01*
X265568Y550839D01*
X266643Y551557D01*
X267361Y552632D01*
X267614Y553900D01*
X267361Y555168D01*
X266643Y556243D01*
X265568Y556961D01*
X264300Y557214D01*
D02*
G37*
G36*
X430600Y555014D02*
X429332Y554761D01*
X428257Y554043D01*
X427539Y552968D01*
X427286Y551700D01*
X427539Y550432D01*
X428257Y549357D01*
X429332Y548639D01*
X430600Y548386D01*
X431868Y548639D01*
X432943Y549357D01*
X433661Y550432D01*
X433914Y551700D01*
X433661Y552968D01*
X432943Y554043D01*
X431868Y554761D01*
X430600Y555014D01*
D02*
G37*
G36*
X333900Y538614D02*
X332632Y538361D01*
X331557Y537643D01*
X330839Y536568D01*
X330586Y535300D01*
X330839Y534032D01*
X331557Y532957D01*
X332632Y532239D01*
X333900Y531986D01*
X335168Y532239D01*
X336243Y532957D01*
X336961Y534032D01*
X337214Y535300D01*
X336961Y536568D01*
X336243Y537643D01*
X335168Y538361D01*
X333900Y538614D01*
D02*
G37*
G36*
X420100Y555214D02*
X418832Y554961D01*
X417757Y554243D01*
X417039Y553168D01*
X416786Y551900D01*
X417039Y550632D01*
X417241Y550329D01*
X417224Y550291D01*
X416580Y549519D01*
X415600Y549714D01*
X414332Y549461D01*
X413257Y548743D01*
X412539Y547668D01*
X412286Y546400D01*
X412539Y545132D01*
X413257Y544057D01*
X414332Y543339D01*
X415600Y543086D01*
X416868Y543339D01*
X417943Y544057D01*
X418661Y545132D01*
X418914Y546400D01*
X418661Y547668D01*
X418459Y547971D01*
X418476Y548009D01*
X419120Y548781D01*
X420100Y548586D01*
X420888Y548743D01*
X421489Y547843D01*
X421239Y547468D01*
X420986Y546200D01*
X421239Y544932D01*
X421957Y543857D01*
X423032Y543139D01*
X424300Y542886D01*
X425568Y543139D01*
X426643Y543857D01*
X427361Y544932D01*
X427614Y546200D01*
X427361Y547468D01*
X426643Y548543D01*
X425568Y549261D01*
X424300Y549514D01*
X423512Y549357D01*
X422911Y550257D01*
X423161Y550632D01*
X423414Y551900D01*
X423161Y553168D01*
X422443Y554243D01*
X421368Y554961D01*
X420100Y555214D01*
D02*
G37*
G36*
X409400Y555414D02*
X408132Y555161D01*
X407057Y554443D01*
X406339Y553368D01*
X406086Y552100D01*
X406339Y550832D01*
X407057Y549757D01*
X408132Y549039D01*
X409400Y548786D01*
X410668Y549039D01*
X411743Y549757D01*
X412461Y550832D01*
X412714Y552100D01*
X412461Y553368D01*
X411743Y554443D01*
X410668Y555161D01*
X409400Y555414D01*
D02*
G37*
G36*
X402600Y599314D02*
X401332Y599061D01*
X400257Y598343D01*
X399539Y597268D01*
X399286Y596000D01*
X399539Y594732D01*
X400257Y593657D01*
X401332Y592939D01*
X402600Y592686D01*
X403868Y592939D01*
X404943Y593657D01*
X405661Y594732D01*
X405914Y596000D01*
X405661Y597268D01*
X404943Y598343D01*
X403868Y599061D01*
X402600Y599314D01*
D02*
G37*
G36*
X349700Y594114D02*
X348432Y593861D01*
X347357Y593143D01*
X346639Y592068D01*
X346386Y590800D01*
X346639Y589532D01*
X347357Y588457D01*
X348432Y587739D01*
X349700Y587486D01*
X350968Y587739D01*
X352043Y588457D01*
X352761Y589532D01*
X353014Y590800D01*
X352761Y592068D01*
X352043Y593143D01*
X350968Y593861D01*
X349700Y594114D01*
D02*
G37*
G36*
X448300Y606114D02*
X447032Y605861D01*
X445957Y605143D01*
X445239Y604068D01*
X444986Y602800D01*
X445239Y601532D01*
X445957Y600457D01*
X447032Y599739D01*
X448300Y599486D01*
X449568Y599739D01*
X450643Y600457D01*
X451361Y601532D01*
X451614Y602800D01*
X451361Y604068D01*
X450643Y605143D01*
X449568Y605861D01*
X448300Y606114D01*
D02*
G37*
G36*
X214900Y602114D02*
X213632Y601861D01*
X212557Y601143D01*
X211839Y600068D01*
X211586Y598800D01*
X211839Y597532D01*
X212557Y596457D01*
X213632Y595739D01*
X214900Y595486D01*
X216168Y595739D01*
X217243Y596457D01*
X217961Y597532D01*
X218214Y598800D01*
X217961Y600068D01*
X217243Y601143D01*
X216168Y601861D01*
X214900Y602114D01*
D02*
G37*
G36*
X289900Y599264D02*
X288632Y599011D01*
X287557Y598293D01*
X286839Y597218D01*
X286586Y595950D01*
X286839Y594682D01*
X287470Y593737D01*
X287567Y593314D01*
Y592886D01*
X287470Y592463D01*
X286839Y591518D01*
X286586Y590250D01*
X286839Y588982D01*
X287557Y587907D01*
X288632Y587189D01*
X289900Y586936D01*
X291168Y587189D01*
X292243Y587907D01*
X292961Y588982D01*
X293214Y590250D01*
X292961Y591518D01*
X292330Y592463D01*
X292233Y592886D01*
Y593314D01*
X292330Y593737D01*
X292961Y594682D01*
X293214Y595950D01*
X292961Y597218D01*
X292243Y598293D01*
X291168Y599011D01*
X289900Y599264D01*
D02*
G37*
G36*
X432200Y583414D02*
X430932Y583161D01*
X429857Y582443D01*
X429139Y581368D01*
X428886Y580100D01*
X429139Y578832D01*
X429857Y577757D01*
X430932Y577039D01*
X432200Y576786D01*
X433468Y577039D01*
X434543Y577757D01*
X435261Y578832D01*
X435514Y580100D01*
X435261Y581368D01*
X434543Y582443D01*
X433468Y583161D01*
X432200Y583414D01*
D02*
G37*
G36*
X435500Y572314D02*
X434232Y572061D01*
X433157Y571343D01*
X432439Y570268D01*
X432186Y569000D01*
X432439Y567732D01*
X433157Y566657D01*
X434232Y565939D01*
X435500Y565686D01*
X436768Y565939D01*
X437843Y566657D01*
X438561Y567732D01*
X438814Y569000D01*
X438561Y570268D01*
X437843Y571343D01*
X436768Y572061D01*
X435500Y572314D01*
D02*
G37*
G36*
X199200Y592414D02*
X197932Y592161D01*
X196857Y591443D01*
X196139Y590368D01*
X195886Y589100D01*
X196139Y587832D01*
X196857Y586757D01*
X197932Y586039D01*
X199200Y585786D01*
X200468Y586039D01*
X201543Y586757D01*
X202261Y587832D01*
X202514Y589100D01*
X202261Y590368D01*
X201543Y591443D01*
X200468Y592161D01*
X199200Y592414D01*
D02*
G37*
G36*
X240800Y586114D02*
X239532Y585861D01*
X238457Y585143D01*
X237739Y584068D01*
X237486Y582800D01*
X237739Y581532D01*
X238457Y580457D01*
X239532Y579739D01*
X240800Y579486D01*
X242068Y579739D01*
X243143Y580457D01*
X243861Y581532D01*
X244114Y582800D01*
X243861Y584068D01*
X243143Y585143D01*
X242068Y585861D01*
X240800Y586114D01*
D02*
G37*
G36*
X273400Y339114D02*
X272132Y338861D01*
X271057Y338143D01*
X270339Y337068D01*
X270086Y335800D01*
X270339Y334532D01*
X271057Y333457D01*
X272132Y332739D01*
X273400Y332486D01*
X274668Y332739D01*
X275743Y333457D01*
X276461Y334532D01*
X276714Y335800D01*
X276461Y337068D01*
X275743Y338143D01*
X274668Y338861D01*
X273400Y339114D01*
D02*
G37*
G36*
X265400Y339114D02*
X264132Y338861D01*
X263057Y338143D01*
X262339Y337068D01*
X262086Y335800D01*
X262339Y334532D01*
X263057Y333457D01*
X264132Y332739D01*
X265400Y332486D01*
X266668Y332739D01*
X267743Y333457D01*
X268461Y334532D01*
X268714Y335800D01*
X268461Y337068D01*
X267743Y338143D01*
X266668Y338861D01*
X265400Y339114D01*
D02*
G37*
G36*
X320400Y339114D02*
X319132Y338861D01*
X318057Y338143D01*
X317339Y337068D01*
X317086Y335800D01*
X317339Y334532D01*
X318057Y333457D01*
X319132Y332739D01*
X320400Y332486D01*
X321668Y332739D01*
X322743Y333457D01*
X323461Y334532D01*
X323714Y335800D01*
X323461Y337068D01*
X322743Y338143D01*
X321668Y338861D01*
X320400Y339114D01*
D02*
G37*
G36*
X312400D02*
X311132Y338861D01*
X310057Y338143D01*
X309339Y337068D01*
X309086Y335800D01*
X309339Y334532D01*
X310057Y333457D01*
X311132Y332739D01*
X312400Y332486D01*
X313668Y332739D01*
X314743Y333457D01*
X315461Y334532D01*
X315714Y335800D01*
X315461Y337068D01*
X314743Y338143D01*
X313668Y338861D01*
X312400Y339114D01*
D02*
G37*
G36*
X257400Y339114D02*
X256132Y338861D01*
X255057Y338143D01*
X254339Y337068D01*
X254086Y335800D01*
X254339Y334532D01*
X255057Y333457D01*
X256132Y332739D01*
X257400Y332486D01*
X258668Y332739D01*
X259743Y333457D01*
X260461Y334532D01*
X260714Y335800D01*
X260461Y337068D01*
X259743Y338143D01*
X258668Y338861D01*
X257400Y339114D01*
D02*
G37*
G36*
X233400D02*
X232132Y338861D01*
X231057Y338143D01*
X230339Y337068D01*
X230086Y335800D01*
X230339Y334532D01*
X231057Y333457D01*
X232132Y332739D01*
X233400Y332486D01*
X234668Y332739D01*
X235743Y333457D01*
X236461Y334532D01*
X236714Y335800D01*
X236461Y337068D01*
X235743Y338143D01*
X234668Y338861D01*
X233400Y339114D01*
D02*
G37*
G36*
X225400D02*
X224132Y338861D01*
X223057Y338143D01*
X222339Y337068D01*
X222086Y335800D01*
X222339Y334532D01*
X223057Y333457D01*
X224132Y332739D01*
X225400Y332486D01*
X226668Y332739D01*
X227743Y333457D01*
X228461Y334532D01*
X228714Y335800D01*
X228461Y337068D01*
X227743Y338143D01*
X226668Y338861D01*
X225400Y339114D01*
D02*
G37*
G36*
X249400D02*
X248132Y338861D01*
X247057Y338143D01*
X246339Y337068D01*
X246086Y335800D01*
X246339Y334532D01*
X247057Y333457D01*
X248132Y332739D01*
X249400Y332486D01*
X250668Y332739D01*
X251743Y333457D01*
X252461Y334532D01*
X252714Y335800D01*
X252461Y337068D01*
X251743Y338143D01*
X250668Y338861D01*
X249400Y339114D01*
D02*
G37*
G36*
X241400D02*
X240132Y338861D01*
X239057Y338143D01*
X238339Y337068D01*
X238086Y335800D01*
X238339Y334532D01*
X239057Y333457D01*
X240132Y332739D01*
X241400Y332486D01*
X242668Y332739D01*
X243743Y333457D01*
X244461Y334532D01*
X244714Y335800D01*
X244461Y337068D01*
X243743Y338143D01*
X242668Y338861D01*
X241400Y339114D01*
D02*
G37*
G36*
X273400Y347114D02*
X272132Y346861D01*
X271057Y346143D01*
X270339Y345068D01*
X270086Y343800D01*
X270339Y342532D01*
X271057Y341457D01*
X272132Y340739D01*
X273400Y340486D01*
X274668Y340739D01*
X275743Y341457D01*
X276461Y342532D01*
X276714Y343800D01*
X276461Y345068D01*
X275743Y346143D01*
X274668Y346861D01*
X273400Y347114D01*
D02*
G37*
G36*
X208300D02*
X207032Y346861D01*
X205957Y346143D01*
X205239Y345068D01*
X204986Y343800D01*
X205239Y342532D01*
X205957Y341457D01*
X207032Y340739D01*
X208300Y340486D01*
X209568Y340739D01*
X210643Y341457D01*
X211361Y342532D01*
X211614Y343800D01*
X211361Y345068D01*
X210643Y346143D01*
X209568Y346861D01*
X208300Y347114D01*
D02*
G37*
G36*
X320400D02*
X319132Y346861D01*
X318057Y346143D01*
X317339Y345068D01*
X317086Y343800D01*
X317339Y342532D01*
X318057Y341457D01*
X319132Y340739D01*
X320400Y340486D01*
X321668Y340739D01*
X322743Y341457D01*
X323461Y342532D01*
X323714Y343800D01*
X323461Y345068D01*
X322743Y346143D01*
X321668Y346861D01*
X320400Y347114D01*
D02*
G37*
G36*
X288400D02*
X287132Y346861D01*
X286057Y346143D01*
X285339Y345068D01*
X285086Y343800D01*
X285339Y342532D01*
X286057Y341457D01*
X287132Y340739D01*
X288400Y340486D01*
X289668Y340739D01*
X290743Y341457D01*
X291461Y342532D01*
X291714Y343800D01*
X291461Y345068D01*
X290743Y346143D01*
X289668Y346861D01*
X288400Y347114D01*
D02*
G37*
G36*
X265400Y347114D02*
X264132Y346861D01*
X263057Y346143D01*
X262339Y345068D01*
X262086Y343800D01*
X262339Y342532D01*
X263057Y341457D01*
X264132Y340739D01*
X265400Y340486D01*
X266668Y340739D01*
X267743Y341457D01*
X268461Y342532D01*
X268714Y343800D01*
X268461Y345068D01*
X267743Y346143D01*
X266668Y346861D01*
X265400Y347114D01*
D02*
G37*
G36*
X233400D02*
X232132Y346861D01*
X231057Y346143D01*
X230339Y345068D01*
X230086Y343800D01*
X230339Y342532D01*
X231057Y341457D01*
X232132Y340739D01*
X233400Y340486D01*
X234668Y340739D01*
X235743Y341457D01*
X236461Y342532D01*
X236714Y343800D01*
X236461Y345068D01*
X235743Y346143D01*
X234668Y346861D01*
X233400Y347114D01*
D02*
G37*
G36*
X508500Y354932D02*
X506020Y354605D01*
X503709Y353648D01*
X501725Y352125D01*
X500202Y350141D01*
X499244Y347830D01*
X498918Y345350D01*
X499244Y342870D01*
X500202Y340559D01*
X501725Y338574D01*
X503709Y337052D01*
X506020Y336094D01*
X508500Y335768D01*
X510980Y336094D01*
X513291Y337052D01*
X515275Y338574D01*
X516798Y340559D01*
X517755Y342870D01*
X518082Y345350D01*
X517755Y347830D01*
X516798Y350141D01*
X515275Y352125D01*
X513291Y353648D01*
X510980Y354605D01*
X508500Y354932D01*
D02*
G37*
G36*
X257400Y347114D02*
X256132Y346861D01*
X255057Y346143D01*
X254339Y345068D01*
X254086Y343800D01*
X254339Y342532D01*
X255057Y341457D01*
X256132Y340739D01*
X257400Y340486D01*
X258668Y340739D01*
X259743Y341457D01*
X260461Y342532D01*
X260714Y343800D01*
X260461Y345068D01*
X259743Y346143D01*
X258668Y346861D01*
X257400Y347114D01*
D02*
G37*
G36*
X249400D02*
X248132Y346861D01*
X247057Y346143D01*
X246339Y345068D01*
X246086Y343800D01*
X246339Y342532D01*
X247057Y341457D01*
X248132Y340739D01*
X249400Y340486D01*
X250668Y340739D01*
X251743Y341457D01*
X252461Y342532D01*
X252714Y343800D01*
X252461Y345068D01*
X251743Y346143D01*
X250668Y346861D01*
X249400Y347114D01*
D02*
G37*
G36*
X296400Y323114D02*
X295132Y322861D01*
X294057Y322143D01*
X293339Y321068D01*
X293086Y319800D01*
X293339Y318532D01*
X294057Y317457D01*
X295132Y316739D01*
X296400Y316486D01*
X297668Y316739D01*
X298743Y317457D01*
X299461Y318532D01*
X299714Y319800D01*
X299461Y321068D01*
X298743Y322143D01*
X297668Y322861D01*
X296400Y323114D01*
D02*
G37*
G36*
X273400D02*
X272132Y322861D01*
X271057Y322143D01*
X270339Y321068D01*
X270086Y319800D01*
X270339Y318532D01*
X271057Y317457D01*
X272132Y316739D01*
X273400Y316486D01*
X274668Y316739D01*
X275743Y317457D01*
X276461Y318532D01*
X276714Y319800D01*
X276461Y321068D01*
X275743Y322143D01*
X274668Y322861D01*
X273400Y323114D01*
D02*
G37*
G36*
X369800Y319614D02*
X368532Y319361D01*
X367457Y318643D01*
X366739Y317568D01*
X366710Y317423D01*
X365690D01*
X365661Y317568D01*
X364943Y318643D01*
X363868Y319361D01*
X362600Y319614D01*
X361332Y319361D01*
X360257Y318643D01*
X360001Y318261D01*
X358799D01*
X358543Y318643D01*
X357468Y319361D01*
X356200Y319614D01*
X354932Y319361D01*
X353857Y318643D01*
X353356Y317893D01*
X353302Y317873D01*
X352298D01*
X352244Y317893D01*
X351743Y318643D01*
X350668Y319361D01*
X349400Y319614D01*
X348132Y319361D01*
X347057Y318643D01*
X346339Y317568D01*
X346086Y316300D01*
X346339Y315032D01*
X347057Y313957D01*
X348132Y313239D01*
X349400Y312986D01*
X350668Y313239D01*
X351743Y313957D01*
X352244Y314707D01*
X352298Y314727D01*
X353302D01*
X353356Y314707D01*
X353857Y313957D01*
X354932Y313239D01*
X356200Y312986D01*
X357468Y313239D01*
X358543Y313957D01*
X358799Y314339D01*
X360001D01*
X360257Y313957D01*
X361332Y313239D01*
X362600Y312986D01*
X363868Y313239D01*
X364943Y313957D01*
X365661Y315032D01*
X365690Y315177D01*
X366710D01*
X366739Y315032D01*
X367457Y313957D01*
X368532Y313239D01*
X369800Y312986D01*
X371068Y313239D01*
X372143Y313957D01*
X372861Y315032D01*
X373114Y316300D01*
X372861Y317568D01*
X372143Y318643D01*
X371068Y319361D01*
X369800Y319614D01*
D02*
G37*
G36*
X304400Y323114D02*
X303132Y322861D01*
X302057Y322143D01*
X301339Y321068D01*
X301086Y319800D01*
X301339Y318532D01*
X302057Y317457D01*
X303132Y316739D01*
X304400Y316486D01*
X305668Y316739D01*
X306743Y317457D01*
X307461Y318532D01*
X307714Y319800D01*
X307461Y321068D01*
X306743Y322143D01*
X305668Y322861D01*
X304400Y323114D01*
D02*
G37*
G36*
X233400D02*
X232132Y322861D01*
X231057Y322143D01*
X230339Y321068D01*
X230086Y319800D01*
X230339Y318532D01*
X231057Y317457D01*
X232132Y316739D01*
X233400Y316486D01*
X234668Y316739D01*
X235743Y317457D01*
X236461Y318532D01*
X236714Y319800D01*
X236461Y321068D01*
X235743Y322143D01*
X234668Y322861D01*
X233400Y323114D01*
D02*
G37*
G36*
X257400Y323114D02*
X256132Y322861D01*
X255057Y322143D01*
X254339Y321068D01*
X254086Y319800D01*
X254339Y318532D01*
X255057Y317457D01*
X256132Y316739D01*
X257400Y316486D01*
X258668Y316739D01*
X259743Y317457D01*
X260461Y318532D01*
X260714Y319800D01*
X260461Y321068D01*
X259743Y322143D01*
X258668Y322861D01*
X257400Y323114D01*
D02*
G37*
G36*
X241400D02*
X240132Y322861D01*
X239057Y322143D01*
X238339Y321068D01*
X238086Y319800D01*
X238339Y318532D01*
X239057Y317457D01*
X240132Y316739D01*
X241400Y316486D01*
X242668Y316739D01*
X243743Y317457D01*
X244461Y318532D01*
X244714Y319800D01*
X244461Y321068D01*
X243743Y322143D01*
X242668Y322861D01*
X241400Y323114D01*
D02*
G37*
G36*
X225400Y323114D02*
X224132Y322861D01*
X223057Y322143D01*
X222339Y321068D01*
X222086Y319800D01*
X222339Y318532D01*
X223057Y317457D01*
X224132Y316739D01*
X225400Y316486D01*
X226668Y316739D01*
X227743Y317457D01*
X228461Y318532D01*
X228714Y319800D01*
X228461Y321068D01*
X227743Y322143D01*
X226668Y322861D01*
X225400Y323114D01*
D02*
G37*
G36*
X265400Y323114D02*
X264132Y322861D01*
X263057Y322143D01*
X262339Y321068D01*
X262086Y319800D01*
X262339Y318532D01*
X263057Y317457D01*
X264132Y316739D01*
X265400Y316486D01*
X266668Y316739D01*
X267743Y317457D01*
X268461Y318532D01*
X268714Y319800D01*
X268461Y321068D01*
X267743Y322143D01*
X266668Y322861D01*
X265400Y323114D01*
D02*
G37*
G36*
X288400Y331114D02*
X287132Y330861D01*
X286057Y330143D01*
X285339Y329068D01*
X285086Y327800D01*
X285339Y326532D01*
X286057Y325457D01*
X287132Y324739D01*
X288400Y324486D01*
X289668Y324739D01*
X290743Y325457D01*
X291461Y326532D01*
X291714Y327800D01*
X291461Y329068D01*
X290743Y330143D01*
X289668Y330861D01*
X288400Y331114D01*
D02*
G37*
G36*
X225400D02*
X224132Y330861D01*
X223057Y330143D01*
X222339Y329068D01*
X222086Y327800D01*
X222339Y326532D01*
X223057Y325457D01*
X224132Y324739D01*
X225400Y324486D01*
X226668Y324739D01*
X227743Y325457D01*
X228461Y326532D01*
X228714Y327800D01*
X228461Y329068D01*
X227743Y330143D01*
X226668Y330861D01*
X225400Y331114D01*
D02*
G37*
G36*
X320400D02*
X319132Y330861D01*
X318057Y330143D01*
X317339Y329068D01*
X317086Y327800D01*
X317339Y326532D01*
X318057Y325457D01*
X319132Y324739D01*
X320400Y324486D01*
X321668Y324739D01*
X322743Y325457D01*
X323461Y326532D01*
X323714Y327800D01*
X323461Y329068D01*
X322743Y330143D01*
X321668Y330861D01*
X320400Y331114D01*
D02*
G37*
G36*
X304400D02*
X303132Y330861D01*
X302057Y330143D01*
X301339Y329068D01*
X301086Y327800D01*
X301339Y326532D01*
X302057Y325457D01*
X303132Y324739D01*
X304400Y324486D01*
X305668Y324739D01*
X306743Y325457D01*
X307461Y326532D01*
X307714Y327800D01*
X307461Y329068D01*
X306743Y330143D01*
X305668Y330861D01*
X304400Y331114D01*
D02*
G37*
G36*
X265400Y331114D02*
X264132Y330861D01*
X263057Y330143D01*
X262339Y329068D01*
X262086Y327800D01*
X262339Y326532D01*
X263057Y325457D01*
X264132Y324739D01*
X265400Y324486D01*
X266668Y324739D01*
X267743Y325457D01*
X268461Y326532D01*
X268714Y327800D01*
X268461Y329068D01*
X267743Y330143D01*
X266668Y330861D01*
X265400Y331114D01*
D02*
G37*
G36*
X233400D02*
X232132Y330861D01*
X231057Y330143D01*
X230339Y329068D01*
X230086Y327800D01*
X230339Y326532D01*
X231057Y325457D01*
X232132Y324739D01*
X233400Y324486D01*
X234668Y324739D01*
X235743Y325457D01*
X236461Y326532D01*
X236714Y327800D01*
X236461Y329068D01*
X235743Y330143D01*
X234668Y330861D01*
X233400Y331114D01*
D02*
G37*
G36*
X25400Y339782D02*
X22920Y339455D01*
X20609Y338498D01*
X18625Y336975D01*
X17102Y334991D01*
X16144Y332680D01*
X15818Y330200D01*
X16144Y327720D01*
X17102Y325409D01*
X18625Y323425D01*
X20609Y321902D01*
X22920Y320945D01*
X25400Y320618D01*
X27880Y320945D01*
X30191Y321902D01*
X32175Y323425D01*
X33698Y325409D01*
X34655Y327720D01*
X34982Y330200D01*
X34655Y332680D01*
X33698Y334991D01*
X32175Y336975D01*
X30191Y338498D01*
X27880Y339455D01*
X25400Y339782D01*
D02*
G37*
G36*
X249400Y331114D02*
X248132Y330861D01*
X247057Y330143D01*
X246339Y329068D01*
X246086Y327800D01*
X246339Y326532D01*
X247057Y325457D01*
X248132Y324739D01*
X249400Y324486D01*
X250668Y324739D01*
X251743Y325457D01*
X252461Y326532D01*
X252714Y327800D01*
X252461Y329068D01*
X251743Y330143D01*
X250668Y330861D01*
X249400Y331114D01*
D02*
G37*
G36*
X241400D02*
X240132Y330861D01*
X239057Y330143D01*
X238339Y329068D01*
X238086Y327800D01*
X238339Y326532D01*
X239057Y325457D01*
X240132Y324739D01*
X241400Y324486D01*
X242668Y324739D01*
X243743Y325457D01*
X244461Y326532D01*
X244714Y327800D01*
X244461Y329068D01*
X243743Y330143D01*
X242668Y330861D01*
X241400Y331114D01*
D02*
G37*
G36*
X431100Y403714D02*
X429832Y403461D01*
X428757Y402743D01*
X428039Y401668D01*
X427786Y400400D01*
X428039Y399132D01*
X428757Y398057D01*
X429832Y397339D01*
X431100Y397086D01*
X432368Y397339D01*
X433443Y398057D01*
X434161Y399132D01*
X434414Y400400D01*
X434161Y401668D01*
X433443Y402743D01*
X432368Y403461D01*
X431100Y403714D01*
D02*
G37*
G36*
X34900Y415900D02*
X15900D01*
Y396900D01*
X34900D01*
Y415900D01*
D02*
G37*
G36*
X258600Y404114D02*
X257332Y403861D01*
X256257Y403143D01*
X255539Y402068D01*
X255286Y400800D01*
X255539Y399532D01*
X256257Y398457D01*
X257332Y397739D01*
X258600Y397486D01*
X259868Y397739D01*
X260943Y398457D01*
X261661Y399532D01*
X261914Y400800D01*
X261661Y402068D01*
X260943Y403143D01*
X259868Y403861D01*
X258600Y404114D01*
D02*
G37*
G36*
X272000Y404014D02*
X270732Y403761D01*
X269657Y403043D01*
X268939Y401968D01*
X268686Y400700D01*
X268939Y399432D01*
X269657Y398357D01*
X270732Y397639D01*
X272000Y397386D01*
X273268Y397639D01*
X274343Y398357D01*
X275061Y399432D01*
X275314Y400700D01*
X275061Y401968D01*
X274343Y403043D01*
X273268Y403761D01*
X272000Y404014D01*
D02*
G37*
G36*
X508500Y405732D02*
X506020Y405405D01*
X503709Y404448D01*
X501725Y402925D01*
X500202Y400941D01*
X499244Y398630D01*
X498918Y396150D01*
X499244Y393670D01*
X500202Y391359D01*
X501725Y389374D01*
X503709Y387852D01*
X506020Y386894D01*
X508500Y386568D01*
X510980Y386894D01*
X513291Y387852D01*
X515275Y389374D01*
X516798Y391359D01*
X517755Y393670D01*
X518082Y396150D01*
X517755Y398630D01*
X516798Y400941D01*
X515275Y402925D01*
X513291Y404448D01*
X510980Y405405D01*
X508500Y405732D01*
D02*
G37*
G36*
X438100Y382514D02*
X436832Y382261D01*
X435757Y381543D01*
X435039Y380468D01*
X434786Y379200D01*
X435039Y377932D01*
X435757Y376857D01*
X436832Y376139D01*
X438100Y375886D01*
X439368Y376139D01*
X440443Y376857D01*
X441161Y377932D01*
X441414Y379200D01*
X441161Y380468D01*
X440443Y381543D01*
X439368Y382261D01*
X438100Y382514D01*
D02*
G37*
G36*
X167700Y378414D02*
X166432Y378162D01*
X165357Y377443D01*
X164638Y376368D01*
X164386Y375100D01*
X164638Y373832D01*
X165357Y372757D01*
X166432Y372039D01*
X167700Y371787D01*
X168968Y372039D01*
X170043Y372757D01*
X170761Y373832D01*
X171013Y375100D01*
X170761Y376368D01*
X170043Y377443D01*
X168968Y378162D01*
X167700Y378414D01*
D02*
G37*
G36*
X209700Y390214D02*
X208432Y389961D01*
X207357Y389243D01*
X206639Y388168D01*
X206386Y386900D01*
X206639Y385632D01*
X207357Y384557D01*
X208432Y383839D01*
X209700Y383586D01*
X210968Y383839D01*
X212043Y384557D01*
X212761Y385632D01*
X213014Y386900D01*
X212761Y388168D01*
X212043Y389243D01*
X210968Y389961D01*
X209700Y390214D01*
D02*
G37*
G36*
X99330Y385244D02*
X98062Y384992D01*
X96987Y384273D01*
X96269Y383198D01*
X96017Y381930D01*
X96269Y380662D01*
X96987Y379587D01*
X98062Y378869D01*
X99330Y378617D01*
X100598Y378869D01*
X101673Y379587D01*
X102392Y380662D01*
X102644Y381930D01*
X102392Y383198D01*
X101673Y384273D01*
X100598Y384992D01*
X99330Y385244D01*
D02*
G37*
G36*
X403600Y420714D02*
X402332Y420461D01*
X401257Y419743D01*
X400539Y418668D01*
X400286Y417400D01*
X400539Y416132D01*
X401257Y415057D01*
X402332Y414339D01*
X403600Y414086D01*
X404868Y414339D01*
X405943Y415057D01*
X406661Y416132D01*
X406914Y417400D01*
X406661Y418668D01*
X405943Y419743D01*
X404868Y420461D01*
X403600Y420714D01*
D02*
G37*
G36*
X517950Y420550D02*
X509500D01*
Y412100D01*
X510980Y412294D01*
X513291Y413252D01*
X515275Y414774D01*
X516798Y416759D01*
X517755Y419070D01*
X517950Y420550D01*
D02*
G37*
G36*
X363900Y420814D02*
X362632Y420561D01*
X361557Y419843D01*
X360839Y418768D01*
X360586Y417500D01*
X360839Y416232D01*
X361557Y415157D01*
X362632Y414439D01*
X363900Y414186D01*
X365168Y414439D01*
X366243Y415157D01*
X366961Y416232D01*
X367214Y417500D01*
X366961Y418768D01*
X366243Y419843D01*
X365168Y420561D01*
X363900Y420814D01*
D02*
G37*
G36*
X333400D02*
X332132Y420561D01*
X331057Y419843D01*
X330339Y418768D01*
X330086Y417500D01*
X330339Y416232D01*
X331057Y415157D01*
X332132Y414439D01*
X333400Y414186D01*
X334668Y414439D01*
X335743Y415157D01*
X336461Y416232D01*
X336714Y417500D01*
X336461Y418768D01*
X335743Y419843D01*
X334668Y420561D01*
X333400Y420814D01*
D02*
G37*
G36*
X507500Y420550D02*
X499050D01*
X499244Y419070D01*
X500202Y416759D01*
X501725Y414774D01*
X503709Y413252D01*
X506020Y412294D01*
X507500Y412100D01*
Y420550D01*
D02*
G37*
G36*
X146250Y404864D02*
X144982Y404611D01*
X143907Y403893D01*
X143189Y402818D01*
X142936Y401550D01*
X143189Y400282D01*
X143907Y399207D01*
X144982Y398489D01*
X146250Y398236D01*
X147518Y398489D01*
X148593Y399207D01*
X149311Y400282D01*
X149564Y401550D01*
X149311Y402818D01*
X148593Y403893D01*
X147518Y404611D01*
X146250Y404864D01*
D02*
G37*
G36*
X122750D02*
X121482Y404611D01*
X120407Y403893D01*
X119689Y402818D01*
X119436Y401550D01*
X119689Y400282D01*
X120407Y399207D01*
X121482Y398489D01*
X122750Y398236D01*
X124018Y398489D01*
X125093Y399207D01*
X125811Y400282D01*
X126064Y401550D01*
X125811Y402818D01*
X125093Y403893D01*
X124018Y404611D01*
X122750Y404864D01*
D02*
G37*
G36*
X440700Y413114D02*
X439432Y412861D01*
X438357Y412143D01*
X437639Y411068D01*
X437386Y409800D01*
X437639Y408532D01*
X438357Y407457D01*
X439432Y406739D01*
X440700Y406486D01*
X441968Y406739D01*
X443043Y407457D01*
X443761Y408532D01*
X444014Y409800D01*
X443761Y411068D01*
X443043Y412143D01*
X441968Y412861D01*
X440700Y413114D01*
D02*
G37*
G36*
X378900Y410414D02*
X377632Y410161D01*
X376557Y409443D01*
X375839Y408368D01*
X375586Y407100D01*
X375839Y405832D01*
X376557Y404757D01*
X377632Y404039D01*
X378900Y403786D01*
X380168Y404039D01*
X381243Y404757D01*
X381961Y405832D01*
X382214Y407100D01*
X381961Y408368D01*
X381243Y409443D01*
X380168Y410161D01*
X378900Y410414D01*
D02*
G37*
G36*
X257400Y355114D02*
X256132Y354861D01*
X255057Y354143D01*
X254339Y353068D01*
X254086Y351800D01*
X254339Y350532D01*
X255057Y349457D01*
X256132Y348739D01*
X257400Y348486D01*
X258668Y348739D01*
X259743Y349457D01*
X260461Y350532D01*
X260714Y351800D01*
X260461Y353068D01*
X259743Y354143D01*
X258668Y354861D01*
X257400Y355114D01*
D02*
G37*
G36*
X249400D02*
X248132Y354861D01*
X247057Y354143D01*
X246339Y353068D01*
X246086Y351800D01*
X246339Y350532D01*
X247057Y349457D01*
X248132Y348739D01*
X249400Y348486D01*
X250668Y348739D01*
X251743Y349457D01*
X252461Y350532D01*
X252714Y351800D01*
X252461Y353068D01*
X251743Y354143D01*
X250668Y354861D01*
X249400Y355114D01*
D02*
G37*
G36*
X337400Y359614D02*
X336132Y359361D01*
X335057Y358643D01*
X334339Y357568D01*
X334086Y356300D01*
X334339Y355032D01*
X335057Y353957D01*
X336132Y353239D01*
X337400Y352986D01*
X338668Y353239D01*
X339743Y353957D01*
X340461Y355032D01*
X340714Y356300D01*
X340461Y357568D01*
X339743Y358643D01*
X338668Y359361D01*
X337400Y359614D01*
D02*
G37*
G36*
X312400Y355114D02*
X311132Y354861D01*
X310057Y354143D01*
X309339Y353068D01*
X309086Y351800D01*
X309339Y350532D01*
X310057Y349457D01*
X311132Y348739D01*
X312400Y348486D01*
X313668Y348739D01*
X314743Y349457D01*
X315461Y350532D01*
X315714Y351800D01*
X315461Y353068D01*
X314743Y354143D01*
X313668Y354861D01*
X312400Y355114D01*
D02*
G37*
G36*
X241400Y355114D02*
X240132Y354861D01*
X239057Y354143D01*
X238339Y353068D01*
X238086Y351800D01*
X238339Y350532D01*
X239057Y349457D01*
X240132Y348739D01*
X241400Y348486D01*
X242668Y348739D01*
X243743Y349457D01*
X244461Y350532D01*
X244714Y351800D01*
X244461Y353068D01*
X243743Y354143D01*
X242668Y354861D01*
X241400Y355114D01*
D02*
G37*
G36*
X208400D02*
X207132Y354861D01*
X206057Y354143D01*
X205339Y353068D01*
X205086Y351800D01*
X205339Y350532D01*
X206057Y349457D01*
X207132Y348739D01*
X208400Y348486D01*
X209668Y348739D01*
X210743Y349457D01*
X211461Y350532D01*
X211714Y351800D01*
X211461Y353068D01*
X210743Y354143D01*
X209668Y354861D01*
X208400Y355114D01*
D02*
G37*
G36*
X25400Y365182D02*
X22920Y364855D01*
X20609Y363898D01*
X18625Y362375D01*
X17102Y360391D01*
X16144Y358080D01*
X15818Y355600D01*
X16144Y353120D01*
X17102Y350809D01*
X18625Y348825D01*
X20609Y347302D01*
X22920Y346344D01*
X25400Y346018D01*
X27880Y346344D01*
X30191Y347302D01*
X32175Y348825D01*
X33698Y350809D01*
X34655Y353120D01*
X34982Y355600D01*
X34655Y358080D01*
X33698Y360391D01*
X32175Y362375D01*
X30191Y363898D01*
X27880Y364855D01*
X25400Y365182D01*
D02*
G37*
G36*
X233400Y355114D02*
X232132Y354861D01*
X231057Y354143D01*
X230339Y353068D01*
X230086Y351800D01*
X230339Y350532D01*
X231057Y349457D01*
X232132Y348739D01*
X233400Y348486D01*
X234668Y348739D01*
X235743Y349457D01*
X236461Y350532D01*
X236714Y351800D01*
X236461Y353068D01*
X235743Y354143D01*
X234668Y354861D01*
X233400Y355114D01*
D02*
G37*
G36*
X225400D02*
X224132Y354861D01*
X223057Y354143D01*
X222339Y353068D01*
X222086Y351800D01*
X222339Y350532D01*
X223057Y349457D01*
X224132Y348739D01*
X225400Y348486D01*
X226668Y348739D01*
X227743Y349457D01*
X228461Y350532D01*
X228714Y351800D01*
X228461Y353068D01*
X227743Y354143D01*
X226668Y354861D01*
X225400Y355114D01*
D02*
G37*
G36*
X276900Y372114D02*
X275632Y371861D01*
X274557Y371143D01*
X273839Y370068D01*
X273586Y368800D01*
X273839Y367532D01*
X274557Y366457D01*
X275632Y365739D01*
X276900Y365486D01*
X278168Y365739D01*
X279243Y366457D01*
X279961Y367532D01*
X280214Y368800D01*
X279961Y370068D01*
X279243Y371143D01*
X278168Y371861D01*
X276900Y372114D01*
D02*
G37*
G36*
X257400Y371114D02*
X256132Y370861D01*
X255057Y370143D01*
X254339Y369068D01*
X254086Y367800D01*
X254339Y366532D01*
X255057Y365457D01*
X256132Y364739D01*
X257400Y364486D01*
X258668Y364739D01*
X259743Y365457D01*
X260461Y366532D01*
X260714Y367800D01*
X260461Y369068D01*
X259743Y370143D01*
X258668Y370861D01*
X257400Y371114D01*
D02*
G37*
G36*
X25400Y390582D02*
X22920Y390256D01*
X20609Y389298D01*
X18625Y387775D01*
X17102Y385791D01*
X16144Y383480D01*
X15818Y381000D01*
X16144Y378520D01*
X17102Y376209D01*
X18625Y374225D01*
X20609Y372702D01*
X22920Y371744D01*
X25400Y371418D01*
X27880Y371744D01*
X30191Y372702D01*
X32175Y374225D01*
X33698Y376209D01*
X34655Y378520D01*
X34982Y381000D01*
X34655Y383480D01*
X33698Y385791D01*
X32175Y387775D01*
X30191Y389298D01*
X27880Y390256D01*
X25400Y390582D01*
D02*
G37*
G36*
X265000Y382614D02*
X263732Y382361D01*
X262657Y381643D01*
X261939Y380568D01*
X261686Y379300D01*
X261939Y378032D01*
X262657Y376957D01*
X263290Y376534D01*
X263449Y375493D01*
X263396Y375352D01*
X262739Y374368D01*
X262486Y373100D01*
X262739Y371832D01*
X263457Y370757D01*
X264532Y370039D01*
X265800Y369786D01*
X267068Y370039D01*
X268143Y370757D01*
X268861Y371832D01*
X269114Y373100D01*
X268861Y374368D01*
X268143Y375443D01*
X267510Y375866D01*
X267351Y376907D01*
X267404Y377048D01*
X268061Y378032D01*
X268314Y379300D01*
X268061Y380568D01*
X267343Y381643D01*
X266268Y382361D01*
X265000Y382614D01*
D02*
G37*
G36*
X508500Y380332D02*
X506020Y380005D01*
X503709Y379048D01*
X501725Y377525D01*
X500202Y375541D01*
X499244Y373230D01*
X498918Y370750D01*
X499244Y368270D01*
X500202Y365959D01*
X501725Y363974D01*
X503709Y362452D01*
X506020Y361494D01*
X508500Y361168D01*
X510980Y361494D01*
X513291Y362452D01*
X515275Y363974D01*
X516798Y365959D01*
X517755Y368270D01*
X518082Y370750D01*
X517755Y373230D01*
X516798Y375541D01*
X515275Y377525D01*
X513291Y379048D01*
X510980Y380005D01*
X508500Y380332D01*
D02*
G37*
G36*
X438000Y362714D02*
X436732Y362461D01*
X435657Y361743D01*
X434939Y360668D01*
X434686Y359400D01*
X434939Y358132D01*
X435657Y357057D01*
X436732Y356339D01*
X438000Y356086D01*
X439268Y356339D01*
X440343Y357057D01*
X441061Y358132D01*
X441314Y359400D01*
X441061Y360668D01*
X440343Y361743D01*
X439268Y362461D01*
X438000Y362714D01*
D02*
G37*
G36*
X427900Y362614D02*
X426632Y362361D01*
X425557Y361643D01*
X424839Y360568D01*
X424586Y359300D01*
X424839Y358032D01*
X425557Y356957D01*
X426632Y356239D01*
X427900Y355986D01*
X429168Y356239D01*
X430243Y356957D01*
X430961Y358032D01*
X431214Y359300D01*
X430961Y360568D01*
X430243Y361643D01*
X429168Y362361D01*
X427900Y362614D01*
D02*
G37*
G36*
X257400Y363114D02*
X256132Y362861D01*
X255057Y362143D01*
X254339Y361068D01*
X254086Y359800D01*
X254339Y358532D01*
X255057Y357457D01*
X256132Y356739D01*
X257400Y356486D01*
X258668Y356739D01*
X259743Y357457D01*
X260461Y358532D01*
X260714Y359800D01*
X260461Y361068D01*
X259743Y362143D01*
X258668Y362861D01*
X257400Y363114D01*
D02*
G37*
G36*
X249400D02*
X248132Y362861D01*
X247057Y362143D01*
X246339Y361068D01*
X246086Y359800D01*
X246339Y358532D01*
X247057Y357457D01*
X248132Y356739D01*
X249400Y356486D01*
X250668Y356739D01*
X251743Y357457D01*
X252461Y358532D01*
X252714Y359800D01*
X252461Y361068D01*
X251743Y362143D01*
X250668Y362861D01*
X249400Y363114D01*
D02*
G37*
%LPD*%
D55*
X0Y35400D02*
G03*
X10000Y25400I10000J0D01*
G01*
Y685800D02*
G03*
X0Y675800I0J-10000D01*
G01*
X533400D02*
G03*
X523400Y685800I-10000J0D01*
G01*
X0Y35400D02*
Y675800D01*
X10000Y685800D02*
X523400D01*
X533400Y40600D02*
Y675800D01*
X10000Y25400D02*
X25400D01*
X403900D02*
X518200D01*
X378500Y0D02*
X403900Y25400D01*
X50800Y0D02*
X378500D01*
X25400Y25400D02*
X50800Y0D01*
X518200Y25400D02*
X533400Y40600D01*
D64*
X397200Y665700D02*
D03*
X254000Y50300D02*
D03*
X228600Y24900D02*
D03*
Y50300D02*
D03*
X203200Y24900D02*
D03*
Y50300D02*
D03*
X177800Y24900D02*
D03*
Y50300D02*
D03*
X25400Y279400D02*
D03*
Y381000D02*
D03*
Y355600D02*
D03*
Y330200D02*
D03*
Y304800D02*
D03*
Y254000D02*
D03*
Y228600D02*
D03*
X508000Y177800D02*
D03*
Y76200D02*
D03*
Y101600D02*
D03*
Y127000D02*
D03*
Y152400D02*
D03*
Y203200D02*
D03*
Y228600D02*
D03*
X508500Y472350D02*
D03*
Y497750D02*
D03*
Y446950D02*
D03*
Y421550D02*
D03*
Y370750D02*
D03*
Y345350D02*
D03*
Y319950D02*
D03*
Y294550D02*
D03*
Y396150D02*
D03*
X25400Y50800D02*
D03*
Y152400D02*
D03*
Y127000D02*
D03*
Y101600D02*
D03*
Y76200D02*
D03*
D65*
X397200Y640300D02*
D03*
D66*
X254000Y24900D02*
D03*
D67*
X25400Y406400D02*
D03*
X508000Y50800D02*
D03*
X508500Y269150D02*
D03*
X25400Y177800D02*
D03*
D68*
X273100Y296000D02*
D03*
X95600Y480000D02*
D03*
X72300Y423700D02*
D03*
X72300Y444100D02*
D03*
X65800Y444200D02*
D03*
X65200Y491800D02*
D03*
X74200Y491600D02*
D03*
X102350Y469650D02*
D03*
X102300Y445400D02*
D03*
X154300Y457300D02*
D03*
X146500Y457000D02*
D03*
X142800Y450900D02*
D03*
X151400Y451100D02*
D03*
X151100Y463300D02*
D03*
X142900Y463200D02*
D03*
X152050Y530050D02*
D03*
X145550Y529950D02*
D03*
X139050Y529950D02*
D03*
X132550Y530050D02*
D03*
X106250Y503250D02*
D03*
X113350Y496650D02*
D03*
X136750Y516500D02*
D03*
X142550Y512900D02*
D03*
X130700Y512450D02*
D03*
X148400Y516450D02*
D03*
X105600Y513200D02*
D03*
Y519400D02*
D03*
X111700D02*
D03*
X118000D02*
D03*
X130600Y319700D02*
D03*
X167700Y375100D02*
D03*
X146250Y401550D02*
D03*
X122750D02*
D03*
Y371050D02*
D03*
X146250D02*
D03*
X168400Y354000D02*
D03*
X158300Y351700D02*
D03*
X98900Y408550D02*
D03*
X114750Y443050D02*
D03*
X108450Y443050D02*
D03*
X99330Y381930D02*
D03*
X172100Y426400D02*
D03*
X95000Y669700D02*
D03*
X145900Y213800D02*
D03*
X142600Y219100D02*
D03*
X138300Y232300D02*
D03*
X125600Y131900D02*
D03*
Y144700D02*
D03*
X125700Y157300D02*
D03*
X174700Y279950D02*
D03*
Y285650D02*
D03*
X195600Y280300D02*
D03*
X260500Y430900D02*
D03*
X270900D02*
D03*
X327500Y383500D02*
D03*
X347200Y362000D02*
D03*
X198400Y289300D02*
D03*
X280900Y352700D02*
D03*
X264900Y398700D02*
D03*
X128800Y568000D02*
D03*
X200770Y675330D02*
D03*
X243550Y663750D02*
D03*
X214900Y598800D02*
D03*
X224000Y603300D02*
D03*
X232900Y607600D02*
D03*
X174000Y631700D02*
D03*
X199200Y589100D02*
D03*
X196200Y612400D02*
D03*
X187200Y612300D02*
D03*
X256600Y311800D02*
D03*
X240400Y295800D02*
D03*
X264400Y296800D02*
D03*
X273300Y311800D02*
D03*
X215700Y296480D02*
D03*
X217400Y288800D02*
D03*
X233400Y319800D02*
D03*
X225400D02*
D03*
Y327800D02*
D03*
X259500Y465200D02*
D03*
X269200Y473200D02*
D03*
X250400Y452900D02*
D03*
X250000Y460300D02*
D03*
X228400Y481500D02*
D03*
X254600Y482700D02*
D03*
X249500Y477900D02*
D03*
X244400Y487400D02*
D03*
X279500Y485000D02*
D03*
X464350Y626450D02*
D03*
X456800Y616000D02*
D03*
X459400Y631400D02*
D03*
X517000Y637400D02*
D03*
X517100Y648300D02*
D03*
X427800Y648199D02*
D03*
X427700Y637299D02*
D03*
X277800Y648199D02*
D03*
X277700Y637299D02*
D03*
X367100Y648300D02*
D03*
X367000Y637400D02*
D03*
X524500Y675300D02*
D03*
X524200Y661000D02*
D03*
X420300Y675300D02*
D03*
X420000Y661000D02*
D03*
X374500Y675300D02*
D03*
X374200Y661000D02*
D03*
X270000D02*
D03*
X270300Y675300D02*
D03*
X307500Y631100D02*
D03*
X303400Y612100D02*
D03*
X310100Y612000D02*
D03*
X313700Y627300D02*
D03*
X297300Y497200D02*
D03*
X306200Y472600D02*
D03*
X312100D02*
D03*
X319400Y419900D02*
D03*
X330600Y410900D02*
D03*
X339500Y417500D02*
D03*
X333400D02*
D03*
X307600Y501700D02*
D03*
Y495800D02*
D03*
X340100Y535300D02*
D03*
X333900D02*
D03*
X380700Y535200D02*
D03*
X386700D02*
D03*
X431200Y394600D02*
D03*
X431100Y400400D02*
D03*
X378900Y407100D02*
D03*
X380900Y391000D02*
D03*
X369900Y417400D02*
D03*
X363900Y417500D02*
D03*
X430500Y430700D02*
D03*
X460100Y455900D02*
D03*
X446800Y465000D02*
D03*
X452700Y442800D02*
D03*
X459400Y435600D02*
D03*
X440700Y409800D02*
D03*
X425300Y456900D02*
D03*
X435400Y464900D02*
D03*
X409800Y417400D02*
D03*
X403600Y417400D02*
D03*
X436200Y499600D02*
D03*
X440700Y487100D02*
D03*
X425500Y494900D02*
D03*
Y488800D02*
D03*
X420600Y500400D02*
D03*
X425500Y482700D02*
D03*
X305200Y517140D02*
D03*
X299500Y517100D02*
D03*
X264150Y559750D02*
D03*
X264300Y553900D02*
D03*
X135200Y225300D02*
D03*
X129450Y225450D02*
D03*
X121850Y262450D02*
D03*
X121700Y256700D02*
D03*
X78900Y274600D02*
D03*
X78900Y289400D02*
D03*
X94200Y303900D02*
D03*
X94300Y274600D02*
D03*
X111600Y246900D02*
D03*
X68540Y247060D02*
D03*
X49300Y220790D02*
D03*
Y170000D02*
D03*
X98600Y177800D02*
D03*
X101100Y191800D02*
D03*
X101600Y204600D02*
D03*
X101810Y214410D02*
D03*
X280800Y233900D02*
D03*
X168600Y183000D02*
D03*
X188000Y183000D02*
D03*
X168600Y200800D02*
D03*
X188000Y200800D02*
D03*
X188000Y165400D02*
D03*
X168600Y165400D02*
D03*
X168600Y147600D02*
D03*
X188000Y147600D02*
D03*
X240300Y186700D02*
D03*
X240880Y166950D02*
D03*
X240900Y192829D02*
D03*
X209560Y144750D02*
D03*
X285060Y157570D02*
D03*
X279740Y154280D02*
D03*
X280610Y161130D02*
D03*
X260860Y163350D02*
D03*
X219560Y174200D02*
D03*
X220450Y182700D02*
D03*
X215780Y144770D02*
D03*
X220930Y148010D02*
D03*
X268430Y147290D02*
D03*
X304830Y271560D02*
D03*
X256930Y272260D02*
D03*
X264830Y272050D02*
D03*
X296390Y220200D02*
D03*
X287240Y220170D02*
D03*
X293400Y516700D02*
D03*
X337400Y276300D02*
D03*
X313400Y256800D02*
D03*
X320400Y264800D02*
D03*
X321400Y256800D02*
D03*
X224400Y248800D02*
D03*
X273400Y343800D02*
D03*
X316900Y368800D02*
D03*
X337400Y356300D02*
D03*
X236900Y368800D02*
D03*
X300900Y247800D02*
D03*
X232400Y311800D02*
D03*
X260900Y247800D02*
D03*
X273400Y288800D02*
D03*
Y280800D02*
D03*
Y319800D02*
D03*
Y327800D02*
D03*
Y335800D02*
D03*
X225400Y288800D02*
D03*
Y264800D02*
D03*
Y256800D02*
D03*
X233400Y272800D02*
D03*
Y264800D02*
D03*
Y256800D02*
D03*
X241400Y280800D02*
D03*
Y272800D02*
D03*
Y264800D02*
D03*
Y256800D02*
D03*
X248770Y279899D02*
D03*
X249400Y264800D02*
D03*
X257610Y289851D02*
D03*
X257430Y280270D02*
D03*
X257400Y264800D02*
D03*
X265780Y289741D02*
D03*
X265050Y280159D02*
D03*
X265400Y264800D02*
D03*
X249400Y359800D02*
D03*
X265400Y351800D02*
D03*
X257400D02*
D03*
X249400D02*
D03*
X241400D02*
D03*
X225400D02*
D03*
X265400Y343800D02*
D03*
X257400D02*
D03*
X249400D02*
D03*
X233400D02*
D03*
X265400Y335800D02*
D03*
X257400D02*
D03*
X249400D02*
D03*
X241400D02*
D03*
X233400D02*
D03*
X225400D02*
D03*
X265400Y327800D02*
D03*
X257400D02*
D03*
X249400D02*
D03*
X241400D02*
D03*
X233400D02*
D03*
X265400Y319800D02*
D03*
X257400D02*
D03*
X249400D02*
D03*
X241400D02*
D03*
Y311800D02*
D03*
X265000Y311900D02*
D03*
X328400Y343800D02*
D03*
X320400Y327800D02*
D03*
Y335800D02*
D03*
Y343800D02*
D03*
X312400Y335800D02*
D03*
Y351800D02*
D03*
X304400Y319800D02*
D03*
Y327800D02*
D03*
Y335800D02*
D03*
X296400Y319800D02*
D03*
Y327800D02*
D03*
Y359800D02*
D03*
X288400Y319800D02*
D03*
Y327800D02*
D03*
Y343800D02*
D03*
X288400Y304800D02*
D03*
X296400D02*
D03*
X304400D02*
D03*
X312400D02*
D03*
Y296800D02*
D03*
X304400D02*
D03*
X296400D02*
D03*
X304400Y288800D02*
D03*
X296400D02*
D03*
X288400D02*
D03*
X320400Y280800D02*
D03*
X312400D02*
D03*
X304190Y281751D02*
D03*
X295920Y281371D02*
D03*
X288400Y280800D02*
D03*
X296730Y271829D02*
D03*
X288400Y272800D02*
D03*
X312400Y264800D02*
D03*
X288400Y256800D02*
D03*
X337400Y316300D02*
D03*
X276900Y368800D02*
D03*
X315400Y443800D02*
D03*
X417400Y438800D02*
D03*
Y508800D02*
D03*
X363900Y527300D02*
D03*
X321400Y303800D02*
D03*
X257400Y359800D02*
D03*
X347550Y495450D02*
D03*
X385700Y495730D02*
D03*
X346800Y456470D02*
D03*
X366400Y476300D02*
D03*
X385700Y456650D02*
D03*
X393900Y534500D02*
D03*
X420700Y513800D02*
D03*
X398900Y527300D02*
D03*
X403900Y530600D02*
D03*
X245950Y144670D02*
D03*
X240930Y148010D02*
D03*
X255950Y144670D02*
D03*
X250930Y148010D02*
D03*
X260930D02*
D03*
X202110Y161770D02*
D03*
X198770Y166750D02*
D03*
X202110Y171770D02*
D03*
X198770Y176750D02*
D03*
X202110Y181770D02*
D03*
X235290Y165820D02*
D03*
X230530Y161460D02*
D03*
X279669Y199310D02*
D03*
X245900Y187530D02*
D03*
X250870Y190940D02*
D03*
X260840Y211690D02*
D03*
X252900Y222810D02*
D03*
X248935Y232375D02*
D03*
X247200Y226710D02*
D03*
X242110Y205530D02*
D03*
X267300Y219190D02*
D03*
X260970Y240610D02*
D03*
X283260Y204090D02*
D03*
X279160Y213820D02*
D03*
X279690Y185560D02*
D03*
X286090Y181670D02*
D03*
X286230Y193270D02*
D03*
X266170Y186480D02*
D03*
X230890Y205970D02*
D03*
X236390Y211750D02*
D03*
X225325Y211910D02*
D03*
X250880Y205840D02*
D03*
X251560Y215750D02*
D03*
X208340Y205830D02*
D03*
X217620Y213060D02*
D03*
X205700Y235380D02*
D03*
X208080Y214100D02*
D03*
X222400Y191830D02*
D03*
X206890Y222170D02*
D03*
X214940Y186660D02*
D03*
X227260Y174230D02*
D03*
X225980Y179850D02*
D03*
X229850Y188440D02*
D03*
X198470Y186800D02*
D03*
X201410Y191780D02*
D03*
X236590Y224040D02*
D03*
X178770Y658590D02*
D03*
X200770D02*
D03*
X216400Y332300D02*
D03*
X208300Y343800D02*
D03*
X208400Y351800D02*
D03*
X257400Y367800D02*
D03*
X265800Y373100D02*
D03*
X49400Y131900D02*
D03*
Y144600D02*
D03*
Y157300D02*
D03*
Y182700D02*
D03*
Y208100D02*
D03*
X265000Y379300D02*
D03*
X258600Y400800D02*
D03*
X272000Y400700D02*
D03*
X361300Y284300D02*
D03*
X367800Y290800D02*
D03*
X370500Y357100D02*
D03*
X416400Y357700D02*
D03*
X405400Y365100D02*
D03*
X382600Y365000D02*
D03*
X349400Y316300D02*
D03*
X356200D02*
D03*
X362600D02*
D03*
X369800D02*
D03*
X345800Y291500D02*
D03*
X351700D02*
D03*
X359200Y345150D02*
D03*
X349100Y345050D02*
D03*
X385150Y271050D02*
D03*
X402850Y275050D02*
D03*
X391000Y274600D02*
D03*
X396800Y271000D02*
D03*
X364550Y269950D02*
D03*
X370450D02*
D03*
X370400Y263850D02*
D03*
X364450Y263950D02*
D03*
X453050Y281950D02*
D03*
X431450Y270850D02*
D03*
X424850Y264050D02*
D03*
X444700Y240650D02*
D03*
X441100Y234850D02*
D03*
X440650Y246700D02*
D03*
X444650Y229000D02*
D03*
X441400Y271800D02*
D03*
X447600D02*
D03*
Y265700D02*
D03*
Y259400D02*
D03*
X359200Y250200D02*
D03*
X364900Y250300D02*
D03*
X370700D02*
D03*
X376700Y250400D02*
D03*
X375400Y179200D02*
D03*
X369400Y179100D02*
D03*
X363600D02*
D03*
X357900Y179000D02*
D03*
X446300Y188200D02*
D03*
Y194500D02*
D03*
Y200600D02*
D03*
X440100D02*
D03*
X443350Y157800D02*
D03*
X439350Y175500D02*
D03*
X439800Y163650D02*
D03*
X443400Y169450D02*
D03*
X423550Y192850D02*
D03*
X430150Y199950D02*
D03*
X363200Y130200D02*
D03*
X385800D02*
D03*
X386900Y201800D02*
D03*
X364300D02*
D03*
X364400Y218100D02*
D03*
X386950Y218150D02*
D03*
X363250Y146550D02*
D03*
X385900Y146500D02*
D03*
X471900Y472200D02*
D03*
X471800Y483300D02*
D03*
X209700Y386900D02*
D03*
Y420600D02*
D03*
X438000Y359400D02*
D03*
X427900Y359300D02*
D03*
X438100Y379200D02*
D03*
X262000Y519200D02*
D03*
X247800Y533300D02*
D03*
X276100Y532900D02*
D03*
X276300Y505600D02*
D03*
X248500D02*
D03*
X228900Y526800D02*
D03*
X229200Y511700D02*
D03*
X349700Y590800D02*
D03*
X356700Y626800D02*
D03*
X381100Y581000D02*
D03*
X375700Y588000D02*
D03*
X386400Y587800D02*
D03*
Y574100D02*
D03*
X375700D02*
D03*
X423300Y571300D02*
D03*
X402600Y596000D02*
D03*
X409400Y552100D02*
D03*
X415600Y546400D02*
D03*
X420100Y551900D02*
D03*
X430600Y551700D02*
D03*
X424300Y546200D02*
D03*
X431000Y561200D02*
D03*
X439600Y561100D02*
D03*
X435500Y569000D02*
D03*
X420400Y609500D02*
D03*
X430800Y609600D02*
D03*
X426100Y605100D02*
D03*
X432200Y580100D02*
D03*
X269500Y568600D02*
D03*
X448300Y602800D02*
D03*
X442400Y607600D02*
D03*
X448400Y613500D02*
D03*
X441400Y618600D02*
D03*
X447700Y621900D02*
D03*
X490100Y626600D02*
D03*
X497500D02*
D03*
X505200D02*
D03*
X501800Y620600D02*
D03*
X495000D02*
D03*
X503600Y590200D02*
D03*
X240800Y582800D02*
D03*
X321100Y530200D02*
D03*
X327800Y537400D02*
D03*
X286000Y564000D02*
D03*
X294100Y548000D02*
D03*
X292300Y556800D02*
D03*
X169200Y229400D02*
D03*
X183000Y215200D02*
D03*
X99900Y159300D02*
D03*
X99100Y132800D02*
D03*
X485700Y581900D02*
D03*
X474700Y559500D02*
D03*
X462100Y546600D02*
D03*
X459800Y524100D02*
D03*
X460100Y503200D02*
D03*
X460600Y481500D02*
D03*
X442800Y495400D02*
D03*
X443300Y518800D02*
D03*
X443100Y544000D02*
D03*
X450100Y564300D02*
D03*
X468600Y587200D02*
D03*
X274000Y587000D02*
D03*
X367600Y541500D02*
D03*
X336000Y541700D02*
D03*
X287400Y620900D02*
D03*
X157200Y603500D02*
D03*
X172800Y450900D02*
D03*
X211200Y448400D02*
D03*
X211700Y480400D02*
D03*
Y513900D02*
D03*
X176300Y485800D02*
D03*
X176000Y523000D02*
D03*
X227500Y587600D02*
D03*
X166900Y595000D02*
D03*
X470000Y391300D02*
D03*
X473400Y425000D02*
D03*
X448300Y370100D02*
D03*
X469800Y152700D02*
D03*
X176700Y409100D02*
D03*
X169900Y368300D02*
D03*
X111300Y532600D02*
D03*
X187600Y279599D02*
D03*
X289900Y595950D02*
D03*
Y590250D02*
D03*
X233400Y280800D02*
D03*
X249340Y289850D02*
D03*
X241400Y288800D02*
D03*
X232900Y288100D02*
D03*
X247900Y297800D02*
D03*
X232900Y636100D02*
D03*
X233400Y351800D02*
D03*
X241400Y343800D02*
D03*
X153400Y214000D02*
D03*
M02*
